M48
;DRILL file {KiCad (5.0.0-3-g5ebb6b6)} date 2018 November 18, Sunday 00:12:11
;FORMAT={-:-/ absolute / inch / decimal}
FMAT,2
INCH,TZ
T1C0.0118
T2C0.0157
T3C0.0315
T4C0.0394
T5C0.0472
T6C0.0512
T7C0.0551
T8C0.1063
T9C0.1260
%
G90
G05
M72
T1
X7.4526Y-4.4752
X7.4526Y-4.5185
X7.4526Y-4.5696
X7.4526Y-4.6169
X7.4999Y-4.4752
X7.4999Y-4.5185
X7.4999Y-4.5696
X7.4999Y-4.6169
T2
X7.2047Y-4.3307
X7.6142Y-3.7638
X7.6969Y-3.9961
X8.1575Y-3.9724
X8.1299Y-3.8346
X8.0669Y-3.7047
X7.7047Y-5.0315
X7.311Y-5.0827
X8.0669Y-3.7441
X8.185Y-3.7047
X8.1457Y-3.7441
X7.7047Y-5.1181
X7.2756Y-5.1535
X8.1063Y-3.7441
X8.1457Y-3.7047
X7.2598Y-4.7047
X7.6378Y-5.1535
X7.1929Y-5.1535
X8.1063Y-3.6654
X7.189Y-4.815
X8.1457Y-3.6654
X8.0276Y-3.6654
X8.1063Y-3.7047
X8.185Y-3.7441
X7.5551Y-5.1535
X7.5551Y-4.815
X7.6417Y-4.815
X7.1772Y-4.6457
X7.2756Y-4.815
X8.0276Y-3.7441
X8.0276Y-3.7047
X7.9173Y-3.8898
X7.7047Y-4.8661
X8.185Y-3.6654
X7.315Y-4.8898
X7.6772Y-3.937
X8.0827Y-3.8346
X7.7047Y-4.9488
X8.0669Y-3.6654
X7.3622Y-4.6929
X7.315Y-4.9843
T3
X7.2465Y-4.0417
X7.3465Y-3.9417
X7.3465Y-4.1417
X3.7283Y-4.5394
X7.5984Y-2.9173
X7.6693Y-2.622
X6.5551Y-4.0787
X6.8504Y-4.1496
X3.6378Y-4.8346
T4
X4.3661Y-3.0118
X4.3661Y-4.7835
X4.563Y-3.0118
X4.563Y-4.7835
X4.7598Y-3.0118
X4.7598Y-4.7835
X4.9567Y-3.0118
X4.9567Y-4.7835
X5.1535Y-3.0118
X5.1535Y-4.7835
X5.3898Y-3.0118
X5.3898Y-4.7835
X5.5866Y-3.0118
X5.5866Y-4.7835
X5.7835Y-3.0118
X5.7835Y-4.7835
X5.9803Y-3.0118
X5.9803Y-4.7835
X6.1772Y-3.0118
X6.1772Y-4.7835
T5
X3.9843Y-4.4724
X3.9843Y-5.063
X7.2126Y-3.2402
X7.2126Y-3.5354
T6
X6.7008Y-4.3386
X6.7008Y-5.2244
X3.8346Y-3.3583
X3.8346Y-4.2441
X3.8425Y-2.937
X3.8425Y-3.1339
X8.0315Y-4.9606
X8.0315Y-5.1575
X6.5197Y-2.7244
X7.4055Y-2.7244
X8.0315Y-2.6378
X8.0315Y-2.8346
T7
X6.6772Y-3.1717
X6.6772Y-3.3717
X6.6772Y-3.5717
X6.6772Y-3.7717
T8
X6.9626Y-2.7244
X6.7008Y-4.7815
X3.8346Y-3.8012
T9
X3.7008Y-2.6378
X3.7008Y-5.1575
X8.1102Y-4.685
X8.1102Y-3.1102
T0
M30
