G04 #@! TF.GenerationSoftware,KiCad,Pcbnew,(5.0.1-3-g963ef8bb5)*
G04 #@! TF.CreationDate,2018-12-29T16:31:47+01:00*
G04 #@! TF.ProjectId,c64-psu,6336342D7073752E6B696361645F7063,rev?*
G04 #@! TF.SameCoordinates,Original*
G04 #@! TF.FileFunction,Soldermask,Bot*
G04 #@! TF.FilePolarity,Negative*
%FSLAX46Y46*%
G04 Gerber Fmt 4.6, Leading zero omitted, Abs format (unit mm)*
G04 Created by KiCad (PCBNEW (5.0.1-3-g963ef8bb5)) date Saturday, 29 December 2018 at 16:31:47*
%MOMM*%
%LPD*%
G01*
G04 APERTURE LIST*
%ADD10C,0.150000*%
%ADD11C,0.100000*%
G04 APERTURE END LIST*
D10*
X89000000Y-136000000D02*
X89000000Y-62000000D01*
X205000000Y-136000000D02*
X89000000Y-136000000D01*
X205000000Y-62000000D02*
X205000000Y-136000000D01*
X89000000Y-62000000D02*
X205000000Y-62000000D01*
D11*
G36*
X101254844Y-129898810D02*
X101499895Y-129973145D01*
X101725735Y-130093860D01*
X101923687Y-130256313D01*
X102086140Y-130454264D01*
X102206855Y-130680104D01*
X102281190Y-130925155D01*
X102300000Y-131116136D01*
X102300000Y-132043863D01*
X102281190Y-132234845D01*
X102206855Y-132479896D01*
X102086140Y-132705736D01*
X101923687Y-132903687D01*
X101725736Y-133066140D01*
X101499896Y-133186855D01*
X101254845Y-133261190D01*
X101000000Y-133286290D01*
X100745156Y-133261190D01*
X100500105Y-133186855D01*
X100274265Y-133066140D01*
X100076314Y-132903687D01*
X99913860Y-132705736D01*
X99793145Y-132479896D01*
X99718810Y-132234845D01*
X99700000Y-132043864D01*
X99700000Y-131116137D01*
X99718810Y-130925156D01*
X99793145Y-130680105D01*
X99913860Y-130454265D01*
X100076313Y-130256313D01*
X100274264Y-130093860D01*
X100500104Y-129973145D01*
X100745155Y-129898810D01*
X101000000Y-129873710D01*
X101254844Y-129898810D01*
X101254844Y-129898810D01*
G37*
G36*
X94409122Y-129246115D02*
X94525041Y-129269173D01*
X94852620Y-129404861D01*
X94898898Y-129435783D01*
X95147436Y-129601851D01*
X95398149Y-129852564D01*
X95398151Y-129852567D01*
X95595139Y-130147380D01*
X95722255Y-130454264D01*
X95730827Y-130474960D01*
X95800000Y-130822714D01*
X95800000Y-131177286D01*
X95730827Y-131525040D01*
X95595140Y-131852618D01*
X95398149Y-132147436D01*
X95147436Y-132398149D01*
X95147433Y-132398151D01*
X94852620Y-132595139D01*
X94525041Y-132730827D01*
X94409122Y-132753885D01*
X94177286Y-132800000D01*
X93822714Y-132800000D01*
X93590878Y-132753885D01*
X93474959Y-132730827D01*
X93147380Y-132595139D01*
X92852567Y-132398151D01*
X92852564Y-132398149D01*
X92601851Y-132147436D01*
X92404860Y-131852618D01*
X92269173Y-131525040D01*
X92200000Y-131177286D01*
X92200000Y-130822714D01*
X92269173Y-130474960D01*
X92277746Y-130454264D01*
X92404861Y-130147380D01*
X92601849Y-129852567D01*
X92601851Y-129852564D01*
X92852564Y-129601851D01*
X93101102Y-129435783D01*
X93147380Y-129404861D01*
X93474959Y-129269173D01*
X93590878Y-129246115D01*
X93822714Y-129200000D01*
X94177286Y-129200000D01*
X94409122Y-129246115D01*
X94409122Y-129246115D01*
G37*
G36*
X200409122Y-129246115D02*
X200525041Y-129269173D01*
X200852620Y-129404861D01*
X200898898Y-129435783D01*
X201147436Y-129601851D01*
X201398149Y-129852564D01*
X201398151Y-129852567D01*
X201595139Y-130147380D01*
X201722255Y-130454264D01*
X201730827Y-130474960D01*
X201800000Y-130822714D01*
X201800000Y-131177286D01*
X201730827Y-131525040D01*
X201595140Y-131852618D01*
X201398149Y-132147436D01*
X201147436Y-132398149D01*
X201147433Y-132398151D01*
X200852620Y-132595139D01*
X200525041Y-132730827D01*
X200409122Y-132753885D01*
X200177286Y-132800000D01*
X199822714Y-132800000D01*
X199590878Y-132753885D01*
X199474959Y-132730827D01*
X199147380Y-132595139D01*
X198852567Y-132398151D01*
X198852564Y-132398149D01*
X198601851Y-132147436D01*
X198404860Y-131852618D01*
X198269173Y-131525040D01*
X198200000Y-131177286D01*
X198200000Y-130822714D01*
X198269173Y-130474960D01*
X198277746Y-130454264D01*
X198404861Y-130147380D01*
X198601849Y-129852567D01*
X198601851Y-129852564D01*
X198852564Y-129601851D01*
X199101102Y-129435783D01*
X199147380Y-129404861D01*
X199474959Y-129269173D01*
X199590878Y-129246115D01*
X199822714Y-129200000D01*
X200177286Y-129200000D01*
X200409122Y-129246115D01*
X200409122Y-129246115D01*
G37*
G36*
X167268353Y-128115355D02*
X167435784Y-128184707D01*
X167586466Y-128285390D01*
X167714610Y-128413534D01*
X167815293Y-128564216D01*
X167884645Y-128731647D01*
X167920000Y-128909387D01*
X167920000Y-129090613D01*
X167884645Y-129268353D01*
X167815293Y-129435784D01*
X167714610Y-129586466D01*
X167586466Y-129714610D01*
X167435784Y-129815293D01*
X167268353Y-129884645D01*
X167090613Y-129920000D01*
X166909387Y-129920000D01*
X166731647Y-129884645D01*
X166564216Y-129815293D01*
X166413534Y-129714610D01*
X166285390Y-129586466D01*
X166184707Y-129435784D01*
X166115355Y-129268353D01*
X166080000Y-129090613D01*
X166080000Y-128909387D01*
X166115355Y-128731647D01*
X166184707Y-128564216D01*
X166285390Y-128413534D01*
X166413534Y-128285390D01*
X166564216Y-128184707D01*
X166731647Y-128115355D01*
X166909387Y-128080000D01*
X167090613Y-128080000D01*
X167268353Y-128115355D01*
X167268353Y-128115355D01*
G37*
G36*
X101254844Y-124818810D02*
X101499895Y-124893145D01*
X101725735Y-125013860D01*
X101923687Y-125176313D01*
X102086140Y-125374264D01*
X102206855Y-125600104D01*
X102281190Y-125845155D01*
X102300000Y-126036136D01*
X102300000Y-126963863D01*
X102281190Y-127154845D01*
X102206855Y-127399896D01*
X102086140Y-127625736D01*
X101923687Y-127823687D01*
X101725736Y-127986140D01*
X101499896Y-128106855D01*
X101254845Y-128181190D01*
X101000000Y-128206290D01*
X100745156Y-128181190D01*
X100500105Y-128106855D01*
X100274265Y-127986140D01*
X100076314Y-127823687D01*
X99913860Y-127625736D01*
X99793145Y-127399896D01*
X99718810Y-127154845D01*
X99700000Y-126963864D01*
X99700000Y-126036137D01*
X99718810Y-125845156D01*
X99793145Y-125600105D01*
X99913860Y-125374265D01*
X100076313Y-125176313D01*
X100274264Y-125013860D01*
X100500104Y-124893145D01*
X100745155Y-124818810D01*
X101000000Y-124793710D01*
X101254844Y-124818810D01*
X101254844Y-124818810D01*
G37*
G36*
X169808353Y-125575355D02*
X169975784Y-125644707D01*
X170126466Y-125745390D01*
X170254610Y-125873534D01*
X170355293Y-126024216D01*
X170424645Y-126191647D01*
X170460000Y-126369387D01*
X170460000Y-126550613D01*
X170424645Y-126728353D01*
X170355293Y-126895784D01*
X170254610Y-127046466D01*
X170126466Y-127174610D01*
X169975784Y-127275293D01*
X169808353Y-127344645D01*
X169630613Y-127380000D01*
X169449387Y-127380000D01*
X169271647Y-127344645D01*
X169104216Y-127275293D01*
X168953534Y-127174610D01*
X168825390Y-127046466D01*
X168724707Y-126895784D01*
X168655355Y-126728353D01*
X168620000Y-126550613D01*
X168620000Y-126369387D01*
X168655355Y-126191647D01*
X168724707Y-126024216D01*
X168825390Y-125873534D01*
X168953534Y-125745390D01*
X169104216Y-125644707D01*
X169271647Y-125575355D01*
X169449387Y-125540000D01*
X169630613Y-125540000D01*
X169808353Y-125575355D01*
X169808353Y-125575355D01*
G37*
G36*
X200654844Y-121998810D02*
X200899895Y-122073145D01*
X201125735Y-122193860D01*
X201323687Y-122356313D01*
X201486140Y-122554264D01*
X201606855Y-122780104D01*
X201681190Y-123025155D01*
X201700000Y-123216136D01*
X201700000Y-124143863D01*
X201681190Y-124334845D01*
X201606855Y-124579896D01*
X201486140Y-124805736D01*
X201323687Y-125003687D01*
X201125736Y-125166140D01*
X200899896Y-125286855D01*
X200654845Y-125361190D01*
X200400000Y-125386290D01*
X200145156Y-125361190D01*
X199900105Y-125286855D01*
X199674265Y-125166140D01*
X199476314Y-125003687D01*
X199313860Y-124805736D01*
X199193145Y-124579896D01*
X199118810Y-124334845D01*
X199100000Y-124143864D01*
X199100000Y-123216137D01*
X199118810Y-123025156D01*
X199193145Y-122780105D01*
X199313860Y-122554265D01*
X199476313Y-122356313D01*
X199674264Y-122193860D01*
X199900104Y-122073145D01*
X200145155Y-121998810D01*
X200400000Y-121973710D01*
X200654844Y-121998810D01*
X200654844Y-121998810D01*
G37*
G36*
X167268353Y-123035355D02*
X167435784Y-123104707D01*
X167586466Y-123205390D01*
X167714610Y-123333534D01*
X167815293Y-123484216D01*
X167884645Y-123651647D01*
X167920000Y-123829387D01*
X167920000Y-124010613D01*
X167884645Y-124188353D01*
X167815293Y-124355784D01*
X167714610Y-124506466D01*
X167586466Y-124634610D01*
X167435784Y-124735293D01*
X167268353Y-124804645D01*
X167090613Y-124840000D01*
X166909387Y-124840000D01*
X166731647Y-124804645D01*
X166564216Y-124735293D01*
X166413534Y-124634610D01*
X166285390Y-124506466D01*
X166184707Y-124355784D01*
X166115355Y-124188353D01*
X166080000Y-124010613D01*
X166080000Y-123829387D01*
X166115355Y-123651647D01*
X166184707Y-123484216D01*
X166285390Y-123333534D01*
X166413534Y-123205390D01*
X166564216Y-123104707D01*
X166731647Y-123035355D01*
X166909387Y-123000000D01*
X167090613Y-123000000D01*
X167268353Y-123035355D01*
X167268353Y-123035355D01*
G37*
G36*
X157350026Y-120346115D02*
X157568412Y-120436573D01*
X157764958Y-120567901D01*
X157932099Y-120735042D01*
X158063427Y-120931588D01*
X158153885Y-121149974D01*
X158200000Y-121381809D01*
X158200000Y-121618191D01*
X158153885Y-121850026D01*
X158063427Y-122068412D01*
X157932099Y-122264958D01*
X157764958Y-122432099D01*
X157568412Y-122563427D01*
X157350026Y-122653885D01*
X157118191Y-122700000D01*
X156881809Y-122700000D01*
X156649974Y-122653885D01*
X156431588Y-122563427D01*
X156235042Y-122432099D01*
X156067901Y-122264958D01*
X155936573Y-122068412D01*
X155846115Y-121850026D01*
X155800000Y-121618191D01*
X155800000Y-121381809D01*
X155846115Y-121149974D01*
X155936573Y-120931588D01*
X156067901Y-120735042D01*
X156235042Y-120567901D01*
X156431588Y-120436573D01*
X156649974Y-120346115D01*
X156881809Y-120300000D01*
X157118191Y-120300000D01*
X157350026Y-120346115D01*
X157350026Y-120346115D01*
G37*
G36*
X152350026Y-120346115D02*
X152568412Y-120436573D01*
X152764958Y-120567901D01*
X152932099Y-120735042D01*
X153063427Y-120931588D01*
X153153885Y-121149974D01*
X153200000Y-121381809D01*
X153200000Y-121618191D01*
X153153885Y-121850026D01*
X153063427Y-122068412D01*
X152932099Y-122264958D01*
X152764958Y-122432099D01*
X152568412Y-122563427D01*
X152350026Y-122653885D01*
X152118191Y-122700000D01*
X151881809Y-122700000D01*
X151649974Y-122653885D01*
X151431588Y-122563427D01*
X151235042Y-122432099D01*
X151067901Y-122264958D01*
X150936573Y-122068412D01*
X150846115Y-121850026D01*
X150800000Y-121618191D01*
X150800000Y-121381809D01*
X150846115Y-121149974D01*
X150936573Y-120931588D01*
X151067901Y-120735042D01*
X151235042Y-120567901D01*
X151431588Y-120436573D01*
X151649974Y-120346115D01*
X151881809Y-120300000D01*
X152118191Y-120300000D01*
X152350026Y-120346115D01*
X152350026Y-120346115D01*
G37*
G36*
X147350026Y-120346115D02*
X147568412Y-120436573D01*
X147764958Y-120567901D01*
X147932099Y-120735042D01*
X148063427Y-120931588D01*
X148153885Y-121149974D01*
X148200000Y-121381809D01*
X148200000Y-121618191D01*
X148153885Y-121850026D01*
X148063427Y-122068412D01*
X147932099Y-122264958D01*
X147764958Y-122432099D01*
X147568412Y-122563427D01*
X147350026Y-122653885D01*
X147118191Y-122700000D01*
X146881809Y-122700000D01*
X146649974Y-122653885D01*
X146431588Y-122563427D01*
X146235042Y-122432099D01*
X146067901Y-122264958D01*
X145936573Y-122068412D01*
X145846115Y-121850026D01*
X145800000Y-121618191D01*
X145800000Y-121381809D01*
X145846115Y-121149974D01*
X145936573Y-120931588D01*
X146067901Y-120735042D01*
X146235042Y-120567901D01*
X146431588Y-120436573D01*
X146649974Y-120346115D01*
X146881809Y-120300000D01*
X147118191Y-120300000D01*
X147350026Y-120346115D01*
X147350026Y-120346115D01*
G37*
G36*
X142350026Y-120346115D02*
X142568412Y-120436573D01*
X142764958Y-120567901D01*
X142932099Y-120735042D01*
X143063427Y-120931588D01*
X143153885Y-121149974D01*
X143200000Y-121381809D01*
X143200000Y-121618191D01*
X143153885Y-121850026D01*
X143063427Y-122068412D01*
X142932099Y-122264958D01*
X142764958Y-122432099D01*
X142568412Y-122563427D01*
X142350026Y-122653885D01*
X142118191Y-122700000D01*
X141881809Y-122700000D01*
X141649974Y-122653885D01*
X141431588Y-122563427D01*
X141235042Y-122432099D01*
X141067901Y-122264958D01*
X140936573Y-122068412D01*
X140846115Y-121850026D01*
X140800000Y-121618191D01*
X140800000Y-121381809D01*
X140846115Y-121149974D01*
X140936573Y-120931588D01*
X141067901Y-120735042D01*
X141235042Y-120567901D01*
X141431588Y-120436573D01*
X141649974Y-120346115D01*
X141881809Y-120300000D01*
X142118191Y-120300000D01*
X142350026Y-120346115D01*
X142350026Y-120346115D01*
G37*
G36*
X137350026Y-120346115D02*
X137568412Y-120436573D01*
X137764958Y-120567901D01*
X137932099Y-120735042D01*
X138063427Y-120931588D01*
X138153885Y-121149974D01*
X138200000Y-121381809D01*
X138200000Y-121618191D01*
X138153885Y-121850026D01*
X138063427Y-122068412D01*
X137932099Y-122264958D01*
X137764958Y-122432099D01*
X137568412Y-122563427D01*
X137350026Y-122653885D01*
X137118191Y-122700000D01*
X136881809Y-122700000D01*
X136649974Y-122653885D01*
X136431588Y-122563427D01*
X136235042Y-122432099D01*
X136067901Y-122264958D01*
X135936573Y-122068412D01*
X135846115Y-121850026D01*
X135800000Y-121618191D01*
X135800000Y-121381809D01*
X135846115Y-121149974D01*
X135936573Y-120931588D01*
X136067901Y-120735042D01*
X136235042Y-120567901D01*
X136431588Y-120436573D01*
X136649974Y-120346115D01*
X136881809Y-120300000D01*
X137118191Y-120300000D01*
X137350026Y-120346115D01*
X137350026Y-120346115D01*
G37*
G36*
X131350026Y-120346115D02*
X131568412Y-120436573D01*
X131764958Y-120567901D01*
X131932099Y-120735042D01*
X132063427Y-120931588D01*
X132153885Y-121149974D01*
X132200000Y-121381809D01*
X132200000Y-121618191D01*
X132153885Y-121850026D01*
X132063427Y-122068412D01*
X131932099Y-122264958D01*
X131764958Y-122432099D01*
X131568412Y-122563427D01*
X131350026Y-122653885D01*
X131118191Y-122700000D01*
X130881809Y-122700000D01*
X130649974Y-122653885D01*
X130431588Y-122563427D01*
X130235042Y-122432099D01*
X130067901Y-122264958D01*
X129936573Y-122068412D01*
X129846115Y-121850026D01*
X129800000Y-121618191D01*
X129800000Y-121381809D01*
X129846115Y-121149974D01*
X129936573Y-120931588D01*
X130067901Y-120735042D01*
X130235042Y-120567901D01*
X130431588Y-120436573D01*
X130649974Y-120346115D01*
X130881809Y-120300000D01*
X131118191Y-120300000D01*
X131350026Y-120346115D01*
X131350026Y-120346115D01*
G37*
G36*
X126350026Y-120346115D02*
X126568412Y-120436573D01*
X126764958Y-120567901D01*
X126932099Y-120735042D01*
X127063427Y-120931588D01*
X127153885Y-121149974D01*
X127200000Y-121381809D01*
X127200000Y-121618191D01*
X127153885Y-121850026D01*
X127063427Y-122068412D01*
X126932099Y-122264958D01*
X126764958Y-122432099D01*
X126568412Y-122563427D01*
X126350026Y-122653885D01*
X126118191Y-122700000D01*
X125881809Y-122700000D01*
X125649974Y-122653885D01*
X125431588Y-122563427D01*
X125235042Y-122432099D01*
X125067901Y-122264958D01*
X124936573Y-122068412D01*
X124846115Y-121850026D01*
X124800000Y-121618191D01*
X124800000Y-121381809D01*
X124846115Y-121149974D01*
X124936573Y-120931588D01*
X125067901Y-120735042D01*
X125235042Y-120567901D01*
X125431588Y-120436573D01*
X125649974Y-120346115D01*
X125881809Y-120300000D01*
X126118191Y-120300000D01*
X126350026Y-120346115D01*
X126350026Y-120346115D01*
G37*
G36*
X121350026Y-120346115D02*
X121568412Y-120436573D01*
X121764958Y-120567901D01*
X121932099Y-120735042D01*
X122063427Y-120931588D01*
X122153885Y-121149974D01*
X122200000Y-121381809D01*
X122200000Y-121618191D01*
X122153885Y-121850026D01*
X122063427Y-122068412D01*
X121932099Y-122264958D01*
X121764958Y-122432099D01*
X121568412Y-122563427D01*
X121350026Y-122653885D01*
X121118191Y-122700000D01*
X120881809Y-122700000D01*
X120649974Y-122653885D01*
X120431588Y-122563427D01*
X120235042Y-122432099D01*
X120067901Y-122264958D01*
X119936573Y-122068412D01*
X119846115Y-121850026D01*
X119800000Y-121618191D01*
X119800000Y-121381809D01*
X119846115Y-121149974D01*
X119936573Y-120931588D01*
X120067901Y-120735042D01*
X120235042Y-120567901D01*
X120431588Y-120436573D01*
X120649974Y-120346115D01*
X120881809Y-120300000D01*
X121118191Y-120300000D01*
X121350026Y-120346115D01*
X121350026Y-120346115D01*
G37*
G36*
X116350026Y-120346115D02*
X116568412Y-120436573D01*
X116764958Y-120567901D01*
X116932099Y-120735042D01*
X117063427Y-120931588D01*
X117153885Y-121149974D01*
X117200000Y-121381809D01*
X117200000Y-121618191D01*
X117153885Y-121850026D01*
X117063427Y-122068412D01*
X116932099Y-122264958D01*
X116764958Y-122432099D01*
X116568412Y-122563427D01*
X116350026Y-122653885D01*
X116118191Y-122700000D01*
X115881809Y-122700000D01*
X115649974Y-122653885D01*
X115431588Y-122563427D01*
X115235042Y-122432099D01*
X115067901Y-122264958D01*
X114936573Y-122068412D01*
X114846115Y-121850026D01*
X114800000Y-121618191D01*
X114800000Y-121381809D01*
X114846115Y-121149974D01*
X114936573Y-120931588D01*
X115067901Y-120735042D01*
X115235042Y-120567901D01*
X115431588Y-120436573D01*
X115649974Y-120346115D01*
X115881809Y-120300000D01*
X116118191Y-120300000D01*
X116350026Y-120346115D01*
X116350026Y-120346115D01*
G37*
G36*
X112200000Y-122700000D02*
X109800000Y-122700000D01*
X109800000Y-120300000D01*
X112200000Y-120300000D01*
X112200000Y-122700000D01*
X112200000Y-122700000D01*
G37*
G36*
X101673126Y-118226900D02*
X101808365Y-118253801D01*
X102063149Y-118359336D01*
X102226424Y-118468433D01*
X102292451Y-118512551D01*
X102487449Y-118707549D01*
X102487451Y-118707552D01*
X102640664Y-118936851D01*
X102746199Y-119191635D01*
X102772467Y-119323692D01*
X102790524Y-119414470D01*
X102800000Y-119462112D01*
X102800000Y-119737888D01*
X102746199Y-120008365D01*
X102640664Y-120263149D01*
X102524785Y-120436574D01*
X102487449Y-120492451D01*
X102292451Y-120687449D01*
X102292448Y-120687451D01*
X102063149Y-120840664D01*
X101808365Y-120946199D01*
X101673126Y-120973100D01*
X101537889Y-121000000D01*
X101262111Y-121000000D01*
X101126874Y-120973100D01*
X100991635Y-120946199D01*
X100736851Y-120840664D01*
X100507552Y-120687451D01*
X100507549Y-120687449D01*
X100312551Y-120492451D01*
X100275215Y-120436574D01*
X100159336Y-120263149D01*
X100053801Y-120008365D01*
X100000000Y-119737888D01*
X100000000Y-119462112D01*
X100009477Y-119414470D01*
X100027533Y-119323692D01*
X100053801Y-119191635D01*
X100159336Y-118936851D01*
X100312549Y-118707552D01*
X100312551Y-118707549D01*
X100507549Y-118512551D01*
X100573576Y-118468433D01*
X100736851Y-118359336D01*
X100991635Y-118253801D01*
X101126874Y-118226900D01*
X101262111Y-118200000D01*
X101537889Y-118200000D01*
X101673126Y-118226900D01*
X101673126Y-118226900D01*
G37*
G36*
X177010530Y-119205710D02*
X177060379Y-119220831D01*
X177106311Y-119245382D01*
X177146574Y-119278426D01*
X177179618Y-119318689D01*
X177204169Y-119364621D01*
X177219290Y-119414470D01*
X177225000Y-119472444D01*
X177225000Y-120727556D01*
X177219290Y-120785530D01*
X177204169Y-120835379D01*
X177179618Y-120881311D01*
X177146574Y-120921574D01*
X177106311Y-120954618D01*
X177060379Y-120979169D01*
X177010530Y-120994290D01*
X176952556Y-121000000D01*
X175947444Y-121000000D01*
X175889470Y-120994290D01*
X175839621Y-120979169D01*
X175793689Y-120954618D01*
X175753426Y-120921574D01*
X175720382Y-120881311D01*
X175695831Y-120835379D01*
X175680710Y-120785530D01*
X175675000Y-120727556D01*
X175675000Y-119472444D01*
X175680710Y-119414470D01*
X175695831Y-119364621D01*
X175720382Y-119318689D01*
X175753426Y-119278426D01*
X175793689Y-119245382D01*
X175839621Y-119220831D01*
X175889470Y-119205710D01*
X175947444Y-119200000D01*
X176952556Y-119200000D01*
X177010530Y-119205710D01*
X177010530Y-119205710D01*
G37*
G36*
X179060530Y-119205710D02*
X179110379Y-119220831D01*
X179156311Y-119245382D01*
X179196574Y-119278426D01*
X179229618Y-119318689D01*
X179254169Y-119364621D01*
X179269290Y-119414470D01*
X179275000Y-119472444D01*
X179275000Y-120727556D01*
X179269290Y-120785530D01*
X179254169Y-120835379D01*
X179229618Y-120881311D01*
X179196574Y-120921574D01*
X179156311Y-120954618D01*
X179110379Y-120979169D01*
X179060530Y-120994290D01*
X179002556Y-121000000D01*
X177997444Y-121000000D01*
X177939470Y-120994290D01*
X177889621Y-120979169D01*
X177843689Y-120954618D01*
X177803426Y-120921574D01*
X177770382Y-120881311D01*
X177745831Y-120835379D01*
X177730710Y-120785530D01*
X177725000Y-120727556D01*
X177725000Y-119472444D01*
X177730710Y-119414470D01*
X177745831Y-119364621D01*
X177770382Y-119318689D01*
X177803426Y-119278426D01*
X177843689Y-119245382D01*
X177889621Y-119220831D01*
X177939470Y-119205710D01*
X177997444Y-119200000D01*
X179002556Y-119200000D01*
X179060530Y-119205710D01*
X179060530Y-119205710D01*
G37*
G36*
X174885530Y-119230710D02*
X174935379Y-119245831D01*
X174981311Y-119270382D01*
X175021574Y-119303426D01*
X175054618Y-119343689D01*
X175079169Y-119389621D01*
X175094290Y-119439470D01*
X175100000Y-119497444D01*
X175100000Y-120502556D01*
X175094290Y-120560530D01*
X175079169Y-120610379D01*
X175054618Y-120656311D01*
X175021574Y-120696574D01*
X174981311Y-120729618D01*
X174935379Y-120754169D01*
X174885530Y-120769290D01*
X174827556Y-120775000D01*
X173572444Y-120775000D01*
X173514470Y-120769290D01*
X173464621Y-120754169D01*
X173418689Y-120729618D01*
X173378426Y-120696574D01*
X173345382Y-120656311D01*
X173320831Y-120610379D01*
X173305710Y-120560530D01*
X173300000Y-120502556D01*
X173300000Y-119497444D01*
X173305710Y-119439470D01*
X173320831Y-119389621D01*
X173345382Y-119343689D01*
X173378426Y-119303426D01*
X173418689Y-119270382D01*
X173464621Y-119245831D01*
X173514470Y-119230710D01*
X173572444Y-119225000D01*
X174827556Y-119225000D01*
X174885530Y-119230710D01*
X174885530Y-119230710D01*
G37*
G36*
X200654844Y-116918810D02*
X200899895Y-116993145D01*
X201125735Y-117113860D01*
X201323687Y-117276313D01*
X201486140Y-117474264D01*
X201606855Y-117700104D01*
X201681190Y-117945155D01*
X201700000Y-118136136D01*
X201700000Y-119063863D01*
X201681190Y-119254845D01*
X201606855Y-119499896D01*
X201486140Y-119725736D01*
X201323687Y-119923687D01*
X201125736Y-120086140D01*
X200899896Y-120206855D01*
X200654845Y-120281190D01*
X200400000Y-120306290D01*
X200145156Y-120281190D01*
X199900105Y-120206855D01*
X199674265Y-120086140D01*
X199476314Y-119923687D01*
X199313860Y-119725736D01*
X199193145Y-119499896D01*
X199118810Y-119254845D01*
X199100000Y-119063864D01*
X199100000Y-118136137D01*
X199118810Y-117945156D01*
X199193145Y-117700105D01*
X199313860Y-117474265D01*
X199476313Y-117276313D01*
X199674264Y-117113860D01*
X199900104Y-116993145D01*
X200145155Y-116918810D01*
X200400000Y-116893710D01*
X200654844Y-116918810D01*
X200654844Y-116918810D01*
G37*
G36*
X174885530Y-117180710D02*
X174935379Y-117195831D01*
X174981311Y-117220382D01*
X175021574Y-117253426D01*
X175054618Y-117293689D01*
X175079169Y-117339621D01*
X175094290Y-117389470D01*
X175100000Y-117447444D01*
X175100000Y-118452556D01*
X175094290Y-118510530D01*
X175079169Y-118560379D01*
X175054618Y-118606311D01*
X175021574Y-118646574D01*
X174981311Y-118679618D01*
X174935379Y-118704169D01*
X174885530Y-118719290D01*
X174827556Y-118725000D01*
X173572444Y-118725000D01*
X173514470Y-118719290D01*
X173464621Y-118704169D01*
X173418689Y-118679618D01*
X173378426Y-118646574D01*
X173345382Y-118606311D01*
X173320831Y-118560379D01*
X173305710Y-118510530D01*
X173300000Y-118452556D01*
X173300000Y-117447444D01*
X173305710Y-117389470D01*
X173320831Y-117339621D01*
X173345382Y-117293689D01*
X173378426Y-117253426D01*
X173418689Y-117220382D01*
X173464621Y-117195831D01*
X173514470Y-117180710D01*
X173572444Y-117175000D01*
X174827556Y-117175000D01*
X174885530Y-117180710D01*
X174885530Y-117180710D01*
G37*
G36*
X177232482Y-116430186D02*
X177277204Y-116443753D01*
X177318433Y-116465790D01*
X177354561Y-116495439D01*
X177384210Y-116531567D01*
X177406247Y-116572796D01*
X177419814Y-116617518D01*
X177425000Y-116670175D01*
X177425000Y-118329825D01*
X177419814Y-118382482D01*
X177406247Y-118427204D01*
X177384210Y-118468433D01*
X177354561Y-118504561D01*
X177318433Y-118534210D01*
X177277204Y-118556247D01*
X177232482Y-118569814D01*
X177179825Y-118575000D01*
X175845175Y-118575000D01*
X175792518Y-118569814D01*
X175747796Y-118556247D01*
X175706567Y-118534210D01*
X175670439Y-118504561D01*
X175640790Y-118468433D01*
X175618753Y-118427204D01*
X175605186Y-118382482D01*
X175600000Y-118329825D01*
X175600000Y-116670175D01*
X175605186Y-116617518D01*
X175618753Y-116572796D01*
X175640790Y-116531567D01*
X175670439Y-116495439D01*
X175706567Y-116465790D01*
X175747796Y-116443753D01*
X175792518Y-116430186D01*
X175845175Y-116425000D01*
X177179825Y-116425000D01*
X177232482Y-116430186D01*
X177232482Y-116430186D01*
G37*
G36*
X180207482Y-116430186D02*
X180252204Y-116443753D01*
X180293433Y-116465790D01*
X180329561Y-116495439D01*
X180359210Y-116531567D01*
X180381247Y-116572796D01*
X180394814Y-116617518D01*
X180400000Y-116670175D01*
X180400000Y-118329825D01*
X180394814Y-118382482D01*
X180381247Y-118427204D01*
X180359210Y-118468433D01*
X180329561Y-118504561D01*
X180293433Y-118534210D01*
X180252204Y-118556247D01*
X180207482Y-118569814D01*
X180154825Y-118575000D01*
X178820175Y-118575000D01*
X178767518Y-118569814D01*
X178722796Y-118556247D01*
X178681567Y-118534210D01*
X178645439Y-118504561D01*
X178615790Y-118468433D01*
X178593753Y-118427204D01*
X178580186Y-118382482D01*
X178575000Y-118329825D01*
X178575000Y-116670175D01*
X178580186Y-116617518D01*
X178593753Y-116572796D01*
X178615790Y-116531567D01*
X178645439Y-116495439D01*
X178681567Y-116465790D01*
X178722796Y-116443753D01*
X178767518Y-116430186D01*
X178820175Y-116425000D01*
X180154825Y-116425000D01*
X180207482Y-116430186D01*
X180207482Y-116430186D01*
G37*
G36*
X92720857Y-114742272D02*
X92921042Y-114825191D01*
X92921045Y-114825193D01*
X93080107Y-114931475D01*
X93101213Y-114945578D01*
X93254422Y-115098787D01*
X93254424Y-115098790D01*
X93254425Y-115098791D01*
X93346744Y-115236956D01*
X93374809Y-115278958D01*
X93457728Y-115479143D01*
X93500000Y-115691658D01*
X93500000Y-115908342D01*
X93457728Y-116120857D01*
X93374809Y-116321042D01*
X93374807Y-116321045D01*
X93301236Y-116431152D01*
X93254422Y-116501213D01*
X93101213Y-116654422D01*
X93101210Y-116654424D01*
X93101209Y-116654425D01*
X93033001Y-116700000D01*
X92921042Y-116774809D01*
X92720857Y-116857728D01*
X92508342Y-116900000D01*
X92291658Y-116900000D01*
X92079143Y-116857728D01*
X91878958Y-116774809D01*
X91766999Y-116700000D01*
X91698791Y-116654425D01*
X91698790Y-116654424D01*
X91698787Y-116654422D01*
X91545578Y-116501213D01*
X91498765Y-116431152D01*
X91425193Y-116321045D01*
X91425191Y-116321042D01*
X91342272Y-116120857D01*
X91300000Y-115908342D01*
X91300000Y-115691658D01*
X91342272Y-115479143D01*
X91425191Y-115278958D01*
X91453256Y-115236956D01*
X91545575Y-115098791D01*
X91545576Y-115098790D01*
X91545578Y-115098787D01*
X91698787Y-114945578D01*
X91719894Y-114931475D01*
X91878955Y-114825193D01*
X91878958Y-114825191D01*
X92079143Y-114742272D01*
X92291658Y-114700000D01*
X92508342Y-114700000D01*
X92720857Y-114742272D01*
X92720857Y-114742272D01*
G37*
G36*
X196062521Y-115134586D02*
X196226309Y-115202429D01*
X196373720Y-115300926D01*
X196499074Y-115426280D01*
X196597571Y-115573691D01*
X196665414Y-115737479D01*
X196700000Y-115911356D01*
X196700000Y-116088644D01*
X196665414Y-116262521D01*
X196597571Y-116426309D01*
X196499074Y-116573720D01*
X196373720Y-116699074D01*
X196226309Y-116797571D01*
X196062521Y-116865414D01*
X195888644Y-116900000D01*
X195711356Y-116900000D01*
X195537479Y-116865414D01*
X195373691Y-116797571D01*
X195226280Y-116699074D01*
X195100926Y-116573720D01*
X195002429Y-116426309D01*
X194934586Y-116262521D01*
X194900000Y-116088644D01*
X194900000Y-115911356D01*
X194934586Y-115737479D01*
X195002429Y-115573691D01*
X195100926Y-115426280D01*
X195226280Y-115300926D01*
X195373691Y-115202429D01*
X195537479Y-115134586D01*
X195711356Y-115100000D01*
X195888644Y-115100000D01*
X196062521Y-115134586D01*
X196062521Y-115134586D01*
G37*
G36*
X172735530Y-114930710D02*
X172785379Y-114945831D01*
X172831311Y-114970382D01*
X172871574Y-115003426D01*
X172904618Y-115043689D01*
X172929169Y-115089621D01*
X172944290Y-115139470D01*
X172950000Y-115197444D01*
X172950000Y-116452556D01*
X172944290Y-116510530D01*
X172929169Y-116560379D01*
X172904618Y-116606311D01*
X172871574Y-116646574D01*
X172831311Y-116679618D01*
X172785379Y-116704169D01*
X172735530Y-116719290D01*
X172677556Y-116725000D01*
X171672444Y-116725000D01*
X171614470Y-116719290D01*
X171564621Y-116704169D01*
X171518689Y-116679618D01*
X171478426Y-116646574D01*
X171445382Y-116606311D01*
X171420831Y-116560379D01*
X171405710Y-116510530D01*
X171400000Y-116452556D01*
X171400000Y-115197444D01*
X171405710Y-115139470D01*
X171420831Y-115089621D01*
X171445382Y-115043689D01*
X171478426Y-115003426D01*
X171518689Y-114970382D01*
X171564621Y-114945831D01*
X171614470Y-114930710D01*
X171672444Y-114925000D01*
X172677556Y-114925000D01*
X172735530Y-114930710D01*
X172735530Y-114930710D01*
G37*
G36*
X174785530Y-114930710D02*
X174835379Y-114945831D01*
X174881311Y-114970382D01*
X174921574Y-115003426D01*
X174954618Y-115043689D01*
X174979169Y-115089621D01*
X174994290Y-115139470D01*
X175000000Y-115197444D01*
X175000000Y-116452556D01*
X174994290Y-116510530D01*
X174979169Y-116560379D01*
X174954618Y-116606311D01*
X174921574Y-116646574D01*
X174881311Y-116679618D01*
X174835379Y-116704169D01*
X174785530Y-116719290D01*
X174727556Y-116725000D01*
X173722444Y-116725000D01*
X173664470Y-116719290D01*
X173614621Y-116704169D01*
X173568689Y-116679618D01*
X173528426Y-116646574D01*
X173495382Y-116606311D01*
X173470831Y-116560379D01*
X173455710Y-116510530D01*
X173450000Y-116452556D01*
X173450000Y-115197444D01*
X173455710Y-115139470D01*
X173470831Y-115089621D01*
X173495382Y-115043689D01*
X173528426Y-115003426D01*
X173568689Y-114970382D01*
X173614621Y-114945831D01*
X173664470Y-114930710D01*
X173722444Y-114925000D01*
X174727556Y-114925000D01*
X174785530Y-114930710D01*
X174785530Y-114930710D01*
G37*
G36*
X168560530Y-114905710D02*
X168610379Y-114920831D01*
X168656311Y-114945382D01*
X168696574Y-114978426D01*
X168729618Y-115018689D01*
X168754169Y-115064621D01*
X168769290Y-115114470D01*
X168775000Y-115172444D01*
X168775000Y-116427556D01*
X168769290Y-116485530D01*
X168754169Y-116535379D01*
X168729618Y-116581311D01*
X168696574Y-116621574D01*
X168656311Y-116654618D01*
X168610379Y-116679169D01*
X168560530Y-116694290D01*
X168502556Y-116700000D01*
X167497444Y-116700000D01*
X167439470Y-116694290D01*
X167389621Y-116679169D01*
X167343689Y-116654618D01*
X167303426Y-116621574D01*
X167270382Y-116581311D01*
X167245831Y-116535379D01*
X167230710Y-116485530D01*
X167225000Y-116427556D01*
X167225000Y-115172444D01*
X167230710Y-115114470D01*
X167245831Y-115064621D01*
X167270382Y-115018689D01*
X167303426Y-114978426D01*
X167343689Y-114945382D01*
X167389621Y-114920831D01*
X167439470Y-114905710D01*
X167497444Y-114900000D01*
X168502556Y-114900000D01*
X168560530Y-114905710D01*
X168560530Y-114905710D01*
G37*
G36*
X170610530Y-114905710D02*
X170660379Y-114920831D01*
X170706311Y-114945382D01*
X170746574Y-114978426D01*
X170779618Y-115018689D01*
X170804169Y-115064621D01*
X170819290Y-115114470D01*
X170825000Y-115172444D01*
X170825000Y-116427556D01*
X170819290Y-116485530D01*
X170804169Y-116535379D01*
X170779618Y-116581311D01*
X170746574Y-116621574D01*
X170706311Y-116654618D01*
X170660379Y-116679169D01*
X170610530Y-116694290D01*
X170552556Y-116700000D01*
X169547444Y-116700000D01*
X169489470Y-116694290D01*
X169439621Y-116679169D01*
X169393689Y-116654618D01*
X169353426Y-116621574D01*
X169320382Y-116581311D01*
X169295831Y-116535379D01*
X169280710Y-116485530D01*
X169275000Y-116427556D01*
X169275000Y-115172444D01*
X169280710Y-115114470D01*
X169295831Y-115064621D01*
X169320382Y-115018689D01*
X169353426Y-114978426D01*
X169393689Y-114945382D01*
X169439621Y-114920831D01*
X169489470Y-114905710D01*
X169547444Y-114900000D01*
X170552556Y-114900000D01*
X170610530Y-114905710D01*
X170610530Y-114905710D01*
G37*
G36*
X166285530Y-113030710D02*
X166335379Y-113045831D01*
X166381311Y-113070382D01*
X166421574Y-113103426D01*
X166454618Y-113143689D01*
X166479169Y-113189621D01*
X166494290Y-113239470D01*
X166500000Y-113297444D01*
X166500000Y-114302556D01*
X166494290Y-114360530D01*
X166479169Y-114410379D01*
X166454618Y-114456311D01*
X166421574Y-114496574D01*
X166381311Y-114529618D01*
X166335379Y-114554169D01*
X166285530Y-114569290D01*
X166227556Y-114575000D01*
X164972444Y-114575000D01*
X164914470Y-114569290D01*
X164864621Y-114554169D01*
X164818689Y-114529618D01*
X164778426Y-114496574D01*
X164745382Y-114456311D01*
X164720831Y-114410379D01*
X164705710Y-114360530D01*
X164700000Y-114302556D01*
X164700000Y-113297444D01*
X164705710Y-113239470D01*
X164720831Y-113189621D01*
X164745382Y-113143689D01*
X164778426Y-113103426D01*
X164818689Y-113070382D01*
X164864621Y-113045831D01*
X164914470Y-113030710D01*
X164972444Y-113025000D01*
X166227556Y-113025000D01*
X166285530Y-113030710D01*
X166285530Y-113030710D01*
G37*
G36*
X168685530Y-113030710D02*
X168735379Y-113045831D01*
X168781311Y-113070382D01*
X168821574Y-113103426D01*
X168854618Y-113143689D01*
X168879169Y-113189621D01*
X168894290Y-113239470D01*
X168900000Y-113297444D01*
X168900000Y-114302556D01*
X168894290Y-114360530D01*
X168879169Y-114410379D01*
X168854618Y-114456311D01*
X168821574Y-114496574D01*
X168781311Y-114529618D01*
X168735379Y-114554169D01*
X168685530Y-114569290D01*
X168627556Y-114575000D01*
X167372444Y-114575000D01*
X167314470Y-114569290D01*
X167264621Y-114554169D01*
X167218689Y-114529618D01*
X167178426Y-114496574D01*
X167145382Y-114456311D01*
X167120831Y-114410379D01*
X167105710Y-114360530D01*
X167100000Y-114302556D01*
X167100000Y-113297444D01*
X167105710Y-113239470D01*
X167120831Y-113189621D01*
X167145382Y-113143689D01*
X167178426Y-113103426D01*
X167218689Y-113070382D01*
X167264621Y-113045831D01*
X167314470Y-113030710D01*
X167372444Y-113025000D01*
X168627556Y-113025000D01*
X168685530Y-113030710D01*
X168685530Y-113030710D01*
G37*
G36*
X172811612Y-111613388D02*
X172830554Y-111628934D01*
X172852165Y-111640485D01*
X172875614Y-111647598D01*
X172900000Y-111650000D01*
X173875000Y-111650000D01*
X173875000Y-114350000D01*
X172900000Y-114350000D01*
X172875614Y-114352402D01*
X172852165Y-114359515D01*
X172830554Y-114371066D01*
X172811612Y-114386612D01*
X172800624Y-114400000D01*
X170799376Y-114400000D01*
X170788388Y-114386612D01*
X170769446Y-114371066D01*
X170747835Y-114359515D01*
X170724386Y-114352402D01*
X170700000Y-114350000D01*
X169725000Y-114350000D01*
X169725000Y-111650000D01*
X170700000Y-111650000D01*
X170724386Y-111647598D01*
X170747835Y-111640485D01*
X170769446Y-111628934D01*
X170788388Y-111613388D01*
X170799376Y-111600000D01*
X172800624Y-111600000D01*
X172811612Y-111613388D01*
X172811612Y-111613388D01*
G37*
G36*
X196062521Y-112594586D02*
X196226309Y-112662429D01*
X196373720Y-112760926D01*
X196499074Y-112886280D01*
X196597571Y-113033691D01*
X196665414Y-113197479D01*
X196700000Y-113371356D01*
X196700000Y-113548644D01*
X196665414Y-113722521D01*
X196597571Y-113886309D01*
X196499074Y-114033720D01*
X196373720Y-114159074D01*
X196226309Y-114257571D01*
X196062521Y-114325414D01*
X195888644Y-114360000D01*
X195711356Y-114360000D01*
X195537479Y-114325414D01*
X195373691Y-114257571D01*
X195226280Y-114159074D01*
X195100926Y-114033720D01*
X195002429Y-113886309D01*
X194934586Y-113722521D01*
X194900000Y-113548644D01*
X194900000Y-113371356D01*
X194934586Y-113197479D01*
X195002429Y-113033691D01*
X195100926Y-112886280D01*
X195226280Y-112760926D01*
X195373691Y-112662429D01*
X195537479Y-112594586D01*
X195711356Y-112560000D01*
X195888644Y-112560000D01*
X196062521Y-112594586D01*
X196062521Y-112594586D01*
G37*
G36*
X200654844Y-109998810D02*
X200899895Y-110073145D01*
X201125735Y-110193860D01*
X201323687Y-110356313D01*
X201486140Y-110554264D01*
X201606855Y-110780104D01*
X201681190Y-111025155D01*
X201700000Y-111216136D01*
X201700000Y-112143863D01*
X201681190Y-112334845D01*
X201606855Y-112579896D01*
X201486140Y-112805736D01*
X201323687Y-113003687D01*
X201125736Y-113166140D01*
X200899896Y-113286855D01*
X200654845Y-113361190D01*
X200400000Y-113386290D01*
X200145156Y-113361190D01*
X199900105Y-113286855D01*
X199674265Y-113166140D01*
X199476314Y-113003687D01*
X199313860Y-112805736D01*
X199193145Y-112579896D01*
X199118810Y-112334845D01*
X199100000Y-112143864D01*
X199100000Y-111216137D01*
X199118810Y-111025156D01*
X199193145Y-110780105D01*
X199313860Y-110554265D01*
X199476313Y-110356313D01*
X199674264Y-110193860D01*
X199900104Y-110073145D01*
X200145155Y-109998810D01*
X200400000Y-109973710D01*
X200654844Y-109998810D01*
X200654844Y-109998810D01*
G37*
G36*
X177425000Y-113200000D02*
X174975000Y-113200000D01*
X174975000Y-112270000D01*
X177425000Y-112270000D01*
X177425000Y-113200000D01*
X177425000Y-113200000D01*
G37*
G36*
X166285530Y-110980710D02*
X166335379Y-110995831D01*
X166381311Y-111020382D01*
X166421574Y-111053426D01*
X166454618Y-111093689D01*
X166479169Y-111139621D01*
X166494290Y-111189470D01*
X166500000Y-111247444D01*
X166500000Y-112252556D01*
X166494290Y-112310530D01*
X166479169Y-112360379D01*
X166454618Y-112406311D01*
X166421574Y-112446574D01*
X166381311Y-112479618D01*
X166335379Y-112504169D01*
X166285530Y-112519290D01*
X166227556Y-112525000D01*
X164972444Y-112525000D01*
X164914470Y-112519290D01*
X164864621Y-112504169D01*
X164818689Y-112479618D01*
X164778426Y-112446574D01*
X164745382Y-112406311D01*
X164720831Y-112360379D01*
X164705710Y-112310530D01*
X164700000Y-112252556D01*
X164700000Y-111247444D01*
X164705710Y-111189470D01*
X164720831Y-111139621D01*
X164745382Y-111093689D01*
X164778426Y-111053426D01*
X164818689Y-111020382D01*
X164864621Y-110995831D01*
X164914470Y-110980710D01*
X164972444Y-110975000D01*
X166227556Y-110975000D01*
X166285530Y-110980710D01*
X166285530Y-110980710D01*
G37*
G36*
X168685530Y-110980710D02*
X168735379Y-110995831D01*
X168781311Y-111020382D01*
X168821574Y-111053426D01*
X168854618Y-111093689D01*
X168879169Y-111139621D01*
X168894290Y-111189470D01*
X168900000Y-111247444D01*
X168900000Y-112252556D01*
X168894290Y-112310530D01*
X168879169Y-112360379D01*
X168854618Y-112406311D01*
X168821574Y-112446574D01*
X168781311Y-112479618D01*
X168735379Y-112504169D01*
X168685530Y-112519290D01*
X168627556Y-112525000D01*
X167372444Y-112525000D01*
X167314470Y-112519290D01*
X167264621Y-112504169D01*
X167218689Y-112479618D01*
X167178426Y-112446574D01*
X167145382Y-112406311D01*
X167120831Y-112360379D01*
X167105710Y-112310530D01*
X167100000Y-112252556D01*
X167100000Y-111247444D01*
X167105710Y-111189470D01*
X167120831Y-111139621D01*
X167145382Y-111093689D01*
X167178426Y-111053426D01*
X167218689Y-111020382D01*
X167264621Y-110995831D01*
X167314470Y-110980710D01*
X167372444Y-110975000D01*
X168627556Y-110975000D01*
X168685530Y-110980710D01*
X168685530Y-110980710D01*
G37*
G36*
X177425000Y-110075624D02*
X177411612Y-110086612D01*
X177396066Y-110105554D01*
X177384515Y-110127165D01*
X177377402Y-110150614D01*
X177375000Y-110175000D01*
X177375000Y-111770000D01*
X175025000Y-111770000D01*
X175025000Y-110175000D01*
X175022598Y-110150614D01*
X175015485Y-110127165D01*
X175003934Y-110105554D01*
X174988388Y-110086612D01*
X174975000Y-110075624D01*
X174975000Y-109200000D01*
X177425000Y-109200000D01*
X177425000Y-110075624D01*
X177425000Y-110075624D01*
G37*
G36*
X180172351Y-108206855D02*
X180408365Y-108253801D01*
X180663149Y-108359336D01*
X180889397Y-108510511D01*
X180892451Y-108512551D01*
X181087449Y-108707549D01*
X181087451Y-108707552D01*
X181240664Y-108936851D01*
X181346199Y-109191635D01*
X181400000Y-109462112D01*
X181400000Y-109737888D01*
X181346199Y-110008365D01*
X181240664Y-110263149D01*
X181178413Y-110356314D01*
X181087449Y-110492451D01*
X180892451Y-110687449D01*
X180892448Y-110687451D01*
X180663149Y-110840664D01*
X180408365Y-110946199D01*
X180273126Y-110973100D01*
X180137889Y-111000000D01*
X179862111Y-111000000D01*
X179726874Y-110973100D01*
X179591635Y-110946199D01*
X179336851Y-110840664D01*
X179107552Y-110687451D01*
X179107549Y-110687449D01*
X178912551Y-110492451D01*
X178821587Y-110356314D01*
X178759336Y-110263149D01*
X178653801Y-110008365D01*
X178600000Y-109737888D01*
X178600000Y-109462112D01*
X178653801Y-109191635D01*
X178759336Y-108936851D01*
X178912549Y-108707552D01*
X178912551Y-108707549D01*
X179107549Y-108512551D01*
X179110603Y-108510511D01*
X179336851Y-108359336D01*
X179591635Y-108253801D01*
X179827649Y-108206855D01*
X179862111Y-108200000D01*
X180137889Y-108200000D01*
X180172351Y-108206855D01*
X180172351Y-108206855D01*
G37*
G36*
X173900000Y-111000000D02*
X171100000Y-111000000D01*
X171100000Y-108200000D01*
X173900000Y-108200000D01*
X173900000Y-111000000D01*
X173900000Y-111000000D01*
G37*
G36*
X95020857Y-107242272D02*
X95221042Y-107325191D01*
X95401213Y-107445578D01*
X95554422Y-107598787D01*
X95674809Y-107778958D01*
X95757728Y-107979143D01*
X95800000Y-108191658D01*
X95800000Y-108408342D01*
X95757728Y-108620857D01*
X95674809Y-108821042D01*
X95554422Y-109001213D01*
X95401213Y-109154422D01*
X95221042Y-109274809D01*
X95020857Y-109357728D01*
X94808342Y-109400000D01*
X94591658Y-109400000D01*
X94379143Y-109357728D01*
X94178958Y-109274809D01*
X93998787Y-109154422D01*
X93845578Y-109001213D01*
X93725191Y-108821042D01*
X93642272Y-108620857D01*
X93600000Y-108408342D01*
X93600000Y-108191658D01*
X93642272Y-107979143D01*
X93725191Y-107778958D01*
X93845578Y-107598787D01*
X93998787Y-107445578D01*
X94178958Y-107325191D01*
X94379143Y-107242272D01*
X94591658Y-107200000D01*
X94808342Y-107200000D01*
X95020857Y-107242272D01*
X95020857Y-107242272D01*
G37*
G36*
X200654844Y-104918810D02*
X200899895Y-104993145D01*
X201125735Y-105113860D01*
X201323687Y-105276313D01*
X201486140Y-105474264D01*
X201606855Y-105700104D01*
X201681190Y-105945155D01*
X201700000Y-106136136D01*
X201700000Y-107063863D01*
X201681190Y-107254845D01*
X201606855Y-107499896D01*
X201486140Y-107725736D01*
X201323687Y-107923687D01*
X201125736Y-108086140D01*
X200899896Y-108206855D01*
X200654845Y-108281190D01*
X200400000Y-108306290D01*
X200145156Y-108281190D01*
X199900105Y-108206855D01*
X199674265Y-108086140D01*
X199476314Y-107923687D01*
X199313860Y-107725736D01*
X199193145Y-107499896D01*
X199118810Y-107254845D01*
X199100000Y-107063864D01*
X199100000Y-106136137D01*
X199118810Y-105945156D01*
X199193145Y-105700105D01*
X199313860Y-105474265D01*
X199476313Y-105276313D01*
X199674264Y-105113860D01*
X199900104Y-104993145D01*
X200145155Y-104918810D01*
X200400000Y-104893710D01*
X200654844Y-104918810D01*
X200654844Y-104918810D01*
G37*
G36*
X101673127Y-103226901D02*
X101808365Y-103253801D01*
X102063149Y-103359336D01*
X102289397Y-103510511D01*
X102292451Y-103512551D01*
X102487449Y-103707549D01*
X102487451Y-103707552D01*
X102640664Y-103936851D01*
X102746199Y-104191635D01*
X102800000Y-104462112D01*
X102800000Y-104737888D01*
X102746199Y-105008365D01*
X102640664Y-105263149D01*
X102489489Y-105489397D01*
X102487449Y-105492451D01*
X102292451Y-105687449D01*
X102292448Y-105687451D01*
X102063149Y-105840664D01*
X101808365Y-105946199D01*
X101673127Y-105973099D01*
X101537889Y-106000000D01*
X101262111Y-106000000D01*
X101126873Y-105973099D01*
X100991635Y-105946199D01*
X100736851Y-105840664D01*
X100507552Y-105687451D01*
X100507549Y-105687449D01*
X100312551Y-105492451D01*
X100310511Y-105489397D01*
X100159336Y-105263149D01*
X100053801Y-105008365D01*
X100000000Y-104737888D01*
X100000000Y-104462112D01*
X100053801Y-104191635D01*
X100159336Y-103936851D01*
X100312549Y-103707552D01*
X100312551Y-103707549D01*
X100507549Y-103512551D01*
X100510603Y-103510511D01*
X100736851Y-103359336D01*
X100991635Y-103253801D01*
X101126873Y-103226901D01*
X101262111Y-103200000D01*
X101537889Y-103200000D01*
X101673127Y-103226901D01*
X101673127Y-103226901D01*
G37*
G36*
X194462521Y-100274586D02*
X194626309Y-100342429D01*
X194773720Y-100440926D01*
X194899074Y-100566280D01*
X194997571Y-100713691D01*
X195065414Y-100877479D01*
X195100000Y-101051356D01*
X195100000Y-101228644D01*
X195065414Y-101402521D01*
X194997571Y-101566309D01*
X194899074Y-101713720D01*
X194773720Y-101839074D01*
X194626309Y-101937571D01*
X194462521Y-102005414D01*
X194288644Y-102040000D01*
X194111356Y-102040000D01*
X193937479Y-102005414D01*
X193773691Y-101937571D01*
X193626280Y-101839074D01*
X193500926Y-101713720D01*
X193402429Y-101566309D01*
X193334586Y-101402521D01*
X193300000Y-101228644D01*
X193300000Y-101051356D01*
X193334586Y-100877479D01*
X193402429Y-100713691D01*
X193500926Y-100566280D01*
X193626280Y-100440926D01*
X193773691Y-100342429D01*
X193937479Y-100274586D01*
X194111356Y-100240000D01*
X194288644Y-100240000D01*
X194462521Y-100274586D01*
X194462521Y-100274586D01*
G37*
G36*
X97586393Y-97543553D02*
X97695872Y-97565330D01*
X98005252Y-97693479D01*
X98283687Y-97879523D01*
X98520477Y-98116313D01*
X98706521Y-98394748D01*
X98834670Y-98704128D01*
X98900000Y-99032565D01*
X98900000Y-99367435D01*
X98834670Y-99695872D01*
X98706521Y-100005252D01*
X98520477Y-100283687D01*
X98283687Y-100520477D01*
X98005252Y-100706521D01*
X97695872Y-100834670D01*
X97586393Y-100856447D01*
X97367437Y-100900000D01*
X97032563Y-100900000D01*
X96813607Y-100856447D01*
X96704128Y-100834670D01*
X96394748Y-100706521D01*
X96116313Y-100520477D01*
X95879523Y-100283687D01*
X95693479Y-100005252D01*
X95565330Y-99695872D01*
X95500000Y-99367435D01*
X95500000Y-99032565D01*
X95565330Y-98704128D01*
X95693479Y-98394748D01*
X95879523Y-98116313D01*
X96116313Y-97879523D01*
X96394748Y-97693479D01*
X96704128Y-97565330D01*
X96813607Y-97543553D01*
X97032563Y-97500000D01*
X97367437Y-97500000D01*
X97586393Y-97543553D01*
X97586393Y-97543553D01*
G37*
G36*
X194462521Y-97734586D02*
X194626309Y-97802429D01*
X194773720Y-97900926D01*
X194899074Y-98026280D01*
X194997571Y-98173691D01*
X195065414Y-98337479D01*
X195100000Y-98511356D01*
X195100000Y-98688644D01*
X195065414Y-98862521D01*
X194997571Y-99026309D01*
X194899074Y-99173720D01*
X194773720Y-99299074D01*
X194626309Y-99397571D01*
X194462521Y-99465414D01*
X194288644Y-99500000D01*
X194111356Y-99500000D01*
X193937479Y-99465414D01*
X193773691Y-99397571D01*
X193626280Y-99299074D01*
X193500926Y-99173720D01*
X193402429Y-99026309D01*
X193334586Y-98862521D01*
X193300000Y-98688644D01*
X193300000Y-98511356D01*
X193334586Y-98337479D01*
X193402429Y-98173691D01*
X193500926Y-98026280D01*
X193626280Y-97900926D01*
X193773691Y-97802429D01*
X193937479Y-97734586D01*
X194111356Y-97700000D01*
X194288644Y-97700000D01*
X194462521Y-97734586D01*
X194462521Y-97734586D01*
G37*
G36*
X171020000Y-95400000D02*
X167820000Y-95400000D01*
X167820000Y-92200000D01*
X171020000Y-92200000D01*
X171020000Y-95400000D01*
X171020000Y-95400000D01*
G37*
G36*
X174966703Y-92261486D02*
X175257883Y-92382097D01*
X175519944Y-92557201D01*
X175742799Y-92780056D01*
X175917903Y-93042117D01*
X176038514Y-93333297D01*
X176100000Y-93642412D01*
X176100000Y-93957588D01*
X176038514Y-94266703D01*
X175917903Y-94557883D01*
X175742799Y-94819944D01*
X175519944Y-95042799D01*
X175257883Y-95217903D01*
X174966703Y-95338514D01*
X174657588Y-95400000D01*
X174342412Y-95400000D01*
X174033297Y-95338514D01*
X173742117Y-95217903D01*
X173480056Y-95042799D01*
X173257201Y-94819944D01*
X173082097Y-94557883D01*
X172961486Y-94266703D01*
X172900000Y-93957588D01*
X172900000Y-93642412D01*
X172961486Y-93333297D01*
X173082097Y-93042117D01*
X173257201Y-92780056D01*
X173480056Y-92557201D01*
X173742117Y-92382097D01*
X174033297Y-92261486D01*
X174342412Y-92200000D01*
X174657588Y-92200000D01*
X174966703Y-92261486D01*
X174966703Y-92261486D01*
G37*
G36*
X180046703Y-92261486D02*
X180337883Y-92382097D01*
X180599944Y-92557201D01*
X180822799Y-92780056D01*
X180997903Y-93042117D01*
X181118514Y-93333297D01*
X181180000Y-93642412D01*
X181180000Y-93957588D01*
X181118514Y-94266703D01*
X180997903Y-94557883D01*
X180822799Y-94819944D01*
X180599944Y-95042799D01*
X180337883Y-95217903D01*
X180046703Y-95338514D01*
X179737588Y-95400000D01*
X179422412Y-95400000D01*
X179113297Y-95338514D01*
X178822117Y-95217903D01*
X178560056Y-95042799D01*
X178337201Y-94819944D01*
X178162097Y-94557883D01*
X178041486Y-94266703D01*
X177980000Y-93957588D01*
X177980000Y-93642412D01*
X178041486Y-93333297D01*
X178162097Y-93042117D01*
X178337201Y-92780056D01*
X178560056Y-92557201D01*
X178822117Y-92382097D01*
X179113297Y-92261486D01*
X179422412Y-92200000D01*
X179737588Y-92200000D01*
X180046703Y-92261486D01*
X180046703Y-92261486D01*
G37*
G36*
X185126703Y-92261486D02*
X185417883Y-92382097D01*
X185679944Y-92557201D01*
X185902799Y-92780056D01*
X186077903Y-93042117D01*
X186198514Y-93333297D01*
X186260000Y-93642412D01*
X186260000Y-93957588D01*
X186198514Y-94266703D01*
X186077903Y-94557883D01*
X185902799Y-94819944D01*
X185679944Y-95042799D01*
X185417883Y-95217903D01*
X185126703Y-95338514D01*
X184817588Y-95400000D01*
X184502412Y-95400000D01*
X184193297Y-95338514D01*
X183902117Y-95217903D01*
X183640056Y-95042799D01*
X183417201Y-94819944D01*
X183242097Y-94557883D01*
X183121486Y-94266703D01*
X183060000Y-93957588D01*
X183060000Y-93642412D01*
X183121486Y-93333297D01*
X183242097Y-93042117D01*
X183417201Y-92780056D01*
X183640056Y-92557201D01*
X183902117Y-92382097D01*
X184193297Y-92261486D01*
X184502412Y-92200000D01*
X184817588Y-92200000D01*
X185126703Y-92261486D01*
X185126703Y-92261486D01*
G37*
G36*
X200654844Y-91318810D02*
X200899895Y-91393145D01*
X201125735Y-91513860D01*
X201323687Y-91676313D01*
X201486140Y-91874264D01*
X201606855Y-92100104D01*
X201681190Y-92345155D01*
X201700000Y-92536136D01*
X201700000Y-93463863D01*
X201681190Y-93654845D01*
X201606855Y-93899896D01*
X201486140Y-94125736D01*
X201323687Y-94323687D01*
X201125736Y-94486140D01*
X200899896Y-94606855D01*
X200654845Y-94681190D01*
X200400000Y-94706290D01*
X200145156Y-94681190D01*
X199900105Y-94606855D01*
X199674265Y-94486140D01*
X199476314Y-94323687D01*
X199313860Y-94125736D01*
X199193145Y-93899896D01*
X199118810Y-93654845D01*
X199100000Y-93463864D01*
X199100000Y-92536137D01*
X199118810Y-92345156D01*
X199193145Y-92100105D01*
X199313860Y-91874265D01*
X199476313Y-91676313D01*
X199674264Y-91513860D01*
X199900104Y-91393145D01*
X200145155Y-91318810D01*
X200400000Y-91293710D01*
X200654844Y-91318810D01*
X200654844Y-91318810D01*
G37*
G36*
X200654844Y-86238810D02*
X200899895Y-86313145D01*
X201125735Y-86433860D01*
X201323687Y-86596313D01*
X201486140Y-86794264D01*
X201606855Y-87020104D01*
X201681190Y-87265155D01*
X201700000Y-87456136D01*
X201700000Y-88383863D01*
X201681190Y-88574845D01*
X201606855Y-88819896D01*
X201486140Y-89045736D01*
X201323687Y-89243687D01*
X201125736Y-89406140D01*
X200899896Y-89526855D01*
X200654845Y-89601190D01*
X200400000Y-89626290D01*
X200145156Y-89601190D01*
X199900105Y-89526855D01*
X199674265Y-89406140D01*
X199476314Y-89243687D01*
X199313860Y-89045736D01*
X199193145Y-88819896D01*
X199118810Y-88574845D01*
X199100000Y-88383864D01*
X199100000Y-87456137D01*
X199118810Y-87265156D01*
X199193145Y-87020105D01*
X199313860Y-86794265D01*
X199476313Y-86596313D01*
X199674264Y-86433860D01*
X199900104Y-86313145D01*
X200145155Y-86238810D01*
X200400000Y-86213710D01*
X200654844Y-86238810D01*
X200654844Y-86238810D01*
G37*
G36*
X97452481Y-86419855D02*
X97652118Y-86459565D01*
X97840173Y-86537460D01*
X97934201Y-86576408D01*
X98188071Y-86746038D01*
X98403962Y-86961929D01*
X98573592Y-87215799D01*
X98594038Y-87265160D01*
X98690435Y-87497882D01*
X98750000Y-87797338D01*
X98750000Y-88102662D01*
X98690435Y-88402118D01*
X98618890Y-88574841D01*
X98573592Y-88684201D01*
X98403962Y-88938071D01*
X98188071Y-89153962D01*
X97934201Y-89323592D01*
X97840173Y-89362540D01*
X97652118Y-89440435D01*
X97452481Y-89480145D01*
X97352663Y-89500000D01*
X97047337Y-89500000D01*
X96947519Y-89480145D01*
X96747882Y-89440435D01*
X96559827Y-89362540D01*
X96465799Y-89323592D01*
X96211929Y-89153962D01*
X95996038Y-88938071D01*
X95826408Y-88684201D01*
X95781110Y-88574841D01*
X95709565Y-88402118D01*
X95650000Y-88102662D01*
X95650000Y-87797338D01*
X95709565Y-87497882D01*
X95805962Y-87265160D01*
X95826408Y-87215799D01*
X95996038Y-86961929D01*
X96211929Y-86746038D01*
X96465799Y-86576408D01*
X96559827Y-86537460D01*
X96747882Y-86459565D01*
X96947519Y-86419855D01*
X97047337Y-86400000D01*
X97352663Y-86400000D01*
X97452481Y-86419855D01*
X97452481Y-86419855D01*
G37*
G36*
X192720857Y-86342272D02*
X192921042Y-86425191D01*
X193101213Y-86545578D01*
X193254422Y-86698787D01*
X193254424Y-86698790D01*
X193254425Y-86698791D01*
X193318217Y-86794263D01*
X193374809Y-86878958D01*
X193457728Y-87079143D01*
X193500000Y-87291658D01*
X193500000Y-87508342D01*
X193457728Y-87720857D01*
X193374809Y-87921042D01*
X193254422Y-88101213D01*
X193101213Y-88254422D01*
X192921042Y-88374809D01*
X192720857Y-88457728D01*
X192508342Y-88500000D01*
X192291658Y-88500000D01*
X192079143Y-88457728D01*
X191878958Y-88374809D01*
X191698787Y-88254422D01*
X191545578Y-88101213D01*
X191425191Y-87921042D01*
X191342272Y-87720857D01*
X191300000Y-87508342D01*
X191300000Y-87291658D01*
X191342272Y-87079143D01*
X191425191Y-86878958D01*
X191481783Y-86794263D01*
X191545575Y-86698791D01*
X191545576Y-86698790D01*
X191545578Y-86698787D01*
X191698787Y-86545578D01*
X191878958Y-86425191D01*
X192079143Y-86342272D01*
X192291658Y-86300000D01*
X192508342Y-86300000D01*
X192720857Y-86342272D01*
X192720857Y-86342272D01*
G37*
G36*
X166136393Y-81743553D02*
X166245872Y-81765330D01*
X166555252Y-81893479D01*
X166833687Y-82079523D01*
X167070477Y-82316313D01*
X167256521Y-82594748D01*
X167384670Y-82904128D01*
X167398507Y-82973690D01*
X167450000Y-83232563D01*
X167450000Y-83567437D01*
X167431086Y-83662521D01*
X167384670Y-83895872D01*
X167256521Y-84205252D01*
X167070477Y-84483687D01*
X166833687Y-84720477D01*
X166555252Y-84906521D01*
X166245872Y-85034670D01*
X166136393Y-85056447D01*
X165917437Y-85100000D01*
X165582563Y-85100000D01*
X165363607Y-85056447D01*
X165254128Y-85034670D01*
X164944748Y-84906521D01*
X164666313Y-84720477D01*
X164429523Y-84483687D01*
X164243479Y-84205252D01*
X164115330Y-83895872D01*
X164068914Y-83662521D01*
X164050000Y-83567437D01*
X164050000Y-83232563D01*
X164101493Y-82973690D01*
X164115330Y-82904128D01*
X164243479Y-82594748D01*
X164429523Y-82316313D01*
X164666313Y-82079523D01*
X164944748Y-81893479D01*
X165254128Y-81765330D01*
X165363607Y-81743553D01*
X165582563Y-81700000D01*
X165917437Y-81700000D01*
X166136393Y-81743553D01*
X166136393Y-81743553D01*
G37*
G36*
X188636393Y-81743553D02*
X188745872Y-81765330D01*
X189055252Y-81893479D01*
X189333687Y-82079523D01*
X189570477Y-82316313D01*
X189756521Y-82594748D01*
X189884670Y-82904128D01*
X189898507Y-82973690D01*
X189950000Y-83232563D01*
X189950000Y-83567437D01*
X189931086Y-83662521D01*
X189884670Y-83895872D01*
X189756521Y-84205252D01*
X189570477Y-84483687D01*
X189333687Y-84720477D01*
X189055252Y-84906521D01*
X188745872Y-85034670D01*
X188636393Y-85056447D01*
X188417437Y-85100000D01*
X188082563Y-85100000D01*
X187863607Y-85056447D01*
X187754128Y-85034670D01*
X187444748Y-84906521D01*
X187166313Y-84720477D01*
X186929523Y-84483687D01*
X186743479Y-84205252D01*
X186615330Y-83895872D01*
X186568914Y-83662521D01*
X186550000Y-83567437D01*
X186550000Y-83232563D01*
X186601493Y-82973690D01*
X186615330Y-82904128D01*
X186743479Y-82594748D01*
X186929523Y-82316313D01*
X187166313Y-82079523D01*
X187444748Y-81893479D01*
X187754128Y-81765330D01*
X187863607Y-81743553D01*
X188082563Y-81700000D01*
X188417437Y-81700000D01*
X188636393Y-81743553D01*
X188636393Y-81743553D01*
G37*
G36*
X177252481Y-81869855D02*
X177452118Y-81909565D01*
X177640173Y-81987460D01*
X177734201Y-82026408D01*
X177988071Y-82196038D01*
X178203962Y-82411929D01*
X178373592Y-82665799D01*
X178373592Y-82665800D01*
X178490435Y-82947882D01*
X178528148Y-83137479D01*
X178550000Y-83247337D01*
X178550000Y-83552663D01*
X178547061Y-83567437D01*
X178490435Y-83852118D01*
X178440065Y-83973720D01*
X178373592Y-84134201D01*
X178203962Y-84388071D01*
X177988071Y-84603962D01*
X177734201Y-84773592D01*
X177640173Y-84812540D01*
X177452118Y-84890435D01*
X177252481Y-84930145D01*
X177152663Y-84950000D01*
X176847337Y-84950000D01*
X176747519Y-84930145D01*
X176547882Y-84890435D01*
X176359827Y-84812540D01*
X176265799Y-84773592D01*
X176011929Y-84603962D01*
X175796038Y-84388071D01*
X175626408Y-84134201D01*
X175559935Y-83973720D01*
X175509565Y-83852118D01*
X175452939Y-83567437D01*
X175450000Y-83552663D01*
X175450000Y-83247337D01*
X175471852Y-83137479D01*
X175509565Y-82947882D01*
X175626408Y-82665800D01*
X175626408Y-82665799D01*
X175796038Y-82411929D01*
X176011929Y-82196038D01*
X176265799Y-82026408D01*
X176359827Y-81987460D01*
X176547882Y-81909565D01*
X176747519Y-81869855D01*
X176847337Y-81850000D01*
X177152663Y-81850000D01*
X177252481Y-81869855D01*
X177252481Y-81869855D01*
G37*
G36*
X202002521Y-82534586D02*
X202166309Y-82602429D01*
X202313720Y-82700926D01*
X202439074Y-82826280D01*
X202537571Y-82973691D01*
X202605414Y-83137479D01*
X202640000Y-83311356D01*
X202640000Y-83488644D01*
X202605414Y-83662521D01*
X202537571Y-83826309D01*
X202439074Y-83973720D01*
X202313720Y-84099074D01*
X202166309Y-84197571D01*
X202002521Y-84265414D01*
X201828644Y-84300000D01*
X201651356Y-84300000D01*
X201477479Y-84265414D01*
X201313691Y-84197571D01*
X201166280Y-84099074D01*
X201040926Y-83973720D01*
X200942429Y-83826309D01*
X200874586Y-83662521D01*
X200840000Y-83488644D01*
X200840000Y-83311356D01*
X200874586Y-83137479D01*
X200942429Y-82973691D01*
X201040926Y-82826280D01*
X201166280Y-82700926D01*
X201313691Y-82602429D01*
X201477479Y-82534586D01*
X201651356Y-82500000D01*
X201828644Y-82500000D01*
X202002521Y-82534586D01*
X202002521Y-82534586D01*
G37*
G36*
X199462521Y-82534586D02*
X199626309Y-82602429D01*
X199773720Y-82700926D01*
X199899074Y-82826280D01*
X199997571Y-82973691D01*
X200065414Y-83137479D01*
X200100000Y-83311356D01*
X200100000Y-83488644D01*
X200065414Y-83662521D01*
X199997571Y-83826309D01*
X199899074Y-83973720D01*
X199773720Y-84099074D01*
X199626309Y-84197571D01*
X199462521Y-84265414D01*
X199288644Y-84300000D01*
X199111356Y-84300000D01*
X198937479Y-84265414D01*
X198773691Y-84197571D01*
X198626280Y-84099074D01*
X198500926Y-83973720D01*
X198402429Y-83826309D01*
X198334586Y-83662521D01*
X198300000Y-83488644D01*
X198300000Y-83311356D01*
X198334586Y-83137479D01*
X198402429Y-82973691D01*
X198500926Y-82826280D01*
X198626280Y-82700926D01*
X198773691Y-82602429D01*
X198937479Y-82534586D01*
X199111356Y-82500000D01*
X199288644Y-82500000D01*
X199462521Y-82534586D01*
X199462521Y-82534586D01*
G37*
G36*
X194520857Y-78842272D02*
X194721042Y-78925191D01*
X194901213Y-79045578D01*
X195054422Y-79198787D01*
X195054424Y-79198790D01*
X195054425Y-79198791D01*
X195151355Y-79343857D01*
X195174809Y-79378958D01*
X195257728Y-79579143D01*
X195300000Y-79791658D01*
X195300000Y-80008342D01*
X195257728Y-80220857D01*
X195174809Y-80421042D01*
X195174807Y-80421045D01*
X195064394Y-80586290D01*
X195054422Y-80601213D01*
X194901213Y-80754422D01*
X194721042Y-80874809D01*
X194520857Y-80957728D01*
X194308342Y-81000000D01*
X194091658Y-81000000D01*
X193879143Y-80957728D01*
X193678958Y-80874809D01*
X193498787Y-80754422D01*
X193345578Y-80601213D01*
X193335607Y-80586290D01*
X193225193Y-80421045D01*
X193225191Y-80421042D01*
X193142272Y-80220857D01*
X193100000Y-80008342D01*
X193100000Y-79791658D01*
X193142272Y-79579143D01*
X193225191Y-79378958D01*
X193248645Y-79343857D01*
X193345575Y-79198791D01*
X193345576Y-79198790D01*
X193345578Y-79198787D01*
X193498787Y-79045578D01*
X193678958Y-78925191D01*
X193879143Y-78842272D01*
X194091658Y-78800000D01*
X194308342Y-78800000D01*
X194520857Y-78842272D01*
X194520857Y-78842272D01*
G37*
G36*
X200654844Y-77198810D02*
X200899895Y-77273145D01*
X201125735Y-77393860D01*
X201323687Y-77556313D01*
X201486140Y-77754264D01*
X201606855Y-77980104D01*
X201681190Y-78225155D01*
X201700000Y-78416136D01*
X201700000Y-79343863D01*
X201681190Y-79534845D01*
X201606855Y-79779896D01*
X201486140Y-80005736D01*
X201323687Y-80203687D01*
X201125736Y-80366140D01*
X200899896Y-80486855D01*
X200654845Y-80561190D01*
X200400000Y-80586290D01*
X200145156Y-80561190D01*
X199900105Y-80486855D01*
X199674265Y-80366140D01*
X199476314Y-80203687D01*
X199313860Y-80005736D01*
X199193145Y-79779896D01*
X199118810Y-79534845D01*
X199100000Y-79343864D01*
X199100000Y-78416137D01*
X199118810Y-78225156D01*
X199193145Y-77980105D01*
X199313860Y-77754265D01*
X199476313Y-77556313D01*
X199674264Y-77393860D01*
X199900104Y-77273145D01*
X200145155Y-77198810D01*
X200400000Y-77173710D01*
X200654844Y-77198810D01*
X200654844Y-77198810D01*
G37*
G36*
X97586393Y-75043553D02*
X97695872Y-75065330D01*
X98005252Y-75193479D01*
X98283687Y-75379523D01*
X98520477Y-75616313D01*
X98706521Y-75894748D01*
X98834670Y-76204128D01*
X98900000Y-76532565D01*
X98900000Y-76867435D01*
X98834670Y-77195872D01*
X98706521Y-77505252D01*
X98520477Y-77783687D01*
X98283687Y-78020477D01*
X98005252Y-78206521D01*
X97695872Y-78334670D01*
X97586393Y-78356447D01*
X97367437Y-78400000D01*
X97032563Y-78400000D01*
X96813607Y-78356447D01*
X96704128Y-78334670D01*
X96394748Y-78206521D01*
X96116313Y-78020477D01*
X95879523Y-77783687D01*
X95693479Y-77505252D01*
X95565330Y-77195872D01*
X95500000Y-76867435D01*
X95500000Y-76532565D01*
X95565330Y-76204128D01*
X95693479Y-75894748D01*
X95879523Y-75616313D01*
X96116313Y-75379523D01*
X96394748Y-75193479D01*
X96704128Y-75065330D01*
X96813607Y-75043553D01*
X97032563Y-75000000D01*
X97367437Y-75000000D01*
X97586393Y-75043553D01*
X97586393Y-75043553D01*
G37*
G36*
X157350026Y-75346115D02*
X157568412Y-75436573D01*
X157764958Y-75567901D01*
X157932099Y-75735042D01*
X158063427Y-75931588D01*
X158153885Y-76149974D01*
X158200000Y-76381809D01*
X158200000Y-76618191D01*
X158153885Y-76850026D01*
X158063427Y-77068412D01*
X157932099Y-77264958D01*
X157764958Y-77432099D01*
X157568412Y-77563427D01*
X157350026Y-77653885D01*
X157118191Y-77700000D01*
X156881809Y-77700000D01*
X156649974Y-77653885D01*
X156431588Y-77563427D01*
X156235042Y-77432099D01*
X156067901Y-77264958D01*
X155936573Y-77068412D01*
X155846115Y-76850026D01*
X155800000Y-76618191D01*
X155800000Y-76381809D01*
X155846115Y-76149974D01*
X155936573Y-75931588D01*
X156067901Y-75735042D01*
X156235042Y-75567901D01*
X156431588Y-75436573D01*
X156649974Y-75346115D01*
X156881809Y-75300000D01*
X157118191Y-75300000D01*
X157350026Y-75346115D01*
X157350026Y-75346115D01*
G37*
G36*
X152350026Y-75346115D02*
X152568412Y-75436573D01*
X152764958Y-75567901D01*
X152932099Y-75735042D01*
X153063427Y-75931588D01*
X153153885Y-76149974D01*
X153200000Y-76381809D01*
X153200000Y-76618191D01*
X153153885Y-76850026D01*
X153063427Y-77068412D01*
X152932099Y-77264958D01*
X152764958Y-77432099D01*
X152568412Y-77563427D01*
X152350026Y-77653885D01*
X152118191Y-77700000D01*
X151881809Y-77700000D01*
X151649974Y-77653885D01*
X151431588Y-77563427D01*
X151235042Y-77432099D01*
X151067901Y-77264958D01*
X150936573Y-77068412D01*
X150846115Y-76850026D01*
X150800000Y-76618191D01*
X150800000Y-76381809D01*
X150846115Y-76149974D01*
X150936573Y-75931588D01*
X151067901Y-75735042D01*
X151235042Y-75567901D01*
X151431588Y-75436573D01*
X151649974Y-75346115D01*
X151881809Y-75300000D01*
X152118191Y-75300000D01*
X152350026Y-75346115D01*
X152350026Y-75346115D01*
G37*
G36*
X147350026Y-75346115D02*
X147568412Y-75436573D01*
X147764958Y-75567901D01*
X147932099Y-75735042D01*
X148063427Y-75931588D01*
X148153885Y-76149974D01*
X148200000Y-76381809D01*
X148200000Y-76618191D01*
X148153885Y-76850026D01*
X148063427Y-77068412D01*
X147932099Y-77264958D01*
X147764958Y-77432099D01*
X147568412Y-77563427D01*
X147350026Y-77653885D01*
X147118191Y-77700000D01*
X146881809Y-77700000D01*
X146649974Y-77653885D01*
X146431588Y-77563427D01*
X146235042Y-77432099D01*
X146067901Y-77264958D01*
X145936573Y-77068412D01*
X145846115Y-76850026D01*
X145800000Y-76618191D01*
X145800000Y-76381809D01*
X145846115Y-76149974D01*
X145936573Y-75931588D01*
X146067901Y-75735042D01*
X146235042Y-75567901D01*
X146431588Y-75436573D01*
X146649974Y-75346115D01*
X146881809Y-75300000D01*
X147118191Y-75300000D01*
X147350026Y-75346115D01*
X147350026Y-75346115D01*
G37*
G36*
X142350026Y-75346115D02*
X142568412Y-75436573D01*
X142764958Y-75567901D01*
X142932099Y-75735042D01*
X143063427Y-75931588D01*
X143153885Y-76149974D01*
X143200000Y-76381809D01*
X143200000Y-76618191D01*
X143153885Y-76850026D01*
X143063427Y-77068412D01*
X142932099Y-77264958D01*
X142764958Y-77432099D01*
X142568412Y-77563427D01*
X142350026Y-77653885D01*
X142118191Y-77700000D01*
X141881809Y-77700000D01*
X141649974Y-77653885D01*
X141431588Y-77563427D01*
X141235042Y-77432099D01*
X141067901Y-77264958D01*
X140936573Y-77068412D01*
X140846115Y-76850026D01*
X140800000Y-76618191D01*
X140800000Y-76381809D01*
X140846115Y-76149974D01*
X140936573Y-75931588D01*
X141067901Y-75735042D01*
X141235042Y-75567901D01*
X141431588Y-75436573D01*
X141649974Y-75346115D01*
X141881809Y-75300000D01*
X142118191Y-75300000D01*
X142350026Y-75346115D01*
X142350026Y-75346115D01*
G37*
G36*
X137350026Y-75346115D02*
X137568412Y-75436573D01*
X137764958Y-75567901D01*
X137932099Y-75735042D01*
X138063427Y-75931588D01*
X138153885Y-76149974D01*
X138200000Y-76381809D01*
X138200000Y-76618191D01*
X138153885Y-76850026D01*
X138063427Y-77068412D01*
X137932099Y-77264958D01*
X137764958Y-77432099D01*
X137568412Y-77563427D01*
X137350026Y-77653885D01*
X137118191Y-77700000D01*
X136881809Y-77700000D01*
X136649974Y-77653885D01*
X136431588Y-77563427D01*
X136235042Y-77432099D01*
X136067901Y-77264958D01*
X135936573Y-77068412D01*
X135846115Y-76850026D01*
X135800000Y-76618191D01*
X135800000Y-76381809D01*
X135846115Y-76149974D01*
X135936573Y-75931588D01*
X136067901Y-75735042D01*
X136235042Y-75567901D01*
X136431588Y-75436573D01*
X136649974Y-75346115D01*
X136881809Y-75300000D01*
X137118191Y-75300000D01*
X137350026Y-75346115D01*
X137350026Y-75346115D01*
G37*
G36*
X131350026Y-75346115D02*
X131568412Y-75436573D01*
X131764958Y-75567901D01*
X131932099Y-75735042D01*
X132063427Y-75931588D01*
X132153885Y-76149974D01*
X132200000Y-76381809D01*
X132200000Y-76618191D01*
X132153885Y-76850026D01*
X132063427Y-77068412D01*
X131932099Y-77264958D01*
X131764958Y-77432099D01*
X131568412Y-77563427D01*
X131350026Y-77653885D01*
X131118191Y-77700000D01*
X130881809Y-77700000D01*
X130649974Y-77653885D01*
X130431588Y-77563427D01*
X130235042Y-77432099D01*
X130067901Y-77264958D01*
X129936573Y-77068412D01*
X129846115Y-76850026D01*
X129800000Y-76618191D01*
X129800000Y-76381809D01*
X129846115Y-76149974D01*
X129936573Y-75931588D01*
X130067901Y-75735042D01*
X130235042Y-75567901D01*
X130431588Y-75436573D01*
X130649974Y-75346115D01*
X130881809Y-75300000D01*
X131118191Y-75300000D01*
X131350026Y-75346115D01*
X131350026Y-75346115D01*
G37*
G36*
X126350026Y-75346115D02*
X126568412Y-75436573D01*
X126764958Y-75567901D01*
X126932099Y-75735042D01*
X127063427Y-75931588D01*
X127153885Y-76149974D01*
X127200000Y-76381809D01*
X127200000Y-76618191D01*
X127153885Y-76850026D01*
X127063427Y-77068412D01*
X126932099Y-77264958D01*
X126764958Y-77432099D01*
X126568412Y-77563427D01*
X126350026Y-77653885D01*
X126118191Y-77700000D01*
X125881809Y-77700000D01*
X125649974Y-77653885D01*
X125431588Y-77563427D01*
X125235042Y-77432099D01*
X125067901Y-77264958D01*
X124936573Y-77068412D01*
X124846115Y-76850026D01*
X124800000Y-76618191D01*
X124800000Y-76381809D01*
X124846115Y-76149974D01*
X124936573Y-75931588D01*
X125067901Y-75735042D01*
X125235042Y-75567901D01*
X125431588Y-75436573D01*
X125649974Y-75346115D01*
X125881809Y-75300000D01*
X126118191Y-75300000D01*
X126350026Y-75346115D01*
X126350026Y-75346115D01*
G37*
G36*
X121350026Y-75346115D02*
X121568412Y-75436573D01*
X121764958Y-75567901D01*
X121932099Y-75735042D01*
X122063427Y-75931588D01*
X122153885Y-76149974D01*
X122200000Y-76381809D01*
X122200000Y-76618191D01*
X122153885Y-76850026D01*
X122063427Y-77068412D01*
X121932099Y-77264958D01*
X121764958Y-77432099D01*
X121568412Y-77563427D01*
X121350026Y-77653885D01*
X121118191Y-77700000D01*
X120881809Y-77700000D01*
X120649974Y-77653885D01*
X120431588Y-77563427D01*
X120235042Y-77432099D01*
X120067901Y-77264958D01*
X119936573Y-77068412D01*
X119846115Y-76850026D01*
X119800000Y-76618191D01*
X119800000Y-76381809D01*
X119846115Y-76149974D01*
X119936573Y-75931588D01*
X120067901Y-75735042D01*
X120235042Y-75567901D01*
X120431588Y-75436573D01*
X120649974Y-75346115D01*
X120881809Y-75300000D01*
X121118191Y-75300000D01*
X121350026Y-75346115D01*
X121350026Y-75346115D01*
G37*
G36*
X116350026Y-75346115D02*
X116568412Y-75436573D01*
X116764958Y-75567901D01*
X116932099Y-75735042D01*
X117063427Y-75931588D01*
X117153885Y-76149974D01*
X117200000Y-76381809D01*
X117200000Y-76618191D01*
X117153885Y-76850026D01*
X117063427Y-77068412D01*
X116932099Y-77264958D01*
X116764958Y-77432099D01*
X116568412Y-77563427D01*
X116350026Y-77653885D01*
X116118191Y-77700000D01*
X115881809Y-77700000D01*
X115649974Y-77653885D01*
X115431588Y-77563427D01*
X115235042Y-77432099D01*
X115067901Y-77264958D01*
X114936573Y-77068412D01*
X114846115Y-76850026D01*
X114800000Y-76618191D01*
X114800000Y-76381809D01*
X114846115Y-76149974D01*
X114936573Y-75931588D01*
X115067901Y-75735042D01*
X115235042Y-75567901D01*
X115431588Y-75436573D01*
X115649974Y-75346115D01*
X115881809Y-75300000D01*
X116118191Y-75300000D01*
X116350026Y-75346115D01*
X116350026Y-75346115D01*
G37*
G36*
X111350026Y-75346115D02*
X111568412Y-75436573D01*
X111764958Y-75567901D01*
X111932099Y-75735042D01*
X112063427Y-75931588D01*
X112153885Y-76149974D01*
X112200000Y-76381809D01*
X112200000Y-76618191D01*
X112153885Y-76850026D01*
X112063427Y-77068412D01*
X111932099Y-77264958D01*
X111764958Y-77432099D01*
X111568412Y-77563427D01*
X111350026Y-77653885D01*
X111118191Y-77700000D01*
X110881809Y-77700000D01*
X110649974Y-77653885D01*
X110431588Y-77563427D01*
X110235042Y-77432099D01*
X110067901Y-77264958D01*
X109936573Y-77068412D01*
X109846115Y-76850026D01*
X109800000Y-76618191D01*
X109800000Y-76381809D01*
X109846115Y-76149974D01*
X109936573Y-75931588D01*
X110067901Y-75735042D01*
X110235042Y-75567901D01*
X110431588Y-75436573D01*
X110649974Y-75346115D01*
X110881809Y-75300000D01*
X111118191Y-75300000D01*
X111350026Y-75346115D01*
X111350026Y-75346115D01*
G37*
G36*
X200654844Y-72118810D02*
X200899895Y-72193145D01*
X201125735Y-72313860D01*
X201323687Y-72476313D01*
X201486140Y-72674264D01*
X201606855Y-72900104D01*
X201681190Y-73145155D01*
X201700000Y-73336136D01*
X201700000Y-74263863D01*
X201681190Y-74454845D01*
X201606855Y-74699896D01*
X201486140Y-74925736D01*
X201323687Y-75123687D01*
X201125736Y-75286140D01*
X200899896Y-75406855D01*
X200654845Y-75481190D01*
X200400000Y-75506290D01*
X200145156Y-75481190D01*
X199900105Y-75406855D01*
X199674265Y-75286140D01*
X199476314Y-75123687D01*
X199313860Y-74925736D01*
X199193145Y-74699896D01*
X199118810Y-74454845D01*
X199100000Y-74263864D01*
X199100000Y-73336137D01*
X199118810Y-73145156D01*
X199193145Y-72900105D01*
X199313860Y-72674265D01*
X199476313Y-72476313D01*
X199674264Y-72313860D01*
X199900104Y-72193145D01*
X200145155Y-72118810D01*
X200400000Y-72093710D01*
X200654844Y-72118810D01*
X200654844Y-72118810D01*
G37*
G36*
X192720857Y-72942272D02*
X192921042Y-73025191D01*
X192921045Y-73025193D01*
X193100588Y-73145160D01*
X193101213Y-73145578D01*
X193254422Y-73298787D01*
X193254424Y-73298790D01*
X193254425Y-73298791D01*
X193374807Y-73478955D01*
X193374809Y-73478958D01*
X193457728Y-73679143D01*
X193500000Y-73891658D01*
X193500000Y-74108342D01*
X193457728Y-74320857D01*
X193374809Y-74521042D01*
X193374807Y-74521045D01*
X193255302Y-74699897D01*
X193254422Y-74701213D01*
X193101213Y-74854422D01*
X192921042Y-74974809D01*
X192720857Y-75057728D01*
X192508342Y-75100000D01*
X192291658Y-75100000D01*
X192079143Y-75057728D01*
X191878958Y-74974809D01*
X191698787Y-74854422D01*
X191545578Y-74701213D01*
X191544699Y-74699897D01*
X191425193Y-74521045D01*
X191425191Y-74521042D01*
X191342272Y-74320857D01*
X191300000Y-74108342D01*
X191300000Y-73891658D01*
X191342272Y-73679143D01*
X191425191Y-73478958D01*
X191425193Y-73478955D01*
X191545575Y-73298791D01*
X191545576Y-73298790D01*
X191545578Y-73298787D01*
X191698787Y-73145578D01*
X191699413Y-73145160D01*
X191878955Y-73025193D01*
X191878958Y-73025191D01*
X192079143Y-72942272D01*
X192291658Y-72900000D01*
X192508342Y-72900000D01*
X192720857Y-72942272D01*
X192720857Y-72942272D01*
G37*
G36*
X101254844Y-69918810D02*
X101499895Y-69993145D01*
X101725735Y-70113860D01*
X101923687Y-70276313D01*
X102086140Y-70474264D01*
X102206855Y-70700104D01*
X102281190Y-70945155D01*
X102300000Y-71136136D01*
X102300000Y-72063863D01*
X102281190Y-72254845D01*
X102206855Y-72499896D01*
X102086140Y-72725736D01*
X101923687Y-72923687D01*
X101725736Y-73086140D01*
X101499896Y-73206855D01*
X101254845Y-73281190D01*
X101000000Y-73306290D01*
X100745156Y-73281190D01*
X100500105Y-73206855D01*
X100274265Y-73086140D01*
X100076314Y-72923687D01*
X99913860Y-72725736D01*
X99793145Y-72499896D01*
X99718810Y-72254845D01*
X99700000Y-72063864D01*
X99700000Y-71136137D01*
X99718810Y-70945156D01*
X99793145Y-70700105D01*
X99913860Y-70474265D01*
X100076313Y-70276313D01*
X100274264Y-70113860D01*
X100500104Y-69993145D01*
X100745155Y-69918810D01*
X101000000Y-69893710D01*
X101254844Y-69918810D01*
X101254844Y-69918810D01*
G37*
G36*
X188686393Y-68543553D02*
X188795872Y-68565330D01*
X189105252Y-68693479D01*
X189383687Y-68879523D01*
X189620477Y-69116313D01*
X189806521Y-69394748D01*
X189934670Y-69704128D01*
X189956447Y-69813607D01*
X190000000Y-70032563D01*
X190000000Y-70367437D01*
X189978750Y-70474265D01*
X189934670Y-70695872D01*
X189806521Y-71005252D01*
X189620477Y-71283687D01*
X189383687Y-71520477D01*
X189105252Y-71706521D01*
X188795872Y-71834670D01*
X188686393Y-71856447D01*
X188467437Y-71900000D01*
X188132563Y-71900000D01*
X187913607Y-71856447D01*
X187804128Y-71834670D01*
X187494748Y-71706521D01*
X187216313Y-71520477D01*
X186979523Y-71283687D01*
X186793479Y-71005252D01*
X186665330Y-70695872D01*
X186621250Y-70474265D01*
X186600000Y-70367437D01*
X186600000Y-70032563D01*
X186643553Y-69813607D01*
X186665330Y-69704128D01*
X186793479Y-69394748D01*
X186979523Y-69116313D01*
X187216313Y-68879523D01*
X187494748Y-68693479D01*
X187804128Y-68565330D01*
X187913607Y-68543553D01*
X188132563Y-68500000D01*
X188467437Y-68500000D01*
X188686393Y-68543553D01*
X188686393Y-68543553D01*
G37*
G36*
X166186393Y-68543553D02*
X166295872Y-68565330D01*
X166605252Y-68693479D01*
X166883687Y-68879523D01*
X167120477Y-69116313D01*
X167306521Y-69394748D01*
X167434670Y-69704128D01*
X167456447Y-69813607D01*
X167500000Y-70032563D01*
X167500000Y-70367437D01*
X167478750Y-70474265D01*
X167434670Y-70695872D01*
X167306521Y-71005252D01*
X167120477Y-71283687D01*
X166883687Y-71520477D01*
X166605252Y-71706521D01*
X166295872Y-71834670D01*
X166186393Y-71856447D01*
X165967437Y-71900000D01*
X165632563Y-71900000D01*
X165413607Y-71856447D01*
X165304128Y-71834670D01*
X164994748Y-71706521D01*
X164716313Y-71520477D01*
X164479523Y-71283687D01*
X164293479Y-71005252D01*
X164165330Y-70695872D01*
X164121250Y-70474265D01*
X164100000Y-70367437D01*
X164100000Y-70032563D01*
X164143553Y-69813607D01*
X164165330Y-69704128D01*
X164293479Y-69394748D01*
X164479523Y-69116313D01*
X164716313Y-68879523D01*
X164994748Y-68693479D01*
X165304128Y-68565330D01*
X165413607Y-68543553D01*
X165632563Y-68500000D01*
X165967437Y-68500000D01*
X166186393Y-68543553D01*
X166186393Y-68543553D01*
G37*
G36*
X177302481Y-68669855D02*
X177502118Y-68709565D01*
X177690173Y-68787460D01*
X177784201Y-68826408D01*
X178038071Y-68996038D01*
X178253962Y-69211929D01*
X178423592Y-69465799D01*
X178423592Y-69465800D01*
X178540435Y-69747882D01*
X178540435Y-69747884D01*
X178600000Y-70047337D01*
X178600000Y-70352663D01*
X178597061Y-70367437D01*
X178540435Y-70652118D01*
X178462540Y-70840173D01*
X178423592Y-70934201D01*
X178253962Y-71188071D01*
X178038071Y-71403962D01*
X177784201Y-71573592D01*
X177690173Y-71612540D01*
X177502118Y-71690435D01*
X177302481Y-71730145D01*
X177202663Y-71750000D01*
X176897337Y-71750000D01*
X176797519Y-71730145D01*
X176597882Y-71690435D01*
X176409827Y-71612540D01*
X176315799Y-71573592D01*
X176061929Y-71403962D01*
X175846038Y-71188071D01*
X175676408Y-70934201D01*
X175637460Y-70840173D01*
X175559565Y-70652118D01*
X175502939Y-70367437D01*
X175500000Y-70352663D01*
X175500000Y-70047337D01*
X175559565Y-69747884D01*
X175559565Y-69747882D01*
X175676408Y-69465800D01*
X175676408Y-69465799D01*
X175846038Y-69211929D01*
X176061929Y-68996038D01*
X176315799Y-68826408D01*
X176409827Y-68787460D01*
X176597882Y-68709565D01*
X176797519Y-68669855D01*
X176897337Y-68650000D01*
X177202663Y-68650000D01*
X177302481Y-68669855D01*
X177302481Y-68669855D01*
G37*
G36*
X200409122Y-65246115D02*
X200525041Y-65269173D01*
X200756674Y-65365119D01*
X200827035Y-65394263D01*
X200852620Y-65404861D01*
X200908609Y-65442272D01*
X201147436Y-65601851D01*
X201398149Y-65852564D01*
X201398151Y-65852567D01*
X201595139Y-66147380D01*
X201696323Y-66391658D01*
X201730827Y-66474960D01*
X201800000Y-66822714D01*
X201800000Y-67177286D01*
X201764765Y-67354422D01*
X201730827Y-67525041D01*
X201699778Y-67600000D01*
X201595140Y-67852618D01*
X201398149Y-68147436D01*
X201147436Y-68398149D01*
X201147433Y-68398151D01*
X200852620Y-68595139D01*
X200525041Y-68730827D01*
X200409122Y-68753885D01*
X200177286Y-68800000D01*
X199822714Y-68800000D01*
X199590878Y-68753885D01*
X199474959Y-68730827D01*
X199147380Y-68595139D01*
X198852567Y-68398151D01*
X198852564Y-68398149D01*
X198601851Y-68147436D01*
X198404860Y-67852618D01*
X198300222Y-67600000D01*
X198269173Y-67525041D01*
X198235235Y-67354422D01*
X198200000Y-67177286D01*
X198200000Y-66822714D01*
X198269173Y-66474960D01*
X198303678Y-66391658D01*
X198404861Y-66147380D01*
X198601849Y-65852567D01*
X198601851Y-65852564D01*
X198852564Y-65601851D01*
X199091391Y-65442272D01*
X199147380Y-65404861D01*
X199172966Y-65394263D01*
X199243326Y-65365119D01*
X199474959Y-65269173D01*
X199590878Y-65246115D01*
X199822714Y-65200000D01*
X200177286Y-65200000D01*
X200409122Y-65246115D01*
X200409122Y-65246115D01*
G37*
G36*
X94409122Y-65246115D02*
X94525041Y-65269173D01*
X94756674Y-65365119D01*
X94827035Y-65394263D01*
X94852620Y-65404861D01*
X94908609Y-65442272D01*
X95147436Y-65601851D01*
X95398149Y-65852564D01*
X95398151Y-65852567D01*
X95595139Y-66147380D01*
X95696323Y-66391658D01*
X95730827Y-66474960D01*
X95800000Y-66822714D01*
X95800000Y-67177286D01*
X95764765Y-67354422D01*
X95730827Y-67525041D01*
X95699778Y-67600000D01*
X95595140Y-67852618D01*
X95398149Y-68147436D01*
X95147436Y-68398149D01*
X95147433Y-68398151D01*
X94852620Y-68595139D01*
X94525041Y-68730827D01*
X94409122Y-68753885D01*
X94177286Y-68800000D01*
X93822714Y-68800000D01*
X93590878Y-68753885D01*
X93474959Y-68730827D01*
X93147380Y-68595139D01*
X92852567Y-68398151D01*
X92852564Y-68398149D01*
X92601851Y-68147436D01*
X92404860Y-67852618D01*
X92300222Y-67600000D01*
X92269173Y-67525041D01*
X92235235Y-67354422D01*
X92200000Y-67177286D01*
X92200000Y-66822714D01*
X92269173Y-66474960D01*
X92303678Y-66391658D01*
X92404861Y-66147380D01*
X92601849Y-65852567D01*
X92601851Y-65852564D01*
X92852564Y-65601851D01*
X93091391Y-65442272D01*
X93147380Y-65404861D01*
X93172966Y-65394263D01*
X93243326Y-65365119D01*
X93474959Y-65269173D01*
X93590878Y-65246115D01*
X93822714Y-65200000D01*
X94177286Y-65200000D01*
X94409122Y-65246115D01*
X94409122Y-65246115D01*
G37*
G36*
X101254844Y-64838810D02*
X101499895Y-64913145D01*
X101725735Y-65033860D01*
X101923687Y-65196313D01*
X102086140Y-65394264D01*
X102206855Y-65620104D01*
X102281190Y-65865155D01*
X102300000Y-66056136D01*
X102300000Y-66983863D01*
X102281190Y-67174845D01*
X102206855Y-67419896D01*
X102086140Y-67645736D01*
X101923687Y-67843687D01*
X101725736Y-68006140D01*
X101499896Y-68126855D01*
X101254845Y-68201190D01*
X101000000Y-68226290D01*
X100745156Y-68201190D01*
X100500105Y-68126855D01*
X100274265Y-68006140D01*
X100076314Y-67843687D01*
X99913860Y-67645736D01*
X99793145Y-67419896D01*
X99718810Y-67174845D01*
X99700000Y-66983864D01*
X99700000Y-66056137D01*
X99718810Y-65865156D01*
X99793145Y-65620105D01*
X99913860Y-65394265D01*
X100076313Y-65196313D01*
X100274264Y-65033860D01*
X100500104Y-64913145D01*
X100745155Y-64838810D01*
X101000000Y-64813710D01*
X101254844Y-64838810D01*
X101254844Y-64838810D01*
G37*
G36*
X194520857Y-65442272D02*
X194721042Y-65525191D01*
X194721045Y-65525193D01*
X194863091Y-65620105D01*
X194901213Y-65645578D01*
X195054422Y-65798787D01*
X195174809Y-65978958D01*
X195257728Y-66179143D01*
X195300000Y-66391658D01*
X195300000Y-66608342D01*
X195257728Y-66820857D01*
X195174809Y-67021042D01*
X195174807Y-67021045D01*
X195072044Y-67174841D01*
X195054422Y-67201213D01*
X194901213Y-67354422D01*
X194721042Y-67474809D01*
X194520857Y-67557728D01*
X194308342Y-67600000D01*
X194091658Y-67600000D01*
X193879143Y-67557728D01*
X193678958Y-67474809D01*
X193498787Y-67354422D01*
X193345578Y-67201213D01*
X193327957Y-67174841D01*
X193225193Y-67021045D01*
X193225191Y-67021042D01*
X193142272Y-66820857D01*
X193100000Y-66608342D01*
X193100000Y-66391658D01*
X193142272Y-66179143D01*
X193225191Y-65978958D01*
X193345578Y-65798787D01*
X193498787Y-65645578D01*
X193536910Y-65620105D01*
X193678955Y-65525193D01*
X193678958Y-65525191D01*
X193879143Y-65442272D01*
X194091658Y-65400000D01*
X194308342Y-65400000D01*
X194520857Y-65442272D01*
X194520857Y-65442272D01*
G37*
M02*
