G04 #@! TF.GenerationSoftware,KiCad,Pcbnew,(5.0.0-3-g5ebb6b6)*
G04 #@! TF.CreationDate,2018-11-18T00:12:04+01:00*
G04 #@! TF.ProjectId,c64-psu,6336342D7073752E6B696361645F7063,rev?*
G04 #@! TF.SameCoordinates,Original*
G04 #@! TF.FileFunction,Legend,Top*
G04 #@! TF.FilePolarity,Positive*
%FSLAX46Y46*%
G04 Gerber Fmt 4.6, Leading zero omitted, Abs format (unit mm)*
G04 Created by KiCad (PCBNEW (5.0.0-3-g5ebb6b6)) date 2018 November 18, Sunday 00:12:04*
%MOMM*%
%LPD*%
G01*
G04 APERTURE LIST*
%ADD10C,0.250000*%
%ADD11C,0.150000*%
%ADD12C,0.120000*%
%ADD13C,0.200000*%
G04 APERTURE END LIST*
D10*
X208852380Y-111200000D02*
X209566666Y-111200000D01*
X209709523Y-111247619D01*
X209804761Y-111342857D01*
X209852380Y-111485714D01*
X209852380Y-111580952D01*
X208852380Y-110819047D02*
X208852380Y-110200000D01*
X209233333Y-110533333D01*
X209233333Y-110390476D01*
X209280952Y-110295238D01*
X209328571Y-110247619D01*
X209423809Y-110200000D01*
X209661904Y-110200000D01*
X209757142Y-110247619D01*
X209804761Y-110295238D01*
X209852380Y-110390476D01*
X209852380Y-110676190D01*
X209804761Y-110771428D01*
X209757142Y-110819047D01*
X209804761Y-109723809D02*
X209852380Y-109723809D01*
X209947619Y-109771428D01*
X209995238Y-109819047D01*
X208852380Y-108247619D02*
X209566666Y-108247619D01*
X209709523Y-108295238D01*
X209804761Y-108390476D01*
X209852380Y-108533333D01*
X209852380Y-108628571D01*
X208947619Y-107819047D02*
X208900000Y-107771428D01*
X208852380Y-107676190D01*
X208852380Y-107438095D01*
X208900000Y-107342857D01*
X208947619Y-107295238D01*
X209042857Y-107247619D01*
X209138095Y-107247619D01*
X209280952Y-107295238D01*
X209852380Y-107866666D01*
X209852380Y-107247619D01*
X209757142Y-106819047D02*
X209804761Y-106771428D01*
X209852380Y-106819047D01*
X209804761Y-106866666D01*
X209757142Y-106819047D01*
X209852380Y-106819047D01*
X209233333Y-106819047D02*
X209280952Y-106771428D01*
X209328571Y-106819047D01*
X209280952Y-106866666D01*
X209233333Y-106819047D01*
X209328571Y-106819047D01*
X209471428Y-105580952D02*
X209471428Y-104819047D01*
X209852380Y-105200000D02*
X209090476Y-105200000D01*
X208852380Y-103866666D02*
X208852380Y-104342857D01*
X209328571Y-104390476D01*
X209280952Y-104342857D01*
X209233333Y-104247619D01*
X209233333Y-104009523D01*
X209280952Y-103914285D01*
X209328571Y-103866666D01*
X209423809Y-103819047D01*
X209661904Y-103819047D01*
X209757142Y-103866666D01*
X209804761Y-103914285D01*
X209852380Y-104009523D01*
X209852380Y-104247619D01*
X209804761Y-104342857D01*
X209757142Y-104390476D01*
X209185714Y-103485714D02*
X209852380Y-103247619D01*
X209185714Y-103009523D01*
X209852380Y-102200000D02*
X208852380Y-102200000D01*
X209804761Y-102200000D02*
X209852380Y-102295238D01*
X209852380Y-102485714D01*
X209804761Y-102580952D01*
X209757142Y-102628571D01*
X209661904Y-102676190D01*
X209376190Y-102676190D01*
X209280952Y-102628571D01*
X209233333Y-102580952D01*
X209185714Y-102485714D01*
X209185714Y-102295238D01*
X209233333Y-102200000D01*
X209804761Y-101295238D02*
X209852380Y-101390476D01*
X209852380Y-101580952D01*
X209804761Y-101676190D01*
X209757142Y-101723809D01*
X209661904Y-101771428D01*
X209376190Y-101771428D01*
X209280952Y-101723809D01*
X209233333Y-101676190D01*
X209185714Y-101580952D01*
X209185714Y-101390476D01*
X209233333Y-101295238D01*
X209804761Y-100819047D02*
X209852380Y-100819047D01*
X209947619Y-100866666D01*
X209995238Y-100914285D01*
X209185714Y-99200000D02*
X209995238Y-99200000D01*
X210090476Y-99247619D01*
X210138095Y-99295238D01*
X210185714Y-99390476D01*
X210185714Y-99533333D01*
X210138095Y-99628571D01*
X209804761Y-99200000D02*
X209852380Y-99295238D01*
X209852380Y-99485714D01*
X209804761Y-99580952D01*
X209757142Y-99628571D01*
X209661904Y-99676190D01*
X209376190Y-99676190D01*
X209280952Y-99628571D01*
X209233333Y-99580952D01*
X209185714Y-99485714D01*
X209185714Y-99295238D01*
X209233333Y-99200000D01*
X209185714Y-98723809D02*
X209852380Y-98723809D01*
X209280952Y-98723809D02*
X209233333Y-98676190D01*
X209185714Y-98580952D01*
X209185714Y-98438095D01*
X209233333Y-98342857D01*
X209328571Y-98295238D01*
X209852380Y-98295238D01*
X209852380Y-97390476D02*
X208852380Y-97390476D01*
X209804761Y-97390476D02*
X209852380Y-97485714D01*
X209852380Y-97676190D01*
X209804761Y-97771428D01*
X209757142Y-97819047D01*
X209661904Y-97866666D01*
X209376190Y-97866666D01*
X209280952Y-97819047D01*
X209233333Y-97771428D01*
X209185714Y-97676190D01*
X209185714Y-97485714D01*
X209233333Y-97390476D01*
X209804761Y-96866666D02*
X209852380Y-96866666D01*
X209947619Y-96914285D01*
X209995238Y-96961904D01*
X209852380Y-95628571D02*
X209852380Y-95438095D01*
X209804761Y-95342857D01*
X209757142Y-95295238D01*
X209614285Y-95200000D01*
X209423809Y-95152380D01*
X209042857Y-95152380D01*
X208947619Y-95200000D01*
X208900000Y-95247619D01*
X208852380Y-95342857D01*
X208852380Y-95533333D01*
X208900000Y-95628571D01*
X208947619Y-95676190D01*
X209042857Y-95723809D01*
X209280952Y-95723809D01*
X209376190Y-95676190D01*
X209423809Y-95628571D01*
X209471428Y-95533333D01*
X209471428Y-95342857D01*
X209423809Y-95247619D01*
X209376190Y-95200000D01*
X209280952Y-95152380D01*
X209185714Y-94819047D02*
X209852380Y-94580952D01*
X209185714Y-94342857D01*
X209852380Y-93533333D02*
X209328571Y-93533333D01*
X209233333Y-93580952D01*
X209185714Y-93676190D01*
X209185714Y-93866666D01*
X209233333Y-93961904D01*
X209804761Y-93533333D02*
X209852380Y-93628571D01*
X209852380Y-93866666D01*
X209804761Y-93961904D01*
X209709523Y-94009523D01*
X209614285Y-94009523D01*
X209519047Y-93961904D01*
X209471428Y-93866666D01*
X209471428Y-93628571D01*
X209423809Y-93533333D01*
X209804761Y-92628571D02*
X209852380Y-92723809D01*
X209852380Y-92914285D01*
X209804761Y-93009523D01*
X209757142Y-93057142D01*
X209661904Y-93104761D01*
X209376190Y-93104761D01*
X209280952Y-93057142D01*
X209233333Y-93009523D01*
X209185714Y-92914285D01*
X209185714Y-92723809D01*
X209233333Y-92628571D01*
X209804761Y-92152380D02*
X209852380Y-92152380D01*
X209947619Y-92200000D01*
X209995238Y-92247619D01*
X209852380Y-90914285D02*
X209852380Y-90723809D01*
X209804761Y-90628571D01*
X209757142Y-90580952D01*
X209614285Y-90485714D01*
X209423809Y-90438095D01*
X209042857Y-90438095D01*
X208947619Y-90485714D01*
X208900000Y-90533333D01*
X208852380Y-90628571D01*
X208852380Y-90819047D01*
X208900000Y-90914285D01*
X208947619Y-90961904D01*
X209042857Y-91009523D01*
X209280952Y-91009523D01*
X209376190Y-90961904D01*
X209423809Y-90914285D01*
X209471428Y-90819047D01*
X209471428Y-90628571D01*
X209423809Y-90533333D01*
X209376190Y-90485714D01*
X209280952Y-90438095D01*
X209185714Y-90104761D02*
X209852380Y-89866666D01*
X209185714Y-89628571D01*
X209852380Y-88819047D02*
X209328571Y-88819047D01*
X209233333Y-88866666D01*
X209185714Y-88961904D01*
X209185714Y-89152380D01*
X209233333Y-89247619D01*
X209804761Y-88819047D02*
X209852380Y-88914285D01*
X209852380Y-89152380D01*
X209804761Y-89247619D01*
X209709523Y-89295238D01*
X209614285Y-89295238D01*
X209519047Y-89247619D01*
X209471428Y-89152380D01*
X209471428Y-88914285D01*
X209423809Y-88819047D01*
X209804761Y-87914285D02*
X209852380Y-88009523D01*
X209852380Y-88200000D01*
X209804761Y-88295238D01*
X209757142Y-88342857D01*
X209661904Y-88390476D01*
X209376190Y-88390476D01*
X209280952Y-88342857D01*
X209233333Y-88295238D01*
X209185714Y-88200000D01*
X209185714Y-88009523D01*
X209233333Y-87914285D01*
D11*
X89000000Y-136000000D02*
X89000000Y-62000000D01*
X211000000Y-136000000D02*
X89000000Y-136000000D01*
X211000000Y-62000000D02*
X211000000Y-136000000D01*
X89000000Y-62000000D02*
X211000000Y-62000000D01*
D12*
G04 #@! TO.C,D2*
X197312500Y-89065000D02*
X193252500Y-89065000D01*
X193252500Y-89065000D02*
X193252500Y-91335000D01*
X193252500Y-91335000D02*
X197312500Y-91335000D01*
G04 #@! TO.C,TP1*
X187860000Y-107545000D02*
X182790000Y-107545000D01*
X187860000Y-97775000D02*
X182790000Y-97775000D01*
X182790000Y-97775000D02*
X182790000Y-107545000D01*
X187860000Y-97775000D02*
X187860000Y-107545000D01*
G04 #@! TO.C,Q1*
X207371066Y-99201706D02*
X207666066Y-99201706D01*
X207666066Y-99201706D02*
X207666066Y-96361706D01*
X207666066Y-96361706D02*
X207371066Y-96361706D01*
X204421066Y-96361706D02*
X204126066Y-96361706D01*
X204126066Y-96361706D02*
X204126066Y-99201706D01*
X204126066Y-99201706D02*
X204421066Y-99201706D01*
X204421066Y-99931706D02*
X204421066Y-99201706D01*
G04 #@! TO.C,Cboot1*
X185323603Y-116240065D02*
X185323603Y-116762569D01*
X183903603Y-116240065D02*
X183903603Y-116762569D01*
G04 #@! TO.C,Cinx1*
X197213748Y-116210000D02*
X197736252Y-116210000D01*
X197213748Y-114790000D02*
X197736252Y-114790000D01*
G04 #@! TO.C,Coutx1*
X199290000Y-120086252D02*
X199290000Y-119563748D01*
X200710000Y-120086252D02*
X200710000Y-119563748D01*
G04 #@! TO.C,Cvcc1*
X184078455Y-112536417D02*
X183555951Y-112536417D01*
X184078455Y-113956417D02*
X183555951Y-113956417D01*
G04 #@! TO.C,Cin1*
X197410436Y-113910000D02*
X198614564Y-113910000D01*
X197410436Y-112090000D02*
X198614564Y-112090000D01*
G04 #@! TO.C,Cout1*
X197960000Y-120289564D02*
X197960000Y-119085436D01*
X195240000Y-120289564D02*
X195240000Y-119085436D01*
G04 #@! TO.C,F3*
X102200000Y-85300000D02*
X99400000Y-85300000D01*
X95400000Y-85300000D02*
X92600000Y-85300000D01*
X95400000Y-107800000D02*
X92600000Y-107800000D01*
X92600000Y-107800000D02*
X92600000Y-85300000D01*
X102200000Y-107800000D02*
X102200000Y-85300000D01*
X102200000Y-107800000D02*
X99400000Y-107800000D01*
G04 #@! TO.C,F2*
X165600000Y-64400000D02*
X165600000Y-67200000D01*
X165600000Y-71200000D02*
X165600000Y-74000000D01*
X188100000Y-71200000D02*
X188100000Y-74000000D01*
X188100000Y-74000000D02*
X165600000Y-74000000D01*
X188100000Y-64400000D02*
X165600000Y-64400000D01*
X188100000Y-64400000D02*
X188100000Y-67200000D01*
G04 #@! TO.C,F1*
X165400000Y-110200000D02*
X168200000Y-110200000D01*
X165400000Y-110200000D02*
X165400000Y-132700000D01*
X175000000Y-110200000D02*
X175000000Y-132700000D01*
X172200000Y-110200000D02*
X175000000Y-110200000D01*
X172200000Y-132700000D02*
X175000000Y-132700000D01*
X165400000Y-132700000D02*
X168200000Y-132700000D01*
G04 #@! TO.C,U1*
X198710000Y-96340000D02*
X198710000Y-96080000D01*
X195740000Y-99460000D02*
X195890000Y-99460000D01*
X195740000Y-96340000D02*
X195740000Y-99460000D01*
X198860000Y-96340000D02*
X198860000Y-99460000D01*
X195740000Y-96340000D02*
X195890000Y-96340000D01*
X198860000Y-96340000D02*
X198710000Y-96340000D01*
X198860000Y-99460000D02*
X198710000Y-99460000D01*
D11*
G04 #@! TO.C,U2*
X191971803Y-117993917D02*
X193371803Y-117993917D01*
X191971803Y-112893917D02*
X187821803Y-112893917D01*
X191971803Y-118043917D02*
X187821803Y-118043917D01*
X191971803Y-112893917D02*
X191971803Y-113038917D01*
X187821803Y-112893917D02*
X187821803Y-113038917D01*
X187821803Y-118043917D02*
X187821803Y-117898917D01*
X191971803Y-118043917D02*
X191971803Y-117993917D01*
D12*
G04 #@! TO.C,Rfbb1*
X190559503Y-109333069D02*
X190559503Y-108810565D01*
X189139503Y-109333069D02*
X189139503Y-108810565D01*
G04 #@! TO.C,Ren1*
X193938748Y-109490000D02*
X194461252Y-109490000D01*
X193938748Y-110910000D02*
X194461252Y-110910000D01*
G04 #@! TO.C,R4*
X201413748Y-102210000D02*
X201936252Y-102210000D01*
X201413748Y-100790000D02*
X201936252Y-100790000D01*
G04 #@! TO.C,R3*
X197190000Y-102886252D02*
X197190000Y-102363748D01*
X198610000Y-102886252D02*
X198610000Y-102363748D01*
G04 #@! TO.C,Rfbt1*
X185926951Y-110844917D02*
X186449455Y-110844917D01*
X185926951Y-109424917D02*
X186449455Y-109424917D01*
D11*
G04 #@! TO.C,RV1*
X176250000Y-106750000D02*
X176250000Y-102250000D01*
X164250000Y-106750000D02*
X164250000Y-102250000D01*
X176250000Y-106750000D02*
X164250000Y-106750000D01*
X176250000Y-102250000D02*
X164250000Y-102250000D01*
G04 #@! TO.C,RV2*
X196150000Y-76350000D02*
X196150000Y-64350000D01*
X191650000Y-76350000D02*
X191650000Y-64350000D01*
X191650000Y-64350000D02*
X196150000Y-64350000D01*
X191650000Y-76350000D02*
X196150000Y-76350000D01*
G04 #@! TO.C,RV3*
X96150000Y-126800000D02*
X96150000Y-111300000D01*
X90950000Y-126800000D02*
X90950000Y-111300000D01*
X90950000Y-111300000D02*
X96150000Y-111300000D01*
X90950000Y-126800000D02*
X96150000Y-126800000D01*
D12*
G04 #@! TO.C,L1*
X193550000Y-120200000D02*
G75*
G02X194200000Y-120850000I0J-650000D01*
G01*
X194200000Y-132350000D02*
G75*
G02X193550000Y-133000000I-650000J0D01*
G01*
X182050000Y-133000000D02*
G75*
G02X181400000Y-132350000I0J650000D01*
G01*
X181400000Y-120850000D02*
G75*
G02X182050000Y-120200000I650000J0D01*
G01*
X194200000Y-129600000D02*
X194200000Y-132350000D01*
X181400000Y-129600000D02*
X181400000Y-132350000D01*
X194200000Y-120850000D02*
X194200000Y-123600000D01*
X193550000Y-133000000D02*
X182050000Y-133000000D01*
X181400000Y-120850000D02*
X181400000Y-123600000D01*
X182050000Y-120200000D02*
X193550000Y-120200000D01*
G04 #@! TO.C,C1*
X98580000Y-130720000D02*
X98580000Y-111480000D01*
X103820000Y-130720000D02*
X103820000Y-111480000D01*
X98580000Y-130720000D02*
X103820000Y-130720000D01*
X98580000Y-111480000D02*
X103820000Y-111480000D01*
G04 #@! TO.C,D1*
X164300000Y-76460000D02*
X164300000Y-99860000D01*
X164300000Y-99860000D02*
X171700000Y-99860000D01*
X171700000Y-99860000D02*
X171700000Y-76460000D01*
X171700000Y-76460000D02*
X164300000Y-76460000D01*
X167700000Y-81160000D02*
X164300000Y-81160000D01*
X170600000Y-76260000D02*
X171900000Y-76260000D01*
X171900000Y-76260000D02*
X171900000Y-77460000D01*
X171300000Y-81160000D02*
X171700000Y-81160000D01*
G04 #@! TO.C,R1*
X195963748Y-93340000D02*
X196486252Y-93340000D01*
X195963748Y-94760000D02*
X196486252Y-94760000D01*
G04 #@! TO.C,R2*
X200463748Y-94760000D02*
X200986252Y-94760000D01*
X200463748Y-93340000D02*
X200986252Y-93340000D01*
G04 #@! TO.C,C2*
X192320000Y-86050000D02*
G75*
G03X192320000Y-86050000I-9120000J0D01*
G01*
X192281000Y-86050000D02*
X174119000Y-86050000D01*
X192280000Y-86090000D02*
X174120000Y-86090000D01*
X192280000Y-86130000D02*
X174120000Y-86130000D01*
X192280000Y-86170000D02*
X174120000Y-86170000D01*
X192279000Y-86210000D02*
X174121000Y-86210000D01*
X192278000Y-86250000D02*
X174122000Y-86250000D01*
X192277000Y-86290000D02*
X174123000Y-86290000D01*
X192276000Y-86330000D02*
X174124000Y-86330000D01*
X192275000Y-86370000D02*
X174125000Y-86370000D01*
X192273000Y-86410000D02*
X174127000Y-86410000D01*
X192272000Y-86450000D02*
X174128000Y-86450000D01*
X192270000Y-86490000D02*
X174130000Y-86490000D01*
X192268000Y-86530000D02*
X174132000Y-86530000D01*
X192266000Y-86570000D02*
X174134000Y-86570000D01*
X192263000Y-86610000D02*
X174137000Y-86610000D01*
X192261000Y-86650000D02*
X174139000Y-86650000D01*
X192258000Y-86690000D02*
X174142000Y-86690000D01*
X192255000Y-86730000D02*
X174145000Y-86730000D01*
X192252000Y-86771000D02*
X174148000Y-86771000D01*
X192249000Y-86811000D02*
X174151000Y-86811000D01*
X192245000Y-86851000D02*
X174155000Y-86851000D01*
X192242000Y-86891000D02*
X174158000Y-86891000D01*
X192238000Y-86931000D02*
X174162000Y-86931000D01*
X192234000Y-86971000D02*
X174166000Y-86971000D01*
X192230000Y-87011000D02*
X174170000Y-87011000D01*
X192226000Y-87051000D02*
X174174000Y-87051000D01*
X192221000Y-87091000D02*
X174179000Y-87091000D01*
X192216000Y-87131000D02*
X174184000Y-87131000D01*
X192211000Y-87171000D02*
X174189000Y-87171000D01*
X192206000Y-87211000D02*
X174194000Y-87211000D01*
X192201000Y-87251000D02*
X174199000Y-87251000D01*
X192196000Y-87291000D02*
X174204000Y-87291000D01*
X192190000Y-87331000D02*
X174210000Y-87331000D01*
X192184000Y-87371000D02*
X174216000Y-87371000D01*
X192179000Y-87411000D02*
X174221000Y-87411000D01*
X192172000Y-87451000D02*
X174228000Y-87451000D01*
X192166000Y-87491000D02*
X174234000Y-87491000D01*
X192160000Y-87531000D02*
X174240000Y-87531000D01*
X192153000Y-87571000D02*
X174247000Y-87571000D01*
X192146000Y-87611000D02*
X174254000Y-87611000D01*
X192139000Y-87651000D02*
X174261000Y-87651000D01*
X192132000Y-87691000D02*
X174268000Y-87691000D01*
X192124000Y-87731000D02*
X174276000Y-87731000D01*
X192117000Y-87771000D02*
X174283000Y-87771000D01*
X192109000Y-87811000D02*
X174291000Y-87811000D01*
X192101000Y-87851000D02*
X174299000Y-87851000D01*
X192093000Y-87891000D02*
X174307000Y-87891000D01*
X192085000Y-87931000D02*
X174315000Y-87931000D01*
X192076000Y-87971000D02*
X174324000Y-87971000D01*
X192067000Y-88011000D02*
X174333000Y-88011000D01*
X192058000Y-88051000D02*
X174342000Y-88051000D01*
X192049000Y-88091000D02*
X174351000Y-88091000D01*
X192040000Y-88131000D02*
X174360000Y-88131000D01*
X192031000Y-88171000D02*
X174369000Y-88171000D01*
X192021000Y-88211000D02*
X174379000Y-88211000D01*
X192011000Y-88251000D02*
X174389000Y-88251000D01*
X192001000Y-88291000D02*
X174399000Y-88291000D01*
X191991000Y-88331000D02*
X174409000Y-88331000D01*
X191980000Y-88371000D02*
X184640000Y-88371000D01*
X181760000Y-88371000D02*
X174420000Y-88371000D01*
X191970000Y-88411000D02*
X184640000Y-88411000D01*
X181760000Y-88411000D02*
X174430000Y-88411000D01*
X191959000Y-88451000D02*
X184640000Y-88451000D01*
X181760000Y-88451000D02*
X174441000Y-88451000D01*
X191948000Y-88491000D02*
X184640000Y-88491000D01*
X181760000Y-88491000D02*
X174452000Y-88491000D01*
X191937000Y-88531000D02*
X184640000Y-88531000D01*
X181760000Y-88531000D02*
X174463000Y-88531000D01*
X191925000Y-88571000D02*
X184640000Y-88571000D01*
X181760000Y-88571000D02*
X174475000Y-88571000D01*
X191914000Y-88611000D02*
X184640000Y-88611000D01*
X181760000Y-88611000D02*
X174486000Y-88611000D01*
X191902000Y-88651000D02*
X184640000Y-88651000D01*
X181760000Y-88651000D02*
X174498000Y-88651000D01*
X191890000Y-88691000D02*
X184640000Y-88691000D01*
X181760000Y-88691000D02*
X174510000Y-88691000D01*
X191878000Y-88731000D02*
X184640000Y-88731000D01*
X181760000Y-88731000D02*
X174522000Y-88731000D01*
X191865000Y-88771000D02*
X184640000Y-88771000D01*
X181760000Y-88771000D02*
X174535000Y-88771000D01*
X191853000Y-88811000D02*
X184640000Y-88811000D01*
X181760000Y-88811000D02*
X174547000Y-88811000D01*
X191840000Y-88851000D02*
X184640000Y-88851000D01*
X181760000Y-88851000D02*
X174560000Y-88851000D01*
X191827000Y-88891000D02*
X184640000Y-88891000D01*
X181760000Y-88891000D02*
X174573000Y-88891000D01*
X191814000Y-88931000D02*
X184640000Y-88931000D01*
X181760000Y-88931000D02*
X174586000Y-88931000D01*
X191800000Y-88971000D02*
X184640000Y-88971000D01*
X181760000Y-88971000D02*
X174600000Y-88971000D01*
X191787000Y-89011000D02*
X184640000Y-89011000D01*
X181760000Y-89011000D02*
X174613000Y-89011000D01*
X191773000Y-89051000D02*
X184640000Y-89051000D01*
X181760000Y-89051000D02*
X174627000Y-89051000D01*
X191759000Y-89091000D02*
X184640000Y-89091000D01*
X181760000Y-89091000D02*
X174641000Y-89091000D01*
X191745000Y-89131000D02*
X184640000Y-89131000D01*
X181760000Y-89131000D02*
X174655000Y-89131000D01*
X191730000Y-89171000D02*
X184640000Y-89171000D01*
X181760000Y-89171000D02*
X174670000Y-89171000D01*
X191716000Y-89211000D02*
X184640000Y-89211000D01*
X181760000Y-89211000D02*
X174684000Y-89211000D01*
X191701000Y-89251000D02*
X184640000Y-89251000D01*
X181760000Y-89251000D02*
X174699000Y-89251000D01*
X191686000Y-89291000D02*
X184640000Y-89291000D01*
X181760000Y-89291000D02*
X174714000Y-89291000D01*
X191670000Y-89331000D02*
X184640000Y-89331000D01*
X181760000Y-89331000D02*
X174730000Y-89331000D01*
X191655000Y-89371000D02*
X184640000Y-89371000D01*
X181760000Y-89371000D02*
X174745000Y-89371000D01*
X191639000Y-89411000D02*
X184640000Y-89411000D01*
X181760000Y-89411000D02*
X174761000Y-89411000D01*
X191623000Y-89451000D02*
X184640000Y-89451000D01*
X181760000Y-89451000D02*
X174777000Y-89451000D01*
X191607000Y-89491000D02*
X184640000Y-89491000D01*
X181760000Y-89491000D02*
X174793000Y-89491000D01*
X191590000Y-89531000D02*
X184640000Y-89531000D01*
X181760000Y-89531000D02*
X174810000Y-89531000D01*
X191574000Y-89571000D02*
X184640000Y-89571000D01*
X181760000Y-89571000D02*
X174826000Y-89571000D01*
X191557000Y-89611000D02*
X184640000Y-89611000D01*
X181760000Y-89611000D02*
X174843000Y-89611000D01*
X191540000Y-89651000D02*
X184640000Y-89651000D01*
X181760000Y-89651000D02*
X174860000Y-89651000D01*
X191523000Y-89691000D02*
X184640000Y-89691000D01*
X181760000Y-89691000D02*
X174877000Y-89691000D01*
X191505000Y-89731000D02*
X184640000Y-89731000D01*
X181760000Y-89731000D02*
X174895000Y-89731000D01*
X191487000Y-89771000D02*
X184640000Y-89771000D01*
X181760000Y-89771000D02*
X174913000Y-89771000D01*
X191469000Y-89811000D02*
X184640000Y-89811000D01*
X181760000Y-89811000D02*
X174931000Y-89811000D01*
X191451000Y-89851000D02*
X184640000Y-89851000D01*
X181760000Y-89851000D02*
X174949000Y-89851000D01*
X191433000Y-89891000D02*
X184640000Y-89891000D01*
X181760000Y-89891000D02*
X174967000Y-89891000D01*
X191414000Y-89931000D02*
X184640000Y-89931000D01*
X181760000Y-89931000D02*
X174986000Y-89931000D01*
X191395000Y-89971000D02*
X184640000Y-89971000D01*
X181760000Y-89971000D02*
X175005000Y-89971000D01*
X191376000Y-90011000D02*
X184640000Y-90011000D01*
X181760000Y-90011000D02*
X175024000Y-90011000D01*
X191356000Y-90051000D02*
X184640000Y-90051000D01*
X181760000Y-90051000D02*
X175044000Y-90051000D01*
X191337000Y-90091000D02*
X184640000Y-90091000D01*
X181760000Y-90091000D02*
X175063000Y-90091000D01*
X191317000Y-90131000D02*
X184640000Y-90131000D01*
X181760000Y-90131000D02*
X175083000Y-90131000D01*
X191297000Y-90171000D02*
X184640000Y-90171000D01*
X181760000Y-90171000D02*
X175103000Y-90171000D01*
X191276000Y-90211000D02*
X184640000Y-90211000D01*
X181760000Y-90211000D02*
X175124000Y-90211000D01*
X191256000Y-90251000D02*
X184640000Y-90251000D01*
X181760000Y-90251000D02*
X175144000Y-90251000D01*
X191235000Y-90291000D02*
X184640000Y-90291000D01*
X181760000Y-90291000D02*
X175165000Y-90291000D01*
X191214000Y-90331000D02*
X184640000Y-90331000D01*
X181760000Y-90331000D02*
X175186000Y-90331000D01*
X191192000Y-90371000D02*
X184640000Y-90371000D01*
X181760000Y-90371000D02*
X175208000Y-90371000D01*
X191171000Y-90411000D02*
X184640000Y-90411000D01*
X181760000Y-90411000D02*
X175229000Y-90411000D01*
X191149000Y-90451000D02*
X184640000Y-90451000D01*
X181760000Y-90451000D02*
X175251000Y-90451000D01*
X191127000Y-90491000D02*
X184640000Y-90491000D01*
X181760000Y-90491000D02*
X175273000Y-90491000D01*
X191104000Y-90531000D02*
X184640000Y-90531000D01*
X181760000Y-90531000D02*
X175296000Y-90531000D01*
X191082000Y-90571000D02*
X184640000Y-90571000D01*
X181760000Y-90571000D02*
X175318000Y-90571000D01*
X191059000Y-90611000D02*
X184640000Y-90611000D01*
X181760000Y-90611000D02*
X175341000Y-90611000D01*
X191035000Y-90651000D02*
X184640000Y-90651000D01*
X181760000Y-90651000D02*
X175365000Y-90651000D01*
X191012000Y-90691000D02*
X184640000Y-90691000D01*
X181760000Y-90691000D02*
X175388000Y-90691000D01*
X190988000Y-90731000D02*
X184640000Y-90731000D01*
X181760000Y-90731000D02*
X175412000Y-90731000D01*
X190964000Y-90771000D02*
X184640000Y-90771000D01*
X181760000Y-90771000D02*
X175436000Y-90771000D01*
X190940000Y-90811000D02*
X184640000Y-90811000D01*
X181760000Y-90811000D02*
X175460000Y-90811000D01*
X190915000Y-90851000D02*
X184640000Y-90851000D01*
X181760000Y-90851000D02*
X175485000Y-90851000D01*
X190890000Y-90891000D02*
X184640000Y-90891000D01*
X181760000Y-90891000D02*
X175510000Y-90891000D01*
X190865000Y-90931000D02*
X184640000Y-90931000D01*
X181760000Y-90931000D02*
X175535000Y-90931000D01*
X190840000Y-90971000D02*
X184640000Y-90971000D01*
X181760000Y-90971000D02*
X175560000Y-90971000D01*
X190814000Y-91011000D02*
X184640000Y-91011000D01*
X181760000Y-91011000D02*
X175586000Y-91011000D01*
X190788000Y-91051000D02*
X184640000Y-91051000D01*
X181760000Y-91051000D02*
X175612000Y-91051000D01*
X190761000Y-91091000D02*
X184640000Y-91091000D01*
X181760000Y-91091000D02*
X175639000Y-91091000D01*
X190735000Y-91131000D02*
X184640000Y-91131000D01*
X181760000Y-91131000D02*
X175665000Y-91131000D01*
X190708000Y-91171000D02*
X184640000Y-91171000D01*
X181760000Y-91171000D02*
X175692000Y-91171000D01*
X190680000Y-91211000D02*
X184640000Y-91211000D01*
X181760000Y-91211000D02*
X175720000Y-91211000D01*
X190653000Y-91251000D02*
X175747000Y-91251000D01*
X190625000Y-91291000D02*
X175775000Y-91291000D01*
X190597000Y-91331000D02*
X175803000Y-91331000D01*
X190568000Y-91371000D02*
X175832000Y-91371000D01*
X190539000Y-91411000D02*
X175861000Y-91411000D01*
X190510000Y-91451000D02*
X175890000Y-91451000D01*
X190480000Y-91491000D02*
X175920000Y-91491000D01*
X190450000Y-91531000D02*
X175950000Y-91531000D01*
X190420000Y-91571000D02*
X175980000Y-91571000D01*
X190390000Y-91611000D02*
X176010000Y-91611000D01*
X190359000Y-91651000D02*
X176041000Y-91651000D01*
X190327000Y-91691000D02*
X176073000Y-91691000D01*
X190296000Y-91731000D02*
X176104000Y-91731000D01*
X190264000Y-91771000D02*
X176136000Y-91771000D01*
X190231000Y-91811000D02*
X176169000Y-91811000D01*
X190199000Y-91851000D02*
X176201000Y-91851000D01*
X190165000Y-91891000D02*
X176235000Y-91891000D01*
X190132000Y-91931000D02*
X176268000Y-91931000D01*
X190098000Y-91971000D02*
X176302000Y-91971000D01*
X190064000Y-92011000D02*
X176336000Y-92011000D01*
X190029000Y-92051000D02*
X176371000Y-92051000D01*
X189994000Y-92091000D02*
X176406000Y-92091000D01*
X189958000Y-92131000D02*
X176442000Y-92131000D01*
X189922000Y-92171000D02*
X176478000Y-92171000D01*
X189886000Y-92211000D02*
X176514000Y-92211000D01*
X189849000Y-92251000D02*
X176551000Y-92251000D01*
X189812000Y-92291000D02*
X176588000Y-92291000D01*
X189774000Y-92331000D02*
X176626000Y-92331000D01*
X189736000Y-92371000D02*
X176664000Y-92371000D01*
X189697000Y-92411000D02*
X176703000Y-92411000D01*
X189658000Y-92451000D02*
X176742000Y-92451000D01*
X189618000Y-92491000D02*
X176782000Y-92491000D01*
X189578000Y-92531000D02*
X176822000Y-92531000D01*
X189537000Y-92571000D02*
X176863000Y-92571000D01*
X189496000Y-92611000D02*
X176904000Y-92611000D01*
X189454000Y-92651000D02*
X176946000Y-92651000D01*
X189412000Y-92691000D02*
X176988000Y-92691000D01*
X189370000Y-92731000D02*
X177030000Y-92731000D01*
X189326000Y-92771000D02*
X177074000Y-92771000D01*
X189282000Y-92811000D02*
X177118000Y-92811000D01*
X189238000Y-92851000D02*
X177162000Y-92851000D01*
X189193000Y-92891000D02*
X177207000Y-92891000D01*
X189147000Y-92931000D02*
X177253000Y-92931000D01*
X189101000Y-92971000D02*
X177299000Y-92971000D01*
X189054000Y-93011000D02*
X177346000Y-93011000D01*
X189006000Y-93051000D02*
X177394000Y-93051000D01*
X188958000Y-93091000D02*
X177442000Y-93091000D01*
X188909000Y-93131000D02*
X177491000Y-93131000D01*
X188860000Y-93171000D02*
X177540000Y-93171000D01*
X188809000Y-93211000D02*
X177591000Y-93211000D01*
X188758000Y-93251000D02*
X177642000Y-93251000D01*
X188706000Y-93291000D02*
X177694000Y-93291000D01*
X188654000Y-93331000D02*
X177746000Y-93331000D01*
X188600000Y-93371000D02*
X177800000Y-93371000D01*
X188546000Y-93411000D02*
X177854000Y-93411000D01*
X188491000Y-93451000D02*
X177909000Y-93451000D01*
X188435000Y-93491000D02*
X177965000Y-93491000D01*
X188378000Y-93531000D02*
X178022000Y-93531000D01*
X188320000Y-93571000D02*
X178080000Y-93571000D01*
X188262000Y-93611000D02*
X178138000Y-93611000D01*
X188202000Y-93651000D02*
X178198000Y-93651000D01*
X188141000Y-93691000D02*
X178259000Y-93691000D01*
X188079000Y-93731000D02*
X178321000Y-93731000D01*
X188016000Y-93771000D02*
X178384000Y-93771000D01*
X187952000Y-93811000D02*
X178448000Y-93811000D01*
X187886000Y-93851000D02*
X178514000Y-93851000D01*
X187820000Y-93891000D02*
X178580000Y-93891000D01*
X187752000Y-93931000D02*
X178648000Y-93931000D01*
X187682000Y-93971000D02*
X178718000Y-93971000D01*
X187612000Y-94011000D02*
X178788000Y-94011000D01*
X187539000Y-94051000D02*
X178861000Y-94051000D01*
X187465000Y-94091000D02*
X178935000Y-94091000D01*
X187390000Y-94131000D02*
X179010000Y-94131000D01*
X187313000Y-94171000D02*
X179087000Y-94171000D01*
X187233000Y-94211000D02*
X179167000Y-94211000D01*
X187152000Y-94250000D02*
X179248000Y-94250000D01*
X187069000Y-94290000D02*
X179331000Y-94290000D01*
X186984000Y-94330000D02*
X179416000Y-94330000D01*
X186896000Y-94370000D02*
X179504000Y-94370000D01*
X186805000Y-94410000D02*
X179595000Y-94410000D01*
X186712000Y-94450000D02*
X179688000Y-94450000D01*
X186616000Y-94490000D02*
X179784000Y-94490000D01*
X186517000Y-94530000D02*
X179883000Y-94530000D01*
X186414000Y-94570000D02*
X179986000Y-94570000D01*
X186307000Y-94610000D02*
X180093000Y-94610000D01*
X186196000Y-94650000D02*
X180204000Y-94650000D01*
X186080000Y-94690000D02*
X180320000Y-94690000D01*
X185959000Y-94730000D02*
X180441000Y-94730000D01*
X185832000Y-94770000D02*
X180568000Y-94770000D01*
X185698000Y-94810000D02*
X180702000Y-94810000D01*
X185555000Y-94850000D02*
X180845000Y-94850000D01*
X185403000Y-94890000D02*
X180997000Y-94890000D01*
X185239000Y-94930000D02*
X181161000Y-94930000D01*
X185060000Y-94970000D02*
X181340000Y-94970000D01*
X184861000Y-95010000D02*
X181539000Y-95010000D01*
X184635000Y-95050000D02*
X181765000Y-95050000D01*
X184366000Y-95090000D02*
X182034000Y-95090000D01*
X184014000Y-95130000D02*
X182386000Y-95130000D01*
X183240000Y-95170000D02*
X183160000Y-95170000D01*
X188315000Y-76290560D02*
X188315000Y-78090560D01*
X189215000Y-77190560D02*
X187415000Y-77190560D01*
G04 #@! TO.C,R5*
X202114564Y-90910000D02*
X200910436Y-90910000D01*
X202114564Y-89090000D02*
X200910436Y-89090000D01*
D13*
G04 #@! TO.C,TR1*
X162400000Y-133000000D02*
X105400000Y-133000000D01*
X105400000Y-133000000D02*
X105400000Y-65000000D01*
X162400000Y-65000000D02*
X162400000Y-133000000D01*
X105400000Y-65000000D02*
X162400000Y-65000000D01*
D11*
X110900000Y-118410000D02*
X110900000Y-113330000D01*
X110900000Y-113330000D02*
X126140000Y-113330000D01*
X126140000Y-113330000D02*
X126140000Y-118410000D01*
X136300000Y-118410000D02*
X136300000Y-113330000D01*
X136300000Y-113330000D02*
X151540000Y-113330000D01*
X151540000Y-113330000D02*
X151540000Y-118410000D01*
X115980000Y-79040000D02*
X115980000Y-82850000D01*
X115980000Y-82850000D02*
X126140000Y-82850000D01*
X126140000Y-82850000D02*
X126140000Y-79040000D01*
X141380000Y-79040000D02*
X141380000Y-82850000D01*
X141380000Y-82850000D02*
X151540000Y-82850000D01*
X151540000Y-82850000D02*
X151540000Y-79040000D01*
D12*
G04 #@! TO.C,J1*
X96065244Y-75283318D02*
G75*
G02X95920000Y-74600000I1534756J683318D01*
G01*
X98283042Y-76135426D02*
G75*
G02X96916000Y-76135000I-683042J1535426D01*
G01*
X99135426Y-73916958D02*
G75*
G02X99135000Y-75284000I-1535426J-683042D01*
G01*
X96916958Y-73064574D02*
G75*
G02X98284000Y-73065000I683042J-1535426D01*
G01*
X95919747Y-74628805D02*
G75*
G02X96065000Y-73916000I1680253J28805D01*
G01*
X99280000Y-79600000D02*
G75*
G03X99280000Y-79600000I-1680000J0D01*
G01*
X93500000Y-72040000D02*
X93500000Y-82160000D01*
X95000000Y-72040000D02*
X95000000Y-82160000D01*
X99901000Y-72040000D02*
X99901000Y-82160000D01*
X102861000Y-72040000D02*
X102861000Y-82160000D01*
X92940000Y-72040000D02*
X92940000Y-82160000D01*
X102861000Y-72040000D02*
X92940000Y-72040000D01*
X102861000Y-82160000D02*
X92940000Y-82160000D01*
X98669000Y-80875000D02*
X98623000Y-80828000D01*
X96361000Y-78566000D02*
X96326000Y-78531000D01*
X98875000Y-80670000D02*
X98839000Y-80635000D01*
X96577000Y-78373000D02*
X96531000Y-78326000D01*
X93440000Y-71800000D02*
X92700000Y-71800000D01*
X92700000Y-71800000D02*
X92700000Y-72300000D01*
G04 #@! TO.C,J2*
X208900000Y-74800000D02*
X208900000Y-74300000D01*
X208160000Y-74800000D02*
X208900000Y-74800000D01*
X205023000Y-68227000D02*
X205069000Y-68274000D01*
X202725000Y-65930000D02*
X202761000Y-65965000D01*
X205239000Y-68034000D02*
X205274000Y-68069000D01*
X202931000Y-65725000D02*
X202977000Y-65772000D01*
X198739000Y-64440000D02*
X208660000Y-64440000D01*
X198739000Y-74560000D02*
X208660000Y-74560000D01*
X208660000Y-74560000D02*
X208660000Y-64440000D01*
X198739000Y-74560000D02*
X198739000Y-64440000D01*
X201699000Y-74560000D02*
X201699000Y-64440000D01*
X206600000Y-74560000D02*
X206600000Y-64440000D01*
X208100000Y-74560000D02*
X208100000Y-64440000D01*
X205680000Y-67000000D02*
G75*
G03X205680000Y-67000000I-1680000J0D01*
G01*
X205680253Y-71971195D02*
G75*
G02X205535000Y-72684000I-1680253J-28805D01*
G01*
X204683042Y-73535426D02*
G75*
G02X203316000Y-73535000I-683042J1535426D01*
G01*
X202464574Y-72683042D02*
G75*
G02X202465000Y-71316000I1535426J683042D01*
G01*
X203316958Y-70464574D02*
G75*
G02X204684000Y-70465000I683042J-1535426D01*
G01*
X205534756Y-71316682D02*
G75*
G02X205680000Y-72000000I-1534756J-683318D01*
G01*
G04 #@! TO.C,J3*
X205534756Y-130316682D02*
G75*
G02X205680000Y-131000000I-1534756J-683318D01*
G01*
X203316958Y-129464574D02*
G75*
G02X204684000Y-129465000I683042J-1535426D01*
G01*
X202464574Y-131683042D02*
G75*
G02X202465000Y-130316000I1535426J683042D01*
G01*
X204683042Y-132535426D02*
G75*
G02X203316000Y-132535000I-683042J1535426D01*
G01*
X205680253Y-130971195D02*
G75*
G02X205535000Y-131684000I-1680253J-28805D01*
G01*
X205680000Y-126000000D02*
G75*
G03X205680000Y-126000000I-1680000J0D01*
G01*
X208100000Y-133560000D02*
X208100000Y-123440000D01*
X206600000Y-133560000D02*
X206600000Y-123440000D01*
X201699000Y-133560000D02*
X201699000Y-123440000D01*
X198739000Y-133560000D02*
X198739000Y-123440000D01*
X208660000Y-133560000D02*
X208660000Y-123440000D01*
X198739000Y-133560000D02*
X208660000Y-133560000D01*
X198739000Y-123440000D02*
X208660000Y-123440000D01*
X202931000Y-124725000D02*
X202977000Y-124772000D01*
X205239000Y-127034000D02*
X205274000Y-127069000D01*
X202725000Y-124930000D02*
X202761000Y-124965000D01*
X205023000Y-127227000D02*
X205069000Y-127274000D01*
X208160000Y-133800000D02*
X208900000Y-133800000D01*
X208900000Y-133800000D02*
X208900000Y-133300000D01*
G04 #@! TD*
G04 #@! TO.C,D2*
D11*
X194961904Y-88652380D02*
X194961904Y-87652380D01*
X195200000Y-87652380D01*
X195342857Y-87700000D01*
X195438095Y-87795238D01*
X195485714Y-87890476D01*
X195533333Y-88080952D01*
X195533333Y-88223809D01*
X195485714Y-88414285D01*
X195438095Y-88509523D01*
X195342857Y-88604761D01*
X195200000Y-88652380D01*
X194961904Y-88652380D01*
X195914285Y-87747619D02*
X195961904Y-87700000D01*
X196057142Y-87652380D01*
X196295238Y-87652380D01*
X196390476Y-87700000D01*
X196438095Y-87747619D01*
X196485714Y-87842857D01*
X196485714Y-87938095D01*
X196438095Y-88080952D01*
X195866666Y-88652380D01*
X196485714Y-88652380D01*
G04 #@! TO.C,TP1*
X188538095Y-97752380D02*
X189109523Y-97752380D01*
X188823809Y-98752380D02*
X188823809Y-97752380D01*
X189442857Y-98752380D02*
X189442857Y-97752380D01*
X189823809Y-97752380D01*
X189919047Y-97800000D01*
X189966666Y-97847619D01*
X190014285Y-97942857D01*
X190014285Y-98085714D01*
X189966666Y-98180952D01*
X189919047Y-98228571D01*
X189823809Y-98276190D01*
X189442857Y-98276190D01*
X190966666Y-98752380D02*
X190395238Y-98752380D01*
X190680952Y-98752380D02*
X190680952Y-97752380D01*
X190585714Y-97895238D01*
X190490476Y-97990476D01*
X190395238Y-98038095D01*
G04 #@! TO.C,Q1*
X205204761Y-101747619D02*
X205109523Y-101700000D01*
X205014285Y-101604761D01*
X204871428Y-101461904D01*
X204776190Y-101414285D01*
X204680952Y-101414285D01*
X204728571Y-101652380D02*
X204633333Y-101604761D01*
X204538095Y-101509523D01*
X204490476Y-101319047D01*
X204490476Y-100985714D01*
X204538095Y-100795238D01*
X204633333Y-100700000D01*
X204728571Y-100652380D01*
X204919047Y-100652380D01*
X205014285Y-100700000D01*
X205109523Y-100795238D01*
X205157142Y-100985714D01*
X205157142Y-101319047D01*
X205109523Y-101509523D01*
X205014285Y-101604761D01*
X204919047Y-101652380D01*
X204728571Y-101652380D01*
X206109523Y-101652380D02*
X205538095Y-101652380D01*
X205823809Y-101652380D02*
X205823809Y-100652380D01*
X205728571Y-100795238D01*
X205633333Y-100890476D01*
X205538095Y-100938095D01*
G04 #@! TO.C,Cboot1*
X178790476Y-116557142D02*
X178742857Y-116604761D01*
X178600000Y-116652380D01*
X178504761Y-116652380D01*
X178361904Y-116604761D01*
X178266666Y-116509523D01*
X178219047Y-116414285D01*
X178171428Y-116223809D01*
X178171428Y-116080952D01*
X178219047Y-115890476D01*
X178266666Y-115795238D01*
X178361904Y-115700000D01*
X178504761Y-115652380D01*
X178600000Y-115652380D01*
X178742857Y-115700000D01*
X178790476Y-115747619D01*
X179219047Y-116652380D02*
X179219047Y-115652380D01*
X179219047Y-116033333D02*
X179314285Y-115985714D01*
X179504761Y-115985714D01*
X179600000Y-116033333D01*
X179647619Y-116080952D01*
X179695238Y-116176190D01*
X179695238Y-116461904D01*
X179647619Y-116557142D01*
X179600000Y-116604761D01*
X179504761Y-116652380D01*
X179314285Y-116652380D01*
X179219047Y-116604761D01*
X180266666Y-116652380D02*
X180171428Y-116604761D01*
X180123809Y-116557142D01*
X180076190Y-116461904D01*
X180076190Y-116176190D01*
X180123809Y-116080952D01*
X180171428Y-116033333D01*
X180266666Y-115985714D01*
X180409523Y-115985714D01*
X180504761Y-116033333D01*
X180552380Y-116080952D01*
X180600000Y-116176190D01*
X180600000Y-116461904D01*
X180552380Y-116557142D01*
X180504761Y-116604761D01*
X180409523Y-116652380D01*
X180266666Y-116652380D01*
X181171428Y-116652380D02*
X181076190Y-116604761D01*
X181028571Y-116557142D01*
X180980952Y-116461904D01*
X180980952Y-116176190D01*
X181028571Y-116080952D01*
X181076190Y-116033333D01*
X181171428Y-115985714D01*
X181314285Y-115985714D01*
X181409523Y-116033333D01*
X181457142Y-116080952D01*
X181504761Y-116176190D01*
X181504761Y-116461904D01*
X181457142Y-116557142D01*
X181409523Y-116604761D01*
X181314285Y-116652380D01*
X181171428Y-116652380D01*
X181790476Y-115985714D02*
X182171428Y-115985714D01*
X181933333Y-115652380D02*
X181933333Y-116509523D01*
X181980952Y-116604761D01*
X182076190Y-116652380D01*
X182171428Y-116652380D01*
X183028571Y-116652380D02*
X182457142Y-116652380D01*
X182742857Y-116652380D02*
X182742857Y-115652380D01*
X182647619Y-115795238D01*
X182552380Y-115890476D01*
X182457142Y-115938095D01*
G04 #@! TO.C,Cinx1*
X200683701Y-115947444D02*
X200636082Y-115995063D01*
X200493225Y-116042682D01*
X200397986Y-116042682D01*
X200255129Y-115995063D01*
X200159891Y-115899825D01*
X200112272Y-115804587D01*
X200064653Y-115614111D01*
X200064653Y-115471254D01*
X200112272Y-115280778D01*
X200159891Y-115185540D01*
X200255129Y-115090302D01*
X200397986Y-115042682D01*
X200493225Y-115042682D01*
X200636082Y-115090302D01*
X200683701Y-115137921D01*
X201112272Y-116042682D02*
X201112272Y-115376016D01*
X201112272Y-115042682D02*
X201064653Y-115090302D01*
X201112272Y-115137921D01*
X201159891Y-115090302D01*
X201112272Y-115042682D01*
X201112272Y-115137921D01*
X201588463Y-115376016D02*
X201588463Y-116042682D01*
X201588463Y-115471254D02*
X201636082Y-115423635D01*
X201731320Y-115376016D01*
X201874177Y-115376016D01*
X201969415Y-115423635D01*
X202017034Y-115518873D01*
X202017034Y-116042682D01*
X202397986Y-116042682D02*
X202921796Y-115376016D01*
X202397986Y-115376016D02*
X202921796Y-116042682D01*
X203826558Y-116042682D02*
X203255129Y-116042682D01*
X203540844Y-116042682D02*
X203540844Y-115042682D01*
X203445606Y-115185540D01*
X203350367Y-115280778D01*
X203255129Y-115328397D01*
G04 #@! TO.C,Coutx1*
X202157142Y-121361904D02*
X202204761Y-121409523D01*
X202252380Y-121552380D01*
X202252380Y-121647619D01*
X202204761Y-121790476D01*
X202109523Y-121885714D01*
X202014285Y-121933333D01*
X201823809Y-121980952D01*
X201680952Y-121980952D01*
X201490476Y-121933333D01*
X201395238Y-121885714D01*
X201300000Y-121790476D01*
X201252380Y-121647619D01*
X201252380Y-121552380D01*
X201300000Y-121409523D01*
X201347619Y-121361904D01*
X202252380Y-120790476D02*
X202204761Y-120885714D01*
X202157142Y-120933333D01*
X202061904Y-120980952D01*
X201776190Y-120980952D01*
X201680952Y-120933333D01*
X201633333Y-120885714D01*
X201585714Y-120790476D01*
X201585714Y-120647619D01*
X201633333Y-120552380D01*
X201680952Y-120504761D01*
X201776190Y-120457142D01*
X202061904Y-120457142D01*
X202157142Y-120504761D01*
X202204761Y-120552380D01*
X202252380Y-120647619D01*
X202252380Y-120790476D01*
X201585714Y-119600000D02*
X202252380Y-119600000D01*
X201585714Y-120028571D02*
X202109523Y-120028571D01*
X202204761Y-119980952D01*
X202252380Y-119885714D01*
X202252380Y-119742857D01*
X202204761Y-119647619D01*
X202157142Y-119600000D01*
X201585714Y-119266666D02*
X201585714Y-118885714D01*
X201252380Y-119123809D02*
X202109523Y-119123809D01*
X202204761Y-119076190D01*
X202252380Y-118980952D01*
X202252380Y-118885714D01*
X202252380Y-118647619D02*
X201585714Y-118123809D01*
X201585714Y-118647619D02*
X202252380Y-118123809D01*
X202252380Y-117219047D02*
X202252380Y-117790476D01*
X202252380Y-117504761D02*
X201252380Y-117504761D01*
X201395238Y-117600000D01*
X201490476Y-117695238D01*
X201538095Y-117790476D01*
G04 #@! TO.C,Cvcc1*
X178192341Y-113578159D02*
X178144722Y-113625778D01*
X178001864Y-113673397D01*
X177906626Y-113673397D01*
X177763769Y-113625778D01*
X177668531Y-113530540D01*
X177620912Y-113435302D01*
X177573293Y-113244826D01*
X177573293Y-113101969D01*
X177620912Y-112911493D01*
X177668531Y-112816255D01*
X177763769Y-112721017D01*
X177906626Y-112673397D01*
X178001864Y-112673397D01*
X178144722Y-112721017D01*
X178192341Y-112768636D01*
X178525674Y-113006731D02*
X178763769Y-113673397D01*
X179001864Y-113006731D01*
X179811388Y-113625778D02*
X179716150Y-113673397D01*
X179525674Y-113673397D01*
X179430436Y-113625778D01*
X179382817Y-113578159D01*
X179335198Y-113482921D01*
X179335198Y-113197207D01*
X179382817Y-113101969D01*
X179430436Y-113054350D01*
X179525674Y-113006731D01*
X179716150Y-113006731D01*
X179811388Y-113054350D01*
X180668531Y-113625778D02*
X180573293Y-113673397D01*
X180382817Y-113673397D01*
X180287579Y-113625778D01*
X180239960Y-113578159D01*
X180192341Y-113482921D01*
X180192341Y-113197207D01*
X180239960Y-113101969D01*
X180287579Y-113054350D01*
X180382817Y-113006731D01*
X180573293Y-113006731D01*
X180668531Y-113054350D01*
X181620912Y-113673397D02*
X181049483Y-113673397D01*
X181335198Y-113673397D02*
X181335198Y-112673397D01*
X181239960Y-112816255D01*
X181144722Y-112911493D01*
X181049483Y-112959112D01*
G04 #@! TO.C,Cin1*
X201682063Y-113168044D02*
X201634444Y-113215663D01*
X201491586Y-113263282D01*
X201396348Y-113263282D01*
X201253491Y-113215663D01*
X201158253Y-113120425D01*
X201110634Y-113025187D01*
X201063015Y-112834711D01*
X201063015Y-112691854D01*
X201110634Y-112501378D01*
X201158253Y-112406140D01*
X201253491Y-112310902D01*
X201396348Y-112263282D01*
X201491586Y-112263282D01*
X201634444Y-112310902D01*
X201682063Y-112358521D01*
X202110634Y-113263282D02*
X202110634Y-112596616D01*
X202110634Y-112263282D02*
X202063015Y-112310902D01*
X202110634Y-112358521D01*
X202158253Y-112310902D01*
X202110634Y-112263282D01*
X202110634Y-112358521D01*
X202586825Y-112596616D02*
X202586825Y-113263282D01*
X202586825Y-112691854D02*
X202634444Y-112644235D01*
X202729682Y-112596616D01*
X202872539Y-112596616D01*
X202967777Y-112644235D01*
X203015396Y-112739473D01*
X203015396Y-113263282D01*
X204015396Y-113263282D02*
X203443967Y-113263282D01*
X203729682Y-113263282D02*
X203729682Y-112263282D01*
X203634444Y-112406140D01*
X203539206Y-112501378D01*
X203443967Y-112548997D01*
G04 #@! TO.C,Cout1*
X197657142Y-125957142D02*
X197704761Y-126004761D01*
X197752380Y-126147619D01*
X197752380Y-126242857D01*
X197704761Y-126385714D01*
X197609523Y-126480952D01*
X197514285Y-126528571D01*
X197323809Y-126576190D01*
X197180952Y-126576190D01*
X196990476Y-126528571D01*
X196895238Y-126480952D01*
X196800000Y-126385714D01*
X196752380Y-126242857D01*
X196752380Y-126147619D01*
X196800000Y-126004761D01*
X196847619Y-125957142D01*
X197752380Y-125385714D02*
X197704761Y-125480952D01*
X197657142Y-125528571D01*
X197561904Y-125576190D01*
X197276190Y-125576190D01*
X197180952Y-125528571D01*
X197133333Y-125480952D01*
X197085714Y-125385714D01*
X197085714Y-125242857D01*
X197133333Y-125147619D01*
X197180952Y-125100000D01*
X197276190Y-125052380D01*
X197561904Y-125052380D01*
X197657142Y-125100000D01*
X197704761Y-125147619D01*
X197752380Y-125242857D01*
X197752380Y-125385714D01*
X197085714Y-124195238D02*
X197752380Y-124195238D01*
X197085714Y-124623809D02*
X197609523Y-124623809D01*
X197704761Y-124576190D01*
X197752380Y-124480952D01*
X197752380Y-124338095D01*
X197704761Y-124242857D01*
X197657142Y-124195238D01*
X197085714Y-123861904D02*
X197085714Y-123480952D01*
X196752380Y-123719047D02*
X197609523Y-123719047D01*
X197704761Y-123671428D01*
X197752380Y-123576190D01*
X197752380Y-123480952D01*
X197752380Y-122623809D02*
X197752380Y-123195238D01*
X197752380Y-122909523D02*
X196752380Y-122909523D01*
X196895238Y-123004761D01*
X196990476Y-123100000D01*
X197038095Y-123195238D01*
G04 #@! TO.C,F3*
X90289313Y-86372462D02*
X89955980Y-86372462D01*
X89955980Y-86896271D02*
X89955980Y-85896271D01*
X90432170Y-85896271D01*
X90717885Y-85896271D02*
X91336932Y-85896271D01*
X91003599Y-86277224D01*
X91146456Y-86277224D01*
X91241694Y-86324843D01*
X91289313Y-86372462D01*
X91336932Y-86467700D01*
X91336932Y-86705795D01*
X91289313Y-86801033D01*
X91241694Y-86848652D01*
X91146456Y-86896271D01*
X90860742Y-86896271D01*
X90765504Y-86848652D01*
X90717885Y-86801033D01*
G04 #@! TO.C,F2*
X176516666Y-75128571D02*
X176183333Y-75128571D01*
X176183333Y-75652380D02*
X176183333Y-74652380D01*
X176659523Y-74652380D01*
X176992857Y-74747619D02*
X177040476Y-74700000D01*
X177135714Y-74652380D01*
X177373809Y-74652380D01*
X177469047Y-74700000D01*
X177516666Y-74747619D01*
X177564285Y-74842857D01*
X177564285Y-74938095D01*
X177516666Y-75080952D01*
X176945238Y-75652380D01*
X177564285Y-75652380D01*
G04 #@! TO.C,F1*
X176366666Y-132028571D02*
X176033333Y-132028571D01*
X176033333Y-132552380D02*
X176033333Y-131552380D01*
X176509523Y-131552380D01*
X177414285Y-132552380D02*
X176842857Y-132552380D01*
X177128571Y-132552380D02*
X177128571Y-131552380D01*
X177033333Y-131695238D01*
X176938095Y-131790476D01*
X176842857Y-131838095D01*
G04 #@! TO.C,U1*
X193438095Y-97052380D02*
X193438095Y-97861904D01*
X193485714Y-97957142D01*
X193533333Y-98004761D01*
X193628571Y-98052380D01*
X193819047Y-98052380D01*
X193914285Y-98004761D01*
X193961904Y-97957142D01*
X194009523Y-97861904D01*
X194009523Y-97052380D01*
X195009523Y-98052380D02*
X194438095Y-98052380D01*
X194723809Y-98052380D02*
X194723809Y-97052380D01*
X194628571Y-97195238D01*
X194533333Y-97290476D01*
X194438095Y-97338095D01*
G04 #@! TO.C,U2*
X189134898Y-118421297D02*
X189134898Y-119230821D01*
X189182517Y-119326059D01*
X189230136Y-119373678D01*
X189325374Y-119421297D01*
X189515850Y-119421297D01*
X189611088Y-119373678D01*
X189658707Y-119326059D01*
X189706326Y-119230821D01*
X189706326Y-118421297D01*
X190134898Y-118516536D02*
X190182517Y-118468917D01*
X190277755Y-118421297D01*
X190515850Y-118421297D01*
X190611088Y-118468917D01*
X190658707Y-118516536D01*
X190706326Y-118611774D01*
X190706326Y-118707012D01*
X190658707Y-118849869D01*
X190087279Y-119421297D01*
X190706326Y-119421297D01*
G04 #@! TO.C,Rfbb1*
X189842857Y-106752380D02*
X189509523Y-106276190D01*
X189271428Y-106752380D02*
X189271428Y-105752380D01*
X189652380Y-105752380D01*
X189747619Y-105800000D01*
X189795238Y-105847619D01*
X189842857Y-105942857D01*
X189842857Y-106085714D01*
X189795238Y-106180952D01*
X189747619Y-106228571D01*
X189652380Y-106276190D01*
X189271428Y-106276190D01*
X190128571Y-106085714D02*
X190509523Y-106085714D01*
X190271428Y-106752380D02*
X190271428Y-105895238D01*
X190319047Y-105800000D01*
X190414285Y-105752380D01*
X190509523Y-105752380D01*
X190842857Y-106752380D02*
X190842857Y-105752380D01*
X190842857Y-106133333D02*
X190938095Y-106085714D01*
X191128571Y-106085714D01*
X191223809Y-106133333D01*
X191271428Y-106180952D01*
X191319047Y-106276190D01*
X191319047Y-106561904D01*
X191271428Y-106657142D01*
X191223809Y-106704761D01*
X191128571Y-106752380D01*
X190938095Y-106752380D01*
X190842857Y-106704761D01*
X191747619Y-106752380D02*
X191747619Y-105752380D01*
X191747619Y-106133333D02*
X191842857Y-106085714D01*
X192033333Y-106085714D01*
X192128571Y-106133333D01*
X192176190Y-106180952D01*
X192223809Y-106276190D01*
X192223809Y-106561904D01*
X192176190Y-106657142D01*
X192128571Y-106704761D01*
X192033333Y-106752380D01*
X191842857Y-106752380D01*
X191747619Y-106704761D01*
X193176190Y-106752380D02*
X192604761Y-106752380D01*
X192890476Y-106752380D02*
X192890476Y-105752380D01*
X192795238Y-105895238D01*
X192700000Y-105990476D01*
X192604761Y-106038095D01*
G04 #@! TO.C,Ren1*
X197152380Y-110652380D02*
X196819047Y-110176190D01*
X196580952Y-110652380D02*
X196580952Y-109652380D01*
X196961904Y-109652380D01*
X197057142Y-109700000D01*
X197104761Y-109747619D01*
X197152380Y-109842857D01*
X197152380Y-109985714D01*
X197104761Y-110080952D01*
X197057142Y-110128571D01*
X196961904Y-110176190D01*
X196580952Y-110176190D01*
X197961904Y-110604761D02*
X197866666Y-110652380D01*
X197676190Y-110652380D01*
X197580952Y-110604761D01*
X197533333Y-110509523D01*
X197533333Y-110128571D01*
X197580952Y-110033333D01*
X197676190Y-109985714D01*
X197866666Y-109985714D01*
X197961904Y-110033333D01*
X198009523Y-110128571D01*
X198009523Y-110223809D01*
X197533333Y-110319047D01*
X198438095Y-109985714D02*
X198438095Y-110652380D01*
X198438095Y-110080952D02*
X198485714Y-110033333D01*
X198580952Y-109985714D01*
X198723809Y-109985714D01*
X198819047Y-110033333D01*
X198866666Y-110128571D01*
X198866666Y-110652380D01*
X199866666Y-110652380D02*
X199295238Y-110652380D01*
X199580952Y-110652380D02*
X199580952Y-109652380D01*
X199485714Y-109795238D01*
X199390476Y-109890476D01*
X199295238Y-109938095D01*
G04 #@! TO.C,R4*
X202433333Y-104052380D02*
X202100000Y-103576190D01*
X201861904Y-104052380D02*
X201861904Y-103052380D01*
X202242857Y-103052380D01*
X202338095Y-103100000D01*
X202385714Y-103147619D01*
X202433333Y-103242857D01*
X202433333Y-103385714D01*
X202385714Y-103480952D01*
X202338095Y-103528571D01*
X202242857Y-103576190D01*
X201861904Y-103576190D01*
X203290476Y-103385714D02*
X203290476Y-104052380D01*
X203052380Y-103004761D02*
X202814285Y-103719047D01*
X203433333Y-103719047D01*
G04 #@! TO.C,R3*
X195437267Y-103170674D02*
X195103934Y-102694484D01*
X194865838Y-103170674D02*
X194865838Y-102170674D01*
X195246791Y-102170674D01*
X195342029Y-102218294D01*
X195389648Y-102265913D01*
X195437267Y-102361151D01*
X195437267Y-102504008D01*
X195389648Y-102599246D01*
X195342029Y-102646865D01*
X195246791Y-102694484D01*
X194865838Y-102694484D01*
X195770600Y-102170674D02*
X196389648Y-102170674D01*
X196056314Y-102551627D01*
X196199172Y-102551627D01*
X196294410Y-102599246D01*
X196342029Y-102646865D01*
X196389648Y-102742103D01*
X196389648Y-102980198D01*
X196342029Y-103075436D01*
X196294410Y-103123055D01*
X196199172Y-103170674D01*
X195913457Y-103170674D01*
X195818219Y-103123055D01*
X195770600Y-103075436D01*
G04 #@! TO.C,Rfbt1*
X179109523Y-110552380D02*
X178776190Y-110076190D01*
X178538095Y-110552380D02*
X178538095Y-109552380D01*
X178919047Y-109552380D01*
X179014285Y-109600000D01*
X179061904Y-109647619D01*
X179109523Y-109742857D01*
X179109523Y-109885714D01*
X179061904Y-109980952D01*
X179014285Y-110028571D01*
X178919047Y-110076190D01*
X178538095Y-110076190D01*
X179395238Y-109885714D02*
X179776190Y-109885714D01*
X179538095Y-110552380D02*
X179538095Y-109695238D01*
X179585714Y-109600000D01*
X179680952Y-109552380D01*
X179776190Y-109552380D01*
X180109523Y-110552380D02*
X180109523Y-109552380D01*
X180109523Y-109933333D02*
X180204761Y-109885714D01*
X180395238Y-109885714D01*
X180490476Y-109933333D01*
X180538095Y-109980952D01*
X180585714Y-110076190D01*
X180585714Y-110361904D01*
X180538095Y-110457142D01*
X180490476Y-110504761D01*
X180395238Y-110552380D01*
X180204761Y-110552380D01*
X180109523Y-110504761D01*
X180871428Y-109885714D02*
X181252380Y-109885714D01*
X181014285Y-109552380D02*
X181014285Y-110409523D01*
X181061904Y-110504761D01*
X181157142Y-110552380D01*
X181252380Y-110552380D01*
X182109523Y-110552380D02*
X181538095Y-110552380D01*
X181823809Y-110552380D02*
X181823809Y-109552380D01*
X181728571Y-109695238D01*
X181633333Y-109790476D01*
X181538095Y-109838095D01*
G04 #@! TO.C,RV1*
X174504761Y-101452380D02*
X174171428Y-100976190D01*
X173933333Y-101452380D02*
X173933333Y-100452380D01*
X174314285Y-100452380D01*
X174409523Y-100500000D01*
X174457142Y-100547619D01*
X174504761Y-100642857D01*
X174504761Y-100785714D01*
X174457142Y-100880952D01*
X174409523Y-100928571D01*
X174314285Y-100976190D01*
X173933333Y-100976190D01*
X174790476Y-100452380D02*
X175123809Y-101452380D01*
X175457142Y-100452380D01*
X176314285Y-101452380D02*
X175742857Y-101452380D01*
X176028571Y-101452380D02*
X176028571Y-100452380D01*
X175933333Y-100595238D01*
X175838095Y-100690476D01*
X175742857Y-100738095D01*
G04 #@! TO.C,RV2*
X192104761Y-78152380D02*
X191771428Y-77676190D01*
X191533333Y-78152380D02*
X191533333Y-77152380D01*
X191914285Y-77152380D01*
X192009523Y-77200000D01*
X192057142Y-77247619D01*
X192104761Y-77342857D01*
X192104761Y-77485714D01*
X192057142Y-77580952D01*
X192009523Y-77628571D01*
X191914285Y-77676190D01*
X191533333Y-77676190D01*
X192390476Y-77152380D02*
X192723809Y-78152380D01*
X193057142Y-77152380D01*
X193342857Y-77247619D02*
X193390476Y-77200000D01*
X193485714Y-77152380D01*
X193723809Y-77152380D01*
X193819047Y-77200000D01*
X193866666Y-77247619D01*
X193914285Y-77342857D01*
X193914285Y-77438095D01*
X193866666Y-77580952D01*
X193295238Y-78152380D01*
X193914285Y-78152380D01*
G04 #@! TO.C,RV3*
X91204761Y-110452380D02*
X90871428Y-109976190D01*
X90633333Y-110452380D02*
X90633333Y-109452380D01*
X91014285Y-109452380D01*
X91109523Y-109500000D01*
X91157142Y-109547619D01*
X91204761Y-109642857D01*
X91204761Y-109785714D01*
X91157142Y-109880952D01*
X91109523Y-109928571D01*
X91014285Y-109976190D01*
X90633333Y-109976190D01*
X91490476Y-109452380D02*
X91823809Y-110452380D01*
X92157142Y-109452380D01*
X92395238Y-109452380D02*
X93014285Y-109452380D01*
X92680952Y-109833333D01*
X92823809Y-109833333D01*
X92919047Y-109880952D01*
X92966666Y-109928571D01*
X93014285Y-110023809D01*
X93014285Y-110261904D01*
X92966666Y-110357142D01*
X92919047Y-110404761D01*
X92823809Y-110452380D01*
X92538095Y-110452380D01*
X92442857Y-110404761D01*
X92395238Y-110357142D01*
G04 #@! TO.C,L1*
X179612176Y-121652643D02*
X179135985Y-121652643D01*
X179135985Y-120652643D01*
X180469319Y-121652643D02*
X179897890Y-121652643D01*
X180183604Y-121652643D02*
X180183604Y-120652643D01*
X180088366Y-120795501D01*
X179993128Y-120890739D01*
X179897890Y-120938358D01*
G04 #@! TO.C,C1*
X102708333Y-132157142D02*
X102660714Y-132204761D01*
X102517857Y-132252380D01*
X102422619Y-132252380D01*
X102279761Y-132204761D01*
X102184523Y-132109523D01*
X102136904Y-132014285D01*
X102089285Y-131823809D01*
X102089285Y-131680952D01*
X102136904Y-131490476D01*
X102184523Y-131395238D01*
X102279761Y-131300000D01*
X102422619Y-131252380D01*
X102517857Y-131252380D01*
X102660714Y-131300000D01*
X102708333Y-131347619D01*
X103660714Y-132252380D02*
X103089285Y-132252380D01*
X103375000Y-132252380D02*
X103375000Y-131252380D01*
X103279761Y-131395238D01*
X103184523Y-131490476D01*
X103089285Y-131538095D01*
G04 #@! TO.C,D1*
X172361904Y-97752380D02*
X172361904Y-96752380D01*
X172600000Y-96752380D01*
X172742857Y-96800000D01*
X172838095Y-96895238D01*
X172885714Y-96990476D01*
X172933333Y-97180952D01*
X172933333Y-97323809D01*
X172885714Y-97514285D01*
X172838095Y-97609523D01*
X172742857Y-97704761D01*
X172600000Y-97752380D01*
X172361904Y-97752380D01*
X173885714Y-97752380D02*
X173314285Y-97752380D01*
X173600000Y-97752380D02*
X173600000Y-96752380D01*
X173504761Y-96895238D01*
X173409523Y-96990476D01*
X173314285Y-97038095D01*
G04 #@! TO.C,R1*
X193233333Y-94352380D02*
X192900000Y-93876190D01*
X192661904Y-94352380D02*
X192661904Y-93352380D01*
X193042857Y-93352380D01*
X193138095Y-93400000D01*
X193185714Y-93447619D01*
X193233333Y-93542857D01*
X193233333Y-93685714D01*
X193185714Y-93780952D01*
X193138095Y-93828571D01*
X193042857Y-93876190D01*
X192661904Y-93876190D01*
X194185714Y-94352380D02*
X193614285Y-94352380D01*
X193900000Y-94352380D02*
X193900000Y-93352380D01*
X193804761Y-93495238D01*
X193709523Y-93590476D01*
X193614285Y-93638095D01*
G04 #@! TO.C,R2*
X200558333Y-92852380D02*
X200225000Y-92376190D01*
X199986904Y-92852380D02*
X199986904Y-91852380D01*
X200367857Y-91852380D01*
X200463095Y-91900000D01*
X200510714Y-91947619D01*
X200558333Y-92042857D01*
X200558333Y-92185714D01*
X200510714Y-92280952D01*
X200463095Y-92328571D01*
X200367857Y-92376190D01*
X199986904Y-92376190D01*
X200939285Y-91947619D02*
X200986904Y-91900000D01*
X201082142Y-91852380D01*
X201320238Y-91852380D01*
X201415476Y-91900000D01*
X201463095Y-91947619D01*
X201510714Y-92042857D01*
X201510714Y-92138095D01*
X201463095Y-92280952D01*
X200891666Y-92852380D01*
X201510714Y-92852380D01*
G04 #@! TO.C,C2*
X178033333Y-95757142D02*
X177985714Y-95804761D01*
X177842857Y-95852380D01*
X177747619Y-95852380D01*
X177604761Y-95804761D01*
X177509523Y-95709523D01*
X177461904Y-95614285D01*
X177414285Y-95423809D01*
X177414285Y-95280952D01*
X177461904Y-95090476D01*
X177509523Y-94995238D01*
X177604761Y-94900000D01*
X177747619Y-94852380D01*
X177842857Y-94852380D01*
X177985714Y-94900000D01*
X178033333Y-94947619D01*
X178414285Y-94947619D02*
X178461904Y-94900000D01*
X178557142Y-94852380D01*
X178795238Y-94852380D01*
X178890476Y-94900000D01*
X178938095Y-94947619D01*
X178985714Y-95042857D01*
X178985714Y-95138095D01*
X178938095Y-95280952D01*
X178366666Y-95852380D01*
X178985714Y-95852380D01*
G04 #@! TO.C,R5*
X201433333Y-88352380D02*
X201100000Y-87876190D01*
X200861904Y-88352380D02*
X200861904Y-87352380D01*
X201242857Y-87352380D01*
X201338095Y-87400000D01*
X201385714Y-87447619D01*
X201433333Y-87542857D01*
X201433333Y-87685714D01*
X201385714Y-87780952D01*
X201338095Y-87828571D01*
X201242857Y-87876190D01*
X200861904Y-87876190D01*
X202338095Y-87352380D02*
X201861904Y-87352380D01*
X201814285Y-87828571D01*
X201861904Y-87780952D01*
X201957142Y-87733333D01*
X202195238Y-87733333D01*
X202290476Y-87780952D01*
X202338095Y-87828571D01*
X202385714Y-87923809D01*
X202385714Y-88161904D01*
X202338095Y-88257142D01*
X202290476Y-88304761D01*
X202195238Y-88352380D01*
X201957142Y-88352380D01*
X201861904Y-88304761D01*
X201814285Y-88257142D01*
G04 #@! TO.C,TR1*
X101638095Y-65052380D02*
X102209523Y-65052380D01*
X101923809Y-66052380D02*
X101923809Y-65052380D01*
X103114285Y-66052380D02*
X102780952Y-65576190D01*
X102542857Y-66052380D02*
X102542857Y-65052380D01*
X102923809Y-65052380D01*
X103019047Y-65100000D01*
X103066666Y-65147619D01*
X103114285Y-65242857D01*
X103114285Y-65385714D01*
X103066666Y-65480952D01*
X103019047Y-65528571D01*
X102923809Y-65576190D01*
X102542857Y-65576190D01*
X104066666Y-66052380D02*
X103495238Y-66052380D01*
X103780952Y-66052380D02*
X103780952Y-65052380D01*
X103685714Y-65195238D01*
X103590476Y-65290476D01*
X103495238Y-65338095D01*
X116662857Y-112512380D02*
X116662857Y-111512380D01*
X117043809Y-111512380D01*
X117139047Y-111560000D01*
X117186666Y-111607619D01*
X117234285Y-111702857D01*
X117234285Y-111845714D01*
X117186666Y-111940952D01*
X117139047Y-111988571D01*
X117043809Y-112036190D01*
X116662857Y-112036190D01*
X118234285Y-112512380D02*
X117900952Y-112036190D01*
X117662857Y-112512380D02*
X117662857Y-111512380D01*
X118043809Y-111512380D01*
X118139047Y-111560000D01*
X118186666Y-111607619D01*
X118234285Y-111702857D01*
X118234285Y-111845714D01*
X118186666Y-111940952D01*
X118139047Y-111988571D01*
X118043809Y-112036190D01*
X117662857Y-112036190D01*
X118662857Y-112512380D02*
X118662857Y-111512380D01*
X120424761Y-112512380D02*
X119853333Y-112512380D01*
X120139047Y-112512380D02*
X120139047Y-111512380D01*
X120043809Y-111655238D01*
X119948571Y-111750476D01*
X119853333Y-111798095D01*
X142062857Y-112512380D02*
X142062857Y-111512380D01*
X142443809Y-111512380D01*
X142539047Y-111560000D01*
X142586666Y-111607619D01*
X142634285Y-111702857D01*
X142634285Y-111845714D01*
X142586666Y-111940952D01*
X142539047Y-111988571D01*
X142443809Y-112036190D01*
X142062857Y-112036190D01*
X143634285Y-112512380D02*
X143300952Y-112036190D01*
X143062857Y-112512380D02*
X143062857Y-111512380D01*
X143443809Y-111512380D01*
X143539047Y-111560000D01*
X143586666Y-111607619D01*
X143634285Y-111702857D01*
X143634285Y-111845714D01*
X143586666Y-111940952D01*
X143539047Y-111988571D01*
X143443809Y-112036190D01*
X143062857Y-112036190D01*
X144062857Y-112512380D02*
X144062857Y-111512380D01*
X145253333Y-111607619D02*
X145300952Y-111560000D01*
X145396190Y-111512380D01*
X145634285Y-111512380D01*
X145729523Y-111560000D01*
X145777142Y-111607619D01*
X145824761Y-111702857D01*
X145824761Y-111798095D01*
X145777142Y-111940952D01*
X145205714Y-112512380D01*
X145824761Y-112512380D01*
X118964761Y-84524761D02*
X119107619Y-84572380D01*
X119345714Y-84572380D01*
X119440952Y-84524761D01*
X119488571Y-84477142D01*
X119536190Y-84381904D01*
X119536190Y-84286666D01*
X119488571Y-84191428D01*
X119440952Y-84143809D01*
X119345714Y-84096190D01*
X119155238Y-84048571D01*
X119060000Y-84000952D01*
X119012380Y-83953333D01*
X118964761Y-83858095D01*
X118964761Y-83762857D01*
X119012380Y-83667619D01*
X119060000Y-83620000D01*
X119155238Y-83572380D01*
X119393333Y-83572380D01*
X119536190Y-83620000D01*
X119964761Y-84048571D02*
X120298095Y-84048571D01*
X120440952Y-84572380D02*
X119964761Y-84572380D01*
X119964761Y-83572380D01*
X120440952Y-83572380D01*
X121440952Y-84477142D02*
X121393333Y-84524761D01*
X121250476Y-84572380D01*
X121155238Y-84572380D01*
X121012380Y-84524761D01*
X120917142Y-84429523D01*
X120869523Y-84334285D01*
X120821904Y-84143809D01*
X120821904Y-84000952D01*
X120869523Y-83810476D01*
X120917142Y-83715238D01*
X121012380Y-83620000D01*
X121155238Y-83572380D01*
X121250476Y-83572380D01*
X121393333Y-83620000D01*
X121440952Y-83667619D01*
X123155238Y-84572380D02*
X122583809Y-84572380D01*
X122869523Y-84572380D02*
X122869523Y-83572380D01*
X122774285Y-83715238D01*
X122679047Y-83810476D01*
X122583809Y-83858095D01*
X144364761Y-84524761D02*
X144507619Y-84572380D01*
X144745714Y-84572380D01*
X144840952Y-84524761D01*
X144888571Y-84477142D01*
X144936190Y-84381904D01*
X144936190Y-84286666D01*
X144888571Y-84191428D01*
X144840952Y-84143809D01*
X144745714Y-84096190D01*
X144555238Y-84048571D01*
X144460000Y-84000952D01*
X144412380Y-83953333D01*
X144364761Y-83858095D01*
X144364761Y-83762857D01*
X144412380Y-83667619D01*
X144460000Y-83620000D01*
X144555238Y-83572380D01*
X144793333Y-83572380D01*
X144936190Y-83620000D01*
X145364761Y-84048571D02*
X145698095Y-84048571D01*
X145840952Y-84572380D02*
X145364761Y-84572380D01*
X145364761Y-83572380D01*
X145840952Y-83572380D01*
X146840952Y-84477142D02*
X146793333Y-84524761D01*
X146650476Y-84572380D01*
X146555238Y-84572380D01*
X146412380Y-84524761D01*
X146317142Y-84429523D01*
X146269523Y-84334285D01*
X146221904Y-84143809D01*
X146221904Y-84000952D01*
X146269523Y-83810476D01*
X146317142Y-83715238D01*
X146412380Y-83620000D01*
X146555238Y-83572380D01*
X146650476Y-83572380D01*
X146793333Y-83620000D01*
X146840952Y-83667619D01*
X147983809Y-83667619D02*
X148031428Y-83620000D01*
X148126666Y-83572380D01*
X148364761Y-83572380D01*
X148460000Y-83620000D01*
X148507619Y-83667619D01*
X148555238Y-83762857D01*
X148555238Y-83858095D01*
X148507619Y-84000952D01*
X147936190Y-84572380D01*
X148555238Y-84572380D01*
G04 #@! TO.C,J1*
X90466666Y-81052380D02*
X90466666Y-81766666D01*
X90419047Y-81909523D01*
X90323809Y-82004761D01*
X90180952Y-82052380D01*
X90085714Y-82052380D01*
X91466666Y-82052380D02*
X90895238Y-82052380D01*
X91180952Y-82052380D02*
X91180952Y-81052380D01*
X91085714Y-81195238D01*
X90990476Y-81290476D01*
X90895238Y-81338095D01*
G04 #@! TO.C,J2*
X198866666Y-75452380D02*
X198866666Y-76166666D01*
X198819047Y-76309523D01*
X198723809Y-76404761D01*
X198580952Y-76452380D01*
X198485714Y-76452380D01*
X199295238Y-75547619D02*
X199342857Y-75500000D01*
X199438095Y-75452380D01*
X199676190Y-75452380D01*
X199771428Y-75500000D01*
X199819047Y-75547619D01*
X199866666Y-75642857D01*
X199866666Y-75738095D01*
X199819047Y-75880952D01*
X199247619Y-76452380D01*
X199866666Y-76452380D01*
G04 #@! TO.C,J3*
X196866666Y-132852380D02*
X196866666Y-133566666D01*
X196819047Y-133709523D01*
X196723809Y-133804761D01*
X196580952Y-133852380D01*
X196485714Y-133852380D01*
X197247619Y-132852380D02*
X197866666Y-132852380D01*
X197533333Y-133233333D01*
X197676190Y-133233333D01*
X197771428Y-133280952D01*
X197819047Y-133328571D01*
X197866666Y-133423809D01*
X197866666Y-133661904D01*
X197819047Y-133757142D01*
X197771428Y-133804761D01*
X197676190Y-133852380D01*
X197390476Y-133852380D01*
X197295238Y-133804761D01*
X197247619Y-133757142D01*
G04 #@! TD*
M02*
