G04 #@! TF.GenerationSoftware,KiCad,Pcbnew,(5.0.0-3-g5ebb6b6)*
G04 #@! TF.CreationDate,2018-11-18T00:12:04+01:00*
G04 #@! TF.ProjectId,c64-psu,6336342D7073752E6B696361645F7063,rev?*
G04 #@! TF.SameCoordinates,Original*
G04 #@! TF.FileFunction,Copper,L2,Bot,Signal*
G04 #@! TF.FilePolarity,Positive*
%FSLAX46Y46*%
G04 Gerber Fmt 4.6, Leading zero omitted, Abs format (unit mm)*
G04 Created by KiCad (PCBNEW (5.0.0-3-g5ebb6b6)) date 2018 November 18, Sunday 00:12:04*
%MOMM*%
%LPD*%
G01*
G04 APERTURE LIST*
G04 #@! TA.AperFunction,NonConductor*
%ADD10C,0.150000*%
G04 #@! TD*
G04 #@! TA.AperFunction,ViaPad*
%ADD11C,0.800000*%
G04 #@! TD*
G04 #@! TA.AperFunction,ComponentPad*
%ADD12C,1.440000*%
G04 #@! TD*
G04 #@! TA.AperFunction,ComponentPad*
%ADD13C,3.000000*%
G04 #@! TD*
G04 #@! TA.AperFunction,ViaPad*
%ADD14C,0.600000*%
G04 #@! TD*
G04 #@! TA.AperFunction,Conductor*
%ADD15R,2.950000X4.500000*%
G04 #@! TD*
G04 #@! TA.AperFunction,ComponentPad*
%ADD16C,1.800000*%
G04 #@! TD*
G04 #@! TA.AperFunction,ComponentPad*
%ADD17C,2.400000*%
G04 #@! TD*
G04 #@! TA.AperFunction,ComponentPad*
%ADD18R,2.800000X2.800000*%
G04 #@! TD*
G04 #@! TA.AperFunction,ComponentPad*
%ADD19C,2.800000*%
G04 #@! TD*
G04 #@! TA.AperFunction,ComponentPad*
%ADD20R,2.400000X2.400000*%
G04 #@! TD*
G04 #@! TA.AperFunction,ComponentPad*
%ADD21R,2.000000X2.000000*%
G04 #@! TD*
G04 #@! TA.AperFunction,ComponentPad*
%ADD22C,2.000000*%
G04 #@! TD*
G04 #@! TA.AperFunction,ComponentPad*
%ADD23R,2.600000X2.600000*%
G04 #@! TD*
G04 #@! TA.AperFunction,ComponentPad*
%ADD24C,2.600000*%
G04 #@! TD*
G04 #@! TA.AperFunction,Conductor*
%ADD25C,1.000000*%
G04 #@! TD*
G04 #@! TA.AperFunction,Conductor*
%ADD26C,0.500000*%
G04 #@! TD*
G04 #@! TA.AperFunction,Conductor*
%ADD27C,0.250000*%
G04 #@! TD*
G04 #@! TA.AperFunction,Conductor*
%ADD28C,0.254000*%
G04 #@! TD*
G04 APERTURE END LIST*
D10*
X89000000Y-136000000D02*
X89000000Y-62000000D01*
X211000000Y-136000000D02*
X89000000Y-136000000D01*
X211000000Y-62000000D02*
X211000000Y-136000000D01*
X89000000Y-62000000D02*
X211000000Y-62000000D01*
D11*
G04 #@! TO.N,/Vd*
G04 #@! TO.C,REF\002A\002A*
X206500000Y-97400000D03*
G04 #@! TD*
G04 #@! TO.N,/Vd*
G04 #@! TO.C,REF\002A\002A*
X205300000Y-97400000D03*
G04 #@! TD*
G04 #@! TO.N,GND*
G04 #@! TO.C,REF\002A\002A*
X201100000Y-98800000D03*
G04 #@! TD*
G04 #@! TO.N,/VOUT*
G04 #@! TO.C,REF\002A\002A*
X191900000Y-130900000D03*
G04 #@! TD*
G04 #@! TO.N,/VOUT*
G04 #@! TO.C,REF\002A\002A*
X194000000Y-130900000D03*
G04 #@! TD*
G04 #@! TO.N,/VOUT*
G04 #@! TO.C,REF\002A\002A*
X195700000Y-130000000D03*
G04 #@! TD*
G04 #@! TO.N,/VOUT*
G04 #@! TO.C,REF\002A\002A*
X195700000Y-127800000D03*
G04 #@! TD*
G04 #@! TO.N,/VOUT*
G04 #@! TO.C,REF\002A\002A*
X195700000Y-125700000D03*
G04 #@! TD*
G04 #@! TO.N,/VOUT*
G04 #@! TO.C,REF\002A\002A*
X195700000Y-123600000D03*
G04 #@! TD*
G04 #@! TO.N,/VOUT*
G04 #@! TO.C,REF\002A\002A*
X194100000Y-122300000D03*
G04 #@! TD*
G04 #@! TO.N,/SW*
G04 #@! TO.C,REF\002A\002A*
X182700000Y-130900000D03*
G04 #@! TD*
G04 #@! TO.N,/SW*
G04 #@! TO.C,REF\002A\002A*
X184800000Y-130900000D03*
G04 #@! TD*
G04 #@! TO.N,/SW*
G04 #@! TO.C,REF\002A\002A*
X185700000Y-129100000D03*
G04 #@! TD*
G04 #@! TO.N,/SW*
G04 #@! TO.C,REF\002A\002A*
X185800000Y-126600000D03*
G04 #@! TD*
G04 #@! TO.N,/SW*
G04 #@! TO.C,REF\002A\002A*
X185800000Y-124200000D03*
G04 #@! TD*
G04 #@! TO.N,/SW*
G04 #@! TO.C,REF\002A\002A*
X184800000Y-122300000D03*
G04 #@! TD*
G04 #@! TO.N,/SW*
G04 #@! TO.C,REF\002A\002A*
X182600000Y-122300000D03*
G04 #@! TD*
G04 #@! TO.N,/SW*
G04 #@! TO.C,REF\002A\002A*
X187000000Y-119200000D03*
G04 #@! TD*
G04 #@! TO.N,/SW*
G04 #@! TO.C,REF\002A\002A*
X184400000Y-119500000D03*
G04 #@! TD*
G04 #@! TO.N,/Vd*
G04 #@! TO.C,REF\002A\002A*
X207900000Y-95100000D03*
G04 #@! TD*
G04 #@! TO.N,/Vd*
G04 #@! TO.C,REF\002A\002A*
X206900000Y-95100000D03*
G04 #@! TD*
G04 #@! TO.N,/Vd*
G04 #@! TO.C,REF\002A\002A*
X205900000Y-95100000D03*
G04 #@! TD*
G04 #@! TO.N,/Vd*
G04 #@! TO.C,REF\002A\002A*
X204900000Y-95100000D03*
G04 #@! TD*
G04 #@! TO.N,/Vd*
G04 #@! TO.C,REF\002A\002A*
X203900000Y-95100000D03*
G04 #@! TD*
G04 #@! TO.N,/Vd*
G04 #@! TO.C,REF\002A\002A*
X207900000Y-94100000D03*
G04 #@! TD*
G04 #@! TO.N,/Vd*
G04 #@! TO.C,REF\002A\002A*
X206900000Y-94100000D03*
G04 #@! TD*
G04 #@! TO.N,/Vd*
G04 #@! TO.C,REF\002A\002A*
X205900000Y-94100000D03*
G04 #@! TD*
G04 #@! TO.N,/Vd*
G04 #@! TO.C,REF\002A\002A*
X204900000Y-94100000D03*
G04 #@! TD*
G04 #@! TO.N,/Vd*
G04 #@! TO.C,REF\002A\002A*
X203900000Y-94100000D03*
G04 #@! TD*
G04 #@! TO.N,/Vd*
G04 #@! TO.C,REF\002A\002A*
X207900000Y-93100000D03*
G04 #@! TD*
G04 #@! TO.N,/Vd*
G04 #@! TO.C,REF\002A\002A*
X206900000Y-93100000D03*
G04 #@! TD*
G04 #@! TO.N,/Vd*
G04 #@! TO.C,REF\002A\002A*
X205900000Y-93100000D03*
G04 #@! TD*
G04 #@! TO.N,/Vd*
G04 #@! TO.C,REF\002A\002A*
X204900000Y-93100000D03*
G04 #@! TD*
G04 #@! TO.N,/Vd*
G04 #@! TO.C,REF\002A\002A*
X203900000Y-93100000D03*
G04 #@! TD*
G04 #@! TO.N,/SW*
G04 #@! TO.C,REF\002A\002A*
X182300000Y-118000000D03*
G04 #@! TD*
G04 #@! TO.N,/VOUT*
G04 #@! TO.C,REF\002A\002A*
X191900000Y-122300000D03*
G04 #@! TD*
G04 #@! TO.N,GND*
G04 #@! TO.C,REF\002A\002A*
X195000000Y-100000000D03*
G04 #@! TD*
D12*
G04 #@! TO.P,TP1,3*
G04 #@! TO.N,GND*
X186600000Y-100120000D03*
G04 #@! TO.P,TP1,2*
G04 #@! TO.N,Net-(Rfbb1-Pad2)*
X184060000Y-102660000D03*
G04 #@! TO.P,TP1,1*
G04 #@! TO.N,Net-(TP1-Pad1)*
X186600000Y-105200000D03*
G04 #@! TD*
D13*
G04 #@! TO.P,F3,1*
G04 #@! TO.N,/PRI1A*
X97400000Y-107800000D03*
G04 #@! TO.P,F3,2*
G04 #@! TO.N,Net-(F3-Pad2)*
X97400000Y-85300000D03*
G04 #@! TD*
G04 #@! TO.P,F2,1*
G04 #@! TO.N,Net-(F2-Pad1)*
X188100000Y-69200000D03*
G04 #@! TO.P,F2,2*
G04 #@! TO.N,/SEC1A*
X165600000Y-69200000D03*
G04 #@! TD*
G04 #@! TO.P,F1,2*
G04 #@! TO.N,/SEC2A*
X170200000Y-132700000D03*
G04 #@! TO.P,F1,1*
G04 #@! TO.N,Net-(D1-Pad2)*
X170200000Y-110200000D03*
G04 #@! TD*
D14*
G04 #@! TO.N,GND*
G04 #@! TO.C,U2*
X189296803Y-113668917D03*
X189296803Y-114768917D03*
X190496803Y-114768917D03*
X190496803Y-113668917D03*
X189296803Y-117268917D03*
X189296803Y-116068917D03*
X190496803Y-116068917D03*
X190496803Y-117268917D03*
D15*
X189896803Y-115468917D03*
G04 #@! TD*
D16*
G04 #@! TO.P,RV1,2*
G04 #@! TO.N,Net-(D1-Pad2)*
X166500000Y-103600000D03*
G04 #@! TO.P,RV1,1*
G04 #@! TO.N,/SEC2B*
X174000000Y-105400000D03*
G04 #@! TD*
G04 #@! TO.P,RV2,1*
G04 #@! TO.N,/SEC1B*
X193000000Y-74100000D03*
G04 #@! TO.P,RV2,2*
G04 #@! TO.N,Net-(F2-Pad1)*
X194800000Y-66600000D03*
G04 #@! TD*
G04 #@! TO.P,RV3,1*
G04 #@! TO.N,/PRI1A*
X92400000Y-122800000D03*
G04 #@! TO.P,RV3,2*
G04 #@! TO.N,/PRI2B*
X94700000Y-115300000D03*
G04 #@! TD*
D17*
G04 #@! TO.P,C1,1*
G04 #@! TO.N,/PRI1A*
X101200000Y-128600000D03*
G04 #@! TO.P,C1,2*
G04 #@! TO.N,/PRI2B*
X101200000Y-113600000D03*
G04 #@! TD*
D18*
G04 #@! TO.P,D1,1*
G04 #@! TO.N,/Vd*
X169600000Y-80560000D03*
D19*
G04 #@! TO.P,D1,2*
G04 #@! TO.N,Net-(D1-Pad2)*
X169600000Y-85640000D03*
G04 #@! TO.P,D1,3*
G04 #@! TO.N,/SEC2B*
X169600000Y-90720000D03*
G04 #@! TO.P,D1,4*
G04 #@! TO.N,GND*
X169600000Y-95800000D03*
G04 #@! TD*
D20*
G04 #@! TO.P,C2,1*
G04 #@! TO.N,/Vd*
X183200000Y-82300000D03*
D17*
G04 #@! TO.P,C2,2*
G04 #@! TO.N,GND*
X183200000Y-89800000D03*
G04 #@! TD*
D21*
G04 #@! TO.P,TR1,1*
G04 #@! TO.N,/PRI1A*
X110900000Y-121500000D03*
D22*
G04 #@! TO.P,TR1,2*
G04 #@! TO.N,N/C*
X115900000Y-121500000D03*
G04 #@! TO.P,TR1,3*
X120900000Y-121500000D03*
G04 #@! TO.P,TR1,4*
G04 #@! TO.N,/PRI1B*
X125900000Y-121500000D03*
G04 #@! TO.P,TR1,5*
G04 #@! TO.N,N/C*
X130900000Y-121500000D03*
G04 #@! TO.P,TR1,6*
G04 #@! TO.N,/PRI1B*
X136900000Y-121500000D03*
G04 #@! TO.P,TR1,7*
G04 #@! TO.N,N/C*
X141900000Y-121500000D03*
G04 #@! TO.P,TR1,8*
X146900000Y-121500000D03*
G04 #@! TO.P,TR1,9*
G04 #@! TO.N,/PRI2B*
X151900000Y-121500000D03*
G04 #@! TO.P,TR1,10*
G04 #@! TO.N,N/C*
X156900000Y-121500000D03*
G04 #@! TO.P,TR1,11*
X156900000Y-76500000D03*
G04 #@! TO.P,TR1,12*
G04 #@! TO.N,/SEC2B*
X151900000Y-76500000D03*
G04 #@! TO.P,TR1,13*
G04 #@! TO.N,N/C*
X146900000Y-76500000D03*
G04 #@! TO.P,TR1,14*
G04 #@! TO.N,/SEC2A*
X141900000Y-76500000D03*
G04 #@! TO.P,TR1,15*
G04 #@! TO.N,N/C*
X136900000Y-76500000D03*
G04 #@! TO.P,TR1,16*
X130900000Y-76500000D03*
G04 #@! TO.P,TR1,17*
G04 #@! TO.N,/SEC1B*
X125900000Y-76500000D03*
G04 #@! TO.P,TR1,18*
G04 #@! TO.N,N/C*
X120900000Y-76500000D03*
G04 #@! TO.P,TR1,19*
G04 #@! TO.N,/SEC1A*
X115900000Y-76500000D03*
G04 #@! TO.P,TR1,20*
G04 #@! TO.N,N/C*
X110900000Y-76500000D03*
G04 #@! TD*
D23*
G04 #@! TO.P,J1,1*
G04 #@! TO.N,/PRI2B*
X97600000Y-74600000D03*
D24*
G04 #@! TO.P,J1,2*
G04 #@! TO.N,Net-(F3-Pad2)*
X97600000Y-79600000D03*
G04 #@! TD*
G04 #@! TO.P,J2,2*
G04 #@! TO.N,Net-(F2-Pad1)*
X204000000Y-67000000D03*
D23*
G04 #@! TO.P,J2,1*
G04 #@! TO.N,/SEC1B*
X204000000Y-72000000D03*
G04 #@! TD*
G04 #@! TO.P,J3,1*
G04 #@! TO.N,/VOUT*
X204000000Y-131000000D03*
D24*
G04 #@! TO.P,J3,2*
G04 #@! TO.N,GND*
X204000000Y-126000000D03*
G04 #@! TD*
D11*
G04 #@! TO.N,/VOUT*
X183000000Y-110000000D03*
X193400000Y-95600000D03*
G04 #@! TO.N,Net-(Q1-Pad2)*
X195500000Y-101500000D03*
X207200000Y-100900000D03*
G04 #@! TD*
D25*
G04 #@! TO.N,Net-(F3-Pad2)*
X97600000Y-85100000D02*
X97400000Y-85300000D01*
X97600000Y-79600000D02*
X97600000Y-85100000D01*
G04 #@! TO.N,/PRI1A*
X95400000Y-122800000D02*
X101200000Y-128600000D01*
X92400000Y-122800000D02*
X95400000Y-122800000D01*
X110900000Y-123500000D02*
X110900000Y-121500000D01*
X105800000Y-128600000D02*
X110900000Y-123500000D01*
X101200000Y-128600000D02*
X105800000Y-128600000D01*
X92400000Y-120264002D02*
X92400000Y-122800000D01*
X91200000Y-119064002D02*
X92400000Y-120264002D01*
X91200000Y-111200000D02*
X91200000Y-119064002D01*
X94600000Y-107800000D02*
X91200000Y-111200000D01*
X97400000Y-107800000D02*
X94600000Y-107800000D01*
G04 #@! TO.N,/PRI1B*
X125900000Y-122914213D02*
X128385787Y-125400000D01*
X125900000Y-121500000D02*
X125900000Y-122914213D01*
X133000000Y-125400000D02*
X136900000Y-121500000D01*
X128385787Y-125400000D02*
X133000000Y-125400000D01*
G04 #@! TO.N,/PRI2B*
X101200000Y-75900000D02*
X101200000Y-111902944D01*
X101200000Y-111902944D02*
X101200000Y-113600000D01*
X99900000Y-74600000D02*
X101200000Y-75900000D01*
X97600000Y-74600000D02*
X99900000Y-74600000D01*
X99500000Y-115300000D02*
X101200000Y-113600000D01*
X94700000Y-115300000D02*
X99500000Y-115300000D01*
X150900001Y-120500001D02*
X151900000Y-121500000D01*
X142800001Y-112400001D02*
X150900001Y-120500001D01*
X102399999Y-112400001D02*
X142800001Y-112400001D01*
X101200000Y-113600000D02*
X102399999Y-112400001D01*
G04 #@! TO.N,/SEC2B*
X166120000Y-90720000D02*
X169600000Y-90720000D01*
X151900000Y-76500000D02*
X166120000Y-90720000D01*
D26*
G04 #@! TO.N,/VOUT*
X183000000Y-110000000D02*
X189800000Y-110000000D01*
X194100000Y-114300000D02*
X194100000Y-122300000D01*
X189800000Y-110000000D02*
X194100000Y-114300000D01*
X189800000Y-99200000D02*
X193400000Y-95600000D01*
X189800000Y-110000000D02*
X189800000Y-99200000D01*
D27*
G04 #@! TO.N,Net-(Q1-Pad2)*
X206600000Y-101500000D02*
X207200000Y-100900000D01*
X195500000Y-101500000D02*
X206600000Y-101500000D01*
G04 #@! TD*
D28*
G04 #@! TO.N,GND*
G36*
X210290001Y-135290000D02*
X164127000Y-135290000D01*
X164127000Y-132275322D01*
X168065000Y-132275322D01*
X168065000Y-133124678D01*
X168390034Y-133909380D01*
X168990620Y-134509966D01*
X169775322Y-134835000D01*
X170624678Y-134835000D01*
X171409380Y-134509966D01*
X172009966Y-133909380D01*
X172335000Y-133124678D01*
X172335000Y-132275322D01*
X172009966Y-131490620D01*
X171409380Y-130890034D01*
X170624678Y-130565000D01*
X169775322Y-130565000D01*
X168990620Y-130890034D01*
X168390034Y-131490620D01*
X168065000Y-132275322D01*
X164127000Y-132275322D01*
X164127000Y-121055159D01*
X168215000Y-121055159D01*
X168215000Y-121844841D01*
X168517199Y-122574412D01*
X169075588Y-123132801D01*
X169805159Y-123435000D01*
X170594841Y-123435000D01*
X171324412Y-123132801D01*
X171882801Y-122574412D01*
X172185000Y-121844841D01*
X172185000Y-121055159D01*
X171882801Y-120325588D01*
X171324412Y-119767199D01*
X170594841Y-119465000D01*
X169805159Y-119465000D01*
X169075588Y-119767199D01*
X168517199Y-120325588D01*
X168215000Y-121055159D01*
X164127000Y-121055159D01*
X164127000Y-117500000D01*
X180565000Y-117500000D01*
X180565000Y-132100000D01*
X180613336Y-132343004D01*
X180750987Y-132549013D01*
X181250987Y-133049013D01*
X181456996Y-133186664D01*
X181700000Y-133235000D01*
X187500000Y-133235000D01*
X187743004Y-133186664D01*
X187949013Y-133049013D01*
X188449013Y-132549013D01*
X188586664Y-132343004D01*
X188635000Y-132100000D01*
X188635000Y-117500000D01*
X188586664Y-117256996D01*
X188449013Y-117050987D01*
X187949013Y-116550987D01*
X187743004Y-116413336D01*
X187500000Y-116365000D01*
X181700000Y-116365000D01*
X181456996Y-116413336D01*
X181250987Y-116550987D01*
X180750987Y-117050987D01*
X180613336Y-117256996D01*
X180565000Y-117500000D01*
X164127000Y-117500000D01*
X164127000Y-109775322D01*
X168065000Y-109775322D01*
X168065000Y-110624678D01*
X168390034Y-111409380D01*
X168990620Y-112009966D01*
X169775322Y-112335000D01*
X170624678Y-112335000D01*
X171409380Y-112009966D01*
X172009966Y-111409380D01*
X172335000Y-110624678D01*
X172335000Y-109794126D01*
X181965000Y-109794126D01*
X181965000Y-110205874D01*
X182122569Y-110586280D01*
X182413720Y-110877431D01*
X182794126Y-111035000D01*
X183205874Y-111035000D01*
X183568007Y-110885000D01*
X189433422Y-110885000D01*
X193215000Y-114666579D01*
X193215001Y-119365000D01*
X191300000Y-119365000D01*
X191056996Y-119413336D01*
X190850987Y-119550987D01*
X190350987Y-120050987D01*
X190213336Y-120256996D01*
X190165000Y-120500000D01*
X190165000Y-132100000D01*
X190213336Y-132343004D01*
X190350987Y-132549013D01*
X190850987Y-133049013D01*
X191056996Y-133186664D01*
X191300000Y-133235000D01*
X205217075Y-133235000D01*
X205452908Y-133189583D01*
X205660580Y-133054454D01*
X206172771Y-132554603D01*
X206309830Y-132357385D01*
X206364077Y-132115632D01*
X206422620Y-129715334D01*
X206377391Y-129464017D01*
X206242263Y-129256346D01*
X205754454Y-128756495D01*
X205543004Y-128613336D01*
X205300000Y-128565000D01*
X201363026Y-128565000D01*
X201235000Y-128436974D01*
X201235000Y-120500000D01*
X201186664Y-120256996D01*
X201049013Y-120050987D01*
X200549013Y-119550987D01*
X200343004Y-119413336D01*
X200100000Y-119365000D01*
X194985000Y-119365000D01*
X194985000Y-118555431D01*
X203765000Y-118555431D01*
X203765000Y-119444569D01*
X204105259Y-120266026D01*
X204733974Y-120894741D01*
X205555431Y-121235000D01*
X206444569Y-121235000D01*
X207266026Y-120894741D01*
X207894741Y-120266026D01*
X208235000Y-119444569D01*
X208235000Y-118555431D01*
X207894741Y-117733974D01*
X207266026Y-117105259D01*
X206444569Y-116765000D01*
X205555431Y-116765000D01*
X204733974Y-117105259D01*
X204105259Y-117733974D01*
X203765000Y-118555431D01*
X194985000Y-118555431D01*
X194985000Y-114387159D01*
X195002337Y-114299999D01*
X194985000Y-114212839D01*
X194985000Y-114212835D01*
X194933652Y-113954690D01*
X194738049Y-113661951D01*
X194664156Y-113612577D01*
X190685000Y-109633422D01*
X190685000Y-101294126D01*
X194465000Y-101294126D01*
X194465000Y-101705874D01*
X194622569Y-102086280D01*
X194913720Y-102377431D01*
X195294126Y-102535000D01*
X195705874Y-102535000D01*
X196086280Y-102377431D01*
X196203711Y-102260000D01*
X206525153Y-102260000D01*
X206600000Y-102274888D01*
X206674847Y-102260000D01*
X206674852Y-102260000D01*
X206896537Y-102215904D01*
X207147929Y-102047929D01*
X207190331Y-101984470D01*
X207239801Y-101935000D01*
X207405874Y-101935000D01*
X207786280Y-101777431D01*
X208077431Y-101486280D01*
X208235000Y-101105874D01*
X208235000Y-100694126D01*
X208077431Y-100313720D01*
X207786280Y-100022569D01*
X207405874Y-99865000D01*
X206994126Y-99865000D01*
X206613720Y-100022569D01*
X206322569Y-100313720D01*
X206165000Y-100694126D01*
X206165000Y-100740000D01*
X196203711Y-100740000D01*
X196086280Y-100622569D01*
X195705874Y-100465000D01*
X195294126Y-100465000D01*
X194913720Y-100622569D01*
X194622569Y-100913720D01*
X194465000Y-101294126D01*
X190685000Y-101294126D01*
X190685000Y-99566578D01*
X193624148Y-96627431D01*
X193986280Y-96477431D01*
X194277431Y-96186280D01*
X194435000Y-95805874D01*
X194435000Y-95394126D01*
X194277431Y-95013720D01*
X193986280Y-94722569D01*
X193605874Y-94565000D01*
X193194126Y-94565000D01*
X192813720Y-94722569D01*
X192522569Y-95013720D01*
X192372569Y-95375852D01*
X189235845Y-98512577D01*
X189161952Y-98561951D01*
X189112578Y-98635844D01*
X189112576Y-98635846D01*
X188966348Y-98854691D01*
X188897663Y-99200000D01*
X188915001Y-99287165D01*
X188915000Y-109115000D01*
X183568007Y-109115000D01*
X183205874Y-108965000D01*
X182794126Y-108965000D01*
X182413720Y-109122569D01*
X182122569Y-109413720D01*
X181965000Y-109794126D01*
X172335000Y-109794126D01*
X172335000Y-109775322D01*
X172009966Y-108990620D01*
X171409380Y-108390034D01*
X170624678Y-108065000D01*
X169775322Y-108065000D01*
X168990620Y-108390034D01*
X168390034Y-108990620D01*
X168065000Y-109775322D01*
X164127000Y-109775322D01*
X164127000Y-103294670D01*
X164965000Y-103294670D01*
X164965000Y-103905330D01*
X165198690Y-104469507D01*
X165630493Y-104901310D01*
X166194670Y-105135000D01*
X166805330Y-105135000D01*
X166902695Y-105094670D01*
X172465000Y-105094670D01*
X172465000Y-105705330D01*
X172698690Y-106269507D01*
X173130493Y-106701310D01*
X173694670Y-106935000D01*
X174305330Y-106935000D01*
X174869507Y-106701310D01*
X175301310Y-106269507D01*
X175535000Y-105705330D01*
X175535000Y-105094670D01*
X175466988Y-104930474D01*
X185245000Y-104930474D01*
X185245000Y-105469526D01*
X185451286Y-105967546D01*
X185832454Y-106348714D01*
X186330474Y-106555000D01*
X186869526Y-106555000D01*
X187367546Y-106348714D01*
X187748714Y-105967546D01*
X187955000Y-105469526D01*
X187955000Y-104930474D01*
X187748714Y-104432454D01*
X187367546Y-104051286D01*
X186869526Y-103845000D01*
X186330474Y-103845000D01*
X185832454Y-104051286D01*
X185451286Y-104432454D01*
X185245000Y-104930474D01*
X175466988Y-104930474D01*
X175301310Y-104530493D01*
X174869507Y-104098690D01*
X174305330Y-103865000D01*
X173694670Y-103865000D01*
X173130493Y-104098690D01*
X172698690Y-104530493D01*
X172465000Y-105094670D01*
X166902695Y-105094670D01*
X167369507Y-104901310D01*
X167801310Y-104469507D01*
X168035000Y-103905330D01*
X168035000Y-103294670D01*
X167801310Y-102730493D01*
X167461291Y-102390474D01*
X182705000Y-102390474D01*
X182705000Y-102929526D01*
X182911286Y-103427546D01*
X183292454Y-103808714D01*
X183790474Y-104015000D01*
X184329526Y-104015000D01*
X184827546Y-103808714D01*
X185208714Y-103427546D01*
X185415000Y-102929526D01*
X185415000Y-102390474D01*
X185208714Y-101892454D01*
X184827546Y-101511286D01*
X184329526Y-101305000D01*
X183790474Y-101305000D01*
X183292454Y-101511286D01*
X182911286Y-101892454D01*
X182705000Y-102390474D01*
X167461291Y-102390474D01*
X167369507Y-102298690D01*
X166805330Y-102065000D01*
X166194670Y-102065000D01*
X165630493Y-102298690D01*
X165198690Y-102730493D01*
X164965000Y-103294670D01*
X164127000Y-103294670D01*
X164127000Y-90332132D01*
X165238389Y-91443521D01*
X165301711Y-91538289D01*
X165677145Y-91789146D01*
X166120000Y-91877235D01*
X166231783Y-91855000D01*
X167867464Y-91855000D01*
X167874810Y-91872735D01*
X168447265Y-92445190D01*
X169195213Y-92755000D01*
X170004787Y-92755000D01*
X170752735Y-92445190D01*
X171325190Y-91872735D01*
X171635000Y-91124787D01*
X171635000Y-90315213D01*
X171325190Y-89567265D01*
X170752735Y-88994810D01*
X170004787Y-88685000D01*
X169195213Y-88685000D01*
X168447265Y-88994810D01*
X167874810Y-89567265D01*
X167867464Y-89585000D01*
X166590132Y-89585000D01*
X165505132Y-88500000D01*
X202365000Y-88500000D01*
X202365000Y-97500000D01*
X202413336Y-97743004D01*
X202550987Y-97949013D01*
X203050987Y-98449013D01*
X203256996Y-98586664D01*
X203500000Y-98635000D01*
X208500000Y-98635000D01*
X208743004Y-98586664D01*
X208949013Y-98449013D01*
X209449013Y-97949013D01*
X209586664Y-97743004D01*
X209635000Y-97500000D01*
X209635000Y-88500000D01*
X209586664Y-88256996D01*
X209449013Y-88050987D01*
X208949013Y-87550987D01*
X208743004Y-87413336D01*
X208500000Y-87365000D01*
X203500000Y-87365000D01*
X203256996Y-87413336D01*
X203050987Y-87550987D01*
X202550987Y-88050987D01*
X202413336Y-88256996D01*
X202365000Y-88500000D01*
X165505132Y-88500000D01*
X164127000Y-87121868D01*
X164127000Y-85235213D01*
X167565000Y-85235213D01*
X167565000Y-86044787D01*
X167874810Y-86792735D01*
X168447265Y-87365190D01*
X169195213Y-87675000D01*
X170004787Y-87675000D01*
X170752735Y-87365190D01*
X171325190Y-86792735D01*
X171635000Y-86044787D01*
X171635000Y-85235213D01*
X171325190Y-84487265D01*
X170752735Y-83914810D01*
X170004787Y-83605000D01*
X169195213Y-83605000D01*
X168447265Y-83914810D01*
X167874810Y-84487265D01*
X167565000Y-85235213D01*
X164127000Y-85235213D01*
X164127000Y-79160000D01*
X167552560Y-79160000D01*
X167552560Y-81960000D01*
X167601843Y-82207765D01*
X167742191Y-82417809D01*
X167952235Y-82558157D01*
X168200000Y-82607440D01*
X171000000Y-82607440D01*
X171247765Y-82558157D01*
X171457809Y-82417809D01*
X171598157Y-82207765D01*
X171647440Y-81960000D01*
X171647440Y-81100000D01*
X181352560Y-81100000D01*
X181352560Y-83500000D01*
X181401843Y-83747765D01*
X181542191Y-83957809D01*
X181752235Y-84098157D01*
X182000000Y-84147440D01*
X184400000Y-84147440D01*
X184647765Y-84098157D01*
X184857809Y-83957809D01*
X184998157Y-83747765D01*
X185047440Y-83500000D01*
X185047440Y-81100000D01*
X184998157Y-80852235D01*
X184857809Y-80642191D01*
X184647765Y-80501843D01*
X184400000Y-80452560D01*
X182000000Y-80452560D01*
X181752235Y-80501843D01*
X181542191Y-80642191D01*
X181401843Y-80852235D01*
X181352560Y-81100000D01*
X171647440Y-81100000D01*
X171647440Y-79160000D01*
X171598157Y-78912235D01*
X171457809Y-78702191D01*
X171247765Y-78561843D01*
X171215530Y-78555431D01*
X203765000Y-78555431D01*
X203765000Y-79444569D01*
X204105259Y-80266026D01*
X204733974Y-80894741D01*
X205555431Y-81235000D01*
X206444569Y-81235000D01*
X207266026Y-80894741D01*
X207894741Y-80266026D01*
X208235000Y-79444569D01*
X208235000Y-78555431D01*
X207894741Y-77733974D01*
X207266026Y-77105259D01*
X206444569Y-76765000D01*
X205555431Y-76765000D01*
X204733974Y-77105259D01*
X204105259Y-77733974D01*
X203765000Y-78555431D01*
X171215530Y-78555431D01*
X171000000Y-78512560D01*
X168200000Y-78512560D01*
X167952235Y-78561843D01*
X167742191Y-78702191D01*
X167601843Y-78912235D01*
X167552560Y-79160000D01*
X164127000Y-79160000D01*
X164127000Y-76552606D01*
X164552606Y-76127000D01*
X210290000Y-76127000D01*
X210290001Y-135290000D01*
X210290001Y-135290000D01*
G37*
X210290001Y-135290000D02*
X164127000Y-135290000D01*
X164127000Y-132275322D01*
X168065000Y-132275322D01*
X168065000Y-133124678D01*
X168390034Y-133909380D01*
X168990620Y-134509966D01*
X169775322Y-134835000D01*
X170624678Y-134835000D01*
X171409380Y-134509966D01*
X172009966Y-133909380D01*
X172335000Y-133124678D01*
X172335000Y-132275322D01*
X172009966Y-131490620D01*
X171409380Y-130890034D01*
X170624678Y-130565000D01*
X169775322Y-130565000D01*
X168990620Y-130890034D01*
X168390034Y-131490620D01*
X168065000Y-132275322D01*
X164127000Y-132275322D01*
X164127000Y-121055159D01*
X168215000Y-121055159D01*
X168215000Y-121844841D01*
X168517199Y-122574412D01*
X169075588Y-123132801D01*
X169805159Y-123435000D01*
X170594841Y-123435000D01*
X171324412Y-123132801D01*
X171882801Y-122574412D01*
X172185000Y-121844841D01*
X172185000Y-121055159D01*
X171882801Y-120325588D01*
X171324412Y-119767199D01*
X170594841Y-119465000D01*
X169805159Y-119465000D01*
X169075588Y-119767199D01*
X168517199Y-120325588D01*
X168215000Y-121055159D01*
X164127000Y-121055159D01*
X164127000Y-117500000D01*
X180565000Y-117500000D01*
X180565000Y-132100000D01*
X180613336Y-132343004D01*
X180750987Y-132549013D01*
X181250987Y-133049013D01*
X181456996Y-133186664D01*
X181700000Y-133235000D01*
X187500000Y-133235000D01*
X187743004Y-133186664D01*
X187949013Y-133049013D01*
X188449013Y-132549013D01*
X188586664Y-132343004D01*
X188635000Y-132100000D01*
X188635000Y-117500000D01*
X188586664Y-117256996D01*
X188449013Y-117050987D01*
X187949013Y-116550987D01*
X187743004Y-116413336D01*
X187500000Y-116365000D01*
X181700000Y-116365000D01*
X181456996Y-116413336D01*
X181250987Y-116550987D01*
X180750987Y-117050987D01*
X180613336Y-117256996D01*
X180565000Y-117500000D01*
X164127000Y-117500000D01*
X164127000Y-109775322D01*
X168065000Y-109775322D01*
X168065000Y-110624678D01*
X168390034Y-111409380D01*
X168990620Y-112009966D01*
X169775322Y-112335000D01*
X170624678Y-112335000D01*
X171409380Y-112009966D01*
X172009966Y-111409380D01*
X172335000Y-110624678D01*
X172335000Y-109794126D01*
X181965000Y-109794126D01*
X181965000Y-110205874D01*
X182122569Y-110586280D01*
X182413720Y-110877431D01*
X182794126Y-111035000D01*
X183205874Y-111035000D01*
X183568007Y-110885000D01*
X189433422Y-110885000D01*
X193215000Y-114666579D01*
X193215001Y-119365000D01*
X191300000Y-119365000D01*
X191056996Y-119413336D01*
X190850987Y-119550987D01*
X190350987Y-120050987D01*
X190213336Y-120256996D01*
X190165000Y-120500000D01*
X190165000Y-132100000D01*
X190213336Y-132343004D01*
X190350987Y-132549013D01*
X190850987Y-133049013D01*
X191056996Y-133186664D01*
X191300000Y-133235000D01*
X205217075Y-133235000D01*
X205452908Y-133189583D01*
X205660580Y-133054454D01*
X206172771Y-132554603D01*
X206309830Y-132357385D01*
X206364077Y-132115632D01*
X206422620Y-129715334D01*
X206377391Y-129464017D01*
X206242263Y-129256346D01*
X205754454Y-128756495D01*
X205543004Y-128613336D01*
X205300000Y-128565000D01*
X201363026Y-128565000D01*
X201235000Y-128436974D01*
X201235000Y-120500000D01*
X201186664Y-120256996D01*
X201049013Y-120050987D01*
X200549013Y-119550987D01*
X200343004Y-119413336D01*
X200100000Y-119365000D01*
X194985000Y-119365000D01*
X194985000Y-118555431D01*
X203765000Y-118555431D01*
X203765000Y-119444569D01*
X204105259Y-120266026D01*
X204733974Y-120894741D01*
X205555431Y-121235000D01*
X206444569Y-121235000D01*
X207266026Y-120894741D01*
X207894741Y-120266026D01*
X208235000Y-119444569D01*
X208235000Y-118555431D01*
X207894741Y-117733974D01*
X207266026Y-117105259D01*
X206444569Y-116765000D01*
X205555431Y-116765000D01*
X204733974Y-117105259D01*
X204105259Y-117733974D01*
X203765000Y-118555431D01*
X194985000Y-118555431D01*
X194985000Y-114387159D01*
X195002337Y-114299999D01*
X194985000Y-114212839D01*
X194985000Y-114212835D01*
X194933652Y-113954690D01*
X194738049Y-113661951D01*
X194664156Y-113612577D01*
X190685000Y-109633422D01*
X190685000Y-101294126D01*
X194465000Y-101294126D01*
X194465000Y-101705874D01*
X194622569Y-102086280D01*
X194913720Y-102377431D01*
X195294126Y-102535000D01*
X195705874Y-102535000D01*
X196086280Y-102377431D01*
X196203711Y-102260000D01*
X206525153Y-102260000D01*
X206600000Y-102274888D01*
X206674847Y-102260000D01*
X206674852Y-102260000D01*
X206896537Y-102215904D01*
X207147929Y-102047929D01*
X207190331Y-101984470D01*
X207239801Y-101935000D01*
X207405874Y-101935000D01*
X207786280Y-101777431D01*
X208077431Y-101486280D01*
X208235000Y-101105874D01*
X208235000Y-100694126D01*
X208077431Y-100313720D01*
X207786280Y-100022569D01*
X207405874Y-99865000D01*
X206994126Y-99865000D01*
X206613720Y-100022569D01*
X206322569Y-100313720D01*
X206165000Y-100694126D01*
X206165000Y-100740000D01*
X196203711Y-100740000D01*
X196086280Y-100622569D01*
X195705874Y-100465000D01*
X195294126Y-100465000D01*
X194913720Y-100622569D01*
X194622569Y-100913720D01*
X194465000Y-101294126D01*
X190685000Y-101294126D01*
X190685000Y-99566578D01*
X193624148Y-96627431D01*
X193986280Y-96477431D01*
X194277431Y-96186280D01*
X194435000Y-95805874D01*
X194435000Y-95394126D01*
X194277431Y-95013720D01*
X193986280Y-94722569D01*
X193605874Y-94565000D01*
X193194126Y-94565000D01*
X192813720Y-94722569D01*
X192522569Y-95013720D01*
X192372569Y-95375852D01*
X189235845Y-98512577D01*
X189161952Y-98561951D01*
X189112578Y-98635844D01*
X189112576Y-98635846D01*
X188966348Y-98854691D01*
X188897663Y-99200000D01*
X188915001Y-99287165D01*
X188915000Y-109115000D01*
X183568007Y-109115000D01*
X183205874Y-108965000D01*
X182794126Y-108965000D01*
X182413720Y-109122569D01*
X182122569Y-109413720D01*
X181965000Y-109794126D01*
X172335000Y-109794126D01*
X172335000Y-109775322D01*
X172009966Y-108990620D01*
X171409380Y-108390034D01*
X170624678Y-108065000D01*
X169775322Y-108065000D01*
X168990620Y-108390034D01*
X168390034Y-108990620D01*
X168065000Y-109775322D01*
X164127000Y-109775322D01*
X164127000Y-103294670D01*
X164965000Y-103294670D01*
X164965000Y-103905330D01*
X165198690Y-104469507D01*
X165630493Y-104901310D01*
X166194670Y-105135000D01*
X166805330Y-105135000D01*
X166902695Y-105094670D01*
X172465000Y-105094670D01*
X172465000Y-105705330D01*
X172698690Y-106269507D01*
X173130493Y-106701310D01*
X173694670Y-106935000D01*
X174305330Y-106935000D01*
X174869507Y-106701310D01*
X175301310Y-106269507D01*
X175535000Y-105705330D01*
X175535000Y-105094670D01*
X175466988Y-104930474D01*
X185245000Y-104930474D01*
X185245000Y-105469526D01*
X185451286Y-105967546D01*
X185832454Y-106348714D01*
X186330474Y-106555000D01*
X186869526Y-106555000D01*
X187367546Y-106348714D01*
X187748714Y-105967546D01*
X187955000Y-105469526D01*
X187955000Y-104930474D01*
X187748714Y-104432454D01*
X187367546Y-104051286D01*
X186869526Y-103845000D01*
X186330474Y-103845000D01*
X185832454Y-104051286D01*
X185451286Y-104432454D01*
X185245000Y-104930474D01*
X175466988Y-104930474D01*
X175301310Y-104530493D01*
X174869507Y-104098690D01*
X174305330Y-103865000D01*
X173694670Y-103865000D01*
X173130493Y-104098690D01*
X172698690Y-104530493D01*
X172465000Y-105094670D01*
X166902695Y-105094670D01*
X167369507Y-104901310D01*
X167801310Y-104469507D01*
X168035000Y-103905330D01*
X168035000Y-103294670D01*
X167801310Y-102730493D01*
X167461291Y-102390474D01*
X182705000Y-102390474D01*
X182705000Y-102929526D01*
X182911286Y-103427546D01*
X183292454Y-103808714D01*
X183790474Y-104015000D01*
X184329526Y-104015000D01*
X184827546Y-103808714D01*
X185208714Y-103427546D01*
X185415000Y-102929526D01*
X185415000Y-102390474D01*
X185208714Y-101892454D01*
X184827546Y-101511286D01*
X184329526Y-101305000D01*
X183790474Y-101305000D01*
X183292454Y-101511286D01*
X182911286Y-101892454D01*
X182705000Y-102390474D01*
X167461291Y-102390474D01*
X167369507Y-102298690D01*
X166805330Y-102065000D01*
X166194670Y-102065000D01*
X165630493Y-102298690D01*
X165198690Y-102730493D01*
X164965000Y-103294670D01*
X164127000Y-103294670D01*
X164127000Y-90332132D01*
X165238389Y-91443521D01*
X165301711Y-91538289D01*
X165677145Y-91789146D01*
X166120000Y-91877235D01*
X166231783Y-91855000D01*
X167867464Y-91855000D01*
X167874810Y-91872735D01*
X168447265Y-92445190D01*
X169195213Y-92755000D01*
X170004787Y-92755000D01*
X170752735Y-92445190D01*
X171325190Y-91872735D01*
X171635000Y-91124787D01*
X171635000Y-90315213D01*
X171325190Y-89567265D01*
X170752735Y-88994810D01*
X170004787Y-88685000D01*
X169195213Y-88685000D01*
X168447265Y-88994810D01*
X167874810Y-89567265D01*
X167867464Y-89585000D01*
X166590132Y-89585000D01*
X165505132Y-88500000D01*
X202365000Y-88500000D01*
X202365000Y-97500000D01*
X202413336Y-97743004D01*
X202550987Y-97949013D01*
X203050987Y-98449013D01*
X203256996Y-98586664D01*
X203500000Y-98635000D01*
X208500000Y-98635000D01*
X208743004Y-98586664D01*
X208949013Y-98449013D01*
X209449013Y-97949013D01*
X209586664Y-97743004D01*
X209635000Y-97500000D01*
X209635000Y-88500000D01*
X209586664Y-88256996D01*
X209449013Y-88050987D01*
X208949013Y-87550987D01*
X208743004Y-87413336D01*
X208500000Y-87365000D01*
X203500000Y-87365000D01*
X203256996Y-87413336D01*
X203050987Y-87550987D01*
X202550987Y-88050987D01*
X202413336Y-88256996D01*
X202365000Y-88500000D01*
X165505132Y-88500000D01*
X164127000Y-87121868D01*
X164127000Y-85235213D01*
X167565000Y-85235213D01*
X167565000Y-86044787D01*
X167874810Y-86792735D01*
X168447265Y-87365190D01*
X169195213Y-87675000D01*
X170004787Y-87675000D01*
X170752735Y-87365190D01*
X171325190Y-86792735D01*
X171635000Y-86044787D01*
X171635000Y-85235213D01*
X171325190Y-84487265D01*
X170752735Y-83914810D01*
X170004787Y-83605000D01*
X169195213Y-83605000D01*
X168447265Y-83914810D01*
X167874810Y-84487265D01*
X167565000Y-85235213D01*
X164127000Y-85235213D01*
X164127000Y-79160000D01*
X167552560Y-79160000D01*
X167552560Y-81960000D01*
X167601843Y-82207765D01*
X167742191Y-82417809D01*
X167952235Y-82558157D01*
X168200000Y-82607440D01*
X171000000Y-82607440D01*
X171247765Y-82558157D01*
X171457809Y-82417809D01*
X171598157Y-82207765D01*
X171647440Y-81960000D01*
X171647440Y-81100000D01*
X181352560Y-81100000D01*
X181352560Y-83500000D01*
X181401843Y-83747765D01*
X181542191Y-83957809D01*
X181752235Y-84098157D01*
X182000000Y-84147440D01*
X184400000Y-84147440D01*
X184647765Y-84098157D01*
X184857809Y-83957809D01*
X184998157Y-83747765D01*
X185047440Y-83500000D01*
X185047440Y-81100000D01*
X184998157Y-80852235D01*
X184857809Y-80642191D01*
X184647765Y-80501843D01*
X184400000Y-80452560D01*
X182000000Y-80452560D01*
X181752235Y-80501843D01*
X181542191Y-80642191D01*
X181401843Y-80852235D01*
X181352560Y-81100000D01*
X171647440Y-81100000D01*
X171647440Y-79160000D01*
X171598157Y-78912235D01*
X171457809Y-78702191D01*
X171247765Y-78561843D01*
X171215530Y-78555431D01*
X203765000Y-78555431D01*
X203765000Y-79444569D01*
X204105259Y-80266026D01*
X204733974Y-80894741D01*
X205555431Y-81235000D01*
X206444569Y-81235000D01*
X207266026Y-80894741D01*
X207894741Y-80266026D01*
X208235000Y-79444569D01*
X208235000Y-78555431D01*
X207894741Y-77733974D01*
X207266026Y-77105259D01*
X206444569Y-76765000D01*
X205555431Y-76765000D01*
X204733974Y-77105259D01*
X204105259Y-77733974D01*
X203765000Y-78555431D01*
X171215530Y-78555431D01*
X171000000Y-78512560D01*
X168200000Y-78512560D01*
X167952235Y-78561843D01*
X167742191Y-78702191D01*
X167601843Y-78912235D01*
X167552560Y-79160000D01*
X164127000Y-79160000D01*
X164127000Y-76552606D01*
X164552606Y-76127000D01*
X210290000Y-76127000D01*
X210290001Y-135290000D01*
G04 #@! TO.N,/Vd*
G36*
X208873000Y-88552606D02*
X208873000Y-97447394D01*
X208447394Y-97873000D01*
X203552606Y-97873000D01*
X203127000Y-97447394D01*
X203127000Y-88552606D01*
X203552606Y-88127000D01*
X208447394Y-88127000D01*
X208873000Y-88552606D01*
X208873000Y-88552606D01*
G37*
X208873000Y-88552606D02*
X208873000Y-97447394D01*
X208447394Y-97873000D01*
X203552606Y-97873000D01*
X203127000Y-97447394D01*
X203127000Y-88552606D01*
X203552606Y-88127000D01*
X208447394Y-88127000D01*
X208873000Y-88552606D01*
G04 #@! TO.N,/VOUT*
G36*
X200473000Y-120552606D02*
X200473000Y-128700000D01*
X200482667Y-128748601D01*
X200510197Y-128789803D01*
X201010197Y-129289803D01*
X201051399Y-129317333D01*
X201100000Y-129327000D01*
X205246485Y-129327000D01*
X205659542Y-129750253D01*
X205603565Y-132045367D01*
X205165374Y-132473000D01*
X191352606Y-132473000D01*
X190927000Y-132047394D01*
X190927000Y-120552606D01*
X191352606Y-120127000D01*
X200047394Y-120127000D01*
X200473000Y-120552606D01*
X200473000Y-120552606D01*
G37*
X200473000Y-120552606D02*
X200473000Y-128700000D01*
X200482667Y-128748601D01*
X200510197Y-128789803D01*
X201010197Y-129289803D01*
X201051399Y-129317333D01*
X201100000Y-129327000D01*
X205246485Y-129327000D01*
X205659542Y-129750253D01*
X205603565Y-132045367D01*
X205165374Y-132473000D01*
X191352606Y-132473000D01*
X190927000Y-132047394D01*
X190927000Y-120552606D01*
X191352606Y-120127000D01*
X200047394Y-120127000D01*
X200473000Y-120552606D01*
G04 #@! TO.N,/SW*
G36*
X187774363Y-117453969D02*
X187774363Y-117718917D01*
X187823646Y-117966682D01*
X187873000Y-118040545D01*
X187873000Y-132047394D01*
X187447394Y-132473000D01*
X181752606Y-132473000D01*
X181327000Y-132047394D01*
X181327000Y-117552606D01*
X181752606Y-117127000D01*
X187447394Y-117127000D01*
X187774363Y-117453969D01*
X187774363Y-117453969D01*
G37*
X187774363Y-117453969D02*
X187774363Y-117718917D01*
X187823646Y-117966682D01*
X187873000Y-118040545D01*
X187873000Y-132047394D01*
X187447394Y-132473000D01*
X181752606Y-132473000D01*
X181327000Y-132047394D01*
X181327000Y-117552606D01*
X181752606Y-117127000D01*
X187447394Y-117127000D01*
X187774363Y-117453969D01*
G04 #@! TD*
M02*
