M48
;DRILL file {KiCad (5.0.1-3-g963ef8bb5)} date Saturday, 29 December 2018 at 16:31:50
;FORMAT={-:-/ absolute / inch / decimal}
FMAT,2
INCH,TZ
T1C0.0118
T2C0.0157
T3C0.0315
T4C0.0394
T5C0.0472
T6C0.0512
T7C0.0551
%
G90
G05
M72
T1
X6.8661Y-4.811
X6.8661Y-4.8583
X6.9094Y-4.811
X6.9094Y-4.8583
X6.9606Y-4.811
X6.9606Y-4.8583
X7.0079Y-4.811
X7.0079Y-4.8583
T2
X6.5125Y-4.4953
X6.6142Y-4.4646
X6.6299Y-4.5591
X6.685Y-4.4724
X6.7638Y-4.4154
X6.7638Y-4.4843
X6.8996Y-4.6969
X6.9291Y-5.0866
X6.9606Y-4.71
X6.9606Y-4.748
X7.0118Y-4.7087
X7.0118Y-4.748
X7.2992Y-4.6535
X7.2992Y-4.7165
X7.3307Y-4.5315
X7.3307Y-4.5748
X7.4646Y-4.4882
X7.5118Y-4.4882
X7.5748Y-4.4882
X7.6142Y-4.4882
T3
X3.6378Y-4.5591
X3.7283Y-4.2638
X7.5748Y-2.9134
X7.6457Y-2.6181
X7.5748Y-3.4409
X7.6457Y-3.1457
X7.6457Y-3.8819
X7.6457Y-3.9819
X7.8425Y-3.2835
X7.9425Y-3.2835
X6.5748Y-4.8787
X6.5748Y-5.0787
X6.6748Y-4.9787
X7.7087Y-4.4669
X7.7087Y-4.5669
T4
X4.3701Y-3.0118
X4.3701Y-4.7835
X4.5669Y-3.0118
X4.5669Y-4.7835
X4.7638Y-3.0118
X4.7638Y-4.7835
X4.9606Y-3.0118
X4.9606Y-4.7835
X5.1575Y-3.0118
X5.1575Y-4.7835
X5.3937Y-3.0118
X5.3937Y-4.7835
X5.5906Y-3.0118
X5.5906Y-4.7835
X5.7874Y-3.0118
X5.7874Y-4.7835
X5.9843Y-3.0118
X5.9843Y-4.7835
X6.1811Y-3.0118
X6.1811Y-4.7835
X7.189Y-4.3189
X7.2913Y-4.3189
T5
X6.7913Y-4.315
X7.0866Y-4.315
X3.9921Y-4.1181
X3.9921Y-4.7087
T6
X3.8268Y-3.0197
X3.8268Y-3.9055
X6.5256Y-3.2835
X7.4114Y-3.2835
X6.5276Y-2.7638
X7.4134Y-2.7638
T7
X7.8898Y-4.1969
X7.8898Y-4.3969
X7.8898Y-4.6693
X7.8898Y-4.8693
X7.8898Y-3.4614
X7.8898Y-3.6614
X7.8898Y-2.9055
X7.8898Y-3.1055
X3.9764Y-2.6189
X3.9764Y-2.8189
X6.6701Y-3.6929
X6.8701Y-3.6929
X7.0701Y-3.6929
X7.2701Y-3.6929
X3.9764Y-4.9803
X3.9764Y-5.1803
T0
M30
