G04 #@! TF.GenerationSoftware,KiCad,Pcbnew,(5.0.0-3-g5ebb6b6)*
G04 #@! TF.CreationDate,2018-11-18T00:12:04+01:00*
G04 #@! TF.ProjectId,c64-psu,6336342D7073752E6B696361645F7063,rev?*
G04 #@! TF.SameCoordinates,Original*
G04 #@! TF.FileFunction,Soldermask,Top*
G04 #@! TF.FilePolarity,Negative*
%FSLAX46Y46*%
G04 Gerber Fmt 4.6, Leading zero omitted, Abs format (unit mm)*
G04 Created by KiCad (PCBNEW (5.0.0-3-g5ebb6b6)) date 2018 November 18, Sunday 00:12:04*
%MOMM*%
%LPD*%
G01*
G04 APERTURE LIST*
%ADD10C,0.150000*%
%ADD11C,3.600000*%
%ADD12C,0.100000*%
%ADD13C,1.825000*%
%ADD14C,1.840000*%
%ADD15R,0.500000X0.850000*%
%ADD16R,0.500000X0.930000*%
%ADD17R,2.350000X1.950000*%
%ADD18C,1.550000*%
%ADD19C,3.400000*%
%ADD20C,3.100000*%
%ADD21R,0.750000X1.050000*%
%ADD22R,2.800000X1.950000*%
%ADD23R,1.950000X1.000000*%
%ADD24R,3.000000X3.500000*%
%ADD25C,2.200000*%
%ADD26R,3.300000X5.800000*%
%ADD27C,2.800000*%
%ADD28R,3.200000X3.200000*%
%ADD29C,3.200000*%
%ADD30R,2.800000X2.800000*%
%ADD31R,2.400000X2.400000*%
%ADD32C,2.400000*%
%ADD33R,3.000000X3.000000*%
%ADD34C,3.000000*%
G04 APERTURE END LIST*
D10*
X89000000Y-136000000D02*
X89000000Y-62000000D01*
X211000000Y-136000000D02*
X89000000Y-136000000D01*
X211000000Y-62000000D02*
X211000000Y-136000000D01*
X89000000Y-62000000D02*
X211000000Y-62000000D01*
D11*
G04 #@! TO.C,MH3*
X206000000Y-79000000D03*
G04 #@! TD*
G04 #@! TO.C,MH2*
X94000000Y-131000000D03*
G04 #@! TD*
G04 #@! TO.C,MH1*
X94000000Y-67000000D03*
G04 #@! TD*
G04 #@! TO.C,MH4*
X206000000Y-119000000D03*
G04 #@! TD*
D12*
G04 #@! TO.C,D2*
G36*
X194848707Y-89126542D02*
X194879787Y-89131152D01*
X194910266Y-89138787D01*
X194939850Y-89149372D01*
X194968254Y-89162806D01*
X194995204Y-89178959D01*
X195020442Y-89197677D01*
X195043723Y-89218777D01*
X195064823Y-89242058D01*
X195083541Y-89267296D01*
X195099694Y-89294246D01*
X195113128Y-89322650D01*
X195123713Y-89352234D01*
X195131348Y-89382713D01*
X195135958Y-89413793D01*
X195137500Y-89445176D01*
X195137500Y-90954824D01*
X195135958Y-90986207D01*
X195131348Y-91017287D01*
X195123713Y-91047766D01*
X195113128Y-91077350D01*
X195099694Y-91105754D01*
X195083541Y-91132704D01*
X195064823Y-91157942D01*
X195043723Y-91181223D01*
X195020442Y-91202323D01*
X194995204Y-91221041D01*
X194968254Y-91237194D01*
X194939850Y-91250628D01*
X194910266Y-91261213D01*
X194879787Y-91268848D01*
X194848707Y-91273458D01*
X194817324Y-91275000D01*
X193632676Y-91275000D01*
X193601293Y-91273458D01*
X193570213Y-91268848D01*
X193539734Y-91261213D01*
X193510150Y-91250628D01*
X193481746Y-91237194D01*
X193454796Y-91221041D01*
X193429558Y-91202323D01*
X193406277Y-91181223D01*
X193385177Y-91157942D01*
X193366459Y-91132704D01*
X193350306Y-91105754D01*
X193336872Y-91077350D01*
X193326287Y-91047766D01*
X193318652Y-91017287D01*
X193314042Y-90986207D01*
X193312500Y-90954824D01*
X193312500Y-89445176D01*
X193314042Y-89413793D01*
X193318652Y-89382713D01*
X193326287Y-89352234D01*
X193336872Y-89322650D01*
X193350306Y-89294246D01*
X193366459Y-89267296D01*
X193385177Y-89242058D01*
X193406277Y-89218777D01*
X193429558Y-89197677D01*
X193454796Y-89178959D01*
X193481746Y-89162806D01*
X193510150Y-89149372D01*
X193539734Y-89138787D01*
X193570213Y-89131152D01*
X193601293Y-89126542D01*
X193632676Y-89125000D01*
X194817324Y-89125000D01*
X194848707Y-89126542D01*
X194848707Y-89126542D01*
G37*
D13*
X194225000Y-90200000D03*
D12*
G36*
X197823707Y-89126542D02*
X197854787Y-89131152D01*
X197885266Y-89138787D01*
X197914850Y-89149372D01*
X197943254Y-89162806D01*
X197970204Y-89178959D01*
X197995442Y-89197677D01*
X198018723Y-89218777D01*
X198039823Y-89242058D01*
X198058541Y-89267296D01*
X198074694Y-89294246D01*
X198088128Y-89322650D01*
X198098713Y-89352234D01*
X198106348Y-89382713D01*
X198110958Y-89413793D01*
X198112500Y-89445176D01*
X198112500Y-90954824D01*
X198110958Y-90986207D01*
X198106348Y-91017287D01*
X198098713Y-91047766D01*
X198088128Y-91077350D01*
X198074694Y-91105754D01*
X198058541Y-91132704D01*
X198039823Y-91157942D01*
X198018723Y-91181223D01*
X197995442Y-91202323D01*
X197970204Y-91221041D01*
X197943254Y-91237194D01*
X197914850Y-91250628D01*
X197885266Y-91261213D01*
X197854787Y-91268848D01*
X197823707Y-91273458D01*
X197792324Y-91275000D01*
X196607676Y-91275000D01*
X196576293Y-91273458D01*
X196545213Y-91268848D01*
X196514734Y-91261213D01*
X196485150Y-91250628D01*
X196456746Y-91237194D01*
X196429796Y-91221041D01*
X196404558Y-91202323D01*
X196381277Y-91181223D01*
X196360177Y-91157942D01*
X196341459Y-91132704D01*
X196325306Y-91105754D01*
X196311872Y-91077350D01*
X196301287Y-91047766D01*
X196293652Y-91017287D01*
X196289042Y-90986207D01*
X196287500Y-90954824D01*
X196287500Y-89445176D01*
X196289042Y-89413793D01*
X196293652Y-89382713D01*
X196301287Y-89352234D01*
X196311872Y-89322650D01*
X196325306Y-89294246D01*
X196341459Y-89267296D01*
X196360177Y-89242058D01*
X196381277Y-89218777D01*
X196404558Y-89197677D01*
X196429796Y-89178959D01*
X196456746Y-89162806D01*
X196485150Y-89149372D01*
X196514734Y-89138787D01*
X196545213Y-89131152D01*
X196576293Y-89126542D01*
X196607676Y-89125000D01*
X197792324Y-89125000D01*
X197823707Y-89126542D01*
X197823707Y-89126542D01*
G37*
D13*
X197200000Y-90200000D03*
G04 #@! TD*
D14*
G04 #@! TO.C,TP1*
X186600000Y-100120000D03*
X184060000Y-102660000D03*
X186600000Y-105200000D03*
G04 #@! TD*
D15*
G04 #@! TO.C,Q1*
X204921066Y-96406706D03*
X206871066Y-96406706D03*
X205571066Y-96406706D03*
D16*
X205571066Y-99516706D03*
X204921066Y-99516706D03*
X206221066Y-99516706D03*
D17*
X205896066Y-97576706D03*
D15*
X206221066Y-96406706D03*
D16*
X206871066Y-99516706D03*
G04 #@! TD*
D12*
G04 #@! TO.C,Cboot1*
G36*
X185209674Y-114702940D02*
X185242384Y-114707792D01*
X185274460Y-114715826D01*
X185305594Y-114726966D01*
X185335487Y-114741104D01*
X185363850Y-114758104D01*
X185390410Y-114777802D01*
X185414911Y-114800009D01*
X185437118Y-114824510D01*
X185456816Y-114851070D01*
X185473816Y-114879433D01*
X185487954Y-114909326D01*
X185499094Y-114940460D01*
X185507128Y-114972536D01*
X185511980Y-115005246D01*
X185513603Y-115038273D01*
X185513603Y-115914361D01*
X185511980Y-115947388D01*
X185507128Y-115980098D01*
X185499094Y-116012174D01*
X185487954Y-116043308D01*
X185473816Y-116073201D01*
X185456816Y-116101564D01*
X185437118Y-116128124D01*
X185414911Y-116152625D01*
X185390410Y-116174832D01*
X185363850Y-116194530D01*
X185335487Y-116211530D01*
X185305594Y-116225668D01*
X185274460Y-116236808D01*
X185242384Y-116244842D01*
X185209674Y-116249694D01*
X185176647Y-116251317D01*
X184050559Y-116251317D01*
X184017532Y-116249694D01*
X183984822Y-116244842D01*
X183952746Y-116236808D01*
X183921612Y-116225668D01*
X183891719Y-116211530D01*
X183863356Y-116194530D01*
X183836796Y-116174832D01*
X183812295Y-116152625D01*
X183790088Y-116128124D01*
X183770390Y-116101564D01*
X183753390Y-116073201D01*
X183739252Y-116043308D01*
X183728112Y-116012174D01*
X183720078Y-115980098D01*
X183715226Y-115947388D01*
X183713603Y-115914361D01*
X183713603Y-115038273D01*
X183715226Y-115005246D01*
X183720078Y-114972536D01*
X183728112Y-114940460D01*
X183739252Y-114909326D01*
X183753390Y-114879433D01*
X183770390Y-114851070D01*
X183790088Y-114824510D01*
X183812295Y-114800009D01*
X183836796Y-114777802D01*
X183863356Y-114758104D01*
X183891719Y-114741104D01*
X183921612Y-114726966D01*
X183952746Y-114715826D01*
X183984822Y-114707792D01*
X184017532Y-114702940D01*
X184050559Y-114701317D01*
X185176647Y-114701317D01*
X185209674Y-114702940D01*
X185209674Y-114702940D01*
G37*
D18*
X184613603Y-115476317D03*
D12*
G36*
X185209674Y-116752940D02*
X185242384Y-116757792D01*
X185274460Y-116765826D01*
X185305594Y-116776966D01*
X185335487Y-116791104D01*
X185363850Y-116808104D01*
X185390410Y-116827802D01*
X185414911Y-116850009D01*
X185437118Y-116874510D01*
X185456816Y-116901070D01*
X185473816Y-116929433D01*
X185487954Y-116959326D01*
X185499094Y-116990460D01*
X185507128Y-117022536D01*
X185511980Y-117055246D01*
X185513603Y-117088273D01*
X185513603Y-117964361D01*
X185511980Y-117997388D01*
X185507128Y-118030098D01*
X185499094Y-118062174D01*
X185487954Y-118093308D01*
X185473816Y-118123201D01*
X185456816Y-118151564D01*
X185437118Y-118178124D01*
X185414911Y-118202625D01*
X185390410Y-118224832D01*
X185363850Y-118244530D01*
X185335487Y-118261530D01*
X185305594Y-118275668D01*
X185274460Y-118286808D01*
X185242384Y-118294842D01*
X185209674Y-118299694D01*
X185176647Y-118301317D01*
X184050559Y-118301317D01*
X184017532Y-118299694D01*
X183984822Y-118294842D01*
X183952746Y-118286808D01*
X183921612Y-118275668D01*
X183891719Y-118261530D01*
X183863356Y-118244530D01*
X183836796Y-118224832D01*
X183812295Y-118202625D01*
X183790088Y-118178124D01*
X183770390Y-118151564D01*
X183753390Y-118123201D01*
X183739252Y-118093308D01*
X183728112Y-118062174D01*
X183720078Y-118030098D01*
X183715226Y-117997388D01*
X183713603Y-117964361D01*
X183713603Y-117088273D01*
X183715226Y-117055246D01*
X183720078Y-117022536D01*
X183728112Y-116990460D01*
X183739252Y-116959326D01*
X183753390Y-116929433D01*
X183770390Y-116901070D01*
X183790088Y-116874510D01*
X183812295Y-116850009D01*
X183836796Y-116827802D01*
X183863356Y-116808104D01*
X183891719Y-116791104D01*
X183921612Y-116776966D01*
X183952746Y-116765826D01*
X183984822Y-116757792D01*
X184017532Y-116752940D01*
X184050559Y-116751317D01*
X185176647Y-116751317D01*
X185209674Y-116752940D01*
X185209674Y-116752940D01*
G37*
D18*
X184613603Y-117526317D03*
G04 #@! TD*
D12*
G04 #@! TO.C,Cinx1*
G36*
X198971071Y-114601623D02*
X199003781Y-114606475D01*
X199035857Y-114614509D01*
X199066991Y-114625649D01*
X199096884Y-114639787D01*
X199125247Y-114656787D01*
X199151807Y-114676485D01*
X199176308Y-114698692D01*
X199198515Y-114723193D01*
X199218213Y-114749753D01*
X199235213Y-114778116D01*
X199249351Y-114808009D01*
X199260491Y-114839143D01*
X199268525Y-114871219D01*
X199273377Y-114903929D01*
X199275000Y-114936956D01*
X199275000Y-116063044D01*
X199273377Y-116096071D01*
X199268525Y-116128781D01*
X199260491Y-116160857D01*
X199249351Y-116191991D01*
X199235213Y-116221884D01*
X199218213Y-116250247D01*
X199198515Y-116276807D01*
X199176308Y-116301308D01*
X199151807Y-116323515D01*
X199125247Y-116343213D01*
X199096884Y-116360213D01*
X199066991Y-116374351D01*
X199035857Y-116385491D01*
X199003781Y-116393525D01*
X198971071Y-116398377D01*
X198938044Y-116400000D01*
X198061956Y-116400000D01*
X198028929Y-116398377D01*
X197996219Y-116393525D01*
X197964143Y-116385491D01*
X197933009Y-116374351D01*
X197903116Y-116360213D01*
X197874753Y-116343213D01*
X197848193Y-116323515D01*
X197823692Y-116301308D01*
X197801485Y-116276807D01*
X197781787Y-116250247D01*
X197764787Y-116221884D01*
X197750649Y-116191991D01*
X197739509Y-116160857D01*
X197731475Y-116128781D01*
X197726623Y-116096071D01*
X197725000Y-116063044D01*
X197725000Y-114936956D01*
X197726623Y-114903929D01*
X197731475Y-114871219D01*
X197739509Y-114839143D01*
X197750649Y-114808009D01*
X197764787Y-114778116D01*
X197781787Y-114749753D01*
X197801485Y-114723193D01*
X197823692Y-114698692D01*
X197848193Y-114676485D01*
X197874753Y-114656787D01*
X197903116Y-114639787D01*
X197933009Y-114625649D01*
X197964143Y-114614509D01*
X197996219Y-114606475D01*
X198028929Y-114601623D01*
X198061956Y-114600000D01*
X198938044Y-114600000D01*
X198971071Y-114601623D01*
X198971071Y-114601623D01*
G37*
D18*
X198500000Y-115500000D03*
D12*
G36*
X196921071Y-114601623D02*
X196953781Y-114606475D01*
X196985857Y-114614509D01*
X197016991Y-114625649D01*
X197046884Y-114639787D01*
X197075247Y-114656787D01*
X197101807Y-114676485D01*
X197126308Y-114698692D01*
X197148515Y-114723193D01*
X197168213Y-114749753D01*
X197185213Y-114778116D01*
X197199351Y-114808009D01*
X197210491Y-114839143D01*
X197218525Y-114871219D01*
X197223377Y-114903929D01*
X197225000Y-114936956D01*
X197225000Y-116063044D01*
X197223377Y-116096071D01*
X197218525Y-116128781D01*
X197210491Y-116160857D01*
X197199351Y-116191991D01*
X197185213Y-116221884D01*
X197168213Y-116250247D01*
X197148515Y-116276807D01*
X197126308Y-116301308D01*
X197101807Y-116323515D01*
X197075247Y-116343213D01*
X197046884Y-116360213D01*
X197016991Y-116374351D01*
X196985857Y-116385491D01*
X196953781Y-116393525D01*
X196921071Y-116398377D01*
X196888044Y-116400000D01*
X196011956Y-116400000D01*
X195978929Y-116398377D01*
X195946219Y-116393525D01*
X195914143Y-116385491D01*
X195883009Y-116374351D01*
X195853116Y-116360213D01*
X195824753Y-116343213D01*
X195798193Y-116323515D01*
X195773692Y-116301308D01*
X195751485Y-116276807D01*
X195731787Y-116250247D01*
X195714787Y-116221884D01*
X195700649Y-116191991D01*
X195689509Y-116160857D01*
X195681475Y-116128781D01*
X195676623Y-116096071D01*
X195675000Y-116063044D01*
X195675000Y-114936956D01*
X195676623Y-114903929D01*
X195681475Y-114871219D01*
X195689509Y-114839143D01*
X195700649Y-114808009D01*
X195714787Y-114778116D01*
X195731787Y-114749753D01*
X195751485Y-114723193D01*
X195773692Y-114698692D01*
X195798193Y-114676485D01*
X195824753Y-114656787D01*
X195853116Y-114639787D01*
X195883009Y-114625649D01*
X195914143Y-114614509D01*
X195946219Y-114606475D01*
X195978929Y-114601623D01*
X196011956Y-114600000D01*
X196888044Y-114600000D01*
X196921071Y-114601623D01*
X196921071Y-114601623D01*
G37*
D18*
X196450000Y-115500000D03*
G04 #@! TD*
D12*
G04 #@! TO.C,Coutx1*
G36*
X200596071Y-120076623D02*
X200628781Y-120081475D01*
X200660857Y-120089509D01*
X200691991Y-120100649D01*
X200721884Y-120114787D01*
X200750247Y-120131787D01*
X200776807Y-120151485D01*
X200801308Y-120173692D01*
X200823515Y-120198193D01*
X200843213Y-120224753D01*
X200860213Y-120253116D01*
X200874351Y-120283009D01*
X200885491Y-120314143D01*
X200893525Y-120346219D01*
X200898377Y-120378929D01*
X200900000Y-120411956D01*
X200900000Y-121288044D01*
X200898377Y-121321071D01*
X200893525Y-121353781D01*
X200885491Y-121385857D01*
X200874351Y-121416991D01*
X200860213Y-121446884D01*
X200843213Y-121475247D01*
X200823515Y-121501807D01*
X200801308Y-121526308D01*
X200776807Y-121548515D01*
X200750247Y-121568213D01*
X200721884Y-121585213D01*
X200691991Y-121599351D01*
X200660857Y-121610491D01*
X200628781Y-121618525D01*
X200596071Y-121623377D01*
X200563044Y-121625000D01*
X199436956Y-121625000D01*
X199403929Y-121623377D01*
X199371219Y-121618525D01*
X199339143Y-121610491D01*
X199308009Y-121599351D01*
X199278116Y-121585213D01*
X199249753Y-121568213D01*
X199223193Y-121548515D01*
X199198692Y-121526308D01*
X199176485Y-121501807D01*
X199156787Y-121475247D01*
X199139787Y-121446884D01*
X199125649Y-121416991D01*
X199114509Y-121385857D01*
X199106475Y-121353781D01*
X199101623Y-121321071D01*
X199100000Y-121288044D01*
X199100000Y-120411956D01*
X199101623Y-120378929D01*
X199106475Y-120346219D01*
X199114509Y-120314143D01*
X199125649Y-120283009D01*
X199139787Y-120253116D01*
X199156787Y-120224753D01*
X199176485Y-120198193D01*
X199198692Y-120173692D01*
X199223193Y-120151485D01*
X199249753Y-120131787D01*
X199278116Y-120114787D01*
X199308009Y-120100649D01*
X199339143Y-120089509D01*
X199371219Y-120081475D01*
X199403929Y-120076623D01*
X199436956Y-120075000D01*
X200563044Y-120075000D01*
X200596071Y-120076623D01*
X200596071Y-120076623D01*
G37*
D18*
X200000000Y-120850000D03*
D12*
G36*
X200596071Y-118026623D02*
X200628781Y-118031475D01*
X200660857Y-118039509D01*
X200691991Y-118050649D01*
X200721884Y-118064787D01*
X200750247Y-118081787D01*
X200776807Y-118101485D01*
X200801308Y-118123692D01*
X200823515Y-118148193D01*
X200843213Y-118174753D01*
X200860213Y-118203116D01*
X200874351Y-118233009D01*
X200885491Y-118264143D01*
X200893525Y-118296219D01*
X200898377Y-118328929D01*
X200900000Y-118361956D01*
X200900000Y-119238044D01*
X200898377Y-119271071D01*
X200893525Y-119303781D01*
X200885491Y-119335857D01*
X200874351Y-119366991D01*
X200860213Y-119396884D01*
X200843213Y-119425247D01*
X200823515Y-119451807D01*
X200801308Y-119476308D01*
X200776807Y-119498515D01*
X200750247Y-119518213D01*
X200721884Y-119535213D01*
X200691991Y-119549351D01*
X200660857Y-119560491D01*
X200628781Y-119568525D01*
X200596071Y-119573377D01*
X200563044Y-119575000D01*
X199436956Y-119575000D01*
X199403929Y-119573377D01*
X199371219Y-119568525D01*
X199339143Y-119560491D01*
X199308009Y-119549351D01*
X199278116Y-119535213D01*
X199249753Y-119518213D01*
X199223193Y-119498515D01*
X199198692Y-119476308D01*
X199176485Y-119451807D01*
X199156787Y-119425247D01*
X199139787Y-119396884D01*
X199125649Y-119366991D01*
X199114509Y-119335857D01*
X199106475Y-119303781D01*
X199101623Y-119271071D01*
X199100000Y-119238044D01*
X199100000Y-118361956D01*
X199101623Y-118328929D01*
X199106475Y-118296219D01*
X199114509Y-118264143D01*
X199125649Y-118233009D01*
X199139787Y-118203116D01*
X199156787Y-118174753D01*
X199176485Y-118148193D01*
X199198692Y-118123692D01*
X199223193Y-118101485D01*
X199249753Y-118081787D01*
X199278116Y-118064787D01*
X199308009Y-118050649D01*
X199339143Y-118039509D01*
X199371219Y-118031475D01*
X199403929Y-118026623D01*
X199436956Y-118025000D01*
X200563044Y-118025000D01*
X200596071Y-118026623D01*
X200596071Y-118026623D01*
G37*
D18*
X200000000Y-118800000D03*
G04 #@! TD*
D12*
G04 #@! TO.C,Cvcc1*
G36*
X183263274Y-112348040D02*
X183295984Y-112352892D01*
X183328060Y-112360926D01*
X183359194Y-112372066D01*
X183389087Y-112386204D01*
X183417450Y-112403204D01*
X183444010Y-112422902D01*
X183468511Y-112445109D01*
X183490718Y-112469610D01*
X183510416Y-112496170D01*
X183527416Y-112524533D01*
X183541554Y-112554426D01*
X183552694Y-112585560D01*
X183560728Y-112617636D01*
X183565580Y-112650346D01*
X183567203Y-112683373D01*
X183567203Y-113809461D01*
X183565580Y-113842488D01*
X183560728Y-113875198D01*
X183552694Y-113907274D01*
X183541554Y-113938408D01*
X183527416Y-113968301D01*
X183510416Y-113996664D01*
X183490718Y-114023224D01*
X183468511Y-114047725D01*
X183444010Y-114069932D01*
X183417450Y-114089630D01*
X183389087Y-114106630D01*
X183359194Y-114120768D01*
X183328060Y-114131908D01*
X183295984Y-114139942D01*
X183263274Y-114144794D01*
X183230247Y-114146417D01*
X182354159Y-114146417D01*
X182321132Y-114144794D01*
X182288422Y-114139942D01*
X182256346Y-114131908D01*
X182225212Y-114120768D01*
X182195319Y-114106630D01*
X182166956Y-114089630D01*
X182140396Y-114069932D01*
X182115895Y-114047725D01*
X182093688Y-114023224D01*
X182073990Y-113996664D01*
X182056990Y-113968301D01*
X182042852Y-113938408D01*
X182031712Y-113907274D01*
X182023678Y-113875198D01*
X182018826Y-113842488D01*
X182017203Y-113809461D01*
X182017203Y-112683373D01*
X182018826Y-112650346D01*
X182023678Y-112617636D01*
X182031712Y-112585560D01*
X182042852Y-112554426D01*
X182056990Y-112524533D01*
X182073990Y-112496170D01*
X182093688Y-112469610D01*
X182115895Y-112445109D01*
X182140396Y-112422902D01*
X182166956Y-112403204D01*
X182195319Y-112386204D01*
X182225212Y-112372066D01*
X182256346Y-112360926D01*
X182288422Y-112352892D01*
X182321132Y-112348040D01*
X182354159Y-112346417D01*
X183230247Y-112346417D01*
X183263274Y-112348040D01*
X183263274Y-112348040D01*
G37*
D18*
X182792203Y-113246417D03*
D12*
G36*
X185313274Y-112348040D02*
X185345984Y-112352892D01*
X185378060Y-112360926D01*
X185409194Y-112372066D01*
X185439087Y-112386204D01*
X185467450Y-112403204D01*
X185494010Y-112422902D01*
X185518511Y-112445109D01*
X185540718Y-112469610D01*
X185560416Y-112496170D01*
X185577416Y-112524533D01*
X185591554Y-112554426D01*
X185602694Y-112585560D01*
X185610728Y-112617636D01*
X185615580Y-112650346D01*
X185617203Y-112683373D01*
X185617203Y-113809461D01*
X185615580Y-113842488D01*
X185610728Y-113875198D01*
X185602694Y-113907274D01*
X185591554Y-113938408D01*
X185577416Y-113968301D01*
X185560416Y-113996664D01*
X185540718Y-114023224D01*
X185518511Y-114047725D01*
X185494010Y-114069932D01*
X185467450Y-114089630D01*
X185439087Y-114106630D01*
X185409194Y-114120768D01*
X185378060Y-114131908D01*
X185345984Y-114139942D01*
X185313274Y-114144794D01*
X185280247Y-114146417D01*
X184404159Y-114146417D01*
X184371132Y-114144794D01*
X184338422Y-114139942D01*
X184306346Y-114131908D01*
X184275212Y-114120768D01*
X184245319Y-114106630D01*
X184216956Y-114089630D01*
X184190396Y-114069932D01*
X184165895Y-114047725D01*
X184143688Y-114023224D01*
X184123990Y-113996664D01*
X184106990Y-113968301D01*
X184092852Y-113938408D01*
X184081712Y-113907274D01*
X184073678Y-113875198D01*
X184068826Y-113842488D01*
X184067203Y-113809461D01*
X184067203Y-112683373D01*
X184068826Y-112650346D01*
X184073678Y-112617636D01*
X184081712Y-112585560D01*
X184092852Y-112554426D01*
X184106990Y-112524533D01*
X184123990Y-112496170D01*
X184143688Y-112469610D01*
X184165895Y-112445109D01*
X184190396Y-112422902D01*
X184216956Y-112403204D01*
X184245319Y-112386204D01*
X184275212Y-112372066D01*
X184306346Y-112360926D01*
X184338422Y-112352892D01*
X184371132Y-112348040D01*
X184404159Y-112346417D01*
X185280247Y-112346417D01*
X185313274Y-112348040D01*
X185313274Y-112348040D01*
G37*
D18*
X184842203Y-113246417D03*
G04 #@! TD*
D12*
G04 #@! TO.C,Cin1*
G36*
X200123707Y-111926542D02*
X200154787Y-111931152D01*
X200185266Y-111938787D01*
X200214850Y-111949372D01*
X200243254Y-111962806D01*
X200270204Y-111978959D01*
X200295442Y-111997677D01*
X200318723Y-112018777D01*
X200339823Y-112042058D01*
X200358541Y-112067296D01*
X200374694Y-112094246D01*
X200388128Y-112122650D01*
X200398713Y-112152234D01*
X200406348Y-112182713D01*
X200410958Y-112213793D01*
X200412500Y-112245176D01*
X200412500Y-113754824D01*
X200410958Y-113786207D01*
X200406348Y-113817287D01*
X200398713Y-113847766D01*
X200388128Y-113877350D01*
X200374694Y-113905754D01*
X200358541Y-113932704D01*
X200339823Y-113957942D01*
X200318723Y-113981223D01*
X200295442Y-114002323D01*
X200270204Y-114021041D01*
X200243254Y-114037194D01*
X200214850Y-114050628D01*
X200185266Y-114061213D01*
X200154787Y-114068848D01*
X200123707Y-114073458D01*
X200092324Y-114075000D01*
X198907676Y-114075000D01*
X198876293Y-114073458D01*
X198845213Y-114068848D01*
X198814734Y-114061213D01*
X198785150Y-114050628D01*
X198756746Y-114037194D01*
X198729796Y-114021041D01*
X198704558Y-114002323D01*
X198681277Y-113981223D01*
X198660177Y-113957942D01*
X198641459Y-113932704D01*
X198625306Y-113905754D01*
X198611872Y-113877350D01*
X198601287Y-113847766D01*
X198593652Y-113817287D01*
X198589042Y-113786207D01*
X198587500Y-113754824D01*
X198587500Y-112245176D01*
X198589042Y-112213793D01*
X198593652Y-112182713D01*
X198601287Y-112152234D01*
X198611872Y-112122650D01*
X198625306Y-112094246D01*
X198641459Y-112067296D01*
X198660177Y-112042058D01*
X198681277Y-112018777D01*
X198704558Y-111997677D01*
X198729796Y-111978959D01*
X198756746Y-111962806D01*
X198785150Y-111949372D01*
X198814734Y-111938787D01*
X198845213Y-111931152D01*
X198876293Y-111926542D01*
X198907676Y-111925000D01*
X200092324Y-111925000D01*
X200123707Y-111926542D01*
X200123707Y-111926542D01*
G37*
D13*
X199500000Y-113000000D03*
D12*
G36*
X197148707Y-111926542D02*
X197179787Y-111931152D01*
X197210266Y-111938787D01*
X197239850Y-111949372D01*
X197268254Y-111962806D01*
X197295204Y-111978959D01*
X197320442Y-111997677D01*
X197343723Y-112018777D01*
X197364823Y-112042058D01*
X197383541Y-112067296D01*
X197399694Y-112094246D01*
X197413128Y-112122650D01*
X197423713Y-112152234D01*
X197431348Y-112182713D01*
X197435958Y-112213793D01*
X197437500Y-112245176D01*
X197437500Y-113754824D01*
X197435958Y-113786207D01*
X197431348Y-113817287D01*
X197423713Y-113847766D01*
X197413128Y-113877350D01*
X197399694Y-113905754D01*
X197383541Y-113932704D01*
X197364823Y-113957942D01*
X197343723Y-113981223D01*
X197320442Y-114002323D01*
X197295204Y-114021041D01*
X197268254Y-114037194D01*
X197239850Y-114050628D01*
X197210266Y-114061213D01*
X197179787Y-114068848D01*
X197148707Y-114073458D01*
X197117324Y-114075000D01*
X195932676Y-114075000D01*
X195901293Y-114073458D01*
X195870213Y-114068848D01*
X195839734Y-114061213D01*
X195810150Y-114050628D01*
X195781746Y-114037194D01*
X195754796Y-114021041D01*
X195729558Y-114002323D01*
X195706277Y-113981223D01*
X195685177Y-113957942D01*
X195666459Y-113932704D01*
X195650306Y-113905754D01*
X195636872Y-113877350D01*
X195626287Y-113847766D01*
X195618652Y-113817287D01*
X195614042Y-113786207D01*
X195612500Y-113754824D01*
X195612500Y-112245176D01*
X195614042Y-112213793D01*
X195618652Y-112182713D01*
X195626287Y-112152234D01*
X195636872Y-112122650D01*
X195650306Y-112094246D01*
X195666459Y-112067296D01*
X195685177Y-112042058D01*
X195706277Y-112018777D01*
X195729558Y-111997677D01*
X195754796Y-111978959D01*
X195781746Y-111962806D01*
X195810150Y-111949372D01*
X195839734Y-111938787D01*
X195870213Y-111931152D01*
X195901293Y-111926542D01*
X195932676Y-111925000D01*
X197117324Y-111925000D01*
X197148707Y-111926542D01*
X197148707Y-111926542D01*
G37*
D13*
X196525000Y-113000000D03*
G04 #@! TD*
D12*
G04 #@! TO.C,Cout1*
G36*
X197836207Y-117289042D02*
X197867287Y-117293652D01*
X197897766Y-117301287D01*
X197927350Y-117311872D01*
X197955754Y-117325306D01*
X197982704Y-117341459D01*
X198007942Y-117360177D01*
X198031223Y-117381277D01*
X198052323Y-117404558D01*
X198071041Y-117429796D01*
X198087194Y-117456746D01*
X198100628Y-117485150D01*
X198111213Y-117514734D01*
X198118848Y-117545213D01*
X198123458Y-117576293D01*
X198125000Y-117607676D01*
X198125000Y-118792324D01*
X198123458Y-118823707D01*
X198118848Y-118854787D01*
X198111213Y-118885266D01*
X198100628Y-118914850D01*
X198087194Y-118943254D01*
X198071041Y-118970204D01*
X198052323Y-118995442D01*
X198031223Y-119018723D01*
X198007942Y-119039823D01*
X197982704Y-119058541D01*
X197955754Y-119074694D01*
X197927350Y-119088128D01*
X197897766Y-119098713D01*
X197867287Y-119106348D01*
X197836207Y-119110958D01*
X197804824Y-119112500D01*
X195395176Y-119112500D01*
X195363793Y-119110958D01*
X195332713Y-119106348D01*
X195302234Y-119098713D01*
X195272650Y-119088128D01*
X195244246Y-119074694D01*
X195217296Y-119058541D01*
X195192058Y-119039823D01*
X195168777Y-119018723D01*
X195147677Y-118995442D01*
X195128959Y-118970204D01*
X195112806Y-118943254D01*
X195099372Y-118914850D01*
X195088787Y-118885266D01*
X195081152Y-118854787D01*
X195076542Y-118823707D01*
X195075000Y-118792324D01*
X195075000Y-117607676D01*
X195076542Y-117576293D01*
X195081152Y-117545213D01*
X195088787Y-117514734D01*
X195099372Y-117485150D01*
X195112806Y-117456746D01*
X195128959Y-117429796D01*
X195147677Y-117404558D01*
X195168777Y-117381277D01*
X195192058Y-117360177D01*
X195217296Y-117341459D01*
X195244246Y-117325306D01*
X195272650Y-117311872D01*
X195302234Y-117301287D01*
X195332713Y-117293652D01*
X195363793Y-117289042D01*
X195395176Y-117287500D01*
X197804824Y-117287500D01*
X197836207Y-117289042D01*
X197836207Y-117289042D01*
G37*
D13*
X196600000Y-118200000D03*
D12*
G36*
X197836207Y-120264042D02*
X197867287Y-120268652D01*
X197897766Y-120276287D01*
X197927350Y-120286872D01*
X197955754Y-120300306D01*
X197982704Y-120316459D01*
X198007942Y-120335177D01*
X198031223Y-120356277D01*
X198052323Y-120379558D01*
X198071041Y-120404796D01*
X198087194Y-120431746D01*
X198100628Y-120460150D01*
X198111213Y-120489734D01*
X198118848Y-120520213D01*
X198123458Y-120551293D01*
X198125000Y-120582676D01*
X198125000Y-121767324D01*
X198123458Y-121798707D01*
X198118848Y-121829787D01*
X198111213Y-121860266D01*
X198100628Y-121889850D01*
X198087194Y-121918254D01*
X198071041Y-121945204D01*
X198052323Y-121970442D01*
X198031223Y-121993723D01*
X198007942Y-122014823D01*
X197982704Y-122033541D01*
X197955754Y-122049694D01*
X197927350Y-122063128D01*
X197897766Y-122073713D01*
X197867287Y-122081348D01*
X197836207Y-122085958D01*
X197804824Y-122087500D01*
X195395176Y-122087500D01*
X195363793Y-122085958D01*
X195332713Y-122081348D01*
X195302234Y-122073713D01*
X195272650Y-122063128D01*
X195244246Y-122049694D01*
X195217296Y-122033541D01*
X195192058Y-122014823D01*
X195168777Y-121993723D01*
X195147677Y-121970442D01*
X195128959Y-121945204D01*
X195112806Y-121918254D01*
X195099372Y-121889850D01*
X195088787Y-121860266D01*
X195081152Y-121829787D01*
X195076542Y-121798707D01*
X195075000Y-121767324D01*
X195075000Y-120582676D01*
X195076542Y-120551293D01*
X195081152Y-120520213D01*
X195088787Y-120489734D01*
X195099372Y-120460150D01*
X195112806Y-120431746D01*
X195128959Y-120404796D01*
X195147677Y-120379558D01*
X195168777Y-120356277D01*
X195192058Y-120335177D01*
X195217296Y-120316459D01*
X195244246Y-120300306D01*
X195272650Y-120286872D01*
X195302234Y-120276287D01*
X195332713Y-120268652D01*
X195363793Y-120264042D01*
X195395176Y-120262500D01*
X197804824Y-120262500D01*
X197836207Y-120264042D01*
X197836207Y-120264042D01*
G37*
D13*
X196600000Y-121175000D03*
G04 #@! TD*
D19*
G04 #@! TO.C,F3*
X97400000Y-107800000D03*
X97400000Y-85300000D03*
D20*
X97400000Y-96550000D03*
G04 #@! TD*
D19*
G04 #@! TO.C,F2*
X188100000Y-69200000D03*
X165600000Y-69200000D03*
D20*
X176850000Y-69200000D03*
G04 #@! TD*
G04 #@! TO.C,F1*
X170200000Y-121450000D03*
D19*
X170200000Y-132700000D03*
X170200000Y-110200000D03*
G04 #@! TD*
D21*
G04 #@! TO.C,U1*
X198275000Y-96350000D03*
X197625000Y-96350000D03*
X196975000Y-96350000D03*
X196325000Y-96350000D03*
X196325000Y-99450000D03*
X196975000Y-99450000D03*
X197625000Y-99450000D03*
X198275000Y-99450000D03*
D22*
X197300000Y-97900000D03*
G04 #@! TD*
D23*
G04 #@! TO.C,U2*
X187196803Y-117373917D03*
X187196803Y-116103917D03*
X187196803Y-114833917D03*
X187196803Y-113563917D03*
X192596803Y-113563917D03*
X192596803Y-114833917D03*
X192596803Y-116103917D03*
X192596803Y-117373917D03*
D24*
X189896803Y-115468917D03*
G04 #@! TD*
D12*
G04 #@! TO.C,Rfbb1*
G36*
X190445574Y-107273440D02*
X190478284Y-107278292D01*
X190510360Y-107286326D01*
X190541494Y-107297466D01*
X190571387Y-107311604D01*
X190599750Y-107328604D01*
X190626310Y-107348302D01*
X190650811Y-107370509D01*
X190673018Y-107395010D01*
X190692716Y-107421570D01*
X190709716Y-107449933D01*
X190723854Y-107479826D01*
X190734994Y-107510960D01*
X190743028Y-107543036D01*
X190747880Y-107575746D01*
X190749503Y-107608773D01*
X190749503Y-108484861D01*
X190747880Y-108517888D01*
X190743028Y-108550598D01*
X190734994Y-108582674D01*
X190723854Y-108613808D01*
X190709716Y-108643701D01*
X190692716Y-108672064D01*
X190673018Y-108698624D01*
X190650811Y-108723125D01*
X190626310Y-108745332D01*
X190599750Y-108765030D01*
X190571387Y-108782030D01*
X190541494Y-108796168D01*
X190510360Y-108807308D01*
X190478284Y-108815342D01*
X190445574Y-108820194D01*
X190412547Y-108821817D01*
X189286459Y-108821817D01*
X189253432Y-108820194D01*
X189220722Y-108815342D01*
X189188646Y-108807308D01*
X189157512Y-108796168D01*
X189127619Y-108782030D01*
X189099256Y-108765030D01*
X189072696Y-108745332D01*
X189048195Y-108723125D01*
X189025988Y-108698624D01*
X189006290Y-108672064D01*
X188989290Y-108643701D01*
X188975152Y-108613808D01*
X188964012Y-108582674D01*
X188955978Y-108550598D01*
X188951126Y-108517888D01*
X188949503Y-108484861D01*
X188949503Y-107608773D01*
X188951126Y-107575746D01*
X188955978Y-107543036D01*
X188964012Y-107510960D01*
X188975152Y-107479826D01*
X188989290Y-107449933D01*
X189006290Y-107421570D01*
X189025988Y-107395010D01*
X189048195Y-107370509D01*
X189072696Y-107348302D01*
X189099256Y-107328604D01*
X189127619Y-107311604D01*
X189157512Y-107297466D01*
X189188646Y-107286326D01*
X189220722Y-107278292D01*
X189253432Y-107273440D01*
X189286459Y-107271817D01*
X190412547Y-107271817D01*
X190445574Y-107273440D01*
X190445574Y-107273440D01*
G37*
D18*
X189849503Y-108046817D03*
D12*
G36*
X190445574Y-109323440D02*
X190478284Y-109328292D01*
X190510360Y-109336326D01*
X190541494Y-109347466D01*
X190571387Y-109361604D01*
X190599750Y-109378604D01*
X190626310Y-109398302D01*
X190650811Y-109420509D01*
X190673018Y-109445010D01*
X190692716Y-109471570D01*
X190709716Y-109499933D01*
X190723854Y-109529826D01*
X190734994Y-109560960D01*
X190743028Y-109593036D01*
X190747880Y-109625746D01*
X190749503Y-109658773D01*
X190749503Y-110534861D01*
X190747880Y-110567888D01*
X190743028Y-110600598D01*
X190734994Y-110632674D01*
X190723854Y-110663808D01*
X190709716Y-110693701D01*
X190692716Y-110722064D01*
X190673018Y-110748624D01*
X190650811Y-110773125D01*
X190626310Y-110795332D01*
X190599750Y-110815030D01*
X190571387Y-110832030D01*
X190541494Y-110846168D01*
X190510360Y-110857308D01*
X190478284Y-110865342D01*
X190445574Y-110870194D01*
X190412547Y-110871817D01*
X189286459Y-110871817D01*
X189253432Y-110870194D01*
X189220722Y-110865342D01*
X189188646Y-110857308D01*
X189157512Y-110846168D01*
X189127619Y-110832030D01*
X189099256Y-110815030D01*
X189072696Y-110795332D01*
X189048195Y-110773125D01*
X189025988Y-110748624D01*
X189006290Y-110722064D01*
X188989290Y-110693701D01*
X188975152Y-110663808D01*
X188964012Y-110632674D01*
X188955978Y-110600598D01*
X188951126Y-110567888D01*
X188949503Y-110534861D01*
X188949503Y-109658773D01*
X188951126Y-109625746D01*
X188955978Y-109593036D01*
X188964012Y-109560960D01*
X188975152Y-109529826D01*
X188989290Y-109499933D01*
X189006290Y-109471570D01*
X189025988Y-109445010D01*
X189048195Y-109420509D01*
X189072696Y-109398302D01*
X189099256Y-109378604D01*
X189127619Y-109361604D01*
X189157512Y-109347466D01*
X189188646Y-109336326D01*
X189220722Y-109328292D01*
X189253432Y-109323440D01*
X189286459Y-109321817D01*
X190412547Y-109321817D01*
X190445574Y-109323440D01*
X190445574Y-109323440D01*
G37*
D18*
X189849503Y-110096817D03*
G04 #@! TD*
D12*
G04 #@! TO.C,Ren1*
G36*
X193646071Y-109301623D02*
X193678781Y-109306475D01*
X193710857Y-109314509D01*
X193741991Y-109325649D01*
X193771884Y-109339787D01*
X193800247Y-109356787D01*
X193826807Y-109376485D01*
X193851308Y-109398692D01*
X193873515Y-109423193D01*
X193893213Y-109449753D01*
X193910213Y-109478116D01*
X193924351Y-109508009D01*
X193935491Y-109539143D01*
X193943525Y-109571219D01*
X193948377Y-109603929D01*
X193950000Y-109636956D01*
X193950000Y-110763044D01*
X193948377Y-110796071D01*
X193943525Y-110828781D01*
X193935491Y-110860857D01*
X193924351Y-110891991D01*
X193910213Y-110921884D01*
X193893213Y-110950247D01*
X193873515Y-110976807D01*
X193851308Y-111001308D01*
X193826807Y-111023515D01*
X193800247Y-111043213D01*
X193771884Y-111060213D01*
X193741991Y-111074351D01*
X193710857Y-111085491D01*
X193678781Y-111093525D01*
X193646071Y-111098377D01*
X193613044Y-111100000D01*
X192736956Y-111100000D01*
X192703929Y-111098377D01*
X192671219Y-111093525D01*
X192639143Y-111085491D01*
X192608009Y-111074351D01*
X192578116Y-111060213D01*
X192549753Y-111043213D01*
X192523193Y-111023515D01*
X192498692Y-111001308D01*
X192476485Y-110976807D01*
X192456787Y-110950247D01*
X192439787Y-110921884D01*
X192425649Y-110891991D01*
X192414509Y-110860857D01*
X192406475Y-110828781D01*
X192401623Y-110796071D01*
X192400000Y-110763044D01*
X192400000Y-109636956D01*
X192401623Y-109603929D01*
X192406475Y-109571219D01*
X192414509Y-109539143D01*
X192425649Y-109508009D01*
X192439787Y-109478116D01*
X192456787Y-109449753D01*
X192476485Y-109423193D01*
X192498692Y-109398692D01*
X192523193Y-109376485D01*
X192549753Y-109356787D01*
X192578116Y-109339787D01*
X192608009Y-109325649D01*
X192639143Y-109314509D01*
X192671219Y-109306475D01*
X192703929Y-109301623D01*
X192736956Y-109300000D01*
X193613044Y-109300000D01*
X193646071Y-109301623D01*
X193646071Y-109301623D01*
G37*
D18*
X193175000Y-110200000D03*
D12*
G36*
X195696071Y-109301623D02*
X195728781Y-109306475D01*
X195760857Y-109314509D01*
X195791991Y-109325649D01*
X195821884Y-109339787D01*
X195850247Y-109356787D01*
X195876807Y-109376485D01*
X195901308Y-109398692D01*
X195923515Y-109423193D01*
X195943213Y-109449753D01*
X195960213Y-109478116D01*
X195974351Y-109508009D01*
X195985491Y-109539143D01*
X195993525Y-109571219D01*
X195998377Y-109603929D01*
X196000000Y-109636956D01*
X196000000Y-110763044D01*
X195998377Y-110796071D01*
X195993525Y-110828781D01*
X195985491Y-110860857D01*
X195974351Y-110891991D01*
X195960213Y-110921884D01*
X195943213Y-110950247D01*
X195923515Y-110976807D01*
X195901308Y-111001308D01*
X195876807Y-111023515D01*
X195850247Y-111043213D01*
X195821884Y-111060213D01*
X195791991Y-111074351D01*
X195760857Y-111085491D01*
X195728781Y-111093525D01*
X195696071Y-111098377D01*
X195663044Y-111100000D01*
X194786956Y-111100000D01*
X194753929Y-111098377D01*
X194721219Y-111093525D01*
X194689143Y-111085491D01*
X194658009Y-111074351D01*
X194628116Y-111060213D01*
X194599753Y-111043213D01*
X194573193Y-111023515D01*
X194548692Y-111001308D01*
X194526485Y-110976807D01*
X194506787Y-110950247D01*
X194489787Y-110921884D01*
X194475649Y-110891991D01*
X194464509Y-110860857D01*
X194456475Y-110828781D01*
X194451623Y-110796071D01*
X194450000Y-110763044D01*
X194450000Y-109636956D01*
X194451623Y-109603929D01*
X194456475Y-109571219D01*
X194464509Y-109539143D01*
X194475649Y-109508009D01*
X194489787Y-109478116D01*
X194506787Y-109449753D01*
X194526485Y-109423193D01*
X194548692Y-109398692D01*
X194573193Y-109376485D01*
X194599753Y-109356787D01*
X194628116Y-109339787D01*
X194658009Y-109325649D01*
X194689143Y-109314509D01*
X194721219Y-109306475D01*
X194753929Y-109301623D01*
X194786956Y-109300000D01*
X195663044Y-109300000D01*
X195696071Y-109301623D01*
X195696071Y-109301623D01*
G37*
D18*
X195225000Y-110200000D03*
G04 #@! TD*
D12*
G04 #@! TO.C,R4*
G36*
X203171071Y-100601623D02*
X203203781Y-100606475D01*
X203235857Y-100614509D01*
X203266991Y-100625649D01*
X203296884Y-100639787D01*
X203325247Y-100656787D01*
X203351807Y-100676485D01*
X203376308Y-100698692D01*
X203398515Y-100723193D01*
X203418213Y-100749753D01*
X203435213Y-100778116D01*
X203449351Y-100808009D01*
X203460491Y-100839143D01*
X203468525Y-100871219D01*
X203473377Y-100903929D01*
X203475000Y-100936956D01*
X203475000Y-102063044D01*
X203473377Y-102096071D01*
X203468525Y-102128781D01*
X203460491Y-102160857D01*
X203449351Y-102191991D01*
X203435213Y-102221884D01*
X203418213Y-102250247D01*
X203398515Y-102276807D01*
X203376308Y-102301308D01*
X203351807Y-102323515D01*
X203325247Y-102343213D01*
X203296884Y-102360213D01*
X203266991Y-102374351D01*
X203235857Y-102385491D01*
X203203781Y-102393525D01*
X203171071Y-102398377D01*
X203138044Y-102400000D01*
X202261956Y-102400000D01*
X202228929Y-102398377D01*
X202196219Y-102393525D01*
X202164143Y-102385491D01*
X202133009Y-102374351D01*
X202103116Y-102360213D01*
X202074753Y-102343213D01*
X202048193Y-102323515D01*
X202023692Y-102301308D01*
X202001485Y-102276807D01*
X201981787Y-102250247D01*
X201964787Y-102221884D01*
X201950649Y-102191991D01*
X201939509Y-102160857D01*
X201931475Y-102128781D01*
X201926623Y-102096071D01*
X201925000Y-102063044D01*
X201925000Y-100936956D01*
X201926623Y-100903929D01*
X201931475Y-100871219D01*
X201939509Y-100839143D01*
X201950649Y-100808009D01*
X201964787Y-100778116D01*
X201981787Y-100749753D01*
X202001485Y-100723193D01*
X202023692Y-100698692D01*
X202048193Y-100676485D01*
X202074753Y-100656787D01*
X202103116Y-100639787D01*
X202133009Y-100625649D01*
X202164143Y-100614509D01*
X202196219Y-100606475D01*
X202228929Y-100601623D01*
X202261956Y-100600000D01*
X203138044Y-100600000D01*
X203171071Y-100601623D01*
X203171071Y-100601623D01*
G37*
D18*
X202700000Y-101500000D03*
D12*
G36*
X201121071Y-100601623D02*
X201153781Y-100606475D01*
X201185857Y-100614509D01*
X201216991Y-100625649D01*
X201246884Y-100639787D01*
X201275247Y-100656787D01*
X201301807Y-100676485D01*
X201326308Y-100698692D01*
X201348515Y-100723193D01*
X201368213Y-100749753D01*
X201385213Y-100778116D01*
X201399351Y-100808009D01*
X201410491Y-100839143D01*
X201418525Y-100871219D01*
X201423377Y-100903929D01*
X201425000Y-100936956D01*
X201425000Y-102063044D01*
X201423377Y-102096071D01*
X201418525Y-102128781D01*
X201410491Y-102160857D01*
X201399351Y-102191991D01*
X201385213Y-102221884D01*
X201368213Y-102250247D01*
X201348515Y-102276807D01*
X201326308Y-102301308D01*
X201301807Y-102323515D01*
X201275247Y-102343213D01*
X201246884Y-102360213D01*
X201216991Y-102374351D01*
X201185857Y-102385491D01*
X201153781Y-102393525D01*
X201121071Y-102398377D01*
X201088044Y-102400000D01*
X200211956Y-102400000D01*
X200178929Y-102398377D01*
X200146219Y-102393525D01*
X200114143Y-102385491D01*
X200083009Y-102374351D01*
X200053116Y-102360213D01*
X200024753Y-102343213D01*
X199998193Y-102323515D01*
X199973692Y-102301308D01*
X199951485Y-102276807D01*
X199931787Y-102250247D01*
X199914787Y-102221884D01*
X199900649Y-102191991D01*
X199889509Y-102160857D01*
X199881475Y-102128781D01*
X199876623Y-102096071D01*
X199875000Y-102063044D01*
X199875000Y-100936956D01*
X199876623Y-100903929D01*
X199881475Y-100871219D01*
X199889509Y-100839143D01*
X199900649Y-100808009D01*
X199914787Y-100778116D01*
X199931787Y-100749753D01*
X199951485Y-100723193D01*
X199973692Y-100698692D01*
X199998193Y-100676485D01*
X200024753Y-100656787D01*
X200053116Y-100639787D01*
X200083009Y-100625649D01*
X200114143Y-100614509D01*
X200146219Y-100606475D01*
X200178929Y-100601623D01*
X200211956Y-100600000D01*
X201088044Y-100600000D01*
X201121071Y-100601623D01*
X201121071Y-100601623D01*
G37*
D18*
X200650000Y-101500000D03*
G04 #@! TD*
D12*
G04 #@! TO.C,R3*
G36*
X198496071Y-102876623D02*
X198528781Y-102881475D01*
X198560857Y-102889509D01*
X198591991Y-102900649D01*
X198621884Y-102914787D01*
X198650247Y-102931787D01*
X198676807Y-102951485D01*
X198701308Y-102973692D01*
X198723515Y-102998193D01*
X198743213Y-103024753D01*
X198760213Y-103053116D01*
X198774351Y-103083009D01*
X198785491Y-103114143D01*
X198793525Y-103146219D01*
X198798377Y-103178929D01*
X198800000Y-103211956D01*
X198800000Y-104088044D01*
X198798377Y-104121071D01*
X198793525Y-104153781D01*
X198785491Y-104185857D01*
X198774351Y-104216991D01*
X198760213Y-104246884D01*
X198743213Y-104275247D01*
X198723515Y-104301807D01*
X198701308Y-104326308D01*
X198676807Y-104348515D01*
X198650247Y-104368213D01*
X198621884Y-104385213D01*
X198591991Y-104399351D01*
X198560857Y-104410491D01*
X198528781Y-104418525D01*
X198496071Y-104423377D01*
X198463044Y-104425000D01*
X197336956Y-104425000D01*
X197303929Y-104423377D01*
X197271219Y-104418525D01*
X197239143Y-104410491D01*
X197208009Y-104399351D01*
X197178116Y-104385213D01*
X197149753Y-104368213D01*
X197123193Y-104348515D01*
X197098692Y-104326308D01*
X197076485Y-104301807D01*
X197056787Y-104275247D01*
X197039787Y-104246884D01*
X197025649Y-104216991D01*
X197014509Y-104185857D01*
X197006475Y-104153781D01*
X197001623Y-104121071D01*
X197000000Y-104088044D01*
X197000000Y-103211956D01*
X197001623Y-103178929D01*
X197006475Y-103146219D01*
X197014509Y-103114143D01*
X197025649Y-103083009D01*
X197039787Y-103053116D01*
X197056787Y-103024753D01*
X197076485Y-102998193D01*
X197098692Y-102973692D01*
X197123193Y-102951485D01*
X197149753Y-102931787D01*
X197178116Y-102914787D01*
X197208009Y-102900649D01*
X197239143Y-102889509D01*
X197271219Y-102881475D01*
X197303929Y-102876623D01*
X197336956Y-102875000D01*
X198463044Y-102875000D01*
X198496071Y-102876623D01*
X198496071Y-102876623D01*
G37*
D18*
X197900000Y-103650000D03*
D12*
G36*
X198496071Y-100826623D02*
X198528781Y-100831475D01*
X198560857Y-100839509D01*
X198591991Y-100850649D01*
X198621884Y-100864787D01*
X198650247Y-100881787D01*
X198676807Y-100901485D01*
X198701308Y-100923692D01*
X198723515Y-100948193D01*
X198743213Y-100974753D01*
X198760213Y-101003116D01*
X198774351Y-101033009D01*
X198785491Y-101064143D01*
X198793525Y-101096219D01*
X198798377Y-101128929D01*
X198800000Y-101161956D01*
X198800000Y-102038044D01*
X198798377Y-102071071D01*
X198793525Y-102103781D01*
X198785491Y-102135857D01*
X198774351Y-102166991D01*
X198760213Y-102196884D01*
X198743213Y-102225247D01*
X198723515Y-102251807D01*
X198701308Y-102276308D01*
X198676807Y-102298515D01*
X198650247Y-102318213D01*
X198621884Y-102335213D01*
X198591991Y-102349351D01*
X198560857Y-102360491D01*
X198528781Y-102368525D01*
X198496071Y-102373377D01*
X198463044Y-102375000D01*
X197336956Y-102375000D01*
X197303929Y-102373377D01*
X197271219Y-102368525D01*
X197239143Y-102360491D01*
X197208009Y-102349351D01*
X197178116Y-102335213D01*
X197149753Y-102318213D01*
X197123193Y-102298515D01*
X197098692Y-102276308D01*
X197076485Y-102251807D01*
X197056787Y-102225247D01*
X197039787Y-102196884D01*
X197025649Y-102166991D01*
X197014509Y-102135857D01*
X197006475Y-102103781D01*
X197001623Y-102071071D01*
X197000000Y-102038044D01*
X197000000Y-101161956D01*
X197001623Y-101128929D01*
X197006475Y-101096219D01*
X197014509Y-101064143D01*
X197025649Y-101033009D01*
X197039787Y-101003116D01*
X197056787Y-100974753D01*
X197076485Y-100948193D01*
X197098692Y-100923692D01*
X197123193Y-100901485D01*
X197149753Y-100881787D01*
X197178116Y-100864787D01*
X197208009Y-100850649D01*
X197239143Y-100839509D01*
X197271219Y-100831475D01*
X197303929Y-100826623D01*
X197336956Y-100825000D01*
X198463044Y-100825000D01*
X198496071Y-100826623D01*
X198496071Y-100826623D01*
G37*
D18*
X197900000Y-101600000D03*
G04 #@! TD*
D12*
G04 #@! TO.C,Rfbt1*
G36*
X187684274Y-109236540D02*
X187716984Y-109241392D01*
X187749060Y-109249426D01*
X187780194Y-109260566D01*
X187810087Y-109274704D01*
X187838450Y-109291704D01*
X187865010Y-109311402D01*
X187889511Y-109333609D01*
X187911718Y-109358110D01*
X187931416Y-109384670D01*
X187948416Y-109413033D01*
X187962554Y-109442926D01*
X187973694Y-109474060D01*
X187981728Y-109506136D01*
X187986580Y-109538846D01*
X187988203Y-109571873D01*
X187988203Y-110697961D01*
X187986580Y-110730988D01*
X187981728Y-110763698D01*
X187973694Y-110795774D01*
X187962554Y-110826908D01*
X187948416Y-110856801D01*
X187931416Y-110885164D01*
X187911718Y-110911724D01*
X187889511Y-110936225D01*
X187865010Y-110958432D01*
X187838450Y-110978130D01*
X187810087Y-110995130D01*
X187780194Y-111009268D01*
X187749060Y-111020408D01*
X187716984Y-111028442D01*
X187684274Y-111033294D01*
X187651247Y-111034917D01*
X186775159Y-111034917D01*
X186742132Y-111033294D01*
X186709422Y-111028442D01*
X186677346Y-111020408D01*
X186646212Y-111009268D01*
X186616319Y-110995130D01*
X186587956Y-110978130D01*
X186561396Y-110958432D01*
X186536895Y-110936225D01*
X186514688Y-110911724D01*
X186494990Y-110885164D01*
X186477990Y-110856801D01*
X186463852Y-110826908D01*
X186452712Y-110795774D01*
X186444678Y-110763698D01*
X186439826Y-110730988D01*
X186438203Y-110697961D01*
X186438203Y-109571873D01*
X186439826Y-109538846D01*
X186444678Y-109506136D01*
X186452712Y-109474060D01*
X186463852Y-109442926D01*
X186477990Y-109413033D01*
X186494990Y-109384670D01*
X186514688Y-109358110D01*
X186536895Y-109333609D01*
X186561396Y-109311402D01*
X186587956Y-109291704D01*
X186616319Y-109274704D01*
X186646212Y-109260566D01*
X186677346Y-109249426D01*
X186709422Y-109241392D01*
X186742132Y-109236540D01*
X186775159Y-109234917D01*
X187651247Y-109234917D01*
X187684274Y-109236540D01*
X187684274Y-109236540D01*
G37*
D18*
X187213203Y-110134917D03*
D12*
G36*
X185634274Y-109236540D02*
X185666984Y-109241392D01*
X185699060Y-109249426D01*
X185730194Y-109260566D01*
X185760087Y-109274704D01*
X185788450Y-109291704D01*
X185815010Y-109311402D01*
X185839511Y-109333609D01*
X185861718Y-109358110D01*
X185881416Y-109384670D01*
X185898416Y-109413033D01*
X185912554Y-109442926D01*
X185923694Y-109474060D01*
X185931728Y-109506136D01*
X185936580Y-109538846D01*
X185938203Y-109571873D01*
X185938203Y-110697961D01*
X185936580Y-110730988D01*
X185931728Y-110763698D01*
X185923694Y-110795774D01*
X185912554Y-110826908D01*
X185898416Y-110856801D01*
X185881416Y-110885164D01*
X185861718Y-110911724D01*
X185839511Y-110936225D01*
X185815010Y-110958432D01*
X185788450Y-110978130D01*
X185760087Y-110995130D01*
X185730194Y-111009268D01*
X185699060Y-111020408D01*
X185666984Y-111028442D01*
X185634274Y-111033294D01*
X185601247Y-111034917D01*
X184725159Y-111034917D01*
X184692132Y-111033294D01*
X184659422Y-111028442D01*
X184627346Y-111020408D01*
X184596212Y-111009268D01*
X184566319Y-110995130D01*
X184537956Y-110978130D01*
X184511396Y-110958432D01*
X184486895Y-110936225D01*
X184464688Y-110911724D01*
X184444990Y-110885164D01*
X184427990Y-110856801D01*
X184413852Y-110826908D01*
X184402712Y-110795774D01*
X184394678Y-110763698D01*
X184389826Y-110730988D01*
X184388203Y-110697961D01*
X184388203Y-109571873D01*
X184389826Y-109538846D01*
X184394678Y-109506136D01*
X184402712Y-109474060D01*
X184413852Y-109442926D01*
X184427990Y-109413033D01*
X184444990Y-109384670D01*
X184464688Y-109358110D01*
X184486895Y-109333609D01*
X184511396Y-109311402D01*
X184537956Y-109291704D01*
X184566319Y-109274704D01*
X184596212Y-109260566D01*
X184627346Y-109249426D01*
X184659422Y-109241392D01*
X184692132Y-109236540D01*
X184725159Y-109234917D01*
X185601247Y-109234917D01*
X185634274Y-109236540D01*
X185634274Y-109236540D01*
G37*
D18*
X185163203Y-110134917D03*
G04 #@! TD*
D25*
G04 #@! TO.C,RV1*
X166500000Y-103600000D03*
X174000000Y-105400000D03*
G04 #@! TD*
G04 #@! TO.C,RV2*
X193000000Y-74100000D03*
X194800000Y-66600000D03*
G04 #@! TD*
G04 #@! TO.C,RV3*
X92400000Y-122800000D03*
X94700000Y-115300000D03*
G04 #@! TD*
D26*
G04 #@! TO.C,L1*
X182950000Y-126600000D03*
X192650000Y-126600000D03*
G04 #@! TD*
D27*
G04 #@! TO.C,C1*
X101200000Y-128600000D03*
X101200000Y-113600000D03*
G04 #@! TD*
D28*
G04 #@! TO.C,D1*
X169600000Y-80560000D03*
D29*
X169600000Y-85640000D03*
X169600000Y-90720000D03*
X169600000Y-95800000D03*
G04 #@! TD*
D12*
G04 #@! TO.C,R1*
G36*
X195671071Y-93151623D02*
X195703781Y-93156475D01*
X195735857Y-93164509D01*
X195766991Y-93175649D01*
X195796884Y-93189787D01*
X195825247Y-93206787D01*
X195851807Y-93226485D01*
X195876308Y-93248692D01*
X195898515Y-93273193D01*
X195918213Y-93299753D01*
X195935213Y-93328116D01*
X195949351Y-93358009D01*
X195960491Y-93389143D01*
X195968525Y-93421219D01*
X195973377Y-93453929D01*
X195975000Y-93486956D01*
X195975000Y-94613044D01*
X195973377Y-94646071D01*
X195968525Y-94678781D01*
X195960491Y-94710857D01*
X195949351Y-94741991D01*
X195935213Y-94771884D01*
X195918213Y-94800247D01*
X195898515Y-94826807D01*
X195876308Y-94851308D01*
X195851807Y-94873515D01*
X195825247Y-94893213D01*
X195796884Y-94910213D01*
X195766991Y-94924351D01*
X195735857Y-94935491D01*
X195703781Y-94943525D01*
X195671071Y-94948377D01*
X195638044Y-94950000D01*
X194761956Y-94950000D01*
X194728929Y-94948377D01*
X194696219Y-94943525D01*
X194664143Y-94935491D01*
X194633009Y-94924351D01*
X194603116Y-94910213D01*
X194574753Y-94893213D01*
X194548193Y-94873515D01*
X194523692Y-94851308D01*
X194501485Y-94826807D01*
X194481787Y-94800247D01*
X194464787Y-94771884D01*
X194450649Y-94741991D01*
X194439509Y-94710857D01*
X194431475Y-94678781D01*
X194426623Y-94646071D01*
X194425000Y-94613044D01*
X194425000Y-93486956D01*
X194426623Y-93453929D01*
X194431475Y-93421219D01*
X194439509Y-93389143D01*
X194450649Y-93358009D01*
X194464787Y-93328116D01*
X194481787Y-93299753D01*
X194501485Y-93273193D01*
X194523692Y-93248692D01*
X194548193Y-93226485D01*
X194574753Y-93206787D01*
X194603116Y-93189787D01*
X194633009Y-93175649D01*
X194664143Y-93164509D01*
X194696219Y-93156475D01*
X194728929Y-93151623D01*
X194761956Y-93150000D01*
X195638044Y-93150000D01*
X195671071Y-93151623D01*
X195671071Y-93151623D01*
G37*
D18*
X195200000Y-94050000D03*
D12*
G36*
X197721071Y-93151623D02*
X197753781Y-93156475D01*
X197785857Y-93164509D01*
X197816991Y-93175649D01*
X197846884Y-93189787D01*
X197875247Y-93206787D01*
X197901807Y-93226485D01*
X197926308Y-93248692D01*
X197948515Y-93273193D01*
X197968213Y-93299753D01*
X197985213Y-93328116D01*
X197999351Y-93358009D01*
X198010491Y-93389143D01*
X198018525Y-93421219D01*
X198023377Y-93453929D01*
X198025000Y-93486956D01*
X198025000Y-94613044D01*
X198023377Y-94646071D01*
X198018525Y-94678781D01*
X198010491Y-94710857D01*
X197999351Y-94741991D01*
X197985213Y-94771884D01*
X197968213Y-94800247D01*
X197948515Y-94826807D01*
X197926308Y-94851308D01*
X197901807Y-94873515D01*
X197875247Y-94893213D01*
X197846884Y-94910213D01*
X197816991Y-94924351D01*
X197785857Y-94935491D01*
X197753781Y-94943525D01*
X197721071Y-94948377D01*
X197688044Y-94950000D01*
X196811956Y-94950000D01*
X196778929Y-94948377D01*
X196746219Y-94943525D01*
X196714143Y-94935491D01*
X196683009Y-94924351D01*
X196653116Y-94910213D01*
X196624753Y-94893213D01*
X196598193Y-94873515D01*
X196573692Y-94851308D01*
X196551485Y-94826807D01*
X196531787Y-94800247D01*
X196514787Y-94771884D01*
X196500649Y-94741991D01*
X196489509Y-94710857D01*
X196481475Y-94678781D01*
X196476623Y-94646071D01*
X196475000Y-94613044D01*
X196475000Y-93486956D01*
X196476623Y-93453929D01*
X196481475Y-93421219D01*
X196489509Y-93389143D01*
X196500649Y-93358009D01*
X196514787Y-93328116D01*
X196531787Y-93299753D01*
X196551485Y-93273193D01*
X196573692Y-93248692D01*
X196598193Y-93226485D01*
X196624753Y-93206787D01*
X196653116Y-93189787D01*
X196683009Y-93175649D01*
X196714143Y-93164509D01*
X196746219Y-93156475D01*
X196778929Y-93151623D01*
X196811956Y-93150000D01*
X197688044Y-93150000D01*
X197721071Y-93151623D01*
X197721071Y-93151623D01*
G37*
D18*
X197250000Y-94050000D03*
G04 #@! TD*
D12*
G04 #@! TO.C,R2*
G36*
X202221071Y-93151623D02*
X202253781Y-93156475D01*
X202285857Y-93164509D01*
X202316991Y-93175649D01*
X202346884Y-93189787D01*
X202375247Y-93206787D01*
X202401807Y-93226485D01*
X202426308Y-93248692D01*
X202448515Y-93273193D01*
X202468213Y-93299753D01*
X202485213Y-93328116D01*
X202499351Y-93358009D01*
X202510491Y-93389143D01*
X202518525Y-93421219D01*
X202523377Y-93453929D01*
X202525000Y-93486956D01*
X202525000Y-94613044D01*
X202523377Y-94646071D01*
X202518525Y-94678781D01*
X202510491Y-94710857D01*
X202499351Y-94741991D01*
X202485213Y-94771884D01*
X202468213Y-94800247D01*
X202448515Y-94826807D01*
X202426308Y-94851308D01*
X202401807Y-94873515D01*
X202375247Y-94893213D01*
X202346884Y-94910213D01*
X202316991Y-94924351D01*
X202285857Y-94935491D01*
X202253781Y-94943525D01*
X202221071Y-94948377D01*
X202188044Y-94950000D01*
X201311956Y-94950000D01*
X201278929Y-94948377D01*
X201246219Y-94943525D01*
X201214143Y-94935491D01*
X201183009Y-94924351D01*
X201153116Y-94910213D01*
X201124753Y-94893213D01*
X201098193Y-94873515D01*
X201073692Y-94851308D01*
X201051485Y-94826807D01*
X201031787Y-94800247D01*
X201014787Y-94771884D01*
X201000649Y-94741991D01*
X200989509Y-94710857D01*
X200981475Y-94678781D01*
X200976623Y-94646071D01*
X200975000Y-94613044D01*
X200975000Y-93486956D01*
X200976623Y-93453929D01*
X200981475Y-93421219D01*
X200989509Y-93389143D01*
X201000649Y-93358009D01*
X201014787Y-93328116D01*
X201031787Y-93299753D01*
X201051485Y-93273193D01*
X201073692Y-93248692D01*
X201098193Y-93226485D01*
X201124753Y-93206787D01*
X201153116Y-93189787D01*
X201183009Y-93175649D01*
X201214143Y-93164509D01*
X201246219Y-93156475D01*
X201278929Y-93151623D01*
X201311956Y-93150000D01*
X202188044Y-93150000D01*
X202221071Y-93151623D01*
X202221071Y-93151623D01*
G37*
D18*
X201750000Y-94050000D03*
D12*
G36*
X200171071Y-93151623D02*
X200203781Y-93156475D01*
X200235857Y-93164509D01*
X200266991Y-93175649D01*
X200296884Y-93189787D01*
X200325247Y-93206787D01*
X200351807Y-93226485D01*
X200376308Y-93248692D01*
X200398515Y-93273193D01*
X200418213Y-93299753D01*
X200435213Y-93328116D01*
X200449351Y-93358009D01*
X200460491Y-93389143D01*
X200468525Y-93421219D01*
X200473377Y-93453929D01*
X200475000Y-93486956D01*
X200475000Y-94613044D01*
X200473377Y-94646071D01*
X200468525Y-94678781D01*
X200460491Y-94710857D01*
X200449351Y-94741991D01*
X200435213Y-94771884D01*
X200418213Y-94800247D01*
X200398515Y-94826807D01*
X200376308Y-94851308D01*
X200351807Y-94873515D01*
X200325247Y-94893213D01*
X200296884Y-94910213D01*
X200266991Y-94924351D01*
X200235857Y-94935491D01*
X200203781Y-94943525D01*
X200171071Y-94948377D01*
X200138044Y-94950000D01*
X199261956Y-94950000D01*
X199228929Y-94948377D01*
X199196219Y-94943525D01*
X199164143Y-94935491D01*
X199133009Y-94924351D01*
X199103116Y-94910213D01*
X199074753Y-94893213D01*
X199048193Y-94873515D01*
X199023692Y-94851308D01*
X199001485Y-94826807D01*
X198981787Y-94800247D01*
X198964787Y-94771884D01*
X198950649Y-94741991D01*
X198939509Y-94710857D01*
X198931475Y-94678781D01*
X198926623Y-94646071D01*
X198925000Y-94613044D01*
X198925000Y-93486956D01*
X198926623Y-93453929D01*
X198931475Y-93421219D01*
X198939509Y-93389143D01*
X198950649Y-93358009D01*
X198964787Y-93328116D01*
X198981787Y-93299753D01*
X199001485Y-93273193D01*
X199023692Y-93248692D01*
X199048193Y-93226485D01*
X199074753Y-93206787D01*
X199103116Y-93189787D01*
X199133009Y-93175649D01*
X199164143Y-93164509D01*
X199196219Y-93156475D01*
X199228929Y-93151623D01*
X199261956Y-93150000D01*
X200138044Y-93150000D01*
X200171071Y-93151623D01*
X200171071Y-93151623D01*
G37*
D18*
X199700000Y-94050000D03*
G04 #@! TD*
D30*
G04 #@! TO.C,C2*
X183200000Y-82300000D03*
D27*
X183200000Y-89800000D03*
G04 #@! TD*
D12*
G04 #@! TO.C,R5*
G36*
X203623707Y-88926542D02*
X203654787Y-88931152D01*
X203685266Y-88938787D01*
X203714850Y-88949372D01*
X203743254Y-88962806D01*
X203770204Y-88978959D01*
X203795442Y-88997677D01*
X203818723Y-89018777D01*
X203839823Y-89042058D01*
X203858541Y-89067296D01*
X203874694Y-89094246D01*
X203888128Y-89122650D01*
X203898713Y-89152234D01*
X203906348Y-89182713D01*
X203910958Y-89213793D01*
X203912500Y-89245176D01*
X203912500Y-90754824D01*
X203910958Y-90786207D01*
X203906348Y-90817287D01*
X203898713Y-90847766D01*
X203888128Y-90877350D01*
X203874694Y-90905754D01*
X203858541Y-90932704D01*
X203839823Y-90957942D01*
X203818723Y-90981223D01*
X203795442Y-91002323D01*
X203770204Y-91021041D01*
X203743254Y-91037194D01*
X203714850Y-91050628D01*
X203685266Y-91061213D01*
X203654787Y-91068848D01*
X203623707Y-91073458D01*
X203592324Y-91075000D01*
X202407676Y-91075000D01*
X202376293Y-91073458D01*
X202345213Y-91068848D01*
X202314734Y-91061213D01*
X202285150Y-91050628D01*
X202256746Y-91037194D01*
X202229796Y-91021041D01*
X202204558Y-91002323D01*
X202181277Y-90981223D01*
X202160177Y-90957942D01*
X202141459Y-90932704D01*
X202125306Y-90905754D01*
X202111872Y-90877350D01*
X202101287Y-90847766D01*
X202093652Y-90817287D01*
X202089042Y-90786207D01*
X202087500Y-90754824D01*
X202087500Y-89245176D01*
X202089042Y-89213793D01*
X202093652Y-89182713D01*
X202101287Y-89152234D01*
X202111872Y-89122650D01*
X202125306Y-89094246D01*
X202141459Y-89067296D01*
X202160177Y-89042058D01*
X202181277Y-89018777D01*
X202204558Y-88997677D01*
X202229796Y-88978959D01*
X202256746Y-88962806D01*
X202285150Y-88949372D01*
X202314734Y-88938787D01*
X202345213Y-88931152D01*
X202376293Y-88926542D01*
X202407676Y-88925000D01*
X203592324Y-88925000D01*
X203623707Y-88926542D01*
X203623707Y-88926542D01*
G37*
D13*
X203000000Y-90000000D03*
D12*
G36*
X200648707Y-88926542D02*
X200679787Y-88931152D01*
X200710266Y-88938787D01*
X200739850Y-88949372D01*
X200768254Y-88962806D01*
X200795204Y-88978959D01*
X200820442Y-88997677D01*
X200843723Y-89018777D01*
X200864823Y-89042058D01*
X200883541Y-89067296D01*
X200899694Y-89094246D01*
X200913128Y-89122650D01*
X200923713Y-89152234D01*
X200931348Y-89182713D01*
X200935958Y-89213793D01*
X200937500Y-89245176D01*
X200937500Y-90754824D01*
X200935958Y-90786207D01*
X200931348Y-90817287D01*
X200923713Y-90847766D01*
X200913128Y-90877350D01*
X200899694Y-90905754D01*
X200883541Y-90932704D01*
X200864823Y-90957942D01*
X200843723Y-90981223D01*
X200820442Y-91002323D01*
X200795204Y-91021041D01*
X200768254Y-91037194D01*
X200739850Y-91050628D01*
X200710266Y-91061213D01*
X200679787Y-91068848D01*
X200648707Y-91073458D01*
X200617324Y-91075000D01*
X199432676Y-91075000D01*
X199401293Y-91073458D01*
X199370213Y-91068848D01*
X199339734Y-91061213D01*
X199310150Y-91050628D01*
X199281746Y-91037194D01*
X199254796Y-91021041D01*
X199229558Y-91002323D01*
X199206277Y-90981223D01*
X199185177Y-90957942D01*
X199166459Y-90932704D01*
X199150306Y-90905754D01*
X199136872Y-90877350D01*
X199126287Y-90847766D01*
X199118652Y-90817287D01*
X199114042Y-90786207D01*
X199112500Y-90754824D01*
X199112500Y-89245176D01*
X199114042Y-89213793D01*
X199118652Y-89182713D01*
X199126287Y-89152234D01*
X199136872Y-89122650D01*
X199150306Y-89094246D01*
X199166459Y-89067296D01*
X199185177Y-89042058D01*
X199206277Y-89018777D01*
X199229558Y-88997677D01*
X199254796Y-88978959D01*
X199281746Y-88962806D01*
X199310150Y-88949372D01*
X199339734Y-88938787D01*
X199370213Y-88931152D01*
X199401293Y-88926542D01*
X199432676Y-88925000D01*
X200617324Y-88925000D01*
X200648707Y-88926542D01*
X200648707Y-88926542D01*
G37*
D13*
X200025000Y-90000000D03*
G04 #@! TD*
D31*
G04 #@! TO.C,TR1*
X110900000Y-121500000D03*
D32*
X115900000Y-121500000D03*
X120900000Y-121500000D03*
X125900000Y-121500000D03*
X130900000Y-121500000D03*
X136900000Y-121500000D03*
X141900000Y-121500000D03*
X146900000Y-121500000D03*
X151900000Y-121500000D03*
X156900000Y-121500000D03*
X156900000Y-76500000D03*
X151900000Y-76500000D03*
X146900000Y-76500000D03*
X141900000Y-76500000D03*
X136900000Y-76500000D03*
X130900000Y-76500000D03*
X125900000Y-76500000D03*
X120900000Y-76500000D03*
X115900000Y-76500000D03*
X110900000Y-76500000D03*
G04 #@! TD*
D33*
G04 #@! TO.C,J1*
X97600000Y-74600000D03*
D34*
X97600000Y-79600000D03*
G04 #@! TD*
G04 #@! TO.C,J2*
X204000000Y-67000000D03*
D33*
X204000000Y-72000000D03*
G04 #@! TD*
G04 #@! TO.C,J3*
X204000000Y-131000000D03*
D34*
X204000000Y-126000000D03*
G04 #@! TD*
M02*
