G04 #@! TF.GenerationSoftware,KiCad,Pcbnew,(5.0.1-3-g963ef8bb5)*
G04 #@! TF.CreationDate,2018-12-29T16:31:47+01:00*
G04 #@! TF.ProjectId,c64-psu,6336342D7073752E6B696361645F7063,rev?*
G04 #@! TF.SameCoordinates,Original*
G04 #@! TF.FileFunction,Legend,Top*
G04 #@! TF.FilePolarity,Positive*
%FSLAX46Y46*%
G04 Gerber Fmt 4.6, Leading zero omitted, Abs format (unit mm)*
G04 Created by KiCad (PCBNEW (5.0.1-3-g963ef8bb5)) date Saturday, 29 December 2018 at 16:31:47*
%MOMM*%
%LPD*%
G01*
G04 APERTURE LIST*
%ADD10C,0.300000*%
%ADD11C,0.150000*%
%ADD12C,0.120000*%
%ADD13C,0.200000*%
G04 APERTURE END LIST*
D10*
X204078571Y-78921428D02*
X204078571Y-78635714D01*
X204007142Y-78492857D01*
X203935714Y-78421428D01*
X203721428Y-78278571D01*
X203435714Y-78207142D01*
X202864285Y-78207142D01*
X202721428Y-78278571D01*
X202650000Y-78350000D01*
X202578571Y-78492857D01*
X202578571Y-78778571D01*
X202650000Y-78921428D01*
X202721428Y-78992857D01*
X202864285Y-79064285D01*
X203221428Y-79064285D01*
X203364285Y-78992857D01*
X203435714Y-78921428D01*
X203507142Y-78778571D01*
X203507142Y-78492857D01*
X203435714Y-78350000D01*
X203364285Y-78278571D01*
X203221428Y-78207142D01*
X202578571Y-77778571D02*
X204078571Y-77278571D01*
X202578571Y-76778571D01*
X203650000Y-76350000D02*
X203650000Y-75635714D01*
X204078571Y-76492857D02*
X202578571Y-75992857D01*
X204078571Y-75492857D01*
X203935714Y-74135714D02*
X204007142Y-74207142D01*
X204078571Y-74421428D01*
X204078571Y-74564285D01*
X204007142Y-74778571D01*
X203864285Y-74921428D01*
X203721428Y-74992857D01*
X203435714Y-75064285D01*
X203221428Y-75064285D01*
X202935714Y-74992857D01*
X202792857Y-74921428D01*
X202650000Y-74778571D01*
X202578571Y-74564285D01*
X202578571Y-74421428D01*
X202650000Y-74207142D01*
X202721428Y-74135714D01*
X204078571Y-92921428D02*
X204078571Y-92635714D01*
X204007142Y-92492857D01*
X203935714Y-92421428D01*
X203721428Y-92278571D01*
X203435714Y-92207142D01*
X202864285Y-92207142D01*
X202721428Y-92278571D01*
X202650000Y-92350000D01*
X202578571Y-92492857D01*
X202578571Y-92778571D01*
X202650000Y-92921428D01*
X202721428Y-92992857D01*
X202864285Y-93064285D01*
X203221428Y-93064285D01*
X203364285Y-92992857D01*
X203435714Y-92921428D01*
X203507142Y-92778571D01*
X203507142Y-92492857D01*
X203435714Y-92350000D01*
X203364285Y-92278571D01*
X203221428Y-92207142D01*
X202578571Y-91778571D02*
X204078571Y-91278571D01*
X202578571Y-90778571D01*
X203650000Y-90350000D02*
X203650000Y-89635714D01*
X204078571Y-90492857D02*
X202578571Y-89992857D01*
X204078571Y-89492857D01*
X203935714Y-88135714D02*
X204007142Y-88207142D01*
X204078571Y-88421428D01*
X204078571Y-88564285D01*
X204007142Y-88778571D01*
X203864285Y-88921428D01*
X203721428Y-88992857D01*
X203435714Y-89064285D01*
X203221428Y-89064285D01*
X202935714Y-88992857D01*
X202792857Y-88921428D01*
X202650000Y-88778571D01*
X202578571Y-88564285D01*
X202578571Y-88421428D01*
X202650000Y-88207142D01*
X202721428Y-88135714D01*
X202650000Y-110342857D02*
X202578571Y-110485714D01*
X202578571Y-110700000D01*
X202650000Y-110914285D01*
X202792857Y-111057142D01*
X202935714Y-111128571D01*
X203221428Y-111200000D01*
X203435714Y-111200000D01*
X203721428Y-111128571D01*
X203864285Y-111057142D01*
X204007142Y-110914285D01*
X204078571Y-110700000D01*
X204078571Y-110557142D01*
X204007142Y-110342857D01*
X203935714Y-110271428D01*
X203435714Y-110271428D01*
X203435714Y-110557142D01*
X204078571Y-109628571D02*
X202578571Y-109628571D01*
X204078571Y-108771428D01*
X202578571Y-108771428D01*
X204078571Y-108057142D02*
X202578571Y-108057142D01*
X202578571Y-107700000D01*
X202650000Y-107485714D01*
X202792857Y-107342857D01*
X202935714Y-107271428D01*
X203221428Y-107200000D01*
X203435714Y-107200000D01*
X203721428Y-107271428D01*
X203864285Y-107342857D01*
X204007142Y-107485714D01*
X204078571Y-107700000D01*
X204078571Y-108057142D01*
X203507142Y-124628571D02*
X203507142Y-123485714D01*
X204078571Y-124057142D02*
X202935714Y-124057142D01*
X202578571Y-122057142D02*
X202578571Y-122771428D01*
X203292857Y-122842857D01*
X203221428Y-122771428D01*
X203150000Y-122628571D01*
X203150000Y-122271428D01*
X203221428Y-122128571D01*
X203292857Y-122057142D01*
X203435714Y-121985714D01*
X203792857Y-121985714D01*
X203935714Y-122057142D01*
X204007142Y-122128571D01*
X204078571Y-122271428D01*
X204078571Y-122628571D01*
X204007142Y-122771428D01*
X203935714Y-122842857D01*
X202578571Y-121557142D02*
X204078571Y-121057142D01*
X202578571Y-120557142D01*
X204078571Y-120057142D02*
X202578571Y-120057142D01*
X202578571Y-119700000D01*
X202650000Y-119485714D01*
X202792857Y-119342857D01*
X202935714Y-119271428D01*
X203221428Y-119200000D01*
X203435714Y-119200000D01*
X203721428Y-119271428D01*
X203864285Y-119342857D01*
X204007142Y-119485714D01*
X204078571Y-119700000D01*
X204078571Y-120057142D01*
X203935714Y-117700000D02*
X204007142Y-117771428D01*
X204078571Y-117985714D01*
X204078571Y-118128571D01*
X204007142Y-118342857D01*
X203864285Y-118485714D01*
X203721428Y-118557142D01*
X203435714Y-118628571D01*
X203221428Y-118628571D01*
X202935714Y-118557142D01*
X202792857Y-118485714D01*
X202650000Y-118342857D01*
X202578571Y-118128571D01*
X202578571Y-117985714D01*
X202650000Y-117771428D01*
X202721428Y-117700000D01*
D11*
X89000000Y-136000000D02*
X89000000Y-62000000D01*
X205000000Y-136000000D02*
X89000000Y-136000000D01*
X205000000Y-62000000D02*
X205000000Y-136000000D01*
X89000000Y-62000000D02*
X205000000Y-62000000D01*
G04 #@! TO.C,RV2*
X195550000Y-76250000D02*
X195550000Y-64250000D01*
X191050000Y-76250000D02*
X191050000Y-64250000D01*
X191050000Y-64250000D02*
X195550000Y-64250000D01*
X191050000Y-76250000D02*
X195550000Y-76250000D01*
G04 #@! TO.C,RV1*
X90950000Y-104300000D02*
X90950000Y-119800000D01*
X96150000Y-104300000D02*
X96150000Y-119800000D01*
X96150000Y-119800000D02*
X90950000Y-119800000D01*
X96150000Y-104300000D02*
X90950000Y-104300000D01*
G04 #@! TO.C,J3*
X99400000Y-132610000D02*
X99400000Y-125470000D01*
X99400000Y-125470000D02*
X102600000Y-125470000D01*
X102600000Y-132610000D02*
X102600000Y-125470000D01*
X102600000Y-132610000D02*
X99400000Y-132610000D01*
G04 #@! TO.C,U1*
X178725000Y-120725000D02*
X178725000Y-119325000D01*
X173625000Y-120725000D02*
X173625000Y-124875000D01*
X178775000Y-120725000D02*
X178775000Y-124875000D01*
X173625000Y-120725000D02*
X173770000Y-120725000D01*
X173625000Y-124875000D02*
X173770000Y-124875000D01*
X178775000Y-124875000D02*
X178630000Y-124875000D01*
X178775000Y-120725000D02*
X178725000Y-120725000D01*
D12*
G04 #@! TO.C,TRIM1*
X165740000Y-121575000D02*
X170810000Y-121575000D01*
X165740000Y-131345000D02*
X170810000Y-131345000D01*
X170810000Y-131345000D02*
X170810000Y-121575000D01*
X165740000Y-131345000D02*
X165740000Y-121575000D01*
G04 #@! TO.C,R1*
X200002064Y-100577500D02*
X198797936Y-100577500D01*
X200002064Y-102397500D02*
X198797936Y-102397500D01*
D11*
G04 #@! TO.C,TP1*
X198170000Y-83000000D02*
X198670000Y-82500000D01*
X198170000Y-83800000D02*
X198170000Y-83000000D01*
X198670000Y-84300000D02*
X198170000Y-83800000D01*
X202270000Y-84300000D02*
X198670000Y-84300000D01*
X202770000Y-83800000D02*
X202270000Y-84300000D01*
X202770000Y-83000000D02*
X202770000Y-83800000D01*
X202270000Y-82500000D02*
X202770000Y-83000000D01*
X198670000Y-82500000D02*
X202270000Y-82500000D01*
G04 #@! TO.C,TP3*
X195400000Y-117030000D02*
X194900000Y-116530000D01*
X196200000Y-117030000D02*
X195400000Y-117030000D01*
X196700000Y-116530000D02*
X196200000Y-117030000D01*
X196700000Y-112930000D02*
X196700000Y-116530000D01*
X196200000Y-112430000D02*
X196700000Y-112930000D01*
X195400000Y-112430000D02*
X196200000Y-112430000D01*
X194900000Y-112930000D02*
X195400000Y-112430000D01*
X194900000Y-116530000D02*
X194900000Y-112930000D01*
G04 #@! TO.C,RV3*
X195550000Y-77650000D02*
X191050000Y-77650000D01*
X195550000Y-89650000D02*
X191050000Y-89650000D01*
X195550000Y-77650000D02*
X195550000Y-89650000D01*
X191050000Y-77650000D02*
X191050000Y-89650000D01*
G04 #@! TO.C,J5*
X202000000Y-124710000D02*
X198800000Y-124710000D01*
X202000000Y-124710000D02*
X202000000Y-117570000D01*
X198800000Y-117570000D02*
X202000000Y-117570000D01*
X198800000Y-124710000D02*
X198800000Y-117570000D01*
G04 #@! TO.C,J2*
X102600000Y-72630000D02*
X99400000Y-72630000D01*
X102600000Y-72630000D02*
X102600000Y-65490000D01*
X99400000Y-65490000D02*
X102600000Y-65490000D01*
X99400000Y-72630000D02*
X99400000Y-65490000D01*
G04 #@! TO.C,J1*
X202000000Y-94030000D02*
X198800000Y-94030000D01*
X202000000Y-94030000D02*
X202000000Y-86890000D01*
X198800000Y-86890000D02*
X202000000Y-86890000D01*
X198800000Y-94030000D02*
X198800000Y-86890000D01*
G04 #@! TO.C,J6*
X202000000Y-112710000D02*
X198800000Y-112710000D01*
X202000000Y-112710000D02*
X202000000Y-105570000D01*
X198800000Y-105570000D02*
X202000000Y-105570000D01*
X198800000Y-112710000D02*
X198800000Y-105570000D01*
G04 #@! TO.C,J4*
X202000000Y-79910000D02*
X198800000Y-79910000D01*
X202000000Y-79910000D02*
X202000000Y-72770000D01*
X198800000Y-72770000D02*
X202000000Y-72770000D01*
X198800000Y-79910000D02*
X198800000Y-72770000D01*
D12*
G04 #@! TO.C,Coutx2*
X190910000Y-114886252D02*
X190910000Y-114363748D01*
X189490000Y-114886252D02*
X189490000Y-114363748D01*
G04 #@! TO.C,Coutx3*
X193510000Y-114886252D02*
X193510000Y-114363748D01*
X192090000Y-114886252D02*
X192090000Y-114363748D01*
D11*
G04 #@! TO.C,TP2*
X194600000Y-97570000D02*
X195100000Y-98070000D01*
X193800000Y-97570000D02*
X194600000Y-97570000D01*
X193300000Y-98070000D02*
X193800000Y-97570000D01*
X193300000Y-101670000D02*
X193300000Y-98070000D01*
X193800000Y-102170000D02*
X193300000Y-101670000D01*
X194600000Y-102170000D02*
X193800000Y-102170000D01*
X195100000Y-101670000D02*
X194600000Y-102170000D01*
X195100000Y-98070000D02*
X195100000Y-101670000D01*
D12*
G04 #@! TO.C,C2*
X167390560Y-103585000D02*
X167390560Y-105385000D01*
X166490560Y-104485000D02*
X168290560Y-104485000D01*
X185370000Y-109560000D02*
X185370000Y-109640000D01*
X185330000Y-108786000D02*
X185330000Y-110414000D01*
X185290000Y-108434000D02*
X185290000Y-110766000D01*
X185250000Y-108165000D02*
X185250000Y-111035000D01*
X185210000Y-107939000D02*
X185210000Y-111261000D01*
X185170000Y-107740000D02*
X185170000Y-111460000D01*
X185130000Y-107561000D02*
X185130000Y-111639000D01*
X185090000Y-107397000D02*
X185090000Y-111803000D01*
X185050000Y-107245000D02*
X185050000Y-111955000D01*
X185010000Y-107102000D02*
X185010000Y-112098000D01*
X184970000Y-106968000D02*
X184970000Y-112232000D01*
X184930000Y-106841000D02*
X184930000Y-112359000D01*
X184890000Y-106720000D02*
X184890000Y-112480000D01*
X184850000Y-106604000D02*
X184850000Y-112596000D01*
X184810000Y-106493000D02*
X184810000Y-112707000D01*
X184770000Y-106386000D02*
X184770000Y-112814000D01*
X184730000Y-106283000D02*
X184730000Y-112917000D01*
X184690000Y-106184000D02*
X184690000Y-113016000D01*
X184650000Y-106088000D02*
X184650000Y-113112000D01*
X184610000Y-105995000D02*
X184610000Y-113205000D01*
X184570000Y-105904000D02*
X184570000Y-113296000D01*
X184530000Y-105816000D02*
X184530000Y-113384000D01*
X184490000Y-105731000D02*
X184490000Y-113469000D01*
X184450000Y-105648000D02*
X184450000Y-113552000D01*
X184411000Y-105567000D02*
X184411000Y-113633000D01*
X184371000Y-105487000D02*
X184371000Y-113713000D01*
X184331000Y-105410000D02*
X184331000Y-113790000D01*
X184291000Y-105335000D02*
X184291000Y-113865000D01*
X184251000Y-105261000D02*
X184251000Y-113939000D01*
X184211000Y-105188000D02*
X184211000Y-114012000D01*
X184171000Y-105118000D02*
X184171000Y-114082000D01*
X184131000Y-105048000D02*
X184131000Y-114152000D01*
X184091000Y-104980000D02*
X184091000Y-114220000D01*
X184051000Y-104914000D02*
X184051000Y-114286000D01*
X184011000Y-104848000D02*
X184011000Y-114352000D01*
X183971000Y-104784000D02*
X183971000Y-114416000D01*
X183931000Y-104721000D02*
X183931000Y-114479000D01*
X183891000Y-104659000D02*
X183891000Y-114541000D01*
X183851000Y-104598000D02*
X183851000Y-114602000D01*
X183811000Y-104538000D02*
X183811000Y-114662000D01*
X183771000Y-104480000D02*
X183771000Y-114720000D01*
X183731000Y-104422000D02*
X183731000Y-114778000D01*
X183691000Y-104365000D02*
X183691000Y-114835000D01*
X183651000Y-104309000D02*
X183651000Y-114891000D01*
X183611000Y-104254000D02*
X183611000Y-114946000D01*
X183571000Y-104200000D02*
X183571000Y-115000000D01*
X183531000Y-104146000D02*
X183531000Y-115054000D01*
X183491000Y-104094000D02*
X183491000Y-115106000D01*
X183451000Y-104042000D02*
X183451000Y-115158000D01*
X183411000Y-103991000D02*
X183411000Y-115209000D01*
X183371000Y-103940000D02*
X183371000Y-115260000D01*
X183331000Y-103891000D02*
X183331000Y-115309000D01*
X183291000Y-103842000D02*
X183291000Y-115358000D01*
X183251000Y-103794000D02*
X183251000Y-115406000D01*
X183211000Y-103746000D02*
X183211000Y-115454000D01*
X183171000Y-103699000D02*
X183171000Y-115501000D01*
X183131000Y-103653000D02*
X183131000Y-115547000D01*
X183091000Y-103607000D02*
X183091000Y-115593000D01*
X183051000Y-103562000D02*
X183051000Y-115638000D01*
X183011000Y-103518000D02*
X183011000Y-115682000D01*
X182971000Y-103474000D02*
X182971000Y-115726000D01*
X182931000Y-103430000D02*
X182931000Y-115770000D01*
X182891000Y-103388000D02*
X182891000Y-115812000D01*
X182851000Y-103346000D02*
X182851000Y-115854000D01*
X182811000Y-103304000D02*
X182811000Y-115896000D01*
X182771000Y-103263000D02*
X182771000Y-115937000D01*
X182731000Y-103222000D02*
X182731000Y-115978000D01*
X182691000Y-103182000D02*
X182691000Y-116018000D01*
X182651000Y-103142000D02*
X182651000Y-116058000D01*
X182611000Y-103103000D02*
X182611000Y-116097000D01*
X182571000Y-103064000D02*
X182571000Y-116136000D01*
X182531000Y-103026000D02*
X182531000Y-116174000D01*
X182491000Y-102988000D02*
X182491000Y-116212000D01*
X182451000Y-102951000D02*
X182451000Y-116249000D01*
X182411000Y-102914000D02*
X182411000Y-116286000D01*
X182371000Y-102878000D02*
X182371000Y-116322000D01*
X182331000Y-102842000D02*
X182331000Y-116358000D01*
X182291000Y-102806000D02*
X182291000Y-116394000D01*
X182251000Y-102771000D02*
X182251000Y-116429000D01*
X182211000Y-102736000D02*
X182211000Y-116464000D01*
X182171000Y-102702000D02*
X182171000Y-116498000D01*
X182131000Y-102668000D02*
X182131000Y-116532000D01*
X182091000Y-102635000D02*
X182091000Y-116565000D01*
X182051000Y-102601000D02*
X182051000Y-116599000D01*
X182011000Y-102569000D02*
X182011000Y-116631000D01*
X181971000Y-102536000D02*
X181971000Y-116664000D01*
X181931000Y-102504000D02*
X181931000Y-116696000D01*
X181891000Y-102473000D02*
X181891000Y-116727000D01*
X181851000Y-102441000D02*
X181851000Y-116759000D01*
X181811000Y-102410000D02*
X181811000Y-116790000D01*
X181771000Y-102380000D02*
X181771000Y-116820000D01*
X181731000Y-102350000D02*
X181731000Y-116850000D01*
X181691000Y-102320000D02*
X181691000Y-116880000D01*
X181651000Y-102290000D02*
X181651000Y-116910000D01*
X181611000Y-102261000D02*
X181611000Y-116939000D01*
X181571000Y-102232000D02*
X181571000Y-116968000D01*
X181531000Y-102203000D02*
X181531000Y-116997000D01*
X181491000Y-102175000D02*
X181491000Y-117025000D01*
X181451000Y-102147000D02*
X181451000Y-117053000D01*
X181411000Y-111040000D02*
X181411000Y-117080000D01*
X181411000Y-102120000D02*
X181411000Y-108160000D01*
X181371000Y-111040000D02*
X181371000Y-117108000D01*
X181371000Y-102092000D02*
X181371000Y-108160000D01*
X181331000Y-111040000D02*
X181331000Y-117135000D01*
X181331000Y-102065000D02*
X181331000Y-108160000D01*
X181291000Y-111040000D02*
X181291000Y-117161000D01*
X181291000Y-102039000D02*
X181291000Y-108160000D01*
X181251000Y-111040000D02*
X181251000Y-117188000D01*
X181251000Y-102012000D02*
X181251000Y-108160000D01*
X181211000Y-111040000D02*
X181211000Y-117214000D01*
X181211000Y-101986000D02*
X181211000Y-108160000D01*
X181171000Y-111040000D02*
X181171000Y-117240000D01*
X181171000Y-101960000D02*
X181171000Y-108160000D01*
X181131000Y-111040000D02*
X181131000Y-117265000D01*
X181131000Y-101935000D02*
X181131000Y-108160000D01*
X181091000Y-111040000D02*
X181091000Y-117290000D01*
X181091000Y-101910000D02*
X181091000Y-108160000D01*
X181051000Y-111040000D02*
X181051000Y-117315000D01*
X181051000Y-101885000D02*
X181051000Y-108160000D01*
X181011000Y-111040000D02*
X181011000Y-117340000D01*
X181011000Y-101860000D02*
X181011000Y-108160000D01*
X180971000Y-111040000D02*
X180971000Y-117364000D01*
X180971000Y-101836000D02*
X180971000Y-108160000D01*
X180931000Y-111040000D02*
X180931000Y-117388000D01*
X180931000Y-101812000D02*
X180931000Y-108160000D01*
X180891000Y-111040000D02*
X180891000Y-117412000D01*
X180891000Y-101788000D02*
X180891000Y-108160000D01*
X180851000Y-111040000D02*
X180851000Y-117435000D01*
X180851000Y-101765000D02*
X180851000Y-108160000D01*
X180811000Y-111040000D02*
X180811000Y-117459000D01*
X180811000Y-101741000D02*
X180811000Y-108160000D01*
X180771000Y-111040000D02*
X180771000Y-117482000D01*
X180771000Y-101718000D02*
X180771000Y-108160000D01*
X180731000Y-111040000D02*
X180731000Y-117504000D01*
X180731000Y-101696000D02*
X180731000Y-108160000D01*
X180691000Y-111040000D02*
X180691000Y-117527000D01*
X180691000Y-101673000D02*
X180691000Y-108160000D01*
X180651000Y-111040000D02*
X180651000Y-117549000D01*
X180651000Y-101651000D02*
X180651000Y-108160000D01*
X180611000Y-111040000D02*
X180611000Y-117571000D01*
X180611000Y-101629000D02*
X180611000Y-108160000D01*
X180571000Y-111040000D02*
X180571000Y-117592000D01*
X180571000Y-101608000D02*
X180571000Y-108160000D01*
X180531000Y-111040000D02*
X180531000Y-117614000D01*
X180531000Y-101586000D02*
X180531000Y-108160000D01*
X180491000Y-111040000D02*
X180491000Y-117635000D01*
X180491000Y-101565000D02*
X180491000Y-108160000D01*
X180451000Y-111040000D02*
X180451000Y-117656000D01*
X180451000Y-101544000D02*
X180451000Y-108160000D01*
X180411000Y-111040000D02*
X180411000Y-117676000D01*
X180411000Y-101524000D02*
X180411000Y-108160000D01*
X180371000Y-111040000D02*
X180371000Y-117697000D01*
X180371000Y-101503000D02*
X180371000Y-108160000D01*
X180331000Y-111040000D02*
X180331000Y-117717000D01*
X180331000Y-101483000D02*
X180331000Y-108160000D01*
X180291000Y-111040000D02*
X180291000Y-117737000D01*
X180291000Y-101463000D02*
X180291000Y-108160000D01*
X180251000Y-111040000D02*
X180251000Y-117756000D01*
X180251000Y-101444000D02*
X180251000Y-108160000D01*
X180211000Y-111040000D02*
X180211000Y-117776000D01*
X180211000Y-101424000D02*
X180211000Y-108160000D01*
X180171000Y-111040000D02*
X180171000Y-117795000D01*
X180171000Y-101405000D02*
X180171000Y-108160000D01*
X180131000Y-111040000D02*
X180131000Y-117814000D01*
X180131000Y-101386000D02*
X180131000Y-108160000D01*
X180091000Y-111040000D02*
X180091000Y-117833000D01*
X180091000Y-101367000D02*
X180091000Y-108160000D01*
X180051000Y-111040000D02*
X180051000Y-117851000D01*
X180051000Y-101349000D02*
X180051000Y-108160000D01*
X180011000Y-111040000D02*
X180011000Y-117869000D01*
X180011000Y-101331000D02*
X180011000Y-108160000D01*
X179971000Y-111040000D02*
X179971000Y-117887000D01*
X179971000Y-101313000D02*
X179971000Y-108160000D01*
X179931000Y-111040000D02*
X179931000Y-117905000D01*
X179931000Y-101295000D02*
X179931000Y-108160000D01*
X179891000Y-111040000D02*
X179891000Y-117923000D01*
X179891000Y-101277000D02*
X179891000Y-108160000D01*
X179851000Y-111040000D02*
X179851000Y-117940000D01*
X179851000Y-101260000D02*
X179851000Y-108160000D01*
X179811000Y-111040000D02*
X179811000Y-117957000D01*
X179811000Y-101243000D02*
X179811000Y-108160000D01*
X179771000Y-111040000D02*
X179771000Y-117974000D01*
X179771000Y-101226000D02*
X179771000Y-108160000D01*
X179731000Y-111040000D02*
X179731000Y-117990000D01*
X179731000Y-101210000D02*
X179731000Y-108160000D01*
X179691000Y-111040000D02*
X179691000Y-118007000D01*
X179691000Y-101193000D02*
X179691000Y-108160000D01*
X179651000Y-111040000D02*
X179651000Y-118023000D01*
X179651000Y-101177000D02*
X179651000Y-108160000D01*
X179611000Y-111040000D02*
X179611000Y-118039000D01*
X179611000Y-101161000D02*
X179611000Y-108160000D01*
X179571000Y-111040000D02*
X179571000Y-118055000D01*
X179571000Y-101145000D02*
X179571000Y-108160000D01*
X179531000Y-111040000D02*
X179531000Y-118070000D01*
X179531000Y-101130000D02*
X179531000Y-108160000D01*
X179491000Y-111040000D02*
X179491000Y-118086000D01*
X179491000Y-101114000D02*
X179491000Y-108160000D01*
X179451000Y-111040000D02*
X179451000Y-118101000D01*
X179451000Y-101099000D02*
X179451000Y-108160000D01*
X179411000Y-111040000D02*
X179411000Y-118116000D01*
X179411000Y-101084000D02*
X179411000Y-108160000D01*
X179371000Y-111040000D02*
X179371000Y-118130000D01*
X179371000Y-101070000D02*
X179371000Y-108160000D01*
X179331000Y-111040000D02*
X179331000Y-118145000D01*
X179331000Y-101055000D02*
X179331000Y-108160000D01*
X179291000Y-111040000D02*
X179291000Y-118159000D01*
X179291000Y-101041000D02*
X179291000Y-108160000D01*
X179251000Y-111040000D02*
X179251000Y-118173000D01*
X179251000Y-101027000D02*
X179251000Y-108160000D01*
X179211000Y-111040000D02*
X179211000Y-118187000D01*
X179211000Y-101013000D02*
X179211000Y-108160000D01*
X179171000Y-111040000D02*
X179171000Y-118200000D01*
X179171000Y-101000000D02*
X179171000Y-108160000D01*
X179131000Y-111040000D02*
X179131000Y-118214000D01*
X179131000Y-100986000D02*
X179131000Y-108160000D01*
X179091000Y-111040000D02*
X179091000Y-118227000D01*
X179091000Y-100973000D02*
X179091000Y-108160000D01*
X179051000Y-111040000D02*
X179051000Y-118240000D01*
X179051000Y-100960000D02*
X179051000Y-108160000D01*
X179011000Y-111040000D02*
X179011000Y-118253000D01*
X179011000Y-100947000D02*
X179011000Y-108160000D01*
X178971000Y-111040000D02*
X178971000Y-118265000D01*
X178971000Y-100935000D02*
X178971000Y-108160000D01*
X178931000Y-111040000D02*
X178931000Y-118278000D01*
X178931000Y-100922000D02*
X178931000Y-108160000D01*
X178891000Y-111040000D02*
X178891000Y-118290000D01*
X178891000Y-100910000D02*
X178891000Y-108160000D01*
X178851000Y-111040000D02*
X178851000Y-118302000D01*
X178851000Y-100898000D02*
X178851000Y-108160000D01*
X178811000Y-111040000D02*
X178811000Y-118314000D01*
X178811000Y-100886000D02*
X178811000Y-108160000D01*
X178771000Y-111040000D02*
X178771000Y-118325000D01*
X178771000Y-100875000D02*
X178771000Y-108160000D01*
X178731000Y-111040000D02*
X178731000Y-118337000D01*
X178731000Y-100863000D02*
X178731000Y-108160000D01*
X178691000Y-111040000D02*
X178691000Y-118348000D01*
X178691000Y-100852000D02*
X178691000Y-108160000D01*
X178651000Y-111040000D02*
X178651000Y-118359000D01*
X178651000Y-100841000D02*
X178651000Y-108160000D01*
X178611000Y-111040000D02*
X178611000Y-118370000D01*
X178611000Y-100830000D02*
X178611000Y-108160000D01*
X178571000Y-111040000D02*
X178571000Y-118380000D01*
X178571000Y-100820000D02*
X178571000Y-108160000D01*
X178531000Y-100809000D02*
X178531000Y-118391000D01*
X178491000Y-100799000D02*
X178491000Y-118401000D01*
X178451000Y-100789000D02*
X178451000Y-118411000D01*
X178411000Y-100779000D02*
X178411000Y-118421000D01*
X178371000Y-100769000D02*
X178371000Y-118431000D01*
X178331000Y-100760000D02*
X178331000Y-118440000D01*
X178291000Y-100751000D02*
X178291000Y-118449000D01*
X178251000Y-100742000D02*
X178251000Y-118458000D01*
X178211000Y-100733000D02*
X178211000Y-118467000D01*
X178171000Y-100724000D02*
X178171000Y-118476000D01*
X178131000Y-100715000D02*
X178131000Y-118485000D01*
X178091000Y-100707000D02*
X178091000Y-118493000D01*
X178051000Y-100699000D02*
X178051000Y-118501000D01*
X178011000Y-100691000D02*
X178011000Y-118509000D01*
X177971000Y-100683000D02*
X177971000Y-118517000D01*
X177931000Y-100676000D02*
X177931000Y-118524000D01*
X177891000Y-100668000D02*
X177891000Y-118532000D01*
X177851000Y-100661000D02*
X177851000Y-118539000D01*
X177811000Y-100654000D02*
X177811000Y-118546000D01*
X177771000Y-100647000D02*
X177771000Y-118553000D01*
X177731000Y-100640000D02*
X177731000Y-118560000D01*
X177691000Y-100634000D02*
X177691000Y-118566000D01*
X177651000Y-100628000D02*
X177651000Y-118572000D01*
X177611000Y-100621000D02*
X177611000Y-118579000D01*
X177571000Y-100616000D02*
X177571000Y-118584000D01*
X177531000Y-100610000D02*
X177531000Y-118590000D01*
X177491000Y-100604000D02*
X177491000Y-118596000D01*
X177451000Y-100599000D02*
X177451000Y-118601000D01*
X177411000Y-100594000D02*
X177411000Y-118606000D01*
X177371000Y-100589000D02*
X177371000Y-118611000D01*
X177331000Y-100584000D02*
X177331000Y-118616000D01*
X177291000Y-100579000D02*
X177291000Y-118621000D01*
X177251000Y-100574000D02*
X177251000Y-118626000D01*
X177211000Y-100570000D02*
X177211000Y-118630000D01*
X177171000Y-100566000D02*
X177171000Y-118634000D01*
X177131000Y-100562000D02*
X177131000Y-118638000D01*
X177091000Y-100558000D02*
X177091000Y-118642000D01*
X177051000Y-100555000D02*
X177051000Y-118645000D01*
X177011000Y-100551000D02*
X177011000Y-118649000D01*
X176971000Y-100548000D02*
X176971000Y-118652000D01*
X176930000Y-100545000D02*
X176930000Y-118655000D01*
X176890000Y-100542000D02*
X176890000Y-118658000D01*
X176850000Y-100539000D02*
X176850000Y-118661000D01*
X176810000Y-100537000D02*
X176810000Y-118663000D01*
X176770000Y-100534000D02*
X176770000Y-118666000D01*
X176730000Y-100532000D02*
X176730000Y-118668000D01*
X176690000Y-100530000D02*
X176690000Y-118670000D01*
X176650000Y-100528000D02*
X176650000Y-118672000D01*
X176610000Y-100527000D02*
X176610000Y-118673000D01*
X176570000Y-100525000D02*
X176570000Y-118675000D01*
X176530000Y-100524000D02*
X176530000Y-118676000D01*
X176490000Y-100523000D02*
X176490000Y-118677000D01*
X176450000Y-100522000D02*
X176450000Y-118678000D01*
X176410000Y-100521000D02*
X176410000Y-118679000D01*
X176370000Y-100520000D02*
X176370000Y-118680000D01*
X176330000Y-100520000D02*
X176330000Y-118680000D01*
X176290000Y-100520000D02*
X176290000Y-118680000D01*
X176250000Y-100519000D02*
X176250000Y-118681000D01*
X185370000Y-109600000D02*
G75*
G03X185370000Y-109600000I-9120000J0D01*
G01*
G04 #@! TO.C,XF2*
X188300000Y-65400000D02*
X188300000Y-68200000D01*
X188300000Y-65400000D02*
X165800000Y-65400000D01*
X188300000Y-75000000D02*
X165800000Y-75000000D01*
X188300000Y-72200000D02*
X188300000Y-75000000D01*
X165800000Y-72200000D02*
X165800000Y-75000000D01*
X165800000Y-65400000D02*
X165800000Y-68200000D01*
G04 #@! TO.C,XF1*
X92400000Y-76700000D02*
X95200000Y-76700000D01*
X92400000Y-76700000D02*
X92400000Y-99200000D01*
X102000000Y-76700000D02*
X102000000Y-99200000D01*
X99200000Y-76700000D02*
X102000000Y-76700000D01*
X99200000Y-99200000D02*
X102000000Y-99200000D01*
X92400000Y-99200000D02*
X95200000Y-99200000D01*
G04 #@! TO.C,XF3*
X188250000Y-78600000D02*
X188250000Y-81400000D01*
X188250000Y-78600000D02*
X165750000Y-78600000D01*
X188250000Y-88200000D02*
X165750000Y-88200000D01*
X188250000Y-85400000D02*
X188250000Y-88200000D01*
X165750000Y-85400000D02*
X165750000Y-88200000D01*
X165750000Y-78600000D02*
X165750000Y-81400000D01*
D11*
G04 #@! TO.C,F3*
X172000000Y-85900000D02*
X172000000Y-80900000D01*
X182000000Y-85900000D02*
X182000000Y-80900000D01*
X187000000Y-80900000D02*
X187000000Y-85900000D01*
X167000000Y-80900000D02*
X187000000Y-80900000D01*
X167000000Y-85900000D02*
X167000000Y-80900000D01*
X187000000Y-85900000D02*
X167000000Y-85900000D01*
G04 #@! TO.C,F2*
X172050000Y-72700000D02*
X172050000Y-67700000D01*
X182050000Y-72700000D02*
X182050000Y-67700000D01*
X187050000Y-67700000D02*
X187050000Y-72700000D01*
X167050000Y-67700000D02*
X187050000Y-67700000D01*
X167050000Y-72700000D02*
X167050000Y-67700000D01*
X187050000Y-72700000D02*
X167050000Y-72700000D01*
G04 #@! TO.C,F1*
X99700000Y-92950000D02*
X94700000Y-92950000D01*
X99700000Y-82950000D02*
X94700000Y-82950000D01*
X94700000Y-77950000D02*
X99700000Y-77950000D01*
X94700000Y-97950000D02*
X94700000Y-77950000D01*
X99700000Y-97950000D02*
X94700000Y-97950000D01*
X99700000Y-77950000D02*
X99700000Y-97950000D01*
G04 #@! TO.C,TR1*
X151640000Y-82850000D02*
X151640000Y-79040000D01*
X141480000Y-82850000D02*
X151640000Y-82850000D01*
X141480000Y-79040000D02*
X141480000Y-82850000D01*
X126240000Y-82850000D02*
X126240000Y-79040000D01*
X116080000Y-82850000D02*
X126240000Y-82850000D01*
X116080000Y-79040000D02*
X116080000Y-82850000D01*
X151640000Y-113330000D02*
X151640000Y-118410000D01*
X136400000Y-113330000D02*
X151640000Y-113330000D01*
X136400000Y-118410000D02*
X136400000Y-113330000D01*
X126240000Y-113330000D02*
X126240000Y-118410000D01*
X111000000Y-113330000D02*
X126240000Y-113330000D01*
X111000000Y-118410000D02*
X111000000Y-113330000D01*
D13*
X105500000Y-65000000D02*
X162500000Y-65000000D01*
X162500000Y-65000000D02*
X162500000Y-133000000D01*
X105500000Y-133000000D02*
X105500000Y-65000000D01*
X162500000Y-133000000D02*
X105500000Y-133000000D01*
D12*
G04 #@! TO.C,D1*
X165320000Y-99100000D02*
X188720000Y-99100000D01*
X188720000Y-99100000D02*
X188720000Y-91700000D01*
X188720000Y-91700000D02*
X165320000Y-91700000D01*
X165320000Y-91700000D02*
X165320000Y-99100000D01*
X170020000Y-95700000D02*
X170020000Y-99100000D01*
X165120000Y-92800000D02*
X165120000Y-91500000D01*
X165120000Y-91500000D02*
X166320000Y-91500000D01*
X170020000Y-92100000D02*
X170020000Y-91700000D01*
G04 #@! TO.C,D2*
X201947500Y-97065000D02*
X197887500Y-97065000D01*
X201947500Y-99335000D02*
X201947500Y-97065000D01*
X197887500Y-99335000D02*
X201947500Y-99335000D01*
G04 #@! TO.C,Cboot1*
X178910000Y-129061252D02*
X178910000Y-128538748D01*
X177490000Y-129061252D02*
X177490000Y-128538748D01*
G04 #@! TO.C,Coutx1*
X187036252Y-114890000D02*
X186513748Y-114890000D01*
X187036252Y-116310000D02*
X186513748Y-116310000D01*
G04 #@! TO.C,Cvcc1*
X174411217Y-128563748D02*
X174411217Y-129086252D01*
X175831217Y-128563748D02*
X175831217Y-129086252D01*
G04 #@! TO.C,Cout1*
X186914564Y-117640000D02*
X185710436Y-117640000D01*
X186914564Y-120360000D02*
X185710436Y-120360000D01*
G04 #@! TO.C,Rfbb1*
X173131217Y-124821366D02*
X173131217Y-124298862D01*
X171711217Y-124821366D02*
X171711217Y-124298862D01*
G04 #@! TO.C,Rfbt1*
X173110000Y-129086252D02*
X173110000Y-128563748D01*
X171690000Y-129086252D02*
X171690000Y-128563748D01*
G04 #@! TO.C,L1*
X192121217Y-121085114D02*
G75*
G02X192771217Y-121735114I0J-650000D01*
G01*
X192771217Y-133235114D02*
G75*
G02X192121217Y-133885114I-650000J0D01*
G01*
X180621217Y-133885114D02*
G75*
G02X179971217Y-133235114I0J650000D01*
G01*
X179971217Y-121735114D02*
G75*
G02X180621217Y-121085114I650000J0D01*
G01*
X192771217Y-130485114D02*
X192771217Y-133235114D01*
X179971217Y-130485114D02*
X179971217Y-133235114D01*
X192771217Y-121735114D02*
X192771217Y-124485114D01*
X192121217Y-133885114D02*
X180621217Y-133885114D01*
X179971217Y-121735114D02*
X179971217Y-124485114D01*
X180621217Y-121085114D02*
X192121217Y-121085114D01*
G04 #@! TO.C,C1*
X104020000Y-121720000D02*
X98780000Y-121720000D01*
X104020000Y-102480000D02*
X98780000Y-102480000D01*
X98780000Y-102480000D02*
X98780000Y-121720000D01*
X104020000Y-102480000D02*
X104020000Y-121720000D01*
G04 #@! TD*
G04 #@! TO.C,RV2*
D11*
X197002380Y-70845238D02*
X196526190Y-71178571D01*
X197002380Y-71416666D02*
X196002380Y-71416666D01*
X196002380Y-71035714D01*
X196050000Y-70940476D01*
X196097619Y-70892857D01*
X196192857Y-70845238D01*
X196335714Y-70845238D01*
X196430952Y-70892857D01*
X196478571Y-70940476D01*
X196526190Y-71035714D01*
X196526190Y-71416666D01*
X196002380Y-70559523D02*
X197002380Y-70226190D01*
X196002380Y-69892857D01*
X196097619Y-69607142D02*
X196050000Y-69559523D01*
X196002380Y-69464285D01*
X196002380Y-69226190D01*
X196050000Y-69130952D01*
X196097619Y-69083333D01*
X196192857Y-69035714D01*
X196288095Y-69035714D01*
X196430952Y-69083333D01*
X197002380Y-69654761D01*
X197002380Y-69035714D01*
G04 #@! TO.C,RV1*
X93004761Y-121852380D02*
X92671428Y-121376190D01*
X92433333Y-121852380D02*
X92433333Y-120852380D01*
X92814285Y-120852380D01*
X92909523Y-120900000D01*
X92957142Y-120947619D01*
X93004761Y-121042857D01*
X93004761Y-121185714D01*
X92957142Y-121280952D01*
X92909523Y-121328571D01*
X92814285Y-121376190D01*
X92433333Y-121376190D01*
X93290476Y-120852380D02*
X93623809Y-121852380D01*
X93957142Y-120852380D01*
X94814285Y-121852380D02*
X94242857Y-121852380D01*
X94528571Y-121852380D02*
X94528571Y-120852380D01*
X94433333Y-120995238D01*
X94338095Y-121090476D01*
X94242857Y-121138095D01*
G04 #@! TO.C,J3*
X97466666Y-125452380D02*
X97466666Y-126166666D01*
X97419047Y-126309523D01*
X97323809Y-126404761D01*
X97180952Y-126452380D01*
X97085714Y-126452380D01*
X97847619Y-125452380D02*
X98466666Y-125452380D01*
X98133333Y-125833333D01*
X98276190Y-125833333D01*
X98371428Y-125880952D01*
X98419047Y-125928571D01*
X98466666Y-126023809D01*
X98466666Y-126261904D01*
X98419047Y-126357142D01*
X98371428Y-126404761D01*
X98276190Y-126452380D01*
X97990476Y-126452380D01*
X97895238Y-126404761D01*
X97847619Y-126357142D01*
G04 #@! TO.C,U1*
X179638095Y-119252380D02*
X179638095Y-120061904D01*
X179685714Y-120157142D01*
X179733333Y-120204761D01*
X179828571Y-120252380D01*
X180019047Y-120252380D01*
X180114285Y-120204761D01*
X180161904Y-120157142D01*
X180209523Y-120061904D01*
X180209523Y-119252380D01*
X181209523Y-120252380D02*
X180638095Y-120252380D01*
X180923809Y-120252380D02*
X180923809Y-119252380D01*
X180828571Y-119395238D01*
X180733333Y-119490476D01*
X180638095Y-119538095D01*
G04 #@! TO.C,TRIM1*
X165928571Y-119652380D02*
X166500000Y-119652380D01*
X166214285Y-120652380D02*
X166214285Y-119652380D01*
X167404761Y-120652380D02*
X167071428Y-120176190D01*
X166833333Y-120652380D02*
X166833333Y-119652380D01*
X167214285Y-119652380D01*
X167309523Y-119700000D01*
X167357142Y-119747619D01*
X167404761Y-119842857D01*
X167404761Y-119985714D01*
X167357142Y-120080952D01*
X167309523Y-120128571D01*
X167214285Y-120176190D01*
X166833333Y-120176190D01*
X167833333Y-120652380D02*
X167833333Y-119652380D01*
X168309523Y-120652380D02*
X168309523Y-119652380D01*
X168642857Y-120366666D01*
X168976190Y-119652380D01*
X168976190Y-120652380D01*
X169976190Y-120652380D02*
X169404761Y-120652380D01*
X169690476Y-120652380D02*
X169690476Y-119652380D01*
X169595238Y-119795238D01*
X169500000Y-119890476D01*
X169404761Y-119938095D01*
G04 #@! TO.C,R1*
X203033333Y-101852380D02*
X202700000Y-101376190D01*
X202461904Y-101852380D02*
X202461904Y-100852380D01*
X202842857Y-100852380D01*
X202938095Y-100900000D01*
X202985714Y-100947619D01*
X203033333Y-101042857D01*
X203033333Y-101185714D01*
X202985714Y-101280952D01*
X202938095Y-101328571D01*
X202842857Y-101376190D01*
X202461904Y-101376190D01*
X203985714Y-101852380D02*
X203414285Y-101852380D01*
X203700000Y-101852380D02*
X203700000Y-100852380D01*
X203604761Y-100995238D01*
X203509523Y-101090476D01*
X203414285Y-101138095D01*
G04 #@! TO.C,TP1*
X199138095Y-80852380D02*
X199709523Y-80852380D01*
X199423809Y-81852380D02*
X199423809Y-80852380D01*
X200042857Y-81852380D02*
X200042857Y-80852380D01*
X200423809Y-80852380D01*
X200519047Y-80900000D01*
X200566666Y-80947619D01*
X200614285Y-81042857D01*
X200614285Y-81185714D01*
X200566666Y-81280952D01*
X200519047Y-81328571D01*
X200423809Y-81376190D01*
X200042857Y-81376190D01*
X201566666Y-81852380D02*
X200995238Y-81852380D01*
X201280952Y-81852380D02*
X201280952Y-80852380D01*
X201185714Y-80995238D01*
X201090476Y-81090476D01*
X200995238Y-81138095D01*
G04 #@! TO.C,TP3*
X195252380Y-111861904D02*
X195252380Y-111290476D01*
X196252380Y-111576190D02*
X195252380Y-111576190D01*
X196252380Y-110957142D02*
X195252380Y-110957142D01*
X195252380Y-110576190D01*
X195300000Y-110480952D01*
X195347619Y-110433333D01*
X195442857Y-110385714D01*
X195585714Y-110385714D01*
X195680952Y-110433333D01*
X195728571Y-110480952D01*
X195776190Y-110576190D01*
X195776190Y-110957142D01*
X195252380Y-110052380D02*
X195252380Y-109433333D01*
X195633333Y-109766666D01*
X195633333Y-109623809D01*
X195680952Y-109528571D01*
X195728571Y-109480952D01*
X195823809Y-109433333D01*
X196061904Y-109433333D01*
X196157142Y-109480952D01*
X196204761Y-109528571D01*
X196252380Y-109623809D01*
X196252380Y-109909523D01*
X196204761Y-110004761D01*
X196157142Y-110052380D01*
G04 #@! TO.C,RV3*
X197452380Y-89195238D02*
X196976190Y-89528571D01*
X197452380Y-89766666D02*
X196452380Y-89766666D01*
X196452380Y-89385714D01*
X196500000Y-89290476D01*
X196547619Y-89242857D01*
X196642857Y-89195238D01*
X196785714Y-89195238D01*
X196880952Y-89242857D01*
X196928571Y-89290476D01*
X196976190Y-89385714D01*
X196976190Y-89766666D01*
X196452380Y-88909523D02*
X197452380Y-88576190D01*
X196452380Y-88242857D01*
X196452380Y-88004761D02*
X196452380Y-87385714D01*
X196833333Y-87719047D01*
X196833333Y-87576190D01*
X196880952Y-87480952D01*
X196928571Y-87433333D01*
X197023809Y-87385714D01*
X197261904Y-87385714D01*
X197357142Y-87433333D01*
X197404761Y-87480952D01*
X197452380Y-87576190D01*
X197452380Y-87861904D01*
X197404761Y-87957142D01*
X197357142Y-88004761D01*
G04 #@! TO.C,J5*
X197266666Y-123452380D02*
X197266666Y-124166666D01*
X197219047Y-124309523D01*
X197123809Y-124404761D01*
X196980952Y-124452380D01*
X196885714Y-124452380D01*
X198219047Y-123452380D02*
X197742857Y-123452380D01*
X197695238Y-123928571D01*
X197742857Y-123880952D01*
X197838095Y-123833333D01*
X198076190Y-123833333D01*
X198171428Y-123880952D01*
X198219047Y-123928571D01*
X198266666Y-124023809D01*
X198266666Y-124261904D01*
X198219047Y-124357142D01*
X198171428Y-124404761D01*
X198076190Y-124452380D01*
X197838095Y-124452380D01*
X197742857Y-124404761D01*
X197695238Y-124357142D01*
G04 #@! TO.C,J2*
X97666666Y-71652380D02*
X97666666Y-72366666D01*
X97619047Y-72509523D01*
X97523809Y-72604761D01*
X97380952Y-72652380D01*
X97285714Y-72652380D01*
X98095238Y-71747619D02*
X98142857Y-71700000D01*
X98238095Y-71652380D01*
X98476190Y-71652380D01*
X98571428Y-71700000D01*
X98619047Y-71747619D01*
X98666666Y-71842857D01*
X98666666Y-71938095D01*
X98619047Y-72080952D01*
X98047619Y-72652380D01*
X98666666Y-72652380D01*
G04 #@! TO.C,J1*
X197266666Y-92772380D02*
X197266666Y-93486666D01*
X197219047Y-93629523D01*
X197123809Y-93724761D01*
X196980952Y-93772380D01*
X196885714Y-93772380D01*
X198266666Y-93772380D02*
X197695238Y-93772380D01*
X197980952Y-93772380D02*
X197980952Y-92772380D01*
X197885714Y-92915238D01*
X197790476Y-93010476D01*
X197695238Y-93058095D01*
G04 #@! TO.C,J6*
X197266666Y-105732380D02*
X197266666Y-106446666D01*
X197219047Y-106589523D01*
X197123809Y-106684761D01*
X196980952Y-106732380D01*
X196885714Y-106732380D01*
X198171428Y-105732380D02*
X197980952Y-105732380D01*
X197885714Y-105780000D01*
X197838095Y-105827619D01*
X197742857Y-105970476D01*
X197695238Y-106160952D01*
X197695238Y-106541904D01*
X197742857Y-106637142D01*
X197790476Y-106684761D01*
X197885714Y-106732380D01*
X198076190Y-106732380D01*
X198171428Y-106684761D01*
X198219047Y-106637142D01*
X198266666Y-106541904D01*
X198266666Y-106303809D01*
X198219047Y-106208571D01*
X198171428Y-106160952D01*
X198076190Y-106113333D01*
X197885714Y-106113333D01*
X197790476Y-106160952D01*
X197742857Y-106208571D01*
X197695238Y-106303809D01*
G04 #@! TO.C,J4*
X197266666Y-78652380D02*
X197266666Y-79366666D01*
X197219047Y-79509523D01*
X197123809Y-79604761D01*
X196980952Y-79652380D01*
X196885714Y-79652380D01*
X198171428Y-78985714D02*
X198171428Y-79652380D01*
X197933333Y-78604761D02*
X197695238Y-79319047D01*
X198314285Y-79319047D01*
G04 #@! TO.C,Coutx2*
X190557142Y-111811904D02*
X190604761Y-111859523D01*
X190652380Y-112002380D01*
X190652380Y-112097619D01*
X190604761Y-112240476D01*
X190509523Y-112335714D01*
X190414285Y-112383333D01*
X190223809Y-112430952D01*
X190080952Y-112430952D01*
X189890476Y-112383333D01*
X189795238Y-112335714D01*
X189700000Y-112240476D01*
X189652380Y-112097619D01*
X189652380Y-112002380D01*
X189700000Y-111859523D01*
X189747619Y-111811904D01*
X190652380Y-111240476D02*
X190604761Y-111335714D01*
X190557142Y-111383333D01*
X190461904Y-111430952D01*
X190176190Y-111430952D01*
X190080952Y-111383333D01*
X190033333Y-111335714D01*
X189985714Y-111240476D01*
X189985714Y-111097619D01*
X190033333Y-111002380D01*
X190080952Y-110954761D01*
X190176190Y-110907142D01*
X190461904Y-110907142D01*
X190557142Y-110954761D01*
X190604761Y-111002380D01*
X190652380Y-111097619D01*
X190652380Y-111240476D01*
X189985714Y-110050000D02*
X190652380Y-110050000D01*
X189985714Y-110478571D02*
X190509523Y-110478571D01*
X190604761Y-110430952D01*
X190652380Y-110335714D01*
X190652380Y-110192857D01*
X190604761Y-110097619D01*
X190557142Y-110050000D01*
X189985714Y-109716666D02*
X189985714Y-109335714D01*
X189652380Y-109573809D02*
X190509523Y-109573809D01*
X190604761Y-109526190D01*
X190652380Y-109430952D01*
X190652380Y-109335714D01*
X190652380Y-109097619D02*
X189985714Y-108573809D01*
X189985714Y-109097619D02*
X190652380Y-108573809D01*
X189747619Y-108240476D02*
X189700000Y-108192857D01*
X189652380Y-108097619D01*
X189652380Y-107859523D01*
X189700000Y-107764285D01*
X189747619Y-107716666D01*
X189842857Y-107669047D01*
X189938095Y-107669047D01*
X190080952Y-107716666D01*
X190652380Y-108288095D01*
X190652380Y-107669047D01*
G04 #@! TO.C,Coutx3*
X193132142Y-111786904D02*
X193179761Y-111834523D01*
X193227380Y-111977380D01*
X193227380Y-112072619D01*
X193179761Y-112215476D01*
X193084523Y-112310714D01*
X192989285Y-112358333D01*
X192798809Y-112405952D01*
X192655952Y-112405952D01*
X192465476Y-112358333D01*
X192370238Y-112310714D01*
X192275000Y-112215476D01*
X192227380Y-112072619D01*
X192227380Y-111977380D01*
X192275000Y-111834523D01*
X192322619Y-111786904D01*
X193227380Y-111215476D02*
X193179761Y-111310714D01*
X193132142Y-111358333D01*
X193036904Y-111405952D01*
X192751190Y-111405952D01*
X192655952Y-111358333D01*
X192608333Y-111310714D01*
X192560714Y-111215476D01*
X192560714Y-111072619D01*
X192608333Y-110977380D01*
X192655952Y-110929761D01*
X192751190Y-110882142D01*
X193036904Y-110882142D01*
X193132142Y-110929761D01*
X193179761Y-110977380D01*
X193227380Y-111072619D01*
X193227380Y-111215476D01*
X192560714Y-110025000D02*
X193227380Y-110025000D01*
X192560714Y-110453571D02*
X193084523Y-110453571D01*
X193179761Y-110405952D01*
X193227380Y-110310714D01*
X193227380Y-110167857D01*
X193179761Y-110072619D01*
X193132142Y-110025000D01*
X192560714Y-109691666D02*
X192560714Y-109310714D01*
X192227380Y-109548809D02*
X193084523Y-109548809D01*
X193179761Y-109501190D01*
X193227380Y-109405952D01*
X193227380Y-109310714D01*
X193227380Y-109072619D02*
X192560714Y-108548809D01*
X192560714Y-109072619D02*
X193227380Y-108548809D01*
X192227380Y-108263095D02*
X192227380Y-107644047D01*
X192608333Y-107977380D01*
X192608333Y-107834523D01*
X192655952Y-107739285D01*
X192703571Y-107691666D01*
X192798809Y-107644047D01*
X193036904Y-107644047D01*
X193132142Y-107691666D01*
X193179761Y-107739285D01*
X193227380Y-107834523D01*
X193227380Y-108120238D01*
X193179761Y-108215476D01*
X193132142Y-108263095D01*
G04 #@! TO.C,TP2*
X192738095Y-103052380D02*
X193309523Y-103052380D01*
X193023809Y-104052380D02*
X193023809Y-103052380D01*
X193642857Y-104052380D02*
X193642857Y-103052380D01*
X194023809Y-103052380D01*
X194119047Y-103100000D01*
X194166666Y-103147619D01*
X194214285Y-103242857D01*
X194214285Y-103385714D01*
X194166666Y-103480952D01*
X194119047Y-103528571D01*
X194023809Y-103576190D01*
X193642857Y-103576190D01*
X194595238Y-103147619D02*
X194642857Y-103100000D01*
X194738095Y-103052380D01*
X194976190Y-103052380D01*
X195071428Y-103100000D01*
X195119047Y-103147619D01*
X195166666Y-103242857D01*
X195166666Y-103338095D01*
X195119047Y-103480952D01*
X194547619Y-104052380D01*
X195166666Y-104052380D01*
G04 #@! TO.C,C2*
X184333333Y-103157142D02*
X184285714Y-103204761D01*
X184142857Y-103252380D01*
X184047619Y-103252380D01*
X183904761Y-103204761D01*
X183809523Y-103109523D01*
X183761904Y-103014285D01*
X183714285Y-102823809D01*
X183714285Y-102680952D01*
X183761904Y-102490476D01*
X183809523Y-102395238D01*
X183904761Y-102300000D01*
X184047619Y-102252380D01*
X184142857Y-102252380D01*
X184285714Y-102300000D01*
X184333333Y-102347619D01*
X184714285Y-102347619D02*
X184761904Y-102300000D01*
X184857142Y-102252380D01*
X185095238Y-102252380D01*
X185190476Y-102300000D01*
X185238095Y-102347619D01*
X185285714Y-102442857D01*
X185285714Y-102538095D01*
X185238095Y-102680952D01*
X184666666Y-103252380D01*
X185285714Y-103252380D01*
G04 #@! TO.C,XF2*
X175811904Y-75652380D02*
X176478571Y-76652380D01*
X176478571Y-75652380D02*
X175811904Y-76652380D01*
X177192857Y-76128571D02*
X176859523Y-76128571D01*
X176859523Y-76652380D02*
X176859523Y-75652380D01*
X177335714Y-75652380D01*
X177669047Y-75747619D02*
X177716666Y-75700000D01*
X177811904Y-75652380D01*
X178050000Y-75652380D01*
X178145238Y-75700000D01*
X178192857Y-75747619D01*
X178240476Y-75842857D01*
X178240476Y-75938095D01*
X178192857Y-76080952D01*
X177621428Y-76652380D01*
X178240476Y-76652380D01*
G04 #@! TO.C,XF1*
X102652380Y-89188095D02*
X103652380Y-88521428D01*
X102652380Y-88521428D02*
X103652380Y-89188095D01*
X103128571Y-87807142D02*
X103128571Y-88140476D01*
X103652380Y-88140476D02*
X102652380Y-88140476D01*
X102652380Y-87664285D01*
X103652380Y-86759523D02*
X103652380Y-87330952D01*
X103652380Y-87045238D02*
X102652380Y-87045238D01*
X102795238Y-87140476D01*
X102890476Y-87235714D01*
X102938095Y-87330952D01*
G04 #@! TO.C,XF3*
X175761904Y-88852380D02*
X176428571Y-89852380D01*
X176428571Y-88852380D02*
X175761904Y-89852380D01*
X177142857Y-89328571D02*
X176809523Y-89328571D01*
X176809523Y-89852380D02*
X176809523Y-88852380D01*
X177285714Y-88852380D01*
X177571428Y-88852380D02*
X178190476Y-88852380D01*
X177857142Y-89233333D01*
X178000000Y-89233333D01*
X178095238Y-89280952D01*
X178142857Y-89328571D01*
X178190476Y-89423809D01*
X178190476Y-89661904D01*
X178142857Y-89757142D01*
X178095238Y-89804761D01*
X178000000Y-89852380D01*
X177714285Y-89852380D01*
X177619047Y-89804761D01*
X177571428Y-89757142D01*
G04 #@! TO.C,F3*
X176666666Y-79328571D02*
X176333333Y-79328571D01*
X176333333Y-79852380D02*
X176333333Y-78852380D01*
X176809523Y-78852380D01*
X177095238Y-78852380D02*
X177714285Y-78852380D01*
X177380952Y-79233333D01*
X177523809Y-79233333D01*
X177619047Y-79280952D01*
X177666666Y-79328571D01*
X177714285Y-79423809D01*
X177714285Y-79661904D01*
X177666666Y-79757142D01*
X177619047Y-79804761D01*
X177523809Y-79852380D01*
X177238095Y-79852380D01*
X177142857Y-79804761D01*
X177095238Y-79757142D01*
G04 #@! TO.C,F2*
X176716666Y-66128571D02*
X176383333Y-66128571D01*
X176383333Y-66652380D02*
X176383333Y-65652380D01*
X176859523Y-65652380D01*
X177192857Y-65747619D02*
X177240476Y-65700000D01*
X177335714Y-65652380D01*
X177573809Y-65652380D01*
X177669047Y-65700000D01*
X177716666Y-65747619D01*
X177764285Y-65842857D01*
X177764285Y-65938095D01*
X177716666Y-66080952D01*
X177145238Y-66652380D01*
X177764285Y-66652380D01*
G04 #@! TO.C,F1*
X93128571Y-88283333D02*
X93128571Y-88616666D01*
X93652380Y-88616666D02*
X92652380Y-88616666D01*
X92652380Y-88140476D01*
X93652380Y-87235714D02*
X93652380Y-87807142D01*
X93652380Y-87521428D02*
X92652380Y-87521428D01*
X92795238Y-87616666D01*
X92890476Y-87711904D01*
X92938095Y-87807142D01*
G04 #@! TO.C,NT1*
X182757142Y-108552380D02*
X182757142Y-107552380D01*
X183328571Y-108552380D01*
X183328571Y-107552380D01*
X183661904Y-107552380D02*
X184233333Y-107552380D01*
X183947619Y-108552380D02*
X183947619Y-107552380D01*
X185090476Y-108552380D02*
X184519047Y-108552380D01*
X184804761Y-108552380D02*
X184804761Y-107552380D01*
X184709523Y-107695238D01*
X184614285Y-107790476D01*
X184519047Y-107838095D01*
G04 #@! TO.C,TR1*
X130738095Y-133952380D02*
X131309523Y-133952380D01*
X131023809Y-134952380D02*
X131023809Y-133952380D01*
X132214285Y-134952380D02*
X131880952Y-134476190D01*
X131642857Y-134952380D02*
X131642857Y-133952380D01*
X132023809Y-133952380D01*
X132119047Y-134000000D01*
X132166666Y-134047619D01*
X132214285Y-134142857D01*
X132214285Y-134285714D01*
X132166666Y-134380952D01*
X132119047Y-134428571D01*
X132023809Y-134476190D01*
X131642857Y-134476190D01*
X133166666Y-134952380D02*
X132595238Y-134952380D01*
X132880952Y-134952380D02*
X132880952Y-133952380D01*
X132785714Y-134095238D01*
X132690476Y-134190476D01*
X132595238Y-134238095D01*
X144464761Y-84524761D02*
X144607619Y-84572380D01*
X144845714Y-84572380D01*
X144940952Y-84524761D01*
X144988571Y-84477142D01*
X145036190Y-84381904D01*
X145036190Y-84286666D01*
X144988571Y-84191428D01*
X144940952Y-84143809D01*
X144845714Y-84096190D01*
X144655238Y-84048571D01*
X144560000Y-84000952D01*
X144512380Y-83953333D01*
X144464761Y-83858095D01*
X144464761Y-83762857D01*
X144512380Y-83667619D01*
X144560000Y-83620000D01*
X144655238Y-83572380D01*
X144893333Y-83572380D01*
X145036190Y-83620000D01*
X145464761Y-84048571D02*
X145798095Y-84048571D01*
X145940952Y-84572380D02*
X145464761Y-84572380D01*
X145464761Y-83572380D01*
X145940952Y-83572380D01*
X146940952Y-84477142D02*
X146893333Y-84524761D01*
X146750476Y-84572380D01*
X146655238Y-84572380D01*
X146512380Y-84524761D01*
X146417142Y-84429523D01*
X146369523Y-84334285D01*
X146321904Y-84143809D01*
X146321904Y-84000952D01*
X146369523Y-83810476D01*
X146417142Y-83715238D01*
X146512380Y-83620000D01*
X146655238Y-83572380D01*
X146750476Y-83572380D01*
X146893333Y-83620000D01*
X146940952Y-83667619D01*
X148083809Y-83667619D02*
X148131428Y-83620000D01*
X148226666Y-83572380D01*
X148464761Y-83572380D01*
X148560000Y-83620000D01*
X148607619Y-83667619D01*
X148655238Y-83762857D01*
X148655238Y-83858095D01*
X148607619Y-84000952D01*
X148036190Y-84572380D01*
X148655238Y-84572380D01*
X119064761Y-84524761D02*
X119207619Y-84572380D01*
X119445714Y-84572380D01*
X119540952Y-84524761D01*
X119588571Y-84477142D01*
X119636190Y-84381904D01*
X119636190Y-84286666D01*
X119588571Y-84191428D01*
X119540952Y-84143809D01*
X119445714Y-84096190D01*
X119255238Y-84048571D01*
X119160000Y-84000952D01*
X119112380Y-83953333D01*
X119064761Y-83858095D01*
X119064761Y-83762857D01*
X119112380Y-83667619D01*
X119160000Y-83620000D01*
X119255238Y-83572380D01*
X119493333Y-83572380D01*
X119636190Y-83620000D01*
X120064761Y-84048571D02*
X120398095Y-84048571D01*
X120540952Y-84572380D02*
X120064761Y-84572380D01*
X120064761Y-83572380D01*
X120540952Y-83572380D01*
X121540952Y-84477142D02*
X121493333Y-84524761D01*
X121350476Y-84572380D01*
X121255238Y-84572380D01*
X121112380Y-84524761D01*
X121017142Y-84429523D01*
X120969523Y-84334285D01*
X120921904Y-84143809D01*
X120921904Y-84000952D01*
X120969523Y-83810476D01*
X121017142Y-83715238D01*
X121112380Y-83620000D01*
X121255238Y-83572380D01*
X121350476Y-83572380D01*
X121493333Y-83620000D01*
X121540952Y-83667619D01*
X123255238Y-84572380D02*
X122683809Y-84572380D01*
X122969523Y-84572380D02*
X122969523Y-83572380D01*
X122874285Y-83715238D01*
X122779047Y-83810476D01*
X122683809Y-83858095D01*
X142162857Y-112512380D02*
X142162857Y-111512380D01*
X142543809Y-111512380D01*
X142639047Y-111560000D01*
X142686666Y-111607619D01*
X142734285Y-111702857D01*
X142734285Y-111845714D01*
X142686666Y-111940952D01*
X142639047Y-111988571D01*
X142543809Y-112036190D01*
X142162857Y-112036190D01*
X143734285Y-112512380D02*
X143400952Y-112036190D01*
X143162857Y-112512380D02*
X143162857Y-111512380D01*
X143543809Y-111512380D01*
X143639047Y-111560000D01*
X143686666Y-111607619D01*
X143734285Y-111702857D01*
X143734285Y-111845714D01*
X143686666Y-111940952D01*
X143639047Y-111988571D01*
X143543809Y-112036190D01*
X143162857Y-112036190D01*
X144162857Y-112512380D02*
X144162857Y-111512380D01*
X145353333Y-111607619D02*
X145400952Y-111560000D01*
X145496190Y-111512380D01*
X145734285Y-111512380D01*
X145829523Y-111560000D01*
X145877142Y-111607619D01*
X145924761Y-111702857D01*
X145924761Y-111798095D01*
X145877142Y-111940952D01*
X145305714Y-112512380D01*
X145924761Y-112512380D01*
X116762857Y-112512380D02*
X116762857Y-111512380D01*
X117143809Y-111512380D01*
X117239047Y-111560000D01*
X117286666Y-111607619D01*
X117334285Y-111702857D01*
X117334285Y-111845714D01*
X117286666Y-111940952D01*
X117239047Y-111988571D01*
X117143809Y-112036190D01*
X116762857Y-112036190D01*
X118334285Y-112512380D02*
X118000952Y-112036190D01*
X117762857Y-112512380D02*
X117762857Y-111512380D01*
X118143809Y-111512380D01*
X118239047Y-111560000D01*
X118286666Y-111607619D01*
X118334285Y-111702857D01*
X118334285Y-111845714D01*
X118286666Y-111940952D01*
X118239047Y-111988571D01*
X118143809Y-112036190D01*
X117762857Y-112036190D01*
X118762857Y-112512380D02*
X118762857Y-111512380D01*
X120524761Y-112512380D02*
X119953333Y-112512380D01*
X120239047Y-112512380D02*
X120239047Y-111512380D01*
X120143809Y-111655238D01*
X120048571Y-111750476D01*
X119953333Y-111798095D01*
G04 #@! TO.C,D1*
X165261904Y-101002380D02*
X165261904Y-100002380D01*
X165500000Y-100002380D01*
X165642857Y-100050000D01*
X165738095Y-100145238D01*
X165785714Y-100240476D01*
X165833333Y-100430952D01*
X165833333Y-100573809D01*
X165785714Y-100764285D01*
X165738095Y-100859523D01*
X165642857Y-100954761D01*
X165500000Y-101002380D01*
X165261904Y-101002380D01*
X166785714Y-101002380D02*
X166214285Y-101002380D01*
X166500000Y-101002380D02*
X166500000Y-100002380D01*
X166404761Y-100145238D01*
X166309523Y-100240476D01*
X166214285Y-100288095D01*
G04 #@! TO.C,D2*
X202461904Y-98852380D02*
X202461904Y-97852380D01*
X202700000Y-97852380D01*
X202842857Y-97900000D01*
X202938095Y-97995238D01*
X202985714Y-98090476D01*
X203033333Y-98280952D01*
X203033333Y-98423809D01*
X202985714Y-98614285D01*
X202938095Y-98709523D01*
X202842857Y-98804761D01*
X202700000Y-98852380D01*
X202461904Y-98852380D01*
X203414285Y-97947619D02*
X203461904Y-97900000D01*
X203557142Y-97852380D01*
X203795238Y-97852380D01*
X203890476Y-97900000D01*
X203938095Y-97947619D01*
X203985714Y-98042857D01*
X203985714Y-98138095D01*
X203938095Y-98280952D01*
X203366666Y-98852380D01*
X203985714Y-98852380D01*
G04 #@! TO.C,Cboot1*
X175973011Y-134532064D02*
X175973011Y-134599408D01*
X175905668Y-134734095D01*
X175838324Y-134801438D01*
X175703637Y-134868782D01*
X175568950Y-134868782D01*
X175467935Y-134835110D01*
X175299576Y-134734095D01*
X175198561Y-134633079D01*
X175097546Y-134464721D01*
X175063874Y-134363705D01*
X175063874Y-134229018D01*
X175131217Y-134094331D01*
X175198561Y-134026988D01*
X175333248Y-133959644D01*
X175400591Y-133959644D01*
X176343400Y-134296362D02*
X175636294Y-133589255D01*
X175905668Y-133858629D02*
X175939339Y-133757614D01*
X176074026Y-133622927D01*
X176175042Y-133589255D01*
X176242385Y-133589255D01*
X176343400Y-133622927D01*
X176545431Y-133824957D01*
X176579103Y-133925973D01*
X176579103Y-133993316D01*
X176545431Y-134094331D01*
X176410744Y-134229018D01*
X176309729Y-134262690D01*
X177084179Y-133555583D02*
X176983164Y-133589255D01*
X176915820Y-133589255D01*
X176814805Y-133555583D01*
X176612774Y-133353553D01*
X176579103Y-133252538D01*
X176579103Y-133185194D01*
X176612774Y-133084179D01*
X176713790Y-132983164D01*
X176814805Y-132949492D01*
X176882148Y-132949492D01*
X176983164Y-132983164D01*
X177185194Y-133185194D01*
X177218866Y-133286209D01*
X177218866Y-133353553D01*
X177185194Y-133454568D01*
X177084179Y-133555583D01*
X177723942Y-132915820D02*
X177622927Y-132949492D01*
X177555583Y-132949492D01*
X177454568Y-132915820D01*
X177252538Y-132713790D01*
X177218866Y-132612774D01*
X177218866Y-132545431D01*
X177252538Y-132444416D01*
X177353553Y-132343400D01*
X177454568Y-132309729D01*
X177521912Y-132309729D01*
X177622927Y-132343400D01*
X177824957Y-132545431D01*
X177858629Y-132646446D01*
X177858629Y-132713790D01*
X177824957Y-132814805D01*
X177723942Y-132915820D01*
X177690270Y-132006683D02*
X177959644Y-131737309D01*
X177555583Y-131669965D02*
X178161675Y-132276057D01*
X178262690Y-132309729D01*
X178363705Y-132276057D01*
X178431049Y-132208713D01*
X179037140Y-131602622D02*
X178633079Y-132006683D01*
X178835110Y-131804652D02*
X178128003Y-131097546D01*
X178161675Y-131265904D01*
X178161675Y-131400591D01*
X178128003Y-131501607D01*
G04 #@! TO.C,Coutx1*
X187357142Y-113761904D02*
X187404761Y-113809523D01*
X187452380Y-113952380D01*
X187452380Y-114047619D01*
X187404761Y-114190476D01*
X187309523Y-114285714D01*
X187214285Y-114333333D01*
X187023809Y-114380952D01*
X186880952Y-114380952D01*
X186690476Y-114333333D01*
X186595238Y-114285714D01*
X186500000Y-114190476D01*
X186452380Y-114047619D01*
X186452380Y-113952380D01*
X186500000Y-113809523D01*
X186547619Y-113761904D01*
X187452380Y-113190476D02*
X187404761Y-113285714D01*
X187357142Y-113333333D01*
X187261904Y-113380952D01*
X186976190Y-113380952D01*
X186880952Y-113333333D01*
X186833333Y-113285714D01*
X186785714Y-113190476D01*
X186785714Y-113047619D01*
X186833333Y-112952380D01*
X186880952Y-112904761D01*
X186976190Y-112857142D01*
X187261904Y-112857142D01*
X187357142Y-112904761D01*
X187404761Y-112952380D01*
X187452380Y-113047619D01*
X187452380Y-113190476D01*
X186785714Y-112000000D02*
X187452380Y-112000000D01*
X186785714Y-112428571D02*
X187309523Y-112428571D01*
X187404761Y-112380952D01*
X187452380Y-112285714D01*
X187452380Y-112142857D01*
X187404761Y-112047619D01*
X187357142Y-112000000D01*
X186785714Y-111666666D02*
X186785714Y-111285714D01*
X186452380Y-111523809D02*
X187309523Y-111523809D01*
X187404761Y-111476190D01*
X187452380Y-111380952D01*
X187452380Y-111285714D01*
X187452380Y-111047619D02*
X186785714Y-110523809D01*
X186785714Y-111047619D02*
X187452380Y-110523809D01*
X187452380Y-109619047D02*
X187452380Y-110190476D01*
X187452380Y-109904761D02*
X186452380Y-109904761D01*
X186595238Y-110000000D01*
X186690476Y-110095238D01*
X186738095Y-110190476D01*
G04 #@! TO.C,Cvcc1*
X173459221Y-134245854D02*
X173459221Y-134313198D01*
X173391877Y-134447885D01*
X173324534Y-134515228D01*
X173189847Y-134582572D01*
X173055160Y-134582572D01*
X172954145Y-134548900D01*
X172785786Y-134447885D01*
X172684771Y-134346870D01*
X172583755Y-134178511D01*
X172550084Y-134077496D01*
X172550084Y-133942809D01*
X172617427Y-133808122D01*
X172684771Y-133740778D01*
X172819458Y-133673435D01*
X172886801Y-133673435D01*
X173290862Y-133606091D02*
X173930625Y-133909137D01*
X173627580Y-133269374D01*
X174637732Y-133134687D02*
X174604061Y-133235702D01*
X174469374Y-133370389D01*
X174368358Y-133404061D01*
X174301015Y-133404061D01*
X174200000Y-133370389D01*
X173997969Y-133168358D01*
X173964297Y-133067343D01*
X173964297Y-132999999D01*
X173997969Y-132898984D01*
X174132656Y-132764297D01*
X174233671Y-132730625D01*
X175243824Y-132528595D02*
X175210152Y-132629610D01*
X175075465Y-132764297D01*
X174974450Y-132797969D01*
X174907106Y-132797969D01*
X174806091Y-132764297D01*
X174604061Y-132562267D01*
X174570389Y-132461251D01*
X174570389Y-132393908D01*
X174604061Y-132292893D01*
X174738748Y-132158206D01*
X174839763Y-132124534D01*
X175950931Y-131888832D02*
X175546870Y-132292893D01*
X175748900Y-132090862D02*
X175041793Y-131383755D01*
X175075465Y-131552114D01*
X175075465Y-131686801D01*
X175041793Y-131787816D01*
G04 #@! TO.C,Cout1*
X190042857Y-119757142D02*
X189995238Y-119804761D01*
X189852380Y-119852380D01*
X189757142Y-119852380D01*
X189614285Y-119804761D01*
X189519047Y-119709523D01*
X189471428Y-119614285D01*
X189423809Y-119423809D01*
X189423809Y-119280952D01*
X189471428Y-119090476D01*
X189519047Y-118995238D01*
X189614285Y-118900000D01*
X189757142Y-118852380D01*
X189852380Y-118852380D01*
X189995238Y-118900000D01*
X190042857Y-118947619D01*
X190614285Y-119852380D02*
X190519047Y-119804761D01*
X190471428Y-119757142D01*
X190423809Y-119661904D01*
X190423809Y-119376190D01*
X190471428Y-119280952D01*
X190519047Y-119233333D01*
X190614285Y-119185714D01*
X190757142Y-119185714D01*
X190852380Y-119233333D01*
X190900000Y-119280952D01*
X190947619Y-119376190D01*
X190947619Y-119661904D01*
X190900000Y-119757142D01*
X190852380Y-119804761D01*
X190757142Y-119852380D01*
X190614285Y-119852380D01*
X191804761Y-119185714D02*
X191804761Y-119852380D01*
X191376190Y-119185714D02*
X191376190Y-119709523D01*
X191423809Y-119804761D01*
X191519047Y-119852380D01*
X191661904Y-119852380D01*
X191757142Y-119804761D01*
X191804761Y-119757142D01*
X192138095Y-119185714D02*
X192519047Y-119185714D01*
X192280952Y-118852380D02*
X192280952Y-119709523D01*
X192328571Y-119804761D01*
X192423809Y-119852380D01*
X192519047Y-119852380D01*
X193376190Y-119852380D02*
X192804761Y-119852380D01*
X193090476Y-119852380D02*
X193090476Y-118852380D01*
X192995238Y-118995238D01*
X192900000Y-119090476D01*
X192804761Y-119138095D01*
G04 #@! TO.C,Rfbb1*
X172873597Y-121842256D02*
X172397407Y-122175590D01*
X172873597Y-122413685D02*
X171873597Y-122413685D01*
X171873597Y-122032733D01*
X171921217Y-121937494D01*
X171968836Y-121889875D01*
X172064074Y-121842256D01*
X172206931Y-121842256D01*
X172302169Y-121889875D01*
X172349788Y-121937494D01*
X172397407Y-122032733D01*
X172397407Y-122413685D01*
X172206931Y-121556542D02*
X172206931Y-121175590D01*
X172873597Y-121413685D02*
X172016455Y-121413685D01*
X171921217Y-121366066D01*
X171873597Y-121270828D01*
X171873597Y-121175590D01*
X172873597Y-120842256D02*
X171873597Y-120842256D01*
X172254550Y-120842256D02*
X172206931Y-120747018D01*
X172206931Y-120556542D01*
X172254550Y-120461304D01*
X172302169Y-120413685D01*
X172397407Y-120366066D01*
X172683121Y-120366066D01*
X172778359Y-120413685D01*
X172825978Y-120461304D01*
X172873597Y-120556542D01*
X172873597Y-120747018D01*
X172825978Y-120842256D01*
X172873597Y-119937494D02*
X171873597Y-119937494D01*
X172254550Y-119937494D02*
X172206931Y-119842256D01*
X172206931Y-119651780D01*
X172254550Y-119556542D01*
X172302169Y-119508923D01*
X172397407Y-119461304D01*
X172683121Y-119461304D01*
X172778359Y-119508923D01*
X172825978Y-119556542D01*
X172873597Y-119651780D01*
X172873597Y-119842256D01*
X172825978Y-119937494D01*
X172873597Y-118508923D02*
X172873597Y-119080352D01*
X172873597Y-118794637D02*
X171873597Y-118794637D01*
X172016455Y-118889875D01*
X172111693Y-118985114D01*
X172159312Y-119080352D01*
G04 #@! TO.C,Rfbt1*
X170678087Y-133961675D02*
X170105668Y-133860660D01*
X170274026Y-134365736D02*
X169566920Y-133658629D01*
X169836294Y-133389255D01*
X169937309Y-133355583D01*
X170004652Y-133355583D01*
X170105668Y-133389255D01*
X170206683Y-133490270D01*
X170240355Y-133591286D01*
X170240355Y-133658629D01*
X170206683Y-133759644D01*
X169937309Y-134029018D01*
X170408713Y-133288240D02*
X170678087Y-133018866D01*
X170981133Y-133658629D02*
X170375042Y-133052538D01*
X170341370Y-132951522D01*
X170375042Y-132850507D01*
X170442385Y-132783164D01*
X171385194Y-133254568D02*
X170678087Y-132547461D01*
X170947461Y-132816835D02*
X170981133Y-132715820D01*
X171115820Y-132581133D01*
X171216835Y-132547461D01*
X171284179Y-132547461D01*
X171385194Y-132581133D01*
X171587225Y-132783164D01*
X171620896Y-132884179D01*
X171620896Y-132951522D01*
X171587225Y-133052538D01*
X171452538Y-133187225D01*
X171351522Y-133220896D01*
X171452538Y-132244416D02*
X171721912Y-131975042D01*
X171317851Y-131907698D02*
X171923942Y-132513790D01*
X172024957Y-132547461D01*
X172125973Y-132513790D01*
X172193316Y-132446446D01*
X172799408Y-131840355D02*
X172395347Y-132244416D01*
X172597377Y-132042385D02*
X171890270Y-131335278D01*
X171923942Y-131503637D01*
X171923942Y-131638324D01*
X171890270Y-131739339D01*
G04 #@! TO.C,L1*
X193854550Y-133737494D02*
X193378359Y-133737494D01*
X193378359Y-132737494D01*
X194711693Y-133737494D02*
X194140264Y-133737494D01*
X194425978Y-133737494D02*
X194425978Y-132737494D01*
X194330740Y-132880352D01*
X194235502Y-132975590D01*
X194140264Y-133023209D01*
G04 #@! TO.C,C1*
X102833333Y-123557142D02*
X102785714Y-123604761D01*
X102642857Y-123652380D01*
X102547619Y-123652380D01*
X102404761Y-123604761D01*
X102309523Y-123509523D01*
X102261904Y-123414285D01*
X102214285Y-123223809D01*
X102214285Y-123080952D01*
X102261904Y-122890476D01*
X102309523Y-122795238D01*
X102404761Y-122700000D01*
X102547619Y-122652380D01*
X102642857Y-122652380D01*
X102785714Y-122700000D01*
X102833333Y-122747619D01*
X103785714Y-123652380D02*
X103214285Y-123652380D01*
X103500000Y-123652380D02*
X103500000Y-122652380D01*
X103404761Y-122795238D01*
X103309523Y-122890476D01*
X103214285Y-122938095D01*
G04 #@! TD*
M02*
