G04 #@! TF.GenerationSoftware,KiCad,Pcbnew,(5.0.1-3-g963ef8bb5)*
G04 #@! TF.CreationDate,2018-12-29T16:31:47+01:00*
G04 #@! TF.ProjectId,c64-psu,6336342D7073752E6B696361645F7063,rev?*
G04 #@! TF.SameCoordinates,Original*
G04 #@! TF.FileFunction,Legend,Bot*
G04 #@! TF.FilePolarity,Positive*
%FSLAX46Y46*%
G04 Gerber Fmt 4.6, Leading zero omitted, Abs format (unit mm)*
G04 Created by KiCad (PCBNEW (5.0.1-3-g963ef8bb5)) date Saturday, 29 December 2018 at 16:31:47*
%MOMM*%
%LPD*%
G01*
G04 APERTURE LIST*
%ADD10C,0.300000*%
%ADD11C,0.150000*%
%ADD12C,0.120000*%
%ADD13C,0.010000*%
G04 APERTURE END LIST*
D10*
X112685714Y-127478571D02*
X112328571Y-128478571D01*
X111971428Y-127478571D01*
X111471428Y-127121428D02*
X111400000Y-127050000D01*
X111257142Y-126978571D01*
X110900000Y-126978571D01*
X110757142Y-127050000D01*
X110685714Y-127121428D01*
X110614285Y-127264285D01*
X110614285Y-127407142D01*
X110685714Y-127621428D01*
X111542857Y-128478571D01*
X110614285Y-128478571D01*
X109685714Y-126978571D02*
X109542857Y-126978571D01*
X109400000Y-127050000D01*
X109328571Y-127121428D01*
X109257142Y-127264285D01*
X109185714Y-127550000D01*
X109185714Y-127907142D01*
X109257142Y-128192857D01*
X109328571Y-128335714D01*
X109400000Y-128407142D01*
X109542857Y-128478571D01*
X109685714Y-128478571D01*
X109828571Y-128407142D01*
X109900000Y-128335714D01*
X109971428Y-128192857D01*
X110042857Y-127907142D01*
X110042857Y-127550000D01*
X109971428Y-127264285D01*
X109900000Y-127121428D01*
X109828571Y-127050000D01*
X109685714Y-126978571D01*
X107757142Y-128478571D02*
X108614285Y-128478571D01*
X108185714Y-128478571D02*
X108185714Y-126978571D01*
X108328571Y-127192857D01*
X108471428Y-127335714D01*
X108614285Y-127407142D01*
X106900000Y-127621428D02*
X107042857Y-127550000D01*
X107114285Y-127478571D01*
X107185714Y-127335714D01*
X107185714Y-127264285D01*
X107114285Y-127121428D01*
X107042857Y-127050000D01*
X106900000Y-126978571D01*
X106614285Y-126978571D01*
X106471428Y-127050000D01*
X106400000Y-127121428D01*
X106328571Y-127264285D01*
X106328571Y-127335714D01*
X106400000Y-127478571D01*
X106471428Y-127550000D01*
X106614285Y-127621428D01*
X106900000Y-127621428D01*
X107042857Y-127692857D01*
X107114285Y-127764285D01*
X107185714Y-127907142D01*
X107185714Y-128192857D01*
X107114285Y-128335714D01*
X107042857Y-128407142D01*
X106900000Y-128478571D01*
X106614285Y-128478571D01*
X106471428Y-128407142D01*
X106400000Y-128335714D01*
X106328571Y-128192857D01*
X106328571Y-127907142D01*
X106400000Y-127764285D01*
X106471428Y-127692857D01*
X106614285Y-127621428D01*
X105685714Y-128335714D02*
X105614285Y-128407142D01*
X105685714Y-128478571D01*
X105757142Y-128407142D01*
X105685714Y-128335714D01*
X105685714Y-128478571D01*
X105042857Y-127121428D02*
X104971428Y-127050000D01*
X104828571Y-126978571D01*
X104471428Y-126978571D01*
X104328571Y-127050000D01*
X104257142Y-127121428D01*
X104185714Y-127264285D01*
X104185714Y-127407142D01*
X104257142Y-127621428D01*
X105114285Y-128478571D01*
X104185714Y-128478571D01*
D11*
X89000000Y-136000000D02*
X89000000Y-62000000D01*
X205000000Y-136000000D02*
X89000000Y-136000000D01*
X205000000Y-62000000D02*
X205000000Y-136000000D01*
X89000000Y-62000000D02*
X205000000Y-62000000D01*
D12*
G04 #@! TO.C,U2*
X173360000Y-114560000D02*
X173360000Y-114410000D01*
X170240000Y-114560000D02*
X170240000Y-114410000D01*
X170240000Y-111440000D02*
X170240000Y-111590000D01*
X170240000Y-114560000D02*
X173360000Y-114560000D01*
X170240000Y-111440000D02*
X173360000Y-111440000D01*
X173360000Y-111440000D02*
X173360000Y-111590000D01*
X170240000Y-114410000D02*
X169980000Y-114410000D01*
G04 #@! TO.C,R5*
X169286252Y-116510000D02*
X168763748Y-116510000D01*
X169286252Y-115090000D02*
X168763748Y-115090000D01*
G04 #@! TO.C,Q1*
X177675000Y-113150000D02*
X177675000Y-112420000D01*
X177970000Y-112420000D02*
X177675000Y-112420000D01*
X177970000Y-109580000D02*
X177970000Y-112420000D01*
X177675000Y-109580000D02*
X177970000Y-109580000D01*
X174430000Y-109580000D02*
X174725000Y-109580000D01*
X174430000Y-112420000D02*
X174430000Y-109580000D01*
X174725000Y-112420000D02*
X174430000Y-112420000D01*
G04 #@! TO.C,Cinx1*
X177213748Y-119390000D02*
X177736252Y-119390000D01*
X177213748Y-120810000D02*
X177736252Y-120810000D01*
G04 #@! TO.C,Cin1*
X177397936Y-116590000D02*
X178602064Y-116590000D01*
X177397936Y-118410000D02*
X178602064Y-118410000D01*
G04 #@! TO.C,Ren1*
X173490000Y-119236252D02*
X173490000Y-118713748D01*
X174910000Y-119236252D02*
X174910000Y-118713748D01*
G04 #@! TO.C,R4*
X168710000Y-112513748D02*
X168710000Y-113036252D01*
X167290000Y-112513748D02*
X167290000Y-113036252D01*
G04 #@! TO.C,R3*
X173461252Y-116535000D02*
X172938748Y-116535000D01*
X173461252Y-115115000D02*
X172938748Y-115115000D01*
G04 #@! TO.C,R2*
X164890000Y-113036252D02*
X164890000Y-112513748D01*
X166310000Y-113036252D02*
X166310000Y-112513748D01*
D13*
G04 #@! TO.C,G\002A\002A\002A*
G36*
X111244667Y-81488333D02*
X107688667Y-81488333D01*
X107688667Y-83351000D01*
X105783667Y-83351000D01*
X105783667Y-87118667D01*
X103921000Y-87118667D01*
X103921000Y-92579667D01*
X105783667Y-92579667D01*
X105783667Y-100115000D01*
X107688667Y-100115000D01*
X107688667Y-103882667D01*
X109551333Y-103882667D01*
X109551333Y-107438667D01*
X111244667Y-107438667D01*
X111244667Y-111206333D01*
X113149667Y-111206333D01*
X113149667Y-116836667D01*
X115012333Y-116836667D01*
X115012333Y-118741667D01*
X120685000Y-118741667D01*
X120685000Y-116836667D01*
X122547667Y-116836667D01*
X122547667Y-111206333D01*
X124452667Y-111206333D01*
X124452667Y-107438667D01*
X126146000Y-107438667D01*
X126146000Y-103882667D01*
X124452667Y-103882667D01*
X124452667Y-107438667D01*
X122547667Y-107438667D01*
X122547667Y-111206333D01*
X118780000Y-111206333D01*
X118780000Y-107438667D01*
X116917333Y-107438667D01*
X116917333Y-111206333D01*
X113149667Y-111206333D01*
X113149667Y-107438667D01*
X111244667Y-107438667D01*
X111244667Y-103882667D01*
X109551333Y-103882667D01*
X109551333Y-100115000D01*
X111244667Y-100115000D01*
X111244667Y-101977667D01*
X113149667Y-101977667D01*
X113149667Y-103882667D01*
X115012333Y-103882667D01*
X115012333Y-107438667D01*
X116917333Y-107438667D01*
X118780000Y-107438667D01*
X120685000Y-107438667D01*
X120685000Y-103882667D01*
X122547667Y-103882667D01*
X122547667Y-101977667D01*
X124452667Y-101977667D01*
X124452667Y-100115000D01*
X126146000Y-100115000D01*
X126146000Y-103882667D01*
X128008667Y-103882667D01*
X128008667Y-100115000D01*
X129913667Y-100115000D01*
X129913667Y-98210000D01*
X128008667Y-98210000D01*
X128008667Y-100115000D01*
X126146000Y-100115000D01*
X126146000Y-98210000D01*
X109551333Y-98210000D01*
X109551333Y-100115000D01*
X107688667Y-100115000D01*
X107688667Y-98210000D01*
X109551333Y-98210000D01*
X126146000Y-98210000D01*
X128008667Y-98210000D01*
X129913667Y-98210000D01*
X129913667Y-92579667D01*
X131776333Y-92579667D01*
X131776333Y-87118667D01*
X129913667Y-87118667D01*
X122547667Y-87118667D01*
X122547667Y-92579667D01*
X120685000Y-92579667D01*
X120685000Y-94442333D01*
X116917333Y-94442333D01*
X116917333Y-92579667D01*
X120685000Y-92579667D01*
X120685000Y-90886333D01*
X116917333Y-90886333D01*
X116917333Y-92579667D01*
X113149667Y-92579667D01*
X113149667Y-90886333D01*
X116917333Y-90886333D01*
X120685000Y-90886333D01*
X120685000Y-87118667D01*
X122547667Y-87118667D01*
X129913667Y-87118667D01*
X129913667Y-85213667D01*
X120685000Y-85213667D01*
X120685000Y-87118667D01*
X116917333Y-87118667D01*
X116917333Y-88981333D01*
X113149667Y-88981333D01*
X113149667Y-87118667D01*
X116917333Y-87118667D01*
X116917333Y-85213667D01*
X120685000Y-85213667D01*
X129913667Y-85213667D01*
X129913667Y-83351000D01*
X128008667Y-83351000D01*
X128008667Y-81488333D01*
X124452667Y-81488333D01*
X124452667Y-79583333D01*
X111244667Y-79583333D01*
X111244667Y-81488333D01*
X111244667Y-81488333D01*
G37*
X111244667Y-81488333D02*
X107688667Y-81488333D01*
X107688667Y-83351000D01*
X105783667Y-83351000D01*
X105783667Y-87118667D01*
X103921000Y-87118667D01*
X103921000Y-92579667D01*
X105783667Y-92579667D01*
X105783667Y-100115000D01*
X107688667Y-100115000D01*
X107688667Y-103882667D01*
X109551333Y-103882667D01*
X109551333Y-107438667D01*
X111244667Y-107438667D01*
X111244667Y-111206333D01*
X113149667Y-111206333D01*
X113149667Y-116836667D01*
X115012333Y-116836667D01*
X115012333Y-118741667D01*
X120685000Y-118741667D01*
X120685000Y-116836667D01*
X122547667Y-116836667D01*
X122547667Y-111206333D01*
X124452667Y-111206333D01*
X124452667Y-107438667D01*
X126146000Y-107438667D01*
X126146000Y-103882667D01*
X124452667Y-103882667D01*
X124452667Y-107438667D01*
X122547667Y-107438667D01*
X122547667Y-111206333D01*
X118780000Y-111206333D01*
X118780000Y-107438667D01*
X116917333Y-107438667D01*
X116917333Y-111206333D01*
X113149667Y-111206333D01*
X113149667Y-107438667D01*
X111244667Y-107438667D01*
X111244667Y-103882667D01*
X109551333Y-103882667D01*
X109551333Y-100115000D01*
X111244667Y-100115000D01*
X111244667Y-101977667D01*
X113149667Y-101977667D01*
X113149667Y-103882667D01*
X115012333Y-103882667D01*
X115012333Y-107438667D01*
X116917333Y-107438667D01*
X118780000Y-107438667D01*
X120685000Y-107438667D01*
X120685000Y-103882667D01*
X122547667Y-103882667D01*
X122547667Y-101977667D01*
X124452667Y-101977667D01*
X124452667Y-100115000D01*
X126146000Y-100115000D01*
X126146000Y-103882667D01*
X128008667Y-103882667D01*
X128008667Y-100115000D01*
X129913667Y-100115000D01*
X129913667Y-98210000D01*
X128008667Y-98210000D01*
X128008667Y-100115000D01*
X126146000Y-100115000D01*
X126146000Y-98210000D01*
X109551333Y-98210000D01*
X109551333Y-100115000D01*
X107688667Y-100115000D01*
X107688667Y-98210000D01*
X109551333Y-98210000D01*
X126146000Y-98210000D01*
X128008667Y-98210000D01*
X129913667Y-98210000D01*
X129913667Y-92579667D01*
X131776333Y-92579667D01*
X131776333Y-87118667D01*
X129913667Y-87118667D01*
X122547667Y-87118667D01*
X122547667Y-92579667D01*
X120685000Y-92579667D01*
X120685000Y-94442333D01*
X116917333Y-94442333D01*
X116917333Y-92579667D01*
X120685000Y-92579667D01*
X120685000Y-90886333D01*
X116917333Y-90886333D01*
X116917333Y-92579667D01*
X113149667Y-92579667D01*
X113149667Y-90886333D01*
X116917333Y-90886333D01*
X120685000Y-90886333D01*
X120685000Y-87118667D01*
X122547667Y-87118667D01*
X129913667Y-87118667D01*
X129913667Y-85213667D01*
X120685000Y-85213667D01*
X120685000Y-87118667D01*
X116917333Y-87118667D01*
X116917333Y-88981333D01*
X113149667Y-88981333D01*
X113149667Y-87118667D01*
X116917333Y-87118667D01*
X116917333Y-85213667D01*
X120685000Y-85213667D01*
X129913667Y-85213667D01*
X129913667Y-83351000D01*
X128008667Y-83351000D01*
X128008667Y-81488333D01*
X124452667Y-81488333D01*
X124452667Y-79583333D01*
X111244667Y-79583333D01*
X111244667Y-81488333D01*
G36*
X125976667Y-123864000D02*
X126654000Y-123864000D01*
X126654000Y-123525333D01*
X125976667Y-123525333D01*
X125976667Y-123864000D01*
X125976667Y-123864000D01*
G37*
X125976667Y-123864000D02*
X126654000Y-123864000D01*
X126654000Y-123525333D01*
X125976667Y-123525333D01*
X125976667Y-123864000D01*
G36*
X137830000Y-123864000D02*
X138507333Y-123864000D01*
X138507333Y-123525333D01*
X137830000Y-123525333D01*
X137830000Y-123864000D01*
X137830000Y-123864000D01*
G37*
X137830000Y-123864000D02*
X138507333Y-123864000D01*
X138507333Y-123525333D01*
X137830000Y-123525333D01*
X137830000Y-123864000D01*
G36*
X160520667Y-123864000D02*
X161198000Y-123864000D01*
X161198000Y-123525333D01*
X160520667Y-123525333D01*
X160520667Y-123864000D01*
X160520667Y-123864000D01*
G37*
X160520667Y-123864000D02*
X161198000Y-123864000D01*
X161198000Y-123525333D01*
X160520667Y-123525333D01*
X160520667Y-123864000D01*
G36*
X111414000Y-124541333D02*
X113446000Y-124541333D01*
X113446000Y-124202667D01*
X111414000Y-124202667D01*
X111414000Y-124541333D01*
X111414000Y-124541333D01*
G37*
X111414000Y-124541333D02*
X113446000Y-124541333D01*
X113446000Y-124202667D01*
X111414000Y-124202667D01*
X111414000Y-124541333D01*
G36*
X105656667Y-125218667D02*
X104979333Y-125218667D01*
X104979333Y-123864000D01*
X104302000Y-123864000D01*
X104302000Y-125557333D01*
X105995333Y-125557333D01*
X105995333Y-125218667D01*
X106334000Y-125218667D01*
X106334000Y-123864000D01*
X105656667Y-123864000D01*
X105656667Y-125218667D01*
X105656667Y-125218667D01*
G37*
X105656667Y-125218667D02*
X104979333Y-125218667D01*
X104979333Y-123864000D01*
X104302000Y-123864000D01*
X104302000Y-125557333D01*
X105995333Y-125557333D01*
X105995333Y-125218667D01*
X106334000Y-125218667D01*
X106334000Y-123864000D01*
X105656667Y-123864000D01*
X105656667Y-125218667D01*
G36*
X106672667Y-124202667D02*
X108027333Y-124202667D01*
X108027333Y-124541333D01*
X107011333Y-124541333D01*
X107011333Y-124880000D01*
X106672667Y-124880000D01*
X106672667Y-125218667D01*
X107011333Y-125218667D01*
X107011333Y-125557333D01*
X108704667Y-125557333D01*
X108704667Y-125218667D01*
X107350000Y-125218667D01*
X107350000Y-124880000D01*
X108366000Y-124880000D01*
X108366000Y-124541333D01*
X108704667Y-124541333D01*
X108704667Y-124202667D01*
X108366000Y-124202667D01*
X108366000Y-123864000D01*
X106672667Y-123864000D01*
X106672667Y-124202667D01*
X106672667Y-124202667D01*
G37*
X106672667Y-124202667D02*
X108027333Y-124202667D01*
X108027333Y-124541333D01*
X107011333Y-124541333D01*
X107011333Y-124880000D01*
X106672667Y-124880000D01*
X106672667Y-125218667D01*
X107011333Y-125218667D01*
X107011333Y-125557333D01*
X108704667Y-125557333D01*
X108704667Y-125218667D01*
X107350000Y-125218667D01*
X107350000Y-124880000D01*
X108366000Y-124880000D01*
X108366000Y-124541333D01*
X108704667Y-124541333D01*
X108704667Y-124202667D01*
X108366000Y-124202667D01*
X108366000Y-123864000D01*
X106672667Y-123864000D01*
X106672667Y-124202667D01*
G36*
X114123333Y-124541333D02*
X113784667Y-124541333D01*
X113784667Y-124880000D01*
X114123333Y-124880000D01*
X114123333Y-125557333D01*
X114800667Y-125557333D01*
X114800667Y-124880000D01*
X116155333Y-124880000D01*
X116155333Y-124202667D01*
X115478000Y-124202667D01*
X115478000Y-124541333D01*
X114800667Y-124541333D01*
X114800667Y-124202667D01*
X115478000Y-124202667D01*
X115478000Y-123864000D01*
X115139333Y-123864000D01*
X115139333Y-123525333D01*
X114800667Y-123525333D01*
X114800667Y-123186667D01*
X114123333Y-123186667D01*
X114123333Y-124541333D01*
X114123333Y-124541333D01*
G37*
X114123333Y-124541333D02*
X113784667Y-124541333D01*
X113784667Y-124880000D01*
X114123333Y-124880000D01*
X114123333Y-125557333D01*
X114800667Y-125557333D01*
X114800667Y-124880000D01*
X116155333Y-124880000D01*
X116155333Y-124202667D01*
X115478000Y-124202667D01*
X115478000Y-124541333D01*
X114800667Y-124541333D01*
X114800667Y-124202667D01*
X115478000Y-124202667D01*
X115478000Y-123864000D01*
X115139333Y-123864000D01*
X115139333Y-123525333D01*
X114800667Y-123525333D01*
X114800667Y-123186667D01*
X114123333Y-123186667D01*
X114123333Y-124541333D01*
G36*
X116832667Y-123525333D02*
X116494000Y-123525333D01*
X116494000Y-123864000D01*
X117171333Y-123864000D01*
X117171333Y-123525333D01*
X117848667Y-123525333D01*
X117848667Y-124202667D01*
X116832667Y-124202667D01*
X116832667Y-124541333D01*
X116494000Y-124541333D01*
X116494000Y-125218667D01*
X116832667Y-125218667D01*
X116832667Y-125557333D01*
X118187333Y-125557333D01*
X118187333Y-125218667D01*
X118526000Y-125218667D01*
X118526000Y-124541333D01*
X117848667Y-124541333D01*
X117848667Y-125218667D01*
X117171333Y-125218667D01*
X117171333Y-124541333D01*
X117848667Y-124541333D01*
X118526000Y-124541333D01*
X118526000Y-123525333D01*
X118187333Y-123525333D01*
X118187333Y-123186667D01*
X116832667Y-123186667D01*
X116832667Y-123525333D01*
X116832667Y-123525333D01*
G37*
X116832667Y-123525333D02*
X116494000Y-123525333D01*
X116494000Y-123864000D01*
X117171333Y-123864000D01*
X117171333Y-123525333D01*
X117848667Y-123525333D01*
X117848667Y-124202667D01*
X116832667Y-124202667D01*
X116832667Y-124541333D01*
X116494000Y-124541333D01*
X116494000Y-125218667D01*
X116832667Y-125218667D01*
X116832667Y-125557333D01*
X118187333Y-125557333D01*
X118187333Y-125218667D01*
X118526000Y-125218667D01*
X118526000Y-124541333D01*
X117848667Y-124541333D01*
X117848667Y-125218667D01*
X117171333Y-125218667D01*
X117171333Y-124541333D01*
X117848667Y-124541333D01*
X118526000Y-124541333D01*
X118526000Y-123525333D01*
X118187333Y-123525333D01*
X118187333Y-123186667D01*
X116832667Y-123186667D01*
X116832667Y-123525333D01*
G36*
X118864667Y-124202667D02*
X119880667Y-124202667D01*
X119880667Y-125218667D01*
X118864667Y-125218667D01*
X118864667Y-125557333D01*
X120219333Y-125557333D01*
X120219333Y-125218667D01*
X120558000Y-125218667D01*
X120558000Y-124202667D01*
X120219333Y-124202667D01*
X120219333Y-123864000D01*
X118864667Y-123864000D01*
X118864667Y-124202667D01*
X118864667Y-124202667D01*
G37*
X118864667Y-124202667D02*
X119880667Y-124202667D01*
X119880667Y-125218667D01*
X118864667Y-125218667D01*
X118864667Y-125557333D01*
X120219333Y-125557333D01*
X120219333Y-125218667D01*
X120558000Y-125218667D01*
X120558000Y-124202667D01*
X120219333Y-124202667D01*
X120219333Y-123864000D01*
X118864667Y-123864000D01*
X118864667Y-124202667D01*
G36*
X120896667Y-123864000D02*
X121235333Y-123864000D01*
X121235333Y-124202667D01*
X121574000Y-124202667D01*
X121574000Y-124541333D01*
X121912667Y-124541333D01*
X121912667Y-124880000D01*
X122251333Y-124880000D01*
X122251333Y-125218667D01*
X122590000Y-125218667D01*
X122590000Y-125557333D01*
X123267333Y-125557333D01*
X123267333Y-125218667D01*
X122928667Y-125218667D01*
X122928667Y-124880000D01*
X122590000Y-124880000D01*
X122590000Y-124541333D01*
X122251333Y-124541333D01*
X122251333Y-124202667D01*
X121912667Y-124202667D01*
X121912667Y-123864000D01*
X121574000Y-123864000D01*
X121574000Y-123525333D01*
X120896667Y-123525333D01*
X120896667Y-123864000D01*
X120896667Y-123864000D01*
G37*
X120896667Y-123864000D02*
X121235333Y-123864000D01*
X121235333Y-124202667D01*
X121574000Y-124202667D01*
X121574000Y-124541333D01*
X121912667Y-124541333D01*
X121912667Y-124880000D01*
X122251333Y-124880000D01*
X122251333Y-125218667D01*
X122590000Y-125218667D01*
X122590000Y-125557333D01*
X123267333Y-125557333D01*
X123267333Y-125218667D01*
X122928667Y-125218667D01*
X122928667Y-124880000D01*
X122590000Y-124880000D01*
X122590000Y-124541333D01*
X122251333Y-124541333D01*
X122251333Y-124202667D01*
X121912667Y-124202667D01*
X121912667Y-123864000D01*
X121574000Y-123864000D01*
X121574000Y-123525333D01*
X120896667Y-123525333D01*
X120896667Y-123864000D01*
G36*
X124960667Y-125218667D02*
X124283333Y-125218667D01*
X124283333Y-123864000D01*
X123606000Y-123864000D01*
X123606000Y-125557333D01*
X125299333Y-125557333D01*
X125299333Y-125218667D01*
X125638000Y-125218667D01*
X125638000Y-123864000D01*
X124960667Y-123864000D01*
X124960667Y-125218667D01*
X124960667Y-125218667D01*
G37*
X124960667Y-125218667D02*
X124283333Y-125218667D01*
X124283333Y-123864000D01*
X123606000Y-123864000D01*
X123606000Y-125557333D01*
X125299333Y-125557333D01*
X125299333Y-125218667D01*
X125638000Y-125218667D01*
X125638000Y-123864000D01*
X124960667Y-123864000D01*
X124960667Y-125218667D01*
G36*
X128347333Y-124202667D02*
X128008667Y-124202667D01*
X128008667Y-124541333D01*
X128686000Y-124541333D01*
X128686000Y-124202667D01*
X129363333Y-124202667D01*
X129363333Y-125557333D01*
X130040667Y-125557333D01*
X130040667Y-123864000D01*
X128347333Y-123864000D01*
X128347333Y-124202667D01*
X128347333Y-124202667D01*
G37*
X128347333Y-124202667D02*
X128008667Y-124202667D01*
X128008667Y-124541333D01*
X128686000Y-124541333D01*
X128686000Y-124202667D01*
X129363333Y-124202667D01*
X129363333Y-125557333D01*
X130040667Y-125557333D01*
X130040667Y-123864000D01*
X128347333Y-123864000D01*
X128347333Y-124202667D01*
G36*
X130718000Y-124202667D02*
X130379333Y-124202667D01*
X130379333Y-125557333D01*
X132072667Y-125557333D01*
X132072667Y-125218667D01*
X132411333Y-125218667D01*
X132411333Y-124880000D01*
X132072667Y-124880000D01*
X131734000Y-124880000D01*
X131734000Y-125218667D01*
X131056667Y-125218667D01*
X131056667Y-124880000D01*
X131734000Y-124880000D01*
X132072667Y-124880000D01*
X132072667Y-124541333D01*
X131056667Y-124541333D01*
X131056667Y-124202667D01*
X132072667Y-124202667D01*
X132072667Y-123864000D01*
X130718000Y-123864000D01*
X130718000Y-124202667D01*
X130718000Y-124202667D01*
G37*
X130718000Y-124202667D02*
X130379333Y-124202667D01*
X130379333Y-125557333D01*
X132072667Y-125557333D01*
X132072667Y-125218667D01*
X132411333Y-125218667D01*
X132411333Y-124880000D01*
X132072667Y-124880000D01*
X131734000Y-124880000D01*
X131734000Y-125218667D01*
X131056667Y-125218667D01*
X131056667Y-124880000D01*
X131734000Y-124880000D01*
X132072667Y-124880000D01*
X132072667Y-124541333D01*
X131056667Y-124541333D01*
X131056667Y-124202667D01*
X132072667Y-124202667D01*
X132072667Y-123864000D01*
X130718000Y-123864000D01*
X130718000Y-124202667D01*
G36*
X134443333Y-124202667D02*
X133766000Y-124202667D01*
X133766000Y-123864000D01*
X133088667Y-123864000D01*
X133088667Y-124202667D01*
X132750000Y-124202667D01*
X132750000Y-125557333D01*
X133427333Y-125557333D01*
X133427333Y-124880000D01*
X133766000Y-124880000D01*
X133766000Y-125218667D01*
X134104667Y-125218667D01*
X134104667Y-124880000D01*
X134443333Y-124880000D01*
X134443333Y-125557333D01*
X135120667Y-125557333D01*
X135120667Y-123864000D01*
X134443333Y-123864000D01*
X134443333Y-124202667D01*
X134443333Y-124202667D01*
G37*
X134443333Y-124202667D02*
X133766000Y-124202667D01*
X133766000Y-123864000D01*
X133088667Y-123864000D01*
X133088667Y-124202667D01*
X132750000Y-124202667D01*
X132750000Y-125557333D01*
X133427333Y-125557333D01*
X133427333Y-124880000D01*
X133766000Y-124880000D01*
X133766000Y-125218667D01*
X134104667Y-125218667D01*
X134104667Y-124880000D01*
X134443333Y-124880000D01*
X134443333Y-125557333D01*
X135120667Y-125557333D01*
X135120667Y-123864000D01*
X134443333Y-123864000D01*
X134443333Y-124202667D01*
G36*
X135798000Y-124202667D02*
X135459333Y-124202667D01*
X135459333Y-125557333D01*
X137152667Y-125557333D01*
X137152667Y-125218667D01*
X137491333Y-125218667D01*
X137491333Y-124880000D01*
X137152667Y-124880000D01*
X136814000Y-124880000D01*
X136814000Y-125218667D01*
X136136667Y-125218667D01*
X136136667Y-124880000D01*
X136814000Y-124880000D01*
X137152667Y-124880000D01*
X137152667Y-124541333D01*
X136136667Y-124541333D01*
X136136667Y-124202667D01*
X137152667Y-124202667D01*
X137152667Y-123864000D01*
X135798000Y-123864000D01*
X135798000Y-124202667D01*
X135798000Y-124202667D01*
G37*
X135798000Y-124202667D02*
X135459333Y-124202667D01*
X135459333Y-125557333D01*
X137152667Y-125557333D01*
X137152667Y-125218667D01*
X137491333Y-125218667D01*
X137491333Y-124880000D01*
X137152667Y-124880000D01*
X136814000Y-124880000D01*
X136814000Y-125218667D01*
X136136667Y-125218667D01*
X136136667Y-124880000D01*
X136814000Y-124880000D01*
X137152667Y-124880000D01*
X137152667Y-124541333D01*
X136136667Y-124541333D01*
X136136667Y-124202667D01*
X137152667Y-124202667D01*
X137152667Y-123864000D01*
X135798000Y-123864000D01*
X135798000Y-124202667D01*
G36*
X139862000Y-123864000D02*
X140200667Y-123864000D01*
X140200667Y-124202667D01*
X140539333Y-124202667D01*
X140539333Y-124541333D01*
X140878000Y-124541333D01*
X140878000Y-124880000D01*
X141216667Y-124880000D01*
X141216667Y-125218667D01*
X141555333Y-125218667D01*
X141555333Y-125557333D01*
X142232667Y-125557333D01*
X142232667Y-125218667D01*
X141894000Y-125218667D01*
X141894000Y-124880000D01*
X141555333Y-124880000D01*
X141555333Y-124541333D01*
X141216667Y-124541333D01*
X141216667Y-124202667D01*
X140878000Y-124202667D01*
X140878000Y-123864000D01*
X140539333Y-123864000D01*
X140539333Y-123525333D01*
X139862000Y-123525333D01*
X139862000Y-123864000D01*
X139862000Y-123864000D01*
G37*
X139862000Y-123864000D02*
X140200667Y-123864000D01*
X140200667Y-124202667D01*
X140539333Y-124202667D01*
X140539333Y-124541333D01*
X140878000Y-124541333D01*
X140878000Y-124880000D01*
X141216667Y-124880000D01*
X141216667Y-125218667D01*
X141555333Y-125218667D01*
X141555333Y-125557333D01*
X142232667Y-125557333D01*
X142232667Y-125218667D01*
X141894000Y-125218667D01*
X141894000Y-124880000D01*
X141555333Y-124880000D01*
X141555333Y-124541333D01*
X141216667Y-124541333D01*
X141216667Y-124202667D01*
X140878000Y-124202667D01*
X140878000Y-123864000D01*
X140539333Y-123864000D01*
X140539333Y-123525333D01*
X139862000Y-123525333D01*
X139862000Y-123864000D01*
G36*
X144264667Y-124202667D02*
X143587333Y-124202667D01*
X143587333Y-123864000D01*
X142910000Y-123864000D01*
X142910000Y-124202667D01*
X142571333Y-124202667D01*
X142571333Y-125557333D01*
X143248667Y-125557333D01*
X143248667Y-124880000D01*
X143587333Y-124880000D01*
X143587333Y-125218667D01*
X143926000Y-125218667D01*
X143926000Y-124880000D01*
X144264667Y-124880000D01*
X144264667Y-125557333D01*
X144942000Y-125557333D01*
X144942000Y-123864000D01*
X144264667Y-123864000D01*
X144264667Y-124202667D01*
X144264667Y-124202667D01*
G37*
X144264667Y-124202667D02*
X143587333Y-124202667D01*
X143587333Y-123864000D01*
X142910000Y-123864000D01*
X142910000Y-124202667D01*
X142571333Y-124202667D01*
X142571333Y-125557333D01*
X143248667Y-125557333D01*
X143248667Y-124880000D01*
X143587333Y-124880000D01*
X143587333Y-125218667D01*
X143926000Y-125218667D01*
X143926000Y-124880000D01*
X144264667Y-124880000D01*
X144264667Y-125557333D01*
X144942000Y-125557333D01*
X144942000Y-123864000D01*
X144264667Y-123864000D01*
X144264667Y-124202667D01*
G36*
X145619333Y-124202667D02*
X145280667Y-124202667D01*
X145280667Y-125218667D01*
X145619333Y-125218667D01*
X145619333Y-125557333D01*
X146974000Y-125557333D01*
X146974000Y-125218667D01*
X147312667Y-125218667D01*
X147312667Y-124202667D01*
X146974000Y-124202667D01*
X146635333Y-124202667D01*
X146635333Y-125218667D01*
X145958000Y-125218667D01*
X145958000Y-124202667D01*
X146635333Y-124202667D01*
X146974000Y-124202667D01*
X146974000Y-123864000D01*
X145619333Y-123864000D01*
X145619333Y-124202667D01*
X145619333Y-124202667D01*
G37*
X145619333Y-124202667D02*
X145280667Y-124202667D01*
X145280667Y-125218667D01*
X145619333Y-125218667D01*
X145619333Y-125557333D01*
X146974000Y-125557333D01*
X146974000Y-125218667D01*
X147312667Y-125218667D01*
X147312667Y-124202667D01*
X146974000Y-124202667D01*
X146635333Y-124202667D01*
X146635333Y-125218667D01*
X145958000Y-125218667D01*
X145958000Y-124202667D01*
X146635333Y-124202667D01*
X146974000Y-124202667D01*
X146974000Y-123864000D01*
X145619333Y-123864000D01*
X145619333Y-124202667D01*
G36*
X147651333Y-124202667D02*
X148667333Y-124202667D01*
X148667333Y-125218667D01*
X147651333Y-125218667D01*
X147651333Y-125557333D01*
X149006000Y-125557333D01*
X149006000Y-125218667D01*
X149344667Y-125218667D01*
X149344667Y-124202667D01*
X149006000Y-124202667D01*
X149006000Y-123864000D01*
X147651333Y-123864000D01*
X147651333Y-124202667D01*
X147651333Y-124202667D01*
G37*
X147651333Y-124202667D02*
X148667333Y-124202667D01*
X148667333Y-125218667D01*
X147651333Y-125218667D01*
X147651333Y-125557333D01*
X149006000Y-125557333D01*
X149006000Y-125218667D01*
X149344667Y-125218667D01*
X149344667Y-124202667D01*
X149006000Y-124202667D01*
X149006000Y-123864000D01*
X147651333Y-123864000D01*
X147651333Y-124202667D01*
G36*
X149683333Y-125557333D02*
X150360667Y-125557333D01*
X150360667Y-124880000D01*
X149683333Y-124880000D01*
X149683333Y-125557333D01*
X149683333Y-125557333D01*
G37*
X149683333Y-125557333D02*
X150360667Y-125557333D01*
X150360667Y-124880000D01*
X149683333Y-124880000D01*
X149683333Y-125557333D01*
G36*
X152054000Y-124202667D02*
X151038000Y-124202667D01*
X151038000Y-124541333D01*
X150699333Y-124541333D01*
X150699333Y-125218667D01*
X151038000Y-125218667D01*
X151038000Y-125557333D01*
X152731333Y-125557333D01*
X152731333Y-124541333D01*
X152054000Y-124541333D01*
X152054000Y-125218667D01*
X151376667Y-125218667D01*
X151376667Y-124541333D01*
X152054000Y-124541333D01*
X152731333Y-124541333D01*
X152731333Y-123525333D01*
X152054000Y-123525333D01*
X152054000Y-124202667D01*
X152054000Y-124202667D01*
G37*
X152054000Y-124202667D02*
X151038000Y-124202667D01*
X151038000Y-124541333D01*
X150699333Y-124541333D01*
X150699333Y-125218667D01*
X151038000Y-125218667D01*
X151038000Y-125557333D01*
X152731333Y-125557333D01*
X152731333Y-124541333D01*
X152054000Y-124541333D01*
X152054000Y-125218667D01*
X151376667Y-125218667D01*
X151376667Y-124541333D01*
X152054000Y-124541333D01*
X152731333Y-124541333D01*
X152731333Y-123525333D01*
X152054000Y-123525333D01*
X152054000Y-124202667D01*
G36*
X154424667Y-125218667D02*
X153747333Y-125218667D01*
X153747333Y-123864000D01*
X153070000Y-123864000D01*
X153070000Y-125557333D01*
X154763333Y-125557333D01*
X154763333Y-125218667D01*
X155102000Y-125218667D01*
X155102000Y-123864000D01*
X154424667Y-123864000D01*
X154424667Y-125218667D01*
X154424667Y-125218667D01*
G37*
X154424667Y-125218667D02*
X153747333Y-125218667D01*
X153747333Y-123864000D01*
X153070000Y-123864000D01*
X153070000Y-125557333D01*
X154763333Y-125557333D01*
X154763333Y-125218667D01*
X155102000Y-125218667D01*
X155102000Y-123864000D01*
X154424667Y-123864000D01*
X154424667Y-125218667D01*
G36*
X156795333Y-124202667D02*
X155779333Y-124202667D01*
X155779333Y-124541333D01*
X155440667Y-124541333D01*
X155440667Y-125557333D01*
X156118000Y-125557333D01*
X156118000Y-124541333D01*
X156795333Y-124541333D01*
X156795333Y-125557333D01*
X157472667Y-125557333D01*
X157472667Y-123525333D01*
X156795333Y-123525333D01*
X156795333Y-124202667D01*
X156795333Y-124202667D01*
G37*
X156795333Y-124202667D02*
X155779333Y-124202667D01*
X155779333Y-124541333D01*
X155440667Y-124541333D01*
X155440667Y-125557333D01*
X156118000Y-125557333D01*
X156118000Y-124541333D01*
X156795333Y-124541333D01*
X156795333Y-125557333D01*
X157472667Y-125557333D01*
X157472667Y-123525333D01*
X156795333Y-123525333D01*
X156795333Y-124202667D01*
G36*
X158488667Y-123864000D02*
X157811333Y-123864000D01*
X157811333Y-124202667D01*
X158488667Y-124202667D01*
X158488667Y-125218667D01*
X157811333Y-125218667D01*
X157811333Y-125557333D01*
X158827333Y-125557333D01*
X158827333Y-125218667D01*
X159166000Y-125218667D01*
X159166000Y-124202667D01*
X159843333Y-124202667D01*
X159843333Y-123864000D01*
X159166000Y-123864000D01*
X159166000Y-123525333D01*
X158488667Y-123525333D01*
X158488667Y-123864000D01*
X158488667Y-123864000D01*
G37*
X158488667Y-123864000D02*
X157811333Y-123864000D01*
X157811333Y-124202667D01*
X158488667Y-124202667D01*
X158488667Y-125218667D01*
X157811333Y-125218667D01*
X157811333Y-125557333D01*
X158827333Y-125557333D01*
X158827333Y-125218667D01*
X159166000Y-125218667D01*
X159166000Y-124202667D01*
X159843333Y-124202667D01*
X159843333Y-123864000D01*
X159166000Y-123864000D01*
X159166000Y-123525333D01*
X158488667Y-123525333D01*
X158488667Y-123864000D01*
G36*
X160520667Y-125218667D02*
X160182000Y-125218667D01*
X160182000Y-125557333D01*
X161536667Y-125557333D01*
X161536667Y-125218667D01*
X161198000Y-125218667D01*
X161198000Y-124541333D01*
X161536667Y-124541333D01*
X161536667Y-124202667D01*
X160520667Y-124202667D01*
X160520667Y-125218667D01*
X160520667Y-125218667D01*
G37*
X160520667Y-125218667D02*
X160182000Y-125218667D01*
X160182000Y-125557333D01*
X161536667Y-125557333D01*
X161536667Y-125218667D01*
X161198000Y-125218667D01*
X161198000Y-124541333D01*
X161536667Y-124541333D01*
X161536667Y-124202667D01*
X160520667Y-124202667D01*
X160520667Y-125218667D01*
G36*
X109382000Y-124202667D02*
X109043333Y-124202667D01*
X109043333Y-124880000D01*
X109382000Y-124880000D01*
X109382000Y-125218667D01*
X110398000Y-125218667D01*
X110398000Y-125896000D01*
X111075333Y-125896000D01*
X111075333Y-124202667D01*
X110398000Y-124202667D01*
X110398000Y-124880000D01*
X109720667Y-124880000D01*
X109720667Y-124202667D01*
X110398000Y-124202667D01*
X111075333Y-124202667D01*
X111075333Y-123864000D01*
X109382000Y-123864000D01*
X109382000Y-124202667D01*
X109382000Y-124202667D01*
G37*
X109382000Y-124202667D02*
X109043333Y-124202667D01*
X109043333Y-124880000D01*
X109382000Y-124880000D01*
X109382000Y-125218667D01*
X110398000Y-125218667D01*
X110398000Y-125896000D01*
X111075333Y-125896000D01*
X111075333Y-124202667D01*
X110398000Y-124202667D01*
X110398000Y-124880000D01*
X109720667Y-124880000D01*
X109720667Y-124202667D01*
X110398000Y-124202667D01*
X111075333Y-124202667D01*
X111075333Y-123864000D01*
X109382000Y-123864000D01*
X109382000Y-124202667D01*
G36*
X125976667Y-125557333D02*
X126315333Y-125557333D01*
X126315333Y-125896000D01*
X127670000Y-125896000D01*
X127670000Y-125557333D01*
X126654000Y-125557333D01*
X126654000Y-124202667D01*
X125976667Y-124202667D01*
X125976667Y-125557333D01*
X125976667Y-125557333D01*
G37*
X125976667Y-125557333D02*
X126315333Y-125557333D01*
X126315333Y-125896000D01*
X127670000Y-125896000D01*
X127670000Y-125557333D01*
X126654000Y-125557333D01*
X126654000Y-124202667D01*
X125976667Y-124202667D01*
X125976667Y-125557333D01*
G36*
X137830000Y-125557333D02*
X138168667Y-125557333D01*
X138168667Y-125896000D01*
X139523333Y-125896000D01*
X139523333Y-125557333D01*
X138507333Y-125557333D01*
X138507333Y-124202667D01*
X137830000Y-124202667D01*
X137830000Y-125557333D01*
X137830000Y-125557333D01*
G37*
X137830000Y-125557333D02*
X138168667Y-125557333D01*
X138168667Y-125896000D01*
X139523333Y-125896000D01*
X139523333Y-125557333D01*
X138507333Y-125557333D01*
X138507333Y-124202667D01*
X137830000Y-124202667D01*
X137830000Y-125557333D01*
G36*
X161875333Y-125557333D02*
X162214000Y-125557333D01*
X162214000Y-125896000D01*
X163907333Y-125896000D01*
X163907333Y-125557333D01*
X162552667Y-125557333D01*
X162552667Y-125218667D01*
X163568667Y-125218667D01*
X163568667Y-124880000D01*
X163907333Y-124880000D01*
X163907333Y-124202667D01*
X163568667Y-124202667D01*
X163230000Y-124202667D01*
X163230000Y-124880000D01*
X162552667Y-124880000D01*
X162552667Y-124202667D01*
X163230000Y-124202667D01*
X163568667Y-124202667D01*
X163568667Y-123864000D01*
X161875333Y-123864000D01*
X161875333Y-125557333D01*
X161875333Y-125557333D01*
G37*
X161875333Y-125557333D02*
X162214000Y-125557333D01*
X162214000Y-125896000D01*
X163907333Y-125896000D01*
X163907333Y-125557333D01*
X162552667Y-125557333D01*
X162552667Y-125218667D01*
X163568667Y-125218667D01*
X163568667Y-124880000D01*
X163907333Y-124880000D01*
X163907333Y-124202667D01*
X163568667Y-124202667D01*
X163230000Y-124202667D01*
X163230000Y-124880000D01*
X162552667Y-124880000D01*
X162552667Y-124202667D01*
X163230000Y-124202667D01*
X163568667Y-124202667D01*
X163568667Y-123864000D01*
X161875333Y-123864000D01*
X161875333Y-125557333D01*
G04 #@! TD*
G04 #@! TO.C,U2*
D11*
X169652380Y-109438095D02*
X170461904Y-109438095D01*
X170557142Y-109485714D01*
X170604761Y-109533333D01*
X170652380Y-109628571D01*
X170652380Y-109819047D01*
X170604761Y-109914285D01*
X170557142Y-109961904D01*
X170461904Y-110009523D01*
X169652380Y-110009523D01*
X169747619Y-110438095D02*
X169700000Y-110485714D01*
X169652380Y-110580952D01*
X169652380Y-110819047D01*
X169700000Y-110914285D01*
X169747619Y-110961904D01*
X169842857Y-111009523D01*
X169938095Y-111009523D01*
X170080952Y-110961904D01*
X170652380Y-110390476D01*
X170652380Y-111009523D01*
G04 #@! TO.C,R5*
X168166666Y-118052380D02*
X168500000Y-117576190D01*
X168738095Y-118052380D02*
X168738095Y-117052380D01*
X168357142Y-117052380D01*
X168261904Y-117100000D01*
X168214285Y-117147619D01*
X168166666Y-117242857D01*
X168166666Y-117385714D01*
X168214285Y-117480952D01*
X168261904Y-117528571D01*
X168357142Y-117576190D01*
X168738095Y-117576190D01*
X167261904Y-117052380D02*
X167738095Y-117052380D01*
X167785714Y-117528571D01*
X167738095Y-117480952D01*
X167642857Y-117433333D01*
X167404761Y-117433333D01*
X167309523Y-117480952D01*
X167261904Y-117528571D01*
X167214285Y-117623809D01*
X167214285Y-117861904D01*
X167261904Y-117957142D01*
X167309523Y-118004761D01*
X167404761Y-118052380D01*
X167642857Y-118052380D01*
X167738095Y-118004761D01*
X167785714Y-117957142D01*
G04 #@! TO.C,Q1*
X178252380Y-112695238D02*
X178300000Y-112790476D01*
X178395238Y-112885714D01*
X178538095Y-113028571D01*
X178585714Y-113123809D01*
X178585714Y-113219047D01*
X178347619Y-113171428D02*
X178395238Y-113266666D01*
X178490476Y-113361904D01*
X178680952Y-113409523D01*
X179014285Y-113409523D01*
X179204761Y-113361904D01*
X179300000Y-113266666D01*
X179347619Y-113171428D01*
X179347619Y-112980952D01*
X179300000Y-112885714D01*
X179204761Y-112790476D01*
X179014285Y-112742857D01*
X178680952Y-112742857D01*
X178490476Y-112790476D01*
X178395238Y-112885714D01*
X178347619Y-112980952D01*
X178347619Y-113171428D01*
X178347619Y-111790476D02*
X178347619Y-112361904D01*
X178347619Y-112076190D02*
X179347619Y-112076190D01*
X179204761Y-112171428D01*
X179109523Y-112266666D01*
X179061904Y-112361904D01*
G04 #@! TO.C,Cinx1*
X182761904Y-120457142D02*
X182809523Y-120504761D01*
X182952380Y-120552380D01*
X183047619Y-120552380D01*
X183190476Y-120504761D01*
X183285714Y-120409523D01*
X183333333Y-120314285D01*
X183380952Y-120123809D01*
X183380952Y-119980952D01*
X183333333Y-119790476D01*
X183285714Y-119695238D01*
X183190476Y-119600000D01*
X183047619Y-119552380D01*
X182952380Y-119552380D01*
X182809523Y-119600000D01*
X182761904Y-119647619D01*
X182333333Y-120552380D02*
X182333333Y-119885714D01*
X182333333Y-119552380D02*
X182380952Y-119600000D01*
X182333333Y-119647619D01*
X182285714Y-119600000D01*
X182333333Y-119552380D01*
X182333333Y-119647619D01*
X181857142Y-119885714D02*
X181857142Y-120552380D01*
X181857142Y-119980952D02*
X181809523Y-119933333D01*
X181714285Y-119885714D01*
X181571428Y-119885714D01*
X181476190Y-119933333D01*
X181428571Y-120028571D01*
X181428571Y-120552380D01*
X181047619Y-120552380D02*
X180523809Y-119885714D01*
X181047619Y-119885714D02*
X180523809Y-120552380D01*
X179619047Y-120552380D02*
X180190476Y-120552380D01*
X179904761Y-120552380D02*
X179904761Y-119552380D01*
X180000000Y-119695238D01*
X180095238Y-119790476D01*
X180190476Y-119838095D01*
G04 #@! TO.C,Cin1*
X183144642Y-117657142D02*
X183192261Y-117704761D01*
X183335119Y-117752380D01*
X183430357Y-117752380D01*
X183573214Y-117704761D01*
X183668452Y-117609523D01*
X183716071Y-117514285D01*
X183763690Y-117323809D01*
X183763690Y-117180952D01*
X183716071Y-116990476D01*
X183668452Y-116895238D01*
X183573214Y-116800000D01*
X183430357Y-116752380D01*
X183335119Y-116752380D01*
X183192261Y-116800000D01*
X183144642Y-116847619D01*
X182716071Y-117752380D02*
X182716071Y-117085714D01*
X182716071Y-116752380D02*
X182763690Y-116800000D01*
X182716071Y-116847619D01*
X182668452Y-116800000D01*
X182716071Y-116752380D01*
X182716071Y-116847619D01*
X182239880Y-117085714D02*
X182239880Y-117752380D01*
X182239880Y-117180952D02*
X182192261Y-117133333D01*
X182097023Y-117085714D01*
X181954166Y-117085714D01*
X181858928Y-117133333D01*
X181811309Y-117228571D01*
X181811309Y-117752380D01*
X180811309Y-117752380D02*
X181382738Y-117752380D01*
X181097023Y-117752380D02*
X181097023Y-116752380D01*
X181192261Y-116895238D01*
X181287500Y-116990476D01*
X181382738Y-117038095D01*
G04 #@! TO.C,Ren1*
X172247619Y-120452380D02*
X172580952Y-119976190D01*
X172819047Y-120452380D02*
X172819047Y-119452380D01*
X172438095Y-119452380D01*
X172342857Y-119500000D01*
X172295238Y-119547619D01*
X172247619Y-119642857D01*
X172247619Y-119785714D01*
X172295238Y-119880952D01*
X172342857Y-119928571D01*
X172438095Y-119976190D01*
X172819047Y-119976190D01*
X171438095Y-120404761D02*
X171533333Y-120452380D01*
X171723809Y-120452380D01*
X171819047Y-120404761D01*
X171866666Y-120309523D01*
X171866666Y-119928571D01*
X171819047Y-119833333D01*
X171723809Y-119785714D01*
X171533333Y-119785714D01*
X171438095Y-119833333D01*
X171390476Y-119928571D01*
X171390476Y-120023809D01*
X171866666Y-120119047D01*
X170961904Y-119785714D02*
X170961904Y-120452380D01*
X170961904Y-119880952D02*
X170914285Y-119833333D01*
X170819047Y-119785714D01*
X170676190Y-119785714D01*
X170580952Y-119833333D01*
X170533333Y-119928571D01*
X170533333Y-120452380D01*
X169533333Y-120452380D02*
X170104761Y-120452380D01*
X169819047Y-120452380D02*
X169819047Y-119452380D01*
X169914285Y-119595238D01*
X170009523Y-119690476D01*
X170104761Y-119738095D01*
G04 #@! TO.C,R4*
X168166666Y-110452380D02*
X168500000Y-109976190D01*
X168738095Y-110452380D02*
X168738095Y-109452380D01*
X168357142Y-109452380D01*
X168261904Y-109500000D01*
X168214285Y-109547619D01*
X168166666Y-109642857D01*
X168166666Y-109785714D01*
X168214285Y-109880952D01*
X168261904Y-109928571D01*
X168357142Y-109976190D01*
X168738095Y-109976190D01*
X167309523Y-109785714D02*
X167309523Y-110452380D01*
X167547619Y-109404761D02*
X167785714Y-110119047D01*
X167166666Y-110119047D01*
G04 #@! TO.C,R3*
X176591666Y-116052380D02*
X176925000Y-115576190D01*
X177163095Y-116052380D02*
X177163095Y-115052380D01*
X176782142Y-115052380D01*
X176686904Y-115100000D01*
X176639285Y-115147619D01*
X176591666Y-115242857D01*
X176591666Y-115385714D01*
X176639285Y-115480952D01*
X176686904Y-115528571D01*
X176782142Y-115576190D01*
X177163095Y-115576190D01*
X176258333Y-115052380D02*
X175639285Y-115052380D01*
X175972619Y-115433333D01*
X175829761Y-115433333D01*
X175734523Y-115480952D01*
X175686904Y-115528571D01*
X175639285Y-115623809D01*
X175639285Y-115861904D01*
X175686904Y-115957142D01*
X175734523Y-116004761D01*
X175829761Y-116052380D01*
X176115476Y-116052380D01*
X176210714Y-116004761D01*
X176258333Y-115957142D01*
G04 #@! TO.C,R2*
X165766666Y-110452380D02*
X166100000Y-109976190D01*
X166338095Y-110452380D02*
X166338095Y-109452380D01*
X165957142Y-109452380D01*
X165861904Y-109500000D01*
X165814285Y-109547619D01*
X165766666Y-109642857D01*
X165766666Y-109785714D01*
X165814285Y-109880952D01*
X165861904Y-109928571D01*
X165957142Y-109976190D01*
X166338095Y-109976190D01*
X165385714Y-109547619D02*
X165338095Y-109500000D01*
X165242857Y-109452380D01*
X165004761Y-109452380D01*
X164909523Y-109500000D01*
X164861904Y-109547619D01*
X164814285Y-109642857D01*
X164814285Y-109738095D01*
X164861904Y-109880952D01*
X165433333Y-110452380D01*
X164814285Y-110452380D01*
G04 #@! TD*
M02*
